<?xml version="1.0" encoding="UTF-8" standalone="no"?>
<!-- Created with Inkscape (http://www.inkscape.org/) -->

<svg
   xmlns:ns0="http://www.iki.fi/pav/software/textext/"
   xmlns:dc="http://purl.org/dc/elements/1.1/"
   xmlns:cc="http://creativecommons.org/ns#"
   xmlns:rdf="http://www.w3.org/1999/02/22-rdf-syntax-ns#"
   xmlns:svg="http://www.w3.org/2000/svg"
   xmlns="http://www.w3.org/2000/svg"
   xmlns:xlink="http://www.w3.org/1999/xlink"
   xmlns:sodipodi="http://sodipodi.sourceforge.net/DTD/sodipodi-0.dtd"
   xmlns:inkscape="http://www.inkscape.org/namespaces/inkscape"
   width="162.79295"
   height="117.86641"
   id="svg2"
   version="1.1"
   inkscape:version="0.92.3 (2405546, 2018-03-11)"
   sodipodi:docname="CV_10_2.svg">
  <sodipodi:namedview
     id="base"
     pagecolor="#ffffff"
     bordercolor="#666666"
     borderopacity="1.0"
     inkscape:pageopacity="0.0"
     inkscape:pageshadow="2"
     inkscape:zoom="1.979899"
     inkscape:cx="125.31377"
     inkscape:cy="121.43555"
     inkscape:document-units="px"
     inkscape:current-layer="layer1"
     showgrid="false"
     inkscape:window-width="1853"
     inkscape:window-height="1016"
     inkscape:window-x="67"
     inkscape:window-y="27"
     inkscape:window-maximized="1"
     fit-margin-top="0"
     fit-margin-left="0"
     fit-margin-right="0"
     fit-margin-bottom="0" />
  <defs
     id="defs4" />
  <metadata
     id="metadata7">
    <rdf:RDF>
      <cc:Work
         rdf:about="">
        <dc:format>image/svg+xml</dc:format>
        <dc:type
           rdf:resource="http://purl.org/dc/dcmitype/StillImage" />
        <dc:title></dc:title>
      </cc:Work>
    </rdf:RDF>
  </metadata>
  <g
     transform="translate(-563.59334,-328.42717)"
     id="layer1"
     inkscape:groupmode="layer"
     inkscape:label="Layer 1">
    <rect
       style="fill:#4f81bd;fill-opacity:1;stroke:none"
       id="rect6276"
       width="71.060585"
       height="101.64719"
       x="635.22754"
       y="343.93436" />
    <rect
       y="353.97757"
       x="635.54639"
       height="10.021346"
       width="71.060585"
       id="rect6243-5"
       style="fill:#fe9252;fill-opacity:1;stroke:none" />
    <rect
       y="344.13419"
       x="635.26746"
       height="101.64719"
       width="71.060585"
       id="rect6243"
       style="fill:none;stroke:#000000;stroke-width:1;stroke-linecap:round;stroke-linejoin:round;stroke-miterlimit:5;stroke-opacity:1;stroke-dasharray:none;stroke-dashoffset:0" />
    <path
       inkscape:connector-curvature="0"
       id="path6245"
       d="m 635.25409,354.31972 71.48825,0"
       style="fill:none;stroke:#000000;stroke-width:1;stroke-linecap:butt;stroke-linejoin:miter;stroke-miterlimit:4;stroke-opacity:1;stroke-dasharray:none" />
    <path
       inkscape:connector-curvature="0"
       id="path6249"
       d="m 635.25409,364.50524 71.48825,0"
       style="fill:none;stroke:#000000;stroke-width:1;stroke-linecap:butt;stroke-linejoin:miter;stroke-miterlimit:4;stroke-opacity:1;stroke-dasharray:none" />
    <rect
       y="372.21567"
       x="563.97321"
       height="10.021346"
       width="14.430057"
       id="rect6243-5-9"
       style="fill:#fe9252;fill-opacity:1;stroke:#000000;stroke-width:0.7771396;stroke-linejoin:round;stroke-miterlimit:4;stroke-opacity:1;stroke-dasharray:none" />
    <rect
       style="fill:#4f81bd;fill-opacity:1;stroke:#000000;stroke-width:0.7771396;stroke-linejoin:round;stroke-miterlimit:4;stroke-opacity:1;stroke-dasharray:none"
       id="rect6335"
       width="14.430057"
       height="10.021346"
       x="563.97321"
       y="389.03226" />
    <text
       id="text6337"
       y="380.49161"
       x="586.53717"
       style="font-style:normal;font-weight:normal;line-height:0%;font-family:sans-serif;letter-spacing:0px;word-spacing:0px;fill:#000000;fill-opacity:1;stroke:none"
       xml:space="preserve"><tspan
         id="tspan6341"
         y="380.49161"
         x="586.53717"
         sodipodi:role="line"
         style="font-size:8.75863266px;line-height:1.25;font-family:sans-serif">Validation</tspan></text>
    <text
       xml:space="preserve"
       style="font-style:normal;font-weight:normal;line-height:0%;font-family:sans-serif;letter-spacing:0px;word-spacing:0px;fill:#000000;fill-opacity:1;stroke:none"
       x="586.53717"
       y="397.30814"
       id="text6343"><tspan
         sodipodi:role="line"
         id="tspan6345"
         x="586.53717"
         y="397.30814"
         style="font-size:8.75863266px;line-height:1.25;font-family:sans-serif">Training</tspan><tspan
         sodipodi:role="line"
         x="586.53717"
         y="403.62427"
         id="tspan6347"
         style="font-size:8.75863266px;line-height:1.25;font-family:sans-serif" /></text>
    <g
       id="g6378"
       ns0:preamble=""
       ns0:text="$X$">
      <defs
         id="defs6380">
        <g
           id="g6382">
          <symbol
             id="textext-8cdf3b74-0"
             overflow="visible"
             style="overflow:visible">
            <path
               id="path6385"
               d=""
               style="stroke:none"
               inkscape:connector-curvature="0" />
          </symbol>
          <symbol
             id="textext-8cdf3b74-1"
             overflow="visible"
             style="overflow:visible">
            <path
               id="path6388"
               d="M 4.828125,-4.09375 4,-6.078125 c -0.03125,-0.078125 -0.046875,-0.125 -0.046875,-0.125 0,-0.0625 0.15625,-0.25 0.578125,-0.296875 0.109375,-0.015625 0.203125,-0.015625 0.203125,-0.1875 0,-0.125 -0.125,-0.125 -0.15625,-0.125 -0.40625,0 -0.828125,0.03125 -1.25,0.03125 -0.25,0 -0.859375,-0.03125 -1.109375,-0.03125 -0.0625,0 -0.1875,0 -0.1875,0.203125 C 2.03125,-6.5 2.140625,-6.5 2.265625,-6.5 c 0.59375,0 0.65625,0.09375 0.75,0.3125 l 1.171875,2.78125 -2.109375,2.265625 -0.125,0.109375 C 1.46875,-0.5 1,-0.34375 0.484375,-0.3125 c -0.125,0.015625 -0.21875,0.015625 -0.21875,0.203125 0,0.015625 0,0.109375 0.140625,0.109375 0.296875,0 0.625,-0.03125 0.921875,-0.03125 C 1.703125,-0.03125 2.09375,0 2.453125,0 2.515625,0 2.625,0 2.625,-0.203125 2.625,-0.296875 2.53125,-0.3125 2.515625,-0.3125 c -0.09375,0 -0.40625,-0.03125 -0.40625,-0.3125 0,-0.15625 0.15625,-0.3125 0.265625,-0.4375 L 3.40625,-2.140625 4.296875,-3.125 l 1,2.390625 c 0.046875,0.109375 0.0625,0.109375 0.0625,0.140625 0,0.078125 -0.203125,0.25 -0.578125,0.28125 C 4.671875,-0.296875 4.578125,-0.296875 4.578125,-0.125 4.578125,0 4.6875,0 4.71875,0 5,0 5.703125,-0.03125 5.984375,-0.03125 6.234375,-0.03125 6.84375,0 7.09375,0 c 0.0625,0 0.1875,0 0.1875,-0.1875 0,-0.125 -0.109375,-0.125 -0.1875,-0.125 -0.65625,0 -0.6875,-0.03125 -0.859375,-0.4375 C 5.859375,-1.671875 5.1875,-3.234375 4.953125,-3.828125 5.625,-4.53125 6.671875,-5.71875 7,-5.984375 7.28125,-6.234375 7.671875,-6.46875 8.265625,-6.5 c 0.125,-0.015625 0.21875,-0.015625 0.21875,-0.203125 0,0 0,-0.109375 -0.125,-0.109375 -0.296875,0 -0.640625,0.03125 -0.9375,0.03125 -0.375,0 -0.75,-0.03125 -1.109375,-0.03125 -0.0625,0 -0.1875,0 -0.1875,0.203125 0,0.0625 0.046875,0.09375 0.109375,0.109375 0.09375,0.015625 0.40625,0.03125 0.40625,0.3125 0,0.140625 -0.109375,0.265625 -0.1875,0.359375 z m 0,0"
               style="stroke:none"
               inkscape:connector-curvature="0" />
          </symbol>
        </g>
      </defs>
      <g
         id="textext-8cdf3b74-2">
        <g
           id="g6391"
           style="fill:#000000;fill-opacity:1">
          <use
             id="use6393"
             y="134.765"
             x="223.43201"
             xlink:href="#textext-8cdf3b74-1"
             width="1196.9348"
             height="585.28436" />
        </g>
      </g>
    </g>
    <g
       transform="translate(445.47727,200.47467)"
       ns0:text="$X$"
       ns0:preamble=""
       id="g6467">
      <defs
         id="defs6469">
        <g
           id="g6471">
          <symbol
             overflow="visible"
             id="symbol6473"
             style="overflow:visible">
            <path
               style="stroke:none"
               d=""
               id="path6475"
               inkscape:connector-curvature="0" />
          </symbol>
          <symbol
             overflow="visible"
             id="symbol6477"
             style="overflow:visible">
            <path
               style="stroke:none"
               d="M 4.828125,-4.09375 4,-6.078125 c -0.03125,-0.078125 -0.046875,-0.125 -0.046875,-0.125 0,-0.0625 0.15625,-0.25 0.578125,-0.296875 0.109375,-0.015625 0.203125,-0.015625 0.203125,-0.1875 0,-0.125 -0.125,-0.125 -0.15625,-0.125 -0.40625,0 -0.828125,0.03125 -1.25,0.03125 -0.25,0 -0.859375,-0.03125 -1.109375,-0.03125 -0.0625,0 -0.1875,0 -0.1875,0.203125 C 2.03125,-6.5 2.140625,-6.5 2.265625,-6.5 c 0.59375,0 0.65625,0.09375 0.75,0.3125 l 1.171875,2.78125 -2.109375,2.265625 -0.125,0.109375 C 1.46875,-0.5 1,-0.34375 0.484375,-0.3125 c -0.125,0.015625 -0.21875,0.015625 -0.21875,0.203125 0,0.015625 0,0.109375 0.140625,0.109375 0.296875,0 0.625,-0.03125 0.921875,-0.03125 C 1.703125,-0.03125 2.09375,0 2.453125,0 2.515625,0 2.625,0 2.625,-0.203125 2.625,-0.296875 2.53125,-0.3125 2.515625,-0.3125 c -0.09375,0 -0.40625,-0.03125 -0.40625,-0.3125 0,-0.15625 0.15625,-0.3125 0.265625,-0.4375 L 3.40625,-2.140625 4.296875,-3.125 l 1,2.390625 c 0.046875,0.109375 0.0625,0.109375 0.0625,0.140625 0,0.078125 -0.203125,0.25 -0.578125,0.28125 C 4.671875,-0.296875 4.578125,-0.296875 4.578125,-0.125 4.578125,0 4.6875,0 4.71875,0 5,0 5.703125,-0.03125 5.984375,-0.03125 6.234375,-0.03125 6.84375,0 7.09375,0 c 0.0625,0 0.1875,0 0.1875,-0.1875 0,-0.125 -0.109375,-0.125 -0.1875,-0.125 -0.65625,0 -0.6875,-0.03125 -0.859375,-0.4375 C 5.859375,-1.671875 5.1875,-3.234375 4.953125,-3.828125 5.625,-4.53125 6.671875,-5.71875 7,-5.984375 7.28125,-6.234375 7.671875,-6.46875 8.265625,-6.5 c 0.125,-0.015625 0.21875,-0.015625 0.21875,-0.203125 0,0 0,-0.109375 -0.125,-0.109375 -0.296875,0 -0.640625,0.03125 -0.9375,0.03125 -0.375,0 -0.75,-0.03125 -1.109375,-0.03125 -0.0625,0 -0.1875,0 -0.1875,0.203125 0,0.0625 0.046875,0.09375 0.109375,0.109375 0.09375,0.015625 0.40625,0.03125 0.40625,0.3125 0,0.140625 -0.109375,0.265625 -0.1875,0.359375 z m 0,0"
               id="path6479"
               inkscape:connector-curvature="0" />
          </symbol>
        </g>
      </defs>
      <g
         id="g6481">
        <g
           style="fill:#000000;fill-opacity:1"
           id="g6483">
          <use
             xlink:href="#textext-8cdf3b74-1"
             x="223.43201"
             y="134.765"
             id="use6485"
             width="1196.9348"
             height="585.28436" />
        </g>
      </g>
    </g>
    <rect
       y="344.13419"
       x="719.22754"
       height="101.64719"
       width="5.2410784"
       id="rect6651"
       style="fill:#4f81bd;fill-opacity:1;stroke:#000000;stroke-linejoin:round;stroke-opacity:1" />
    <rect
       y="354.58649"
       x="719.75946"
       height="10.021346"
       width="4.2748699"
       id="rect6243-5-3"
       style="fill:#fe9252;fill-opacity:1;stroke:none" />
    <path
       style="fill:none;stroke:#000000;stroke-width:1;stroke-linecap:butt;stroke-linejoin:miter;stroke-miterlimit:4;stroke-opacity:1;stroke-dasharray:none"
       d="m 719.2295,354.51955 5.27262,0"
       id="path6657"
       inkscape:connector-curvature="0" />
    <path
       style="fill:none;stroke:#000000;stroke-width:1;stroke-linecap:butt;stroke-linejoin:miter;stroke-miterlimit:4;stroke-opacity:1;stroke-dasharray:none"
       d="m 719.2295,364.70507 5.27262,0"
       id="path6661"
       inkscape:connector-curvature="0" />
    <g
       id="g4886"
       transform="translate(495.36054,200.47467)"
       ns0:preamble="/home/jo/Documents/Mes_cours/Telecom/MDI220/git_ecole/mdi220/cours/cours5/srcimages/preambule.ini"
       ns0:text="$\\by$">
      <defs
         id="defs4888">
        <g
           id="g4890">
          <symbol
             id="textext-1f35017f-0"
             overflow="visible">
            <path
               id="path4893"
               d=""
               style="stroke:none;" />
          </symbol>
          <symbol
             id="textext-1f35017f-1"
             overflow="visible">
            <path
               id="path4896"
               d="M 5.046875 -3.75 C 5.109375 -3.890625 5.140625 -3.953125 5.78125 -3.953125 L 5.78125 -4.421875 C 5.546875 -4.40625 5.25 -4.390625 5 -4.390625 C 4.75 -4.390625 4.296875 -4.421875 4.09375 -4.421875 L 4.09375 -3.953125 C 4.109375 -3.953125 4.5625 -3.953125 4.5625 -3.84375 C 4.5625 -3.828125 4.515625 -3.734375 4.5 -3.71875 L 3.359375 -1.265625 L 2.09375 -3.953125 L 2.625 -3.953125 L 2.625 -4.421875 C 2.296875 -4.40625 1.40625 -4.390625 1.390625 -4.390625 C 1.109375 -4.390625 0.671875 -4.421875 0.265625 -4.421875 L 0.265625 -3.953125 L 0.890625 -3.953125 L 2.765625 0 L 2.53125 0.484375 C 2.3125 0.953125 2 1.640625 1.28125 1.640625 C 1.140625 1.640625 1.125 1.625 1.046875 1.59375 C 1.140625 1.5625 1.359375 1.421875 1.359375 1.0625 C 1.359375 0.734375 1.125 0.5 0.78125 0.5 C 0.515625 0.5 0.21875 0.6875 0.21875 1.078125 C 0.21875 1.578125 0.6875 2 1.28125 2 C 2.046875 2 2.625 1.375 2.90625 0.8125 Z M 5.046875 -3.75 "
               style="stroke:none;" />
          </symbol>
        </g>
      </defs>
      <g
         id="textext-1f35017f-2">
        <g
           id="g4899"
           style="fill:rgb(0%,0%,0%);fill-opacity:1;">
          <use
             id="use4901"
             y="134.765"
             x="223.432"
             xlink:href="#textext-1f35017f-1" />
        </g>
      </g>
    </g>
  </g>
</svg>
