<?xml version="1.0" encoding="UTF-8" standalone="no"?>
<!-- Created with Inkscape (http://www.inkscape.org/) -->

<svg
   xmlns:ns0="http://www.iki.fi/pav/software/textext/"
   xmlns:dc="http://purl.org/dc/elements/1.1/"
   xmlns:cc="http://creativecommons.org/ns#"
   xmlns:rdf="http://www.w3.org/1999/02/22-rdf-syntax-ns#"
   xmlns:svg="http://www.w3.org/2000/svg"
   xmlns="http://www.w3.org/2000/svg"
   xmlns:xlink="http://www.w3.org/1999/xlink"
   xmlns:sodipodi="http://sodipodi.sourceforge.net/DTD/sodipodi-0.dtd"
   xmlns:inkscape="http://www.inkscape.org/namespaces/inkscape"
   sodipodi:docname="depth_level_sets_full.svg"
   inkscape:version="0.92.2 (5c3e80d, 2017-08-06)"
   id="svg8"
   version="1.1"
   viewBox="0 0 25.312214 18.278988"
   height="18.278988mm"
   width="25.312214mm">
  <sodipodi:namedview
     inkscape:window-maximized="1"
     inkscape:window-y="27"
     inkscape:window-x="67"
     inkscape:window-height="1025"
     inkscape:window-width="1853"
     fit-margin-bottom="0"
     fit-margin-right="0"
     fit-margin-left="0"
     fit-margin-top="0"
     inkscape:bbox-paths="true"
     inkscape:snap-bbox-midpoints="true"
     inkscape:bbox-nodes="false"
     inkscape:snap-bbox="false"
     showgrid="true"
     inkscape:current-layer="svg8"
     inkscape:document-units="mm"
     inkscape:cy="20.080778"
     inkscape:cx="86.678034"
     inkscape:zoom="8.0000004"
     inkscape:pageshadow="2"
     inkscape:pageopacity="0.0"
     borderopacity="1.0"
     bordercolor="#666666"
     pagecolor="#ffffff"
     id="base"
     inkscape:snap-global="false">
    <inkscape:grid
       type="xygrid"
       id="grid815"
       originx="-108.21458"
       originy="-74.3479" />
  </sodipodi:namedview>
  <defs
     id="defs2">
    <g
       id="g1528">
      <symbol
         style="overflow:visible"
         overflow="visible"
         id="textext-124a5858-0">
        <path
           inkscape:connector-curvature="0"
           style="stroke:none"
           d=""
           id="path1501" />
      </symbol>
      <symbol
         style="overflow:visible"
         overflow="visible"
         id="textext-124a5858-1">
        <path
           inkscape:connector-curvature="0"
           style="stroke:none"
           d="m 4.328125,-6.921875 h -0.75 v 2.9375 C 3.046875,-4.421875 2.5,-4.53125 2.125,-4.53125 c -0.984375,0 -1.765625,1.03125 -1.765625,2.3125 0,1.3125 0.765625,2.328125 1.71875,2.328125 0.328125,0 0.90625,-0.09375 1.46875,-0.625 V 0 h 0.78125 z m -0.78125,5.53125 C 3.546875,-1.25 3.53125,-1.0625 3.21875,-0.78125 2.984375,-0.578125 2.734375,-0.5 2.484375,-0.5 c -0.625,0 -1.34375,-0.46875 -1.34375,-1.703125 0,-1.3125 0.859375,-1.71875 1.4375,-1.71875 0.453125,0 0.75,0.21875 0.96875,0.546875 z m 0,0"
           id="path1504" />
      </symbol>
      <symbol
         style="overflow:visible"
         overflow="visible"
         id="textext-124a5858-2">
        <path
           inkscape:connector-curvature="0"
           style="stroke:none"
           d="M 4.125,-2.1875 C 4.125,-2.515625 4.109375,-3.265625 3.734375,-3.875 3.3125,-4.484375 2.71875,-4.59375 2.359375,-4.59375 1.25,-4.59375 0.34375,-3.53125 0.34375,-2.25 c 0,1.3125 0.96875,2.359375 2.15625,2.359375 0.625,0 1.203125,-0.234375 1.59375,-0.515625 L 4.03125,-1.0625 C 3.40625,-0.53125 2.734375,-0.5 2.515625,-0.5 1.71875,-0.5 1.078125,-1.203125 1.046875,-2.1875 Z M 1.09375,-2.734375 c 0.15625,-0.75 0.6875,-1.25 1.265625,-1.25 0.515625,0 1.0625,0.328125 1.203125,1.25 z m 0,0"
           id="path1507" />
      </symbol>
      <symbol
         style="overflow:visible"
         overflow="visible"
         id="textext-124a5858-3">
        <path
           inkscape:connector-curvature="0"
           style="stroke:none"
           d="m 1.59375,-0.453125 c 0.3125,0.28125 0.75,0.5625 1.34375,0.5625 0.96875,0 1.84375,-0.984375 1.84375,-2.328125 0,-1.203125 -0.625,-2.3125 -1.578125,-2.3125 -0.59375,0 -1.171875,0.203125 -1.640625,0.59375 v -0.484375 h -0.75 V 1.9375 h 0.78125 z m 0,-2.859375 c 0.234375,-0.359375 0.625,-0.578125 1.0625,-0.578125 0.75,0 1.34375,0.75 1.34375,1.671875 C 4,-1.203125 3.296875,-0.5 2.546875,-0.5 2.15625,-0.5 1.890625,-0.703125 1.6875,-0.96875 1.59375,-1.109375 1.59375,-1.140625 1.59375,-1.3125 Z m 0,0"
           id="path1510" />
      </symbol>
      <symbol
         style="overflow:visible"
         overflow="visible"
         id="textext-124a5858-4">
        <path
           inkscape:connector-curvature="0"
           style="stroke:none"
           d="M 1.75,-3.84375 H 3.15625 V -4.421875 H 1.75 V -5.6875 H 1.0625 v 1.265625 h -0.875 v 0.578125 h 0.84375 v 2.65625 c 0,0.59375 0.140625,1.296875 0.828125,1.296875 0.6875,0 1.203125,-0.25 1.453125,-0.375 L 3.15625,-0.859375 C 2.890625,-0.640625 2.578125,-0.53125 2.25,-0.53125 c -0.359375,0 -0.5,-0.296875 -0.5,-0.828125 z m 0,0"
           id="path1513" />
      </symbol>
      <symbol
         style="overflow:visible"
         overflow="visible"
         id="textext-124a5858-5">
        <path
           inkscape:connector-curvature="0"
           style="stroke:none"
           d="m 4.34375,-2.96875 c 0,-0.65625 -0.15625,-1.5625 -1.375,-1.5625 -0.609375,0 -1.09375,0.296875 -1.40625,0.71875 v -3.109375 h -0.75 V 0 h 0.765625 v -2.4375 c 0,-0.65625 0.25,-1.484375 1.015625,-1.484375 0.953125,0 0.96875,0.703125 0.96875,1.015625 V 0 h 0.78125 z m 0,0"
           id="path1516" />
      </symbol>
      <symbol
         style="overflow:visible"
         overflow="visible"
         id="textext-124a5858-6">
        <path
           inkscape:connector-curvature="0"
           style="stroke:none"
           d="m 4.5625,-3.25 c 0,-0.78125 -0.046875,-1.71875 -0.46875,-2.515625 -0.40625,-0.75 -1.09375,-1 -1.59375,-1 -0.59375,0 -1.296875,0.28125 -1.703125,1.15625 -0.328125,0.734375 -0.375,1.5625 -0.375,2.359375 0,0.78125 0.03125,1.515625 0.328125,2.25 0.40625,0.953125 1.15625,1.21875 1.734375,1.21875 0.71875,0 1.359375,-0.40625 1.671875,-1.09375 C 4.453125,-1.53125 4.5625,-2.1875 4.5625,-3.25 Z M 2.5,-0.390625 c -0.53125,0 -0.9375,-0.375 -1.140625,-1.09375 -0.15625,-0.5625 -0.15625,-1.109375 -0.15625,-1.890625 0,-0.625 0,-1.21875 0.15625,-1.765625 0.0625,-0.1875 0.3125,-1.015625 1.125,-1.015625 0.78125,0 1.03125,0.765625 1.109375,0.9375 0.1875,0.5625 0.1875,1.234375 0.1875,1.84375 0,0.65625 0,1.296875 -0.1875,1.921875 -0.25,0.90625 -0.78125,1.0625 -1.09375,1.0625 z m 0,0"
           id="path1519" />
      </symbol>
      <symbol
         style="overflow:visible"
         overflow="visible"
         id="textext-124a5858-7">
        <path
           inkscape:connector-curvature="0"
           style="stroke:none"
           d=""
           id="path1522" />
      </symbol>
      <symbol
         style="overflow:visible"
         overflow="visible"
         id="textext-124a5858-8">
        <path
           inkscape:connector-curvature="0"
           style="stroke:none"
           d="m 6.84375,-3.265625 c 0.15625,0 0.34375,0 0.34375,-0.1875 C 7.1875,-3.65625 7,-3.65625 6.859375,-3.65625 h -5.96875 c -0.140625,0 -0.328125,0 -0.328125,0.203125 0,0.1875 0.1875,0.1875 0.328125,0.1875 z m 0.015625,1.9375 c 0.140625,0 0.328125,0 0.328125,-0.203125 0,-0.1875 -0.1875,-0.1875 -0.34375,-0.1875 H 0.890625 c -0.140625,0 -0.328125,0 -0.328125,0.1875 0,0.203125 0.1875,0.203125 0.328125,0.203125 z m 0,0"
           id="path1525" />
      </symbol>
    </g>
    <g
       id="g1980">
      <symbol
         style="overflow:visible"
         id="textext-659a5251-0"
         overflow="visible">
        <path
           inkscape:connector-curvature="0"
           id="path1953"
           d=""
           style="stroke:none" />
      </symbol>
      <symbol
         style="overflow:visible"
         id="textext-659a5251-1"
         overflow="visible">
        <path
           inkscape:connector-curvature="0"
           id="path1956"
           d="m 4.328125,-6.921875 h -0.75 v 2.9375 C 3.046875,-4.421875 2.5,-4.53125 2.125,-4.53125 c -0.984375,0 -1.765625,1.03125 -1.765625,2.3125 0,1.3125 0.765625,2.328125 1.71875,2.328125 0.328125,0 0.90625,-0.09375 1.46875,-0.625 V 0 h 0.78125 z m -0.78125,5.53125 C 3.546875,-1.25 3.53125,-1.0625 3.21875,-0.78125 2.984375,-0.578125 2.734375,-0.5 2.484375,-0.5 c -0.625,0 -1.34375,-0.46875 -1.34375,-1.703125 0,-1.3125 0.859375,-1.71875 1.4375,-1.71875 0.453125,0 0.75,0.21875 0.96875,0.546875 z m 0,0"
           style="stroke:none" />
      </symbol>
      <symbol
         style="overflow:visible"
         id="textext-659a5251-2"
         overflow="visible">
        <path
           inkscape:connector-curvature="0"
           id="path1959"
           d="M 4.125,-2.1875 C 4.125,-2.515625 4.109375,-3.265625 3.734375,-3.875 3.3125,-4.484375 2.71875,-4.59375 2.359375,-4.59375 1.25,-4.59375 0.34375,-3.53125 0.34375,-2.25 c 0,1.3125 0.96875,2.359375 2.15625,2.359375 0.625,0 1.203125,-0.234375 1.59375,-0.515625 L 4.03125,-1.0625 C 3.40625,-0.53125 2.734375,-0.5 2.515625,-0.5 1.71875,-0.5 1.078125,-1.203125 1.046875,-2.1875 Z M 1.09375,-2.734375 c 0.15625,-0.75 0.6875,-1.25 1.265625,-1.25 0.515625,0 1.0625,0.328125 1.203125,1.25 z m 0,0"
           style="stroke:none" />
      </symbol>
      <symbol
         style="overflow:visible"
         id="textext-659a5251-3"
         overflow="visible">
        <path
           inkscape:connector-curvature="0"
           id="path1962"
           d="m 1.59375,-0.453125 c 0.3125,0.28125 0.75,0.5625 1.34375,0.5625 0.96875,0 1.84375,-0.984375 1.84375,-2.328125 0,-1.203125 -0.625,-2.3125 -1.578125,-2.3125 -0.59375,0 -1.171875,0.203125 -1.640625,0.59375 v -0.484375 h -0.75 V 1.9375 h 0.78125 z m 0,-2.859375 c 0.234375,-0.359375 0.625,-0.578125 1.0625,-0.578125 0.75,0 1.34375,0.75 1.34375,1.671875 C 4,-1.203125 3.296875,-0.5 2.546875,-0.5 2.15625,-0.5 1.890625,-0.703125 1.6875,-0.96875 1.59375,-1.109375 1.59375,-1.140625 1.59375,-1.3125 Z m 0,0"
           style="stroke:none" />
      </symbol>
      <symbol
         style="overflow:visible"
         id="textext-659a5251-4"
         overflow="visible">
        <path
           inkscape:connector-curvature="0"
           id="path1965"
           d="M 1.75,-3.84375 H 3.15625 V -4.421875 H 1.75 V -5.6875 H 1.0625 v 1.265625 h -0.875 v 0.578125 h 0.84375 v 2.65625 c 0,0.59375 0.140625,1.296875 0.828125,1.296875 0.6875,0 1.203125,-0.25 1.453125,-0.375 L 3.15625,-0.859375 C 2.890625,-0.640625 2.578125,-0.53125 2.25,-0.53125 c -0.359375,0 -0.5,-0.296875 -0.5,-0.828125 z m 0,0"
           style="stroke:none" />
      </symbol>
      <symbol
         style="overflow:visible"
         id="textext-659a5251-5"
         overflow="visible">
        <path
           inkscape:connector-curvature="0"
           id="path1968"
           d="m 4.34375,-2.96875 c 0,-0.65625 -0.15625,-1.5625 -1.375,-1.5625 -0.609375,0 -1.09375,0.296875 -1.40625,0.71875 v -3.109375 h -0.75 V 0 h 0.765625 v -2.4375 c 0,-0.65625 0.25,-1.484375 1.015625,-1.484375 0.953125,0 0.96875,0.703125 0.96875,1.015625 V 0 h 0.78125 z m 0,0"
           style="stroke:none" />
      </symbol>
      <symbol
         style="overflow:visible"
         id="textext-659a5251-6"
         overflow="visible">
        <path
           inkscape:connector-curvature="0"
           id="path1971"
           d="M 2.984375,-6.765625 H 2.78125 C 2.1875,-6.15625 1.359375,-6.125 0.890625,-6.09375 v 0.578125 C 1.21875,-5.53125 1.6875,-5.546875 2.1875,-5.765625 v 5.1875 H 0.953125 V 0 h 3.28125 v -0.578125 h -1.25 z m 0,0"
           style="stroke:none" />
      </symbol>
      <symbol
         style="overflow:visible"
         id="textext-659a5251-7"
         overflow="visible">
        <path
           inkscape:connector-curvature="0"
           id="path1974"
           d=""
           style="stroke:none" />
      </symbol>
      <symbol
         style="overflow:visible"
         id="textext-659a5251-8"
         overflow="visible">
        <path
           inkscape:connector-curvature="0"
           id="path1977"
           d="m 6.84375,-3.265625 c 0.15625,0 0.34375,0 0.34375,-0.1875 C 7.1875,-3.65625 7,-3.65625 6.859375,-3.65625 h -5.96875 c -0.140625,0 -0.328125,0 -0.328125,0.203125 0,0.1875 0.1875,0.1875 0.328125,0.1875 z m 0.015625,1.9375 c 0.140625,0 0.328125,0 0.328125,-0.203125 0,-0.1875 -0.1875,-0.1875 -0.34375,-0.1875 H 0.890625 c -0.140625,0 -0.328125,0 -0.328125,0.1875 0,0.203125 0.1875,0.203125 0.328125,0.203125 z m 0,0"
           style="stroke:none" />
      </symbol>
    </g>
    <g
       id="g2336">
      <symbol
         style="overflow:visible"
         overflow="visible"
         id="textext-2d4c938b-0">
        <path
           inkscape:connector-curvature="0"
           style="stroke:none"
           d=""
           id="path2309" />
      </symbol>
      <symbol
         style="overflow:visible"
         overflow="visible"
         id="textext-2d4c938b-1">
        <path
           inkscape:connector-curvature="0"
           style="stroke:none"
           d="m 4.328125,-6.921875 h -0.75 v 2.9375 C 3.046875,-4.421875 2.5,-4.53125 2.125,-4.53125 c -0.984375,0 -1.765625,1.03125 -1.765625,2.3125 0,1.3125 0.765625,2.328125 1.71875,2.328125 0.328125,0 0.90625,-0.09375 1.46875,-0.625 V 0 h 0.78125 z m -0.78125,5.53125 C 3.546875,-1.25 3.53125,-1.0625 3.21875,-0.78125 2.984375,-0.578125 2.734375,-0.5 2.484375,-0.5 c -0.625,0 -1.34375,-0.46875 -1.34375,-1.703125 0,-1.3125 0.859375,-1.71875 1.4375,-1.71875 0.453125,0 0.75,0.21875 0.96875,0.546875 z m 0,0"
           id="path2312" />
      </symbol>
      <symbol
         style="overflow:visible"
         overflow="visible"
         id="textext-2d4c938b-2">
        <path
           inkscape:connector-curvature="0"
           style="stroke:none"
           d="M 4.125,-2.1875 C 4.125,-2.515625 4.109375,-3.265625 3.734375,-3.875 3.3125,-4.484375 2.71875,-4.59375 2.359375,-4.59375 1.25,-4.59375 0.34375,-3.53125 0.34375,-2.25 c 0,1.3125 0.96875,2.359375 2.15625,2.359375 0.625,0 1.203125,-0.234375 1.59375,-0.515625 L 4.03125,-1.0625 C 3.40625,-0.53125 2.734375,-0.5 2.515625,-0.5 1.71875,-0.5 1.078125,-1.203125 1.046875,-2.1875 Z M 1.09375,-2.734375 c 0.15625,-0.75 0.6875,-1.25 1.265625,-1.25 0.515625,0 1.0625,0.328125 1.203125,1.25 z m 0,0"
           id="path2315" />
      </symbol>
      <symbol
         style="overflow:visible"
         overflow="visible"
         id="textext-2d4c938b-3">
        <path
           inkscape:connector-curvature="0"
           style="stroke:none"
           d="m 1.59375,-0.453125 c 0.3125,0.28125 0.75,0.5625 1.34375,0.5625 0.96875,0 1.84375,-0.984375 1.84375,-2.328125 0,-1.203125 -0.625,-2.3125 -1.578125,-2.3125 -0.59375,0 -1.171875,0.203125 -1.640625,0.59375 v -0.484375 h -0.75 V 1.9375 h 0.78125 z m 0,-2.859375 c 0.234375,-0.359375 0.625,-0.578125 1.0625,-0.578125 0.75,0 1.34375,0.75 1.34375,1.671875 C 4,-1.203125 3.296875,-0.5 2.546875,-0.5 2.15625,-0.5 1.890625,-0.703125 1.6875,-0.96875 1.59375,-1.109375 1.59375,-1.140625 1.59375,-1.3125 Z m 0,0"
           id="path2318" />
      </symbol>
      <symbol
         style="overflow:visible"
         overflow="visible"
         id="textext-2d4c938b-4">
        <path
           inkscape:connector-curvature="0"
           style="stroke:none"
           d="M 1.75,-3.84375 H 3.15625 V -4.421875 H 1.75 V -5.6875 H 1.0625 v 1.265625 h -0.875 v 0.578125 h 0.84375 v 2.65625 c 0,0.59375 0.140625,1.296875 0.828125,1.296875 0.6875,0 1.203125,-0.25 1.453125,-0.375 L 3.15625,-0.859375 C 2.890625,-0.640625 2.578125,-0.53125 2.25,-0.53125 c -0.359375,0 -0.5,-0.296875 -0.5,-0.828125 z m 0,0"
           id="path2321" />
      </symbol>
      <symbol
         style="overflow:visible"
         overflow="visible"
         id="textext-2d4c938b-5">
        <path
           inkscape:connector-curvature="0"
           style="stroke:none"
           d="m 4.34375,-2.96875 c 0,-0.65625 -0.15625,-1.5625 -1.375,-1.5625 -0.609375,0 -1.09375,0.296875 -1.40625,0.71875 v -3.109375 h -0.75 V 0 h 0.765625 v -2.4375 c 0,-0.65625 0.25,-1.484375 1.015625,-1.484375 0.953125,0 0.96875,0.703125 0.96875,1.015625 V 0 h 0.78125 z m 0,0"
           id="path2324" />
      </symbol>
      <symbol
         style="overflow:visible"
         overflow="visible"
         id="textext-2d4c938b-6">
        <path
           inkscape:connector-curvature="0"
           style="stroke:none"
           d="M 1.734375,-1.875 0.5,-0.640625 V 0 h 3.96875 v -0.703125 h -1.8125 c -0.109375,0 -0.234375,0 -0.359375,0 H 1.21875 c 0.3125,-0.28125 1.078125,-1.015625 1.390625,-1.3125 0.1875,-0.171875 0.6875,-0.59375 0.875,-0.78125 0.453125,-0.4375 0.984375,-0.96875 0.984375,-1.8125 0,-1.15625 -0.796875,-2.15625 -2.109375,-2.15625 -1.140625,0 -1.703125,0.78125 -1.9375,1.640625 0.109375,0.171875 0.171875,0.234375 0.1875,0.265625 0.015625,0.015625 0.125,0.140625 0.21875,0.28125 C 1.03125,-5.34375 1.3125,-6.125 2.21875,-6.125 c 0.9375,0 1.4375,0.75 1.4375,1.53125 0,0.84375 -0.5625,1.40625 -1.15625,2.015625 z m 0,0"
           id="path2327" />
      </symbol>
      <symbol
         style="overflow:visible"
         overflow="visible"
         id="textext-2d4c938b-7">
        <path
           inkscape:connector-curvature="0"
           style="stroke:none"
           d=""
           id="path2330" />
      </symbol>
      <symbol
         style="overflow:visible"
         overflow="visible"
         id="textext-2d4c938b-8">
        <path
           inkscape:connector-curvature="0"
           style="stroke:none"
           d="m 6.84375,-3.265625 c 0.15625,0 0.34375,0 0.34375,-0.1875 C 7.1875,-3.65625 7,-3.65625 6.859375,-3.65625 h -5.96875 c -0.140625,0 -0.328125,0 -0.328125,0.203125 0,0.1875 0.1875,0.1875 0.328125,0.1875 z m 0.015625,1.9375 c 0.140625,0 0.328125,0 0.328125,-0.203125 0,-0.1875 -0.1875,-0.1875 -0.34375,-0.1875 H 0.890625 c -0.140625,0 -0.328125,0 -0.328125,0.1875 0,0.203125 0.1875,0.203125 0.328125,0.203125 z m 0,0"
           id="path2333" />
      </symbol>
    </g>
    <g
       id="g2692">
      <symbol
         style="overflow:visible"
         id="textext-338631e9-0"
         overflow="visible">
        <path
           inkscape:connector-curvature="0"
           id="path2665"
           d=""
           style="stroke:none" />
      </symbol>
      <symbol
         style="overflow:visible"
         id="textext-338631e9-1"
         overflow="visible">
        <path
           inkscape:connector-curvature="0"
           id="path2668"
           d="m 4.328125,-6.921875 h -0.75 v 2.9375 C 3.046875,-4.421875 2.5,-4.53125 2.125,-4.53125 c -0.984375,0 -1.765625,1.03125 -1.765625,2.3125 0,1.3125 0.765625,2.328125 1.71875,2.328125 0.328125,0 0.90625,-0.09375 1.46875,-0.625 V 0 h 0.78125 z m -0.78125,5.53125 C 3.546875,-1.25 3.53125,-1.0625 3.21875,-0.78125 2.984375,-0.578125 2.734375,-0.5 2.484375,-0.5 c -0.625,0 -1.34375,-0.46875 -1.34375,-1.703125 0,-1.3125 0.859375,-1.71875 1.4375,-1.71875 0.453125,0 0.75,0.21875 0.96875,0.546875 z m 0,0"
           style="stroke:none" />
      </symbol>
      <symbol
         style="overflow:visible"
         id="textext-338631e9-2"
         overflow="visible">
        <path
           inkscape:connector-curvature="0"
           id="path2671"
           d="M 4.125,-2.1875 C 4.125,-2.515625 4.109375,-3.265625 3.734375,-3.875 3.3125,-4.484375 2.71875,-4.59375 2.359375,-4.59375 1.25,-4.59375 0.34375,-3.53125 0.34375,-2.25 c 0,1.3125 0.96875,2.359375 2.15625,2.359375 0.625,0 1.203125,-0.234375 1.59375,-0.515625 L 4.03125,-1.0625 C 3.40625,-0.53125 2.734375,-0.5 2.515625,-0.5 1.71875,-0.5 1.078125,-1.203125 1.046875,-2.1875 Z M 1.09375,-2.734375 c 0.15625,-0.75 0.6875,-1.25 1.265625,-1.25 0.515625,0 1.0625,0.328125 1.203125,1.25 z m 0,0"
           style="stroke:none" />
      </symbol>
      <symbol
         style="overflow:visible"
         id="textext-338631e9-3"
         overflow="visible">
        <path
           inkscape:connector-curvature="0"
           id="path2674"
           d="m 1.59375,-0.453125 c 0.3125,0.28125 0.75,0.5625 1.34375,0.5625 0.96875,0 1.84375,-0.984375 1.84375,-2.328125 0,-1.203125 -0.625,-2.3125 -1.578125,-2.3125 -0.59375,0 -1.171875,0.203125 -1.640625,0.59375 v -0.484375 h -0.75 V 1.9375 h 0.78125 z m 0,-2.859375 c 0.234375,-0.359375 0.625,-0.578125 1.0625,-0.578125 0.75,0 1.34375,0.75 1.34375,1.671875 C 4,-1.203125 3.296875,-0.5 2.546875,-0.5 2.15625,-0.5 1.890625,-0.703125 1.6875,-0.96875 1.59375,-1.109375 1.59375,-1.140625 1.59375,-1.3125 Z m 0,0"
           style="stroke:none" />
      </symbol>
      <symbol
         style="overflow:visible"
         id="textext-338631e9-4"
         overflow="visible">
        <path
           inkscape:connector-curvature="0"
           id="path2677"
           d="M 1.75,-3.84375 H 3.15625 V -4.421875 H 1.75 V -5.6875 H 1.0625 v 1.265625 h -0.875 v 0.578125 h 0.84375 v 2.65625 c 0,0.59375 0.140625,1.296875 0.828125,1.296875 0.6875,0 1.203125,-0.25 1.453125,-0.375 L 3.15625,-0.859375 C 2.890625,-0.640625 2.578125,-0.53125 2.25,-0.53125 c -0.359375,0 -0.5,-0.296875 -0.5,-0.828125 z m 0,0"
           style="stroke:none" />
      </symbol>
      <symbol
         style="overflow:visible"
         id="textext-338631e9-5"
         overflow="visible">
        <path
           inkscape:connector-curvature="0"
           id="path2680"
           d="m 4.34375,-2.96875 c 0,-0.65625 -0.15625,-1.5625 -1.375,-1.5625 -0.609375,0 -1.09375,0.296875 -1.40625,0.71875 v -3.109375 h -0.75 V 0 h 0.765625 v -2.4375 c 0,-0.65625 0.25,-1.484375 1.015625,-1.484375 0.953125,0 0.96875,0.703125 0.96875,1.015625 V 0 h 0.78125 z m 0,0"
           style="stroke:none" />
      </symbol>
      <symbol
         style="overflow:visible"
         id="textext-338631e9-6"
         overflow="visible">
        <path
           inkscape:connector-curvature="0"
           id="path2683"
           d="m 0.921875,-5.125 c 0.28125,-0.703125 0.9375,-1.0625 1.546875,-1.0625 0.515625,0 1,0.3125 1,0.9375 0,0.609375 -0.40625,1.203125 -1.015625,1.34375 -0.0625,0.015625 -0.078125,0.015625 -0.78125,0.0625 v 0.609375 H 2.375 c 1.078125,0 1.296875,0.9375 1.296875,1.4375 0,0.765625 -0.46875,1.40625 -1.234375,1.40625 -0.6875,0 -1.46875,-0.34375 -1.90625,-1.03125 L 0.421875,-0.8125 C 1.140625,0.125 2.0625,0.21875 2.46875,0.21875 c 1.203125,0 2.09375,-0.96875 2.09375,-2.015625 0,-0.90625 -0.703125,-1.515625 -1.375,-1.734375 0.75,-0.40625 1.09375,-1.078125 1.09375,-1.71875 0,-0.84375 -0.828125,-1.515625 -1.8125,-1.515625 -0.765625,0 -1.484375,0.40625 -1.90625,1.109375 z m 0,0"
           style="stroke:none" />
      </symbol>
      <symbol
         style="overflow:visible"
         id="textext-338631e9-7"
         overflow="visible">
        <path
           inkscape:connector-curvature="0"
           id="path2686"
           d=""
           style="stroke:none" />
      </symbol>
      <symbol
         style="overflow:visible"
         id="textext-338631e9-8"
         overflow="visible">
        <path
           inkscape:connector-curvature="0"
           id="path2689"
           d="m 6.84375,-3.265625 c 0.15625,0 0.34375,0 0.34375,-0.1875 C 7.1875,-3.65625 7,-3.65625 6.859375,-3.65625 h -5.96875 c -0.140625,0 -0.328125,0 -0.328125,0.203125 0,0.1875 0.1875,0.1875 0.328125,0.1875 z m 0.015625,1.9375 c 0.140625,0 0.328125,0 0.328125,-0.203125 0,-0.1875 -0.1875,-0.1875 -0.34375,-0.1875 H 0.890625 c -0.140625,0 -0.328125,0 -0.328125,0.1875 0,0.203125 0.1875,0.203125 0.328125,0.203125 z m 0,0"
           style="stroke:none" />
      </symbol>
    </g>
  </defs>
  <metadata
     id="metadata5">
    <rdf:RDF>
      <cc:Work
         rdf:about="">
        <dc:format>image/svg+xml</dc:format>
        <dc:type
           rdf:resource="http://purl.org/dc/dcmitype/StillImage" />
        <dc:title></dc:title>
      </cc:Work>
    </rdf:RDF>
  </metadata>
  <g
     inkscape:label="Layer 1"
     inkscape:groupmode="layer"
     id="layer1"
     transform="translate(-108.21458,-204.37312)">
    <rect
       style="opacity:1;fill:#f2f2f2;fill-opacity:1;stroke:none;stroke-width:0.13371441;stroke-linejoin:round;stroke-miterlimit:4;stroke-dasharray:none;stroke-dashoffset:0;stroke-opacity:1"
       id="rect990"
       width="17.689291"
       height="18.278988"
       x="108.21458"
       y="204.37312" />
    <path
       style="fill:#bebebe;fill-opacity:1;fill-rule:evenodd;stroke:#000000;stroke-width:0.13371441;stroke-linecap:butt;stroke-linejoin:round;stroke-miterlimit:4;stroke-dasharray:none;stroke-opacity:1"
       d="m 111.16279,208.50062 h 11.79287 l -2.94822,10.02392 -8.84465,-1.17927 z"
       id="path957"
       inkscape:connector-curvature="0" />
    <circle
       r="0.29482168"
       cy="217.34528"
       cx="111.16284"
       id="circle819"
       style="opacity:1;fill:#000000;fill-opacity:1;stroke:none;stroke-width:0.00222857;stroke-miterlimit:4;stroke-dasharray:none;stroke-opacity:1" />
    <circle
       style="opacity:1;fill:#000000;fill-opacity:1;stroke:none;stroke-width:0.00222857;stroke-miterlimit:4;stroke-dasharray:none;stroke-opacity:1"
       id="circle830"
       cx="122.95568"
       cy="208.50063"
       r="0.29482168" />
    <circle
       r="0.29482168"
       cy="218.52455"
       cx="120.00749"
       id="circle819-3"
       style="opacity:1;fill:#000000;fill-opacity:1;stroke:none;stroke-width:0.00222857;stroke-miterlimit:4;stroke-dasharray:none;stroke-opacity:1" />
    <path
       style="fill:#7d7d7d;fill-rule:evenodd;stroke:none;stroke-width:0.26458332px;stroke-linecap:butt;stroke-linejoin:miter;stroke-opacity:1;fill-opacity:1"
       d="m 117.15391,212.84749 0.51449,0.39172 0.57881,1.3447 -1.1693,1.57856 -1.59026,-2.04044 z"
       id="path1737"
       inkscape:connector-curvature="0" />
    <path
       style="fill:none;fill-rule:evenodd;stroke:#000000;stroke-width:0.0668572;stroke-linecap:butt;stroke-linejoin:miter;stroke-miterlimit:4;stroke-dasharray:0.06685721, 0.06685721;stroke-dashoffset:0;stroke-opacity:1"
       d="m 111.16279,208.50062 6.48608,4.71713"
       id="path850"
       inkscape:connector-curvature="0" />
    <path
       inkscape:connector-curvature="0"
       id="path852"
       d="m 111.16279,208.50062 6.48608,4.71713"
       style="fill:none;fill-rule:evenodd;stroke:#000000;stroke-width:0.0668572;stroke-linecap:butt;stroke-linejoin:miter;stroke-miterlimit:4;stroke-dasharray:none;stroke-dashoffset:0;stroke-opacity:1" />
    <path
       sodipodi:nodetypes="cc"
       inkscape:connector-curvature="0"
       id="path856"
       d="m 120.00744,218.52454 -2.35857,-5.30679"
       style="fill:none;fill-rule:evenodd;stroke:#000000;stroke-width:0.0668572;stroke-linecap:butt;stroke-linejoin:miter;stroke-miterlimit:4;stroke-dasharray:none;stroke-dashoffset:0;stroke-opacity:1" />
    <path
       style="fill:#323232;fill-rule:evenodd;stroke:none;stroke-width:0.26458332px;stroke-linecap:butt;stroke-linejoin:miter;stroke-opacity:1;fill-opacity:1"
       d="m 116.50495,214.40851 0.59634,1.83581 0.53203,-2.97588 z"
       id="path1739"
       inkscape:connector-curvature="0" />
    <path
       sodipodi:nodetypes="cc"
       inkscape:connector-curvature="0"
       id="path860"
       d="m 111.16279,217.34527 5.89642,-1.1793"
       style="fill:none;fill-rule:evenodd;stroke:#000000;stroke-width:0.0668572;stroke-linecap:butt;stroke-linejoin:miter;stroke-miterlimit:4;stroke-dasharray:none;stroke-dashoffset:0;stroke-opacity:1" />
    <path
       style="fill:none;fill-rule:evenodd;stroke:#000000;stroke-width:0.0668572;stroke-linecap:butt;stroke-linejoin:miter;stroke-miterlimit:4;stroke-dasharray:none;stroke-dashoffset:0;stroke-opacity:1"
       d="m 111.16279,208.50062 5.89642,7.66535"
       id="path862"
       inkscape:connector-curvature="0"
       sodipodi:nodetypes="cc" />
    <path
       style="fill:none;fill-rule:evenodd;stroke:#000000;stroke-width:0.0668572;stroke-linecap:butt;stroke-linejoin:miter;stroke-miterlimit:4;stroke-dasharray:none;stroke-dashoffset:0;stroke-opacity:1"
       d="m 120.00744,218.52454 -2.94823,-2.35857"
       id="path866"
       inkscape:connector-curvature="0"
       sodipodi:nodetypes="cc" />
    <path
       sodipodi:nodetypes="cc"
       inkscape:connector-curvature="0"
       id="path872"
       d="m 120.00744,218.52454 2.94822,-10.02392"
       style="fill:none;fill-rule:evenodd;stroke:#000000;stroke-width:0.13371441;stroke-linecap:butt;stroke-linejoin:miter;stroke-miterlimit:4;stroke-dasharray:none;stroke-dashoffset:0;stroke-opacity:1" />
    <path
       style="fill:none;fill-rule:evenodd;stroke:#000000;stroke-width:0.13371441;stroke-linecap:butt;stroke-linejoin:miter;stroke-miterlimit:4;stroke-dasharray:none;stroke-dashoffset:0;stroke-opacity:1"
       d="m 120.00744,218.52454 -8.84465,-1.17927"
       id="path874"
       inkscape:connector-curvature="0"
       sodipodi:nodetypes="cc" />
    <path
       sodipodi:nodetypes="cc"
       inkscape:connector-curvature="0"
       id="path880"
       d="m 122.95566,208.50062 -11.79287,8.84465"
       style="fill:none;fill-rule:evenodd;stroke:#000000;stroke-width:0.0668572;stroke-linecap:butt;stroke-linejoin:miter;stroke-miterlimit:4;stroke-dasharray:none;stroke-dashoffset:0;stroke-opacity:1" />
    <path
       style="fill:#333333;fill-rule:evenodd;stroke:#000000;stroke-width:0.0668572;stroke-linecap:butt;stroke-linejoin:miter;stroke-miterlimit:4;stroke-dasharray:none;stroke-dashoffset:0;stroke-opacity:1"
       d="m 117.64887,213.21775 -1.17929,1.17929"
       id="path967"
       inkscape:connector-curvature="0"
       sodipodi:nodetypes="cc" />
    <rect
       style="opacity:1;fill:#f2f2f2;fill-opacity:1;stroke:#383838;stroke-width:0.13371441;stroke-linejoin:round;stroke-miterlimit:4;stroke-dasharray:none;stroke-dashoffset:0;stroke-opacity:1"
       id="rect992"
       width="1.7689302"
       height="1.1792867"
       x="127.08315"
       y="209.6799" />
    <rect
       y="209.6799"
       x="127.08315"
       height="1.1792867"
       width="1.7689302"
       id="rect994"
       style="opacity:1;fill:#f2f2f2;fill-opacity:1;stroke:#383838;stroke-width:0.13371441;stroke-linejoin:round;stroke-miterlimit:4;stroke-dasharray:none;stroke-dashoffset:0;stroke-opacity:1" />
    <rect
       style="opacity:1;fill:#f2f2f2;fill-opacity:1;stroke:#383838;stroke-width:0.13371441;stroke-linejoin:round;stroke-miterlimit:4;stroke-dasharray:none;stroke-dashoffset:0;stroke-opacity:1"
       id="rect996"
       width="1.7689302"
       height="1.1792867"
       x="127.08315"
       y="209.6799" />
    <rect
       y="211.44882"
       x="127.08315"
       height="1.1792867"
       width="1.7689302"
       id="rect998"
       style="opacity:1;fill:#f2f2f2;fill-opacity:1;stroke:#383838;stroke-width:0.13371441;stroke-linejoin:round;stroke-miterlimit:4;stroke-dasharray:none;stroke-dashoffset:0;stroke-opacity:1" />
    <rect
       style="opacity:1;fill:#bebebe;fill-opacity:1;stroke:#383838;stroke-width:0.13371441;stroke-linejoin:round;stroke-miterlimit:4;stroke-dasharray:none;stroke-dashoffset:0;stroke-opacity:1"
       id="rect1000"
       width="1.7689302"
       height="1.1792867"
       x="127.08315"
       y="211.44882" />
    <rect
       y="213.21774"
       x="127.08315"
       height="1.1792867"
       width="1.7689302"
       id="rect1002"
       style="opacity:1;fill:#7d7d7d;fill-opacity:1;stroke:#383838;stroke-width:0.13371441;stroke-linejoin:round;stroke-miterlimit:4;stroke-dasharray:none;stroke-dashoffset:0;stroke-opacity:1" />
    <rect
       style="opacity:1;fill:#323232;fill-opacity:1;stroke:#383838;stroke-width:0.13371441;stroke-linejoin:round;stroke-miterlimit:4;stroke-dasharray:none;stroke-dashoffset:0;stroke-opacity:1"
       id="rect1004"
       width="1.7689302"
       height="1.1792867"
       x="127.08315"
       y="214.98666" />
    <path
       sodipodi:nodetypes="cc"
       inkscape:connector-curvature="0"
       id="path868"
       d="m 111.16279,208.50062 v 8.84465"
       style="fill:none;fill-rule:evenodd;stroke:#000000;stroke-width:0.13371441;stroke-linecap:butt;stroke-linejoin:miter;stroke-miterlimit:4;stroke-dasharray:none;stroke-dashoffset:0;stroke-opacity:1" />
    <path
       style="fill:none;fill-rule:evenodd;stroke:#000000;stroke-width:0.13371441;stroke-linecap:butt;stroke-linejoin:miter;stroke-miterlimit:4;stroke-dasharray:none;stroke-dashoffset:0;stroke-opacity:1"
       d="m 111.16279,208.50062 h 11.79287"
       id="path870"
       inkscape:connector-curvature="0"
       sodipodi:nodetypes="cc" />
    <circle
       style="opacity:1;fill:#000000;fill-opacity:1;stroke:none;stroke-width:0.00222857;stroke-miterlimit:4;stroke-dasharray:none;stroke-opacity:1"
       id="path817"
       cx="111.16284"
       cy="208.50063"
       r="0.29482168" />
    <path
       style="fill:none;fill-rule:evenodd;stroke:#000000;stroke-width:0.0668572;stroke-linecap:butt;stroke-linejoin:miter;stroke-miterlimit:4;stroke-dasharray:none;stroke-dashoffset:0;stroke-opacity:1"
       d="m 117.05921,216.16597 0.58966,-2.94822"
       id="path876"
       inkscape:connector-curvature="0"
       sodipodi:nodetypes="cc" />
    <circle
       r="0.29482168"
       cy="216.16597"
       cx="117.05927"
       id="circle819-6"
       style="opacity:1;fill:#000000;fill-opacity:1;stroke:none;stroke-width:0.00222857;stroke-miterlimit:4;stroke-dasharray:none;stroke-opacity:1" />
    <path
       sodipodi:nodetypes="cc"
       inkscape:connector-curvature="0"
       id="path864"
       d="m 122.95566,208.50062 -5.89645,7.66535"
       style="fill:none;fill-rule:evenodd;stroke:#000000;stroke-width:0.0668572;stroke-linecap:butt;stroke-linejoin:miter;stroke-miterlimit:4;stroke-dasharray:none;stroke-dashoffset:0;stroke-opacity:1" />
    <path
       sodipodi:nodetypes="cc"
       inkscape:connector-curvature="0"
       id="path965"
       d="m 117.05921,216.16597 -0.58963,-1.76893"
       style="fill:none;fill-rule:evenodd;stroke:#000000;stroke-width:0.0668572;stroke-linecap:butt;stroke-linejoin:miter;stroke-miterlimit:4;stroke-dasharray:none;stroke-dashoffset:0;stroke-opacity:1" />
    <circle
       style="opacity:1;fill:#000000;fill-opacity:1;stroke:none;stroke-width:0.00222857;stroke-miterlimit:4;stroke-dasharray:none;stroke-opacity:1"
       id="circle963"
       cx="116.46959"
       cy="214.39705"
       r="0.29482168" />
    <circle
       r="0.29482168"
       cy="213.21777"
       cx="117.6489"
       id="circle819-7"
       style="opacity:1;fill:#000000;fill-opacity:1;stroke:none;stroke-width:0.00222857;stroke-miterlimit:4;stroke-dasharray:none;stroke-opacity:1" />
    <g
       transform="matrix(0.08122425,0,0,0.08122425,111.53674,199.52578)"
       ns0:text="$\\mathsf{depth\\geq 0}$"
       ns0:preamble="/home/jo/Documents/Mes_papiers/HeteroConco/latex/ENS_Lyon/packages_4_inskcape.sty"
       id="g2858">
      <defs
         id="defs2835">
        <g
           id="g2833">
          <symbol
             style="overflow:visible"
             overflow="visible"
             id="textext-1974e3b9-0">
            <path
               inkscape:connector-curvature="0"
               style="stroke:none"
               d=""
               id="path2806" />
          </symbol>
          <symbol
             style="overflow:visible"
             overflow="visible"
             id="textext-1974e3b9-1">
            <path
               inkscape:connector-curvature="0"
               style="stroke:none"
               d="m 4.328125,-6.921875 h -0.75 v 2.9375 C 3.046875,-4.421875 2.5,-4.53125 2.125,-4.53125 c -0.984375,0 -1.765625,1.03125 -1.765625,2.3125 0,1.3125 0.765625,2.328125 1.71875,2.328125 0.328125,0 0.90625,-0.09375 1.46875,-0.625 V 0 h 0.78125 z m -0.78125,5.53125 C 3.546875,-1.25 3.53125,-1.0625 3.21875,-0.78125 2.984375,-0.578125 2.734375,-0.5 2.484375,-0.5 c -0.625,0 -1.34375,-0.46875 -1.34375,-1.703125 0,-1.3125 0.859375,-1.71875 1.4375,-1.71875 0.453125,0 0.75,0.21875 0.96875,0.546875 z m 0,0"
               id="path2809" />
          </symbol>
          <symbol
             style="overflow:visible"
             overflow="visible"
             id="textext-1974e3b9-2">
            <path
               inkscape:connector-curvature="0"
               style="stroke:none"
               d="M 4.125,-2.1875 C 4.125,-2.515625 4.109375,-3.265625 3.734375,-3.875 3.3125,-4.484375 2.71875,-4.59375 2.359375,-4.59375 1.25,-4.59375 0.34375,-3.53125 0.34375,-2.25 c 0,1.3125 0.96875,2.359375 2.15625,2.359375 0.625,0 1.203125,-0.234375 1.59375,-0.515625 L 4.03125,-1.0625 C 3.40625,-0.53125 2.734375,-0.5 2.515625,-0.5 1.71875,-0.5 1.078125,-1.203125 1.046875,-2.1875 Z M 1.09375,-2.734375 c 0.15625,-0.75 0.6875,-1.25 1.265625,-1.25 0.515625,0 1.0625,0.328125 1.203125,1.25 z m 0,0"
               id="path2812" />
          </symbol>
          <symbol
             style="overflow:visible"
             overflow="visible"
             id="textext-1974e3b9-3">
            <path
               inkscape:connector-curvature="0"
               style="stroke:none"
               d="m 1.59375,-0.453125 c 0.3125,0.28125 0.75,0.5625 1.34375,0.5625 0.96875,0 1.84375,-0.984375 1.84375,-2.328125 0,-1.203125 -0.625,-2.3125 -1.578125,-2.3125 -0.59375,0 -1.171875,0.203125 -1.640625,0.59375 v -0.484375 h -0.75 V 1.9375 h 0.78125 z m 0,-2.859375 c 0.234375,-0.359375 0.625,-0.578125 1.0625,-0.578125 0.75,0 1.34375,0.75 1.34375,1.671875 C 4,-1.203125 3.296875,-0.5 2.546875,-0.5 2.15625,-0.5 1.890625,-0.703125 1.6875,-0.96875 1.59375,-1.109375 1.59375,-1.140625 1.59375,-1.3125 Z m 0,0"
               id="path2815" />
          </symbol>
          <symbol
             style="overflow:visible"
             overflow="visible"
             id="textext-1974e3b9-4">
            <path
               inkscape:connector-curvature="0"
               style="stroke:none"
               d="M 1.75,-3.84375 H 3.15625 V -4.421875 H 1.75 V -5.6875 H 1.0625 v 1.265625 h -0.875 v 0.578125 h 0.84375 v 2.65625 c 0,0.59375 0.140625,1.296875 0.828125,1.296875 0.6875,0 1.203125,-0.25 1.453125,-0.375 L 3.15625,-0.859375 C 2.890625,-0.640625 2.578125,-0.53125 2.25,-0.53125 c -0.359375,0 -0.5,-0.296875 -0.5,-0.828125 z m 0,0"
               id="path2818" />
          </symbol>
          <symbol
             style="overflow:visible"
             overflow="visible"
             id="textext-1974e3b9-5">
            <path
               inkscape:connector-curvature="0"
               style="stroke:none"
               d="m 4.34375,-2.96875 c 0,-0.65625 -0.15625,-1.5625 -1.375,-1.5625 -0.609375,0 -1.09375,0.296875 -1.40625,0.71875 v -3.109375 h -0.75 V 0 h 0.765625 v -2.4375 c 0,-0.65625 0.25,-1.484375 1.015625,-1.484375 0.953125,0 0.96875,0.703125 0.96875,1.015625 V 0 h 0.78125 z m 0,0"
               id="path2821" />
          </symbol>
          <symbol
             style="overflow:visible"
             overflow="visible"
             id="textext-1974e3b9-6">
            <path
               inkscape:connector-curvature="0"
               style="stroke:none"
               d="m 4.5625,-3.25 c 0,-0.78125 -0.046875,-1.71875 -0.46875,-2.515625 -0.40625,-0.75 -1.09375,-1 -1.59375,-1 -0.59375,0 -1.296875,0.28125 -1.703125,1.15625 -0.328125,0.734375 -0.375,1.5625 -0.375,2.359375 0,0.78125 0.03125,1.515625 0.328125,2.25 0.40625,0.953125 1.15625,1.21875 1.734375,1.21875 0.71875,0 1.359375,-0.40625 1.671875,-1.09375 C 4.453125,-1.53125 4.5625,-2.1875 4.5625,-3.25 Z M 2.5,-0.390625 c -0.53125,0 -0.9375,-0.375 -1.140625,-1.09375 -0.15625,-0.5625 -0.15625,-1.109375 -0.15625,-1.890625 0,-0.625 0,-1.21875 0.15625,-1.765625 0.0625,-0.1875 0.3125,-1.015625 1.125,-1.015625 0.78125,0 1.03125,0.765625 1.109375,0.9375 0.1875,0.5625 0.1875,1.234375 0.1875,1.84375 0,0.65625 0,1.296875 -0.1875,1.921875 -0.25,0.90625 -0.78125,1.0625 -1.09375,1.0625 z m 0,0"
               id="path2824" />
          </symbol>
          <symbol
             style="overflow:visible"
             overflow="visible"
             id="textext-1974e3b9-7">
            <path
               inkscape:connector-curvature="0"
               style="stroke:none"
               d=""
               id="path2827" />
          </symbol>
          <symbol
             style="overflow:visible"
             overflow="visible"
             id="textext-1974e3b9-8">
            <path
               inkscape:connector-curvature="0"
               style="stroke:none"
               d="m 6.71875,-3.234375 c 0.140625,-0.0625 0.203125,-0.125 0.203125,-0.21875 0,-0.09375 -0.046875,-0.15625 -0.203125,-0.21875 l -5.5,-2.59375 C 1.09375,-6.34375 1.046875,-6.34375 1.03125,-6.34375 c -0.125,0 -0.203125,0.09375 -0.203125,0.203125 0,0.125 0.078125,0.171875 0.1875,0.21875 L 6.25,-3.453125 1.03125,-1 c -0.1875,0.09375 -0.203125,0.171875 -0.203125,0.234375 0,0.109375 0.09375,0.203125 0.203125,0.203125 0.03125,0 0.046875,0 0.171875,-0.078125 z M 6.5625,1.359375 c 0.171875,0 0.359375,0 0.359375,-0.1875 0,-0.203125 -0.21875,-0.203125 -0.359375,-0.203125 h -5.375 c -0.15625,0 -0.359375,0 -0.359375,0.203125 0,0.1875 0.171875,0.1875 0.34375,0.1875 z m 0,0"
               id="path2830" />
          </symbol>
        </g>
      </defs>
      <g
         id="textext-1974e3b9-9">
        <g
           style="fill:#000000;fill-opacity:1"
           id="g2847">
          <use
             height="100%"
             width="100%"
             xlink:href="#textext-1974e3b9-1"
             x="223.43201"
             y="134.765"
             id="use2837" />
          <use
             height="100%"
             width="100%"
             xlink:href="#textext-1974e3b9-2"
             x="228.57968"
             y="134.765"
             id="use2839" />
          <use
             height="100%"
             width="100%"
             xlink:href="#textext-1974e3b9-3"
             x="233.00705"
             y="134.765"
             id="use2841" />
          <use
             height="100%"
             width="100%"
             xlink:href="#textext-1974e3b9-4"
             x="238.15472"
             y="134.765"
             id="use2843" />
          <use
             height="100%"
             width="100%"
             xlink:href="#textext-1974e3b9-5"
             x="241.75223"
             y="134.765"
             id="use2845" />
        </g>
        <g
           style="fill:#000000;fill-opacity:1"
           id="g2851">
          <use
             height="100%"
             width="100%"
             xlink:href="#textext-1974e3b9-8"
             x="249.66701"
             y="134.765"
             id="use2849" />
        </g>
        <g
           style="fill:#000000;fill-opacity:1"
           id="g2855">
          <use
             height="100%"
             width="100%"
             xlink:href="#textext-1974e3b9-6"
             x="260.18301"
             y="134.765"
             id="use2853" />
        </g>
      </g>
    </g>
    <g
       id="g3716"
       transform="matrix(0.08122425,0,0,0.08122425,111.53674,201.29471)"
       ns0:preamble="/home/jo/Documents/Mes_papiers/HeteroConco/latex/ENS_Lyon/packages_4_inskcape.sty"
       ns0:text="$\\mathsf{depth\\geq 1}$">
      <defs
         id="defs3693">
        <g
           id="g3691">
          <symbol
             id="textext-8cb0d716-0"
             overflow="visible">
            <path
               id="path3664"
               d=""
               style="stroke:none;" />
          </symbol>
          <symbol
             id="textext-8cb0d716-1"
             overflow="visible">
            <path
               id="path3667"
               d="M 4.328125 -6.921875 L 3.578125 -6.921875 L 3.578125 -3.984375 C 3.046875 -4.421875 2.5 -4.53125 2.125 -4.53125 C 1.140625 -4.53125 0.359375 -3.5 0.359375 -2.21875 C 0.359375 -0.90625 1.125 0.109375 2.078125 0.109375 C 2.40625 0.109375 2.984375 0.015625 3.546875 -0.515625 L 3.546875 0 L 4.328125 0 Z M 3.546875 -1.390625 C 3.546875 -1.25 3.53125 -1.0625 3.21875 -0.78125 C 2.984375 -0.578125 2.734375 -0.5 2.484375 -0.5 C 1.859375 -0.5 1.140625 -0.96875 1.140625 -2.203125 C 1.140625 -3.515625 2 -3.921875 2.578125 -3.921875 C 3.03125 -3.921875 3.328125 -3.703125 3.546875 -3.375 Z M 3.546875 -1.390625 "
               style="stroke:none;" />
          </symbol>
          <symbol
             id="textext-8cb0d716-2"
             overflow="visible">
            <path
               id="path3670"
               d="M 4.125 -2.1875 C 4.125 -2.515625 4.109375 -3.265625 3.734375 -3.875 C 3.3125 -4.484375 2.71875 -4.59375 2.359375 -4.59375 C 1.25 -4.59375 0.34375 -3.53125 0.34375 -2.25 C 0.34375 -0.9375 1.3125 0.109375 2.5 0.109375 C 3.125 0.109375 3.703125 -0.125 4.09375 -0.40625 L 4.03125 -1.0625 C 3.40625 -0.53125 2.734375 -0.5 2.515625 -0.5 C 1.71875 -0.5 1.078125 -1.203125 1.046875 -2.1875 Z M 1.09375 -2.734375 C 1.25 -3.484375 1.78125 -3.984375 2.359375 -3.984375 C 2.875 -3.984375 3.421875 -3.65625 3.5625 -2.734375 Z M 1.09375 -2.734375 "
               style="stroke:none;" />
          </symbol>
          <symbol
             id="textext-8cb0d716-3"
             overflow="visible">
            <path
               id="path3673"
               d="M 1.59375 -0.453125 C 1.90625 -0.171875 2.34375 0.109375 2.9375 0.109375 C 3.90625 0.109375 4.78125 -0.875 4.78125 -2.21875 C 4.78125 -3.421875 4.15625 -4.53125 3.203125 -4.53125 C 2.609375 -4.53125 2.03125 -4.328125 1.5625 -3.9375 L 1.5625 -4.421875 L 0.8125 -4.421875 L 0.8125 1.9375 L 1.59375 1.9375 Z M 1.59375 -3.3125 C 1.828125 -3.671875 2.21875 -3.890625 2.65625 -3.890625 C 3.40625 -3.890625 4 -3.140625 4 -2.21875 C 4 -1.203125 3.296875 -0.5 2.546875 -0.5 C 2.15625 -0.5 1.890625 -0.703125 1.6875 -0.96875 C 1.59375 -1.109375 1.59375 -1.140625 1.59375 -1.3125 Z M 1.59375 -3.3125 "
               style="stroke:none;" />
          </symbol>
          <symbol
             id="textext-8cb0d716-4"
             overflow="visible">
            <path
               id="path3676"
               d="M 1.75 -3.84375 L 3.15625 -3.84375 L 3.15625 -4.421875 L 1.75 -4.421875 L 1.75 -5.6875 L 1.0625 -5.6875 L 1.0625 -4.421875 L 0.1875 -4.421875 L 0.1875 -3.84375 L 1.03125 -3.84375 L 1.03125 -1.1875 C 1.03125 -0.59375 1.171875 0.109375 1.859375 0.109375 C 2.546875 0.109375 3.0625 -0.140625 3.3125 -0.265625 L 3.15625 -0.859375 C 2.890625 -0.640625 2.578125 -0.53125 2.25 -0.53125 C 1.890625 -0.53125 1.75 -0.828125 1.75 -1.359375 Z M 1.75 -3.84375 "
               style="stroke:none;" />
          </symbol>
          <symbol
             id="textext-8cb0d716-5"
             overflow="visible">
            <path
               id="path3679"
               d="M 4.34375 -2.96875 C 4.34375 -3.625 4.1875 -4.53125 2.96875 -4.53125 C 2.359375 -4.53125 1.875 -4.234375 1.5625 -3.8125 L 1.5625 -6.921875 L 0.8125 -6.921875 L 0.8125 0 L 1.578125 0 L 1.578125 -2.4375 C 1.578125 -3.09375 1.828125 -3.921875 2.59375 -3.921875 C 3.546875 -3.921875 3.5625 -3.21875 3.5625 -2.90625 L 3.5625 0 L 4.34375 0 Z M 4.34375 -2.96875 "
               style="stroke:none;" />
          </symbol>
          <symbol
             id="textext-8cb0d716-6"
             overflow="visible">
            <path
               id="path3682"
               d="M 2.984375 -6.765625 L 2.78125 -6.765625 C 2.1875 -6.15625 1.359375 -6.125 0.890625 -6.09375 L 0.890625 -5.515625 C 1.21875 -5.53125 1.6875 -5.546875 2.1875 -5.765625 L 2.1875 -0.578125 L 0.953125 -0.578125 L 0.953125 0 L 4.234375 0 L 4.234375 -0.578125 L 2.984375 -0.578125 Z M 2.984375 -6.765625 "
               style="stroke:none;" />
          </symbol>
          <symbol
             id="textext-8cb0d716-7"
             overflow="visible">
            <path
               id="path3685"
               d=""
               style="stroke:none;" />
          </symbol>
          <symbol
             id="textext-8cb0d716-8"
             overflow="visible">
            <path
               id="path3688"
               d="M 6.71875 -3.234375 C 6.859375 -3.296875 6.921875 -3.359375 6.921875 -3.453125 C 6.921875 -3.546875 6.875 -3.609375 6.71875 -3.671875 L 1.21875 -6.265625 C 1.09375 -6.34375 1.046875 -6.34375 1.03125 -6.34375 C 0.90625 -6.34375 0.828125 -6.25 0.828125 -6.140625 C 0.828125 -6.015625 0.90625 -5.96875 1.015625 -5.921875 L 6.25 -3.453125 L 1.03125 -1 C 0.84375 -0.90625 0.828125 -0.828125 0.828125 -0.765625 C 0.828125 -0.65625 0.921875 -0.5625 1.03125 -0.5625 C 1.0625 -0.5625 1.078125 -0.5625 1.203125 -0.640625 Z M 6.5625 1.359375 C 6.734375 1.359375 6.921875 1.359375 6.921875 1.171875 C 6.921875 0.96875 6.703125 0.96875 6.5625 0.96875 L 1.1875 0.96875 C 1.03125 0.96875 0.828125 0.96875 0.828125 1.171875 C 0.828125 1.359375 1 1.359375 1.171875 1.359375 Z M 6.5625 1.359375 "
               style="stroke:none;" />
          </symbol>
        </g>
      </defs>
      <g
         id="textext-8cb0d716-9">
        <g
           id="g3705"
           style="fill:rgb(0%,0%,0%);fill-opacity:1;">
          <use
             id="use3695"
             y="134.765"
             x="223.432"
             xlink:href="#textext-8cb0d716-1" />
          <use
             id="use3697"
             y="134.765"
             x="228.579675"
             xlink:href="#textext-8cb0d716-2" />
          <use
             id="use3699"
             y="134.765"
             x="233.007055"
             xlink:href="#textext-8cb0d716-3" />
          <use
             id="use3701"
             y="134.765"
             x="238.15473"
             xlink:href="#textext-8cb0d716-4" />
          <use
             id="use3703"
             y="134.765"
             x="241.752225"
             xlink:href="#textext-8cb0d716-5" />
        </g>
        <g
           id="g3709"
           style="fill:rgb(0%,0%,0%);fill-opacity:1;">
          <use
             id="use3707"
             y="134.765"
             x="249.667"
             xlink:href="#textext-8cb0d716-8" />
        </g>
        <g
           id="g3713"
           style="fill:rgb(0%,0%,0%);fill-opacity:1;">
          <use
             id="use3711"
             y="134.765"
             x="260.183"
             xlink:href="#textext-8cb0d716-6" />
        </g>
      </g>
    </g>
    <g
       ns0:text="$\\mathsf{depth\\geq 2}$"
       ns0:preamble="/home/jo/Documents/Mes_papiers/HeteroConco/latex/ENS_Lyon/packages_4_inskcape.sty"
       transform="matrix(0.08122425,0,0,0.08122425,111.53674,203.06363)"
       id="g4222">
      <defs
         id="defs4199">
        <g
           id="g4197">
          <symbol
             overflow="visible"
             id="textext-4c22d7c5-0">
            <path
               style="stroke:none;"
               d=""
               id="path4170" />
          </symbol>
          <symbol
             overflow="visible"
             id="textext-4c22d7c5-1">
            <path
               style="stroke:none;"
               d="M 4.328125 -6.921875 L 3.578125 -6.921875 L 3.578125 -3.984375 C 3.046875 -4.421875 2.5 -4.53125 2.125 -4.53125 C 1.140625 -4.53125 0.359375 -3.5 0.359375 -2.21875 C 0.359375 -0.90625 1.125 0.109375 2.078125 0.109375 C 2.40625 0.109375 2.984375 0.015625 3.546875 -0.515625 L 3.546875 0 L 4.328125 0 Z M 3.546875 -1.390625 C 3.546875 -1.25 3.53125 -1.0625 3.21875 -0.78125 C 2.984375 -0.578125 2.734375 -0.5 2.484375 -0.5 C 1.859375 -0.5 1.140625 -0.96875 1.140625 -2.203125 C 1.140625 -3.515625 2 -3.921875 2.578125 -3.921875 C 3.03125 -3.921875 3.328125 -3.703125 3.546875 -3.375 Z M 3.546875 -1.390625 "
               id="path4173" />
          </symbol>
          <symbol
             overflow="visible"
             id="textext-4c22d7c5-2">
            <path
               style="stroke:none;"
               d="M 4.125 -2.1875 C 4.125 -2.515625 4.109375 -3.265625 3.734375 -3.875 C 3.3125 -4.484375 2.71875 -4.59375 2.359375 -4.59375 C 1.25 -4.59375 0.34375 -3.53125 0.34375 -2.25 C 0.34375 -0.9375 1.3125 0.109375 2.5 0.109375 C 3.125 0.109375 3.703125 -0.125 4.09375 -0.40625 L 4.03125 -1.0625 C 3.40625 -0.53125 2.734375 -0.5 2.515625 -0.5 C 1.71875 -0.5 1.078125 -1.203125 1.046875 -2.1875 Z M 1.09375 -2.734375 C 1.25 -3.484375 1.78125 -3.984375 2.359375 -3.984375 C 2.875 -3.984375 3.421875 -3.65625 3.5625 -2.734375 Z M 1.09375 -2.734375 "
               id="path4176" />
          </symbol>
          <symbol
             overflow="visible"
             id="textext-4c22d7c5-3">
            <path
               style="stroke:none;"
               d="M 1.59375 -0.453125 C 1.90625 -0.171875 2.34375 0.109375 2.9375 0.109375 C 3.90625 0.109375 4.78125 -0.875 4.78125 -2.21875 C 4.78125 -3.421875 4.15625 -4.53125 3.203125 -4.53125 C 2.609375 -4.53125 2.03125 -4.328125 1.5625 -3.9375 L 1.5625 -4.421875 L 0.8125 -4.421875 L 0.8125 1.9375 L 1.59375 1.9375 Z M 1.59375 -3.3125 C 1.828125 -3.671875 2.21875 -3.890625 2.65625 -3.890625 C 3.40625 -3.890625 4 -3.140625 4 -2.21875 C 4 -1.203125 3.296875 -0.5 2.546875 -0.5 C 2.15625 -0.5 1.890625 -0.703125 1.6875 -0.96875 C 1.59375 -1.109375 1.59375 -1.140625 1.59375 -1.3125 Z M 1.59375 -3.3125 "
               id="path4179" />
          </symbol>
          <symbol
             overflow="visible"
             id="textext-4c22d7c5-4">
            <path
               style="stroke:none;"
               d="M 1.75 -3.84375 L 3.15625 -3.84375 L 3.15625 -4.421875 L 1.75 -4.421875 L 1.75 -5.6875 L 1.0625 -5.6875 L 1.0625 -4.421875 L 0.1875 -4.421875 L 0.1875 -3.84375 L 1.03125 -3.84375 L 1.03125 -1.1875 C 1.03125 -0.59375 1.171875 0.109375 1.859375 0.109375 C 2.546875 0.109375 3.0625 -0.140625 3.3125 -0.265625 L 3.15625 -0.859375 C 2.890625 -0.640625 2.578125 -0.53125 2.25 -0.53125 C 1.890625 -0.53125 1.75 -0.828125 1.75 -1.359375 Z M 1.75 -3.84375 "
               id="path4182" />
          </symbol>
          <symbol
             overflow="visible"
             id="textext-4c22d7c5-5">
            <path
               style="stroke:none;"
               d="M 4.34375 -2.96875 C 4.34375 -3.625 4.1875 -4.53125 2.96875 -4.53125 C 2.359375 -4.53125 1.875 -4.234375 1.5625 -3.8125 L 1.5625 -6.921875 L 0.8125 -6.921875 L 0.8125 0 L 1.578125 0 L 1.578125 -2.4375 C 1.578125 -3.09375 1.828125 -3.921875 2.59375 -3.921875 C 3.546875 -3.921875 3.5625 -3.21875 3.5625 -2.90625 L 3.5625 0 L 4.34375 0 Z M 4.34375 -2.96875 "
               id="path4185" />
          </symbol>
          <symbol
             overflow="visible"
             id="textext-4c22d7c5-6">
            <path
               style="stroke:none;"
               d="M 1.734375 -1.875 L 0.5 -0.640625 L 0.5 0 L 4.46875 0 L 4.46875 -0.703125 L 2.65625 -0.703125 C 2.546875 -0.703125 2.421875 -0.703125 2.296875 -0.703125 L 1.21875 -0.703125 C 1.53125 -0.984375 2.296875 -1.71875 2.609375 -2.015625 C 2.796875 -2.1875 3.296875 -2.609375 3.484375 -2.796875 C 3.9375 -3.234375 4.46875 -3.765625 4.46875 -4.609375 C 4.46875 -5.765625 3.671875 -6.765625 2.359375 -6.765625 C 1.21875 -6.765625 0.65625 -5.984375 0.421875 -5.125 C 0.53125 -4.953125 0.59375 -4.890625 0.609375 -4.859375 C 0.625 -4.84375 0.734375 -4.71875 0.828125 -4.578125 C 1.03125 -5.34375 1.3125 -6.125 2.21875 -6.125 C 3.15625 -6.125 3.65625 -5.375 3.65625 -4.59375 C 3.65625 -3.75 3.09375 -3.1875 2.5 -2.578125 Z M 1.734375 -1.875 "
               id="path4188" />
          </symbol>
          <symbol
             overflow="visible"
             id="textext-4c22d7c5-7">
            <path
               style="stroke:none;"
               d=""
               id="path4191" />
          </symbol>
          <symbol
             overflow="visible"
             id="textext-4c22d7c5-8">
            <path
               style="stroke:none;"
               d="M 6.71875 -3.234375 C 6.859375 -3.296875 6.921875 -3.359375 6.921875 -3.453125 C 6.921875 -3.546875 6.875 -3.609375 6.71875 -3.671875 L 1.21875 -6.265625 C 1.09375 -6.34375 1.046875 -6.34375 1.03125 -6.34375 C 0.90625 -6.34375 0.828125 -6.25 0.828125 -6.140625 C 0.828125 -6.015625 0.90625 -5.96875 1.015625 -5.921875 L 6.25 -3.453125 L 1.03125 -1 C 0.84375 -0.90625 0.828125 -0.828125 0.828125 -0.765625 C 0.828125 -0.65625 0.921875 -0.5625 1.03125 -0.5625 C 1.0625 -0.5625 1.078125 -0.5625 1.203125 -0.640625 Z M 6.5625 1.359375 C 6.734375 1.359375 6.921875 1.359375 6.921875 1.171875 C 6.921875 0.96875 6.703125 0.96875 6.5625 0.96875 L 1.1875 0.96875 C 1.03125 0.96875 0.828125 0.96875 0.828125 1.171875 C 0.828125 1.359375 1 1.359375 1.171875 1.359375 Z M 6.5625 1.359375 "
               id="path4194" />
          </symbol>
        </g>
      </defs>
      <g
         id="textext-4c22d7c5-9">
        <g
           style="fill:rgb(0%,0%,0%);fill-opacity:1;"
           id="g4211">
          <use
             xlink:href="#textext-4c22d7c5-1"
             x="223.432"
             y="134.765"
             id="use4201" />
          <use
             xlink:href="#textext-4c22d7c5-2"
             x="228.579675"
             y="134.765"
             id="use4203" />
          <use
             xlink:href="#textext-4c22d7c5-3"
             x="233.007055"
             y="134.765"
             id="use4205" />
          <use
             xlink:href="#textext-4c22d7c5-4"
             x="238.15473"
             y="134.765"
             id="use4207" />
          <use
             xlink:href="#textext-4c22d7c5-5"
             x="241.752225"
             y="134.765"
             id="use4209" />
        </g>
        <g
           style="fill:rgb(0%,0%,0%);fill-opacity:1;"
           id="g4215">
          <use
             xlink:href="#textext-4c22d7c5-8"
             x="249.667"
             y="134.765"
             id="use4213" />
        </g>
        <g
           style="fill:rgb(0%,0%,0%);fill-opacity:1;"
           id="g4219">
          <use
             xlink:href="#textext-4c22d7c5-6"
             x="260.183"
             y="134.765"
             id="use4217" />
        </g>
      </g>
    </g>
    <g
       id="g4728"
       transform="matrix(0.08122425,0,0,0.08122425,111.53674,204.83255)"
       ns0:preamble="/home/jo/Documents/Mes_papiers/HeteroConco/latex/ENS_Lyon/packages_4_inskcape.sty"
       ns0:text="$\\mathsf{depth\\geq 3}$">
      <defs
         id="defs4705">
        <g
           id="g4703">
          <symbol
             id="textext-2c065de1-0"
             overflow="visible">
            <path
               id="path4676"
               d=""
               style="stroke:none;" />
          </symbol>
          <symbol
             id="textext-2c065de1-1"
             overflow="visible">
            <path
               id="path4679"
               d="M 4.328125 -6.921875 L 3.578125 -6.921875 L 3.578125 -3.984375 C 3.046875 -4.421875 2.5 -4.53125 2.125 -4.53125 C 1.140625 -4.53125 0.359375 -3.5 0.359375 -2.21875 C 0.359375 -0.90625 1.125 0.109375 2.078125 0.109375 C 2.40625 0.109375 2.984375 0.015625 3.546875 -0.515625 L 3.546875 0 L 4.328125 0 Z M 3.546875 -1.390625 C 3.546875 -1.25 3.53125 -1.0625 3.21875 -0.78125 C 2.984375 -0.578125 2.734375 -0.5 2.484375 -0.5 C 1.859375 -0.5 1.140625 -0.96875 1.140625 -2.203125 C 1.140625 -3.515625 2 -3.921875 2.578125 -3.921875 C 3.03125 -3.921875 3.328125 -3.703125 3.546875 -3.375 Z M 3.546875 -1.390625 "
               style="stroke:none;" />
          </symbol>
          <symbol
             id="textext-2c065de1-2"
             overflow="visible">
            <path
               id="path4682"
               d="M 4.125 -2.1875 C 4.125 -2.515625 4.109375 -3.265625 3.734375 -3.875 C 3.3125 -4.484375 2.71875 -4.59375 2.359375 -4.59375 C 1.25 -4.59375 0.34375 -3.53125 0.34375 -2.25 C 0.34375 -0.9375 1.3125 0.109375 2.5 0.109375 C 3.125 0.109375 3.703125 -0.125 4.09375 -0.40625 L 4.03125 -1.0625 C 3.40625 -0.53125 2.734375 -0.5 2.515625 -0.5 C 1.71875 -0.5 1.078125 -1.203125 1.046875 -2.1875 Z M 1.09375 -2.734375 C 1.25 -3.484375 1.78125 -3.984375 2.359375 -3.984375 C 2.875 -3.984375 3.421875 -3.65625 3.5625 -2.734375 Z M 1.09375 -2.734375 "
               style="stroke:none;" />
          </symbol>
          <symbol
             id="textext-2c065de1-3"
             overflow="visible">
            <path
               id="path4685"
               d="M 1.59375 -0.453125 C 1.90625 -0.171875 2.34375 0.109375 2.9375 0.109375 C 3.90625 0.109375 4.78125 -0.875 4.78125 -2.21875 C 4.78125 -3.421875 4.15625 -4.53125 3.203125 -4.53125 C 2.609375 -4.53125 2.03125 -4.328125 1.5625 -3.9375 L 1.5625 -4.421875 L 0.8125 -4.421875 L 0.8125 1.9375 L 1.59375 1.9375 Z M 1.59375 -3.3125 C 1.828125 -3.671875 2.21875 -3.890625 2.65625 -3.890625 C 3.40625 -3.890625 4 -3.140625 4 -2.21875 C 4 -1.203125 3.296875 -0.5 2.546875 -0.5 C 2.15625 -0.5 1.890625 -0.703125 1.6875 -0.96875 C 1.59375 -1.109375 1.59375 -1.140625 1.59375 -1.3125 Z M 1.59375 -3.3125 "
               style="stroke:none;" />
          </symbol>
          <symbol
             id="textext-2c065de1-4"
             overflow="visible">
            <path
               id="path4688"
               d="M 1.75 -3.84375 L 3.15625 -3.84375 L 3.15625 -4.421875 L 1.75 -4.421875 L 1.75 -5.6875 L 1.0625 -5.6875 L 1.0625 -4.421875 L 0.1875 -4.421875 L 0.1875 -3.84375 L 1.03125 -3.84375 L 1.03125 -1.1875 C 1.03125 -0.59375 1.171875 0.109375 1.859375 0.109375 C 2.546875 0.109375 3.0625 -0.140625 3.3125 -0.265625 L 3.15625 -0.859375 C 2.890625 -0.640625 2.578125 -0.53125 2.25 -0.53125 C 1.890625 -0.53125 1.75 -0.828125 1.75 -1.359375 Z M 1.75 -3.84375 "
               style="stroke:none;" />
          </symbol>
          <symbol
             id="textext-2c065de1-5"
             overflow="visible">
            <path
               id="path4691"
               d="M 4.34375 -2.96875 C 4.34375 -3.625 4.1875 -4.53125 2.96875 -4.53125 C 2.359375 -4.53125 1.875 -4.234375 1.5625 -3.8125 L 1.5625 -6.921875 L 0.8125 -6.921875 L 0.8125 0 L 1.578125 0 L 1.578125 -2.4375 C 1.578125 -3.09375 1.828125 -3.921875 2.59375 -3.921875 C 3.546875 -3.921875 3.5625 -3.21875 3.5625 -2.90625 L 3.5625 0 L 4.34375 0 Z M 4.34375 -2.96875 "
               style="stroke:none;" />
          </symbol>
          <symbol
             id="textext-2c065de1-6"
             overflow="visible">
            <path
               id="path4694"
               d="M 0.921875 -5.125 C 1.203125 -5.828125 1.859375 -6.1875 2.46875 -6.1875 C 2.984375 -6.1875 3.46875 -5.875 3.46875 -5.25 C 3.46875 -4.640625 3.0625 -4.046875 2.453125 -3.90625 C 2.390625 -3.890625 2.375 -3.890625 1.671875 -3.84375 L 1.671875 -3.234375 L 2.375 -3.234375 C 3.453125 -3.234375 3.671875 -2.296875 3.671875 -1.796875 C 3.671875 -1.03125 3.203125 -0.390625 2.4375 -0.390625 C 1.75 -0.390625 0.96875 -0.734375 0.53125 -1.421875 L 0.421875 -0.8125 C 1.140625 0.125 2.0625 0.21875 2.46875 0.21875 C 3.671875 0.21875 4.5625 -0.75 4.5625 -1.796875 C 4.5625 -2.703125 3.859375 -3.3125 3.1875 -3.53125 C 3.9375 -3.9375 4.28125 -4.609375 4.28125 -5.25 C 4.28125 -6.09375 3.453125 -6.765625 2.46875 -6.765625 C 1.703125 -6.765625 0.984375 -6.359375 0.5625 -5.65625 Z M 0.921875 -5.125 "
               style="stroke:none;" />
          </symbol>
          <symbol
             id="textext-2c065de1-7"
             overflow="visible">
            <path
               id="path4697"
               d=""
               style="stroke:none;" />
          </symbol>
          <symbol
             id="textext-2c065de1-8"
             overflow="visible">
            <path
               id="path4700"
               d="M 6.71875 -3.234375 C 6.859375 -3.296875 6.921875 -3.359375 6.921875 -3.453125 C 6.921875 -3.546875 6.875 -3.609375 6.71875 -3.671875 L 1.21875 -6.265625 C 1.09375 -6.34375 1.046875 -6.34375 1.03125 -6.34375 C 0.90625 -6.34375 0.828125 -6.25 0.828125 -6.140625 C 0.828125 -6.015625 0.90625 -5.96875 1.015625 -5.921875 L 6.25 -3.453125 L 1.03125 -1 C 0.84375 -0.90625 0.828125 -0.828125 0.828125 -0.765625 C 0.828125 -0.65625 0.921875 -0.5625 1.03125 -0.5625 C 1.0625 -0.5625 1.078125 -0.5625 1.203125 -0.640625 Z M 6.5625 1.359375 C 6.734375 1.359375 6.921875 1.359375 6.921875 1.171875 C 6.921875 0.96875 6.703125 0.96875 6.5625 0.96875 L 1.1875 0.96875 C 1.03125 0.96875 0.828125 0.96875 0.828125 1.171875 C 0.828125 1.359375 1 1.359375 1.171875 1.359375 Z M 6.5625 1.359375 "
               style="stroke:none;" />
          </symbol>
        </g>
      </defs>
      <g
         id="textext-2c065de1-9">
        <g
           id="g4717"
           style="fill:rgb(0%,0%,0%);fill-opacity:1;">
          <use
             id="use4707"
             y="134.765"
             x="223.432"
             xlink:href="#textext-2c065de1-1" />
          <use
             id="use4709"
             y="134.765"
             x="228.579675"
             xlink:href="#textext-2c065de1-2" />
          <use
             id="use4711"
             y="134.765"
             x="233.007055"
             xlink:href="#textext-2c065de1-3" />
          <use
             id="use4713"
             y="134.765"
             x="238.15473"
             xlink:href="#textext-2c065de1-4" />
          <use
             id="use4715"
             y="134.765"
             x="241.752225"
             xlink:href="#textext-2c065de1-5" />
        </g>
        <g
           id="g4721"
           style="fill:rgb(0%,0%,0%);fill-opacity:1;">
          <use
             id="use4719"
             y="134.765"
             x="249.667"
             xlink:href="#textext-2c065de1-8" />
        </g>
        <g
           id="g4725"
           style="fill:rgb(0%,0%,0%);fill-opacity:1;">
          <use
             id="use4723"
             y="134.765"
             x="260.183"
             xlink:href="#textext-2c065de1-6" />
        </g>
      </g>
    </g>
  </g>
</svg>
