<?xml version="1.0" encoding="UTF-8" standalone="no"?>
<!-- Created with Inkscape (http://www.inkscape.org/) -->

<svg
   xmlns:ns0="http://www.iki.fi/pav/software/textext/"
   xmlns:dc="http://purl.org/dc/elements/1.1/"
   xmlns:cc="http://creativecommons.org/ns#"
   xmlns:rdf="http://www.w3.org/1999/02/22-rdf-syntax-ns#"
   xmlns:svg="http://www.w3.org/2000/svg"
   xmlns="http://www.w3.org/2000/svg"
   xmlns:xlink="http://www.w3.org/1999/xlink"
   xmlns:sodipodi="http://sodipodi.sourceforge.net/DTD/sodipodi-0.dtd"
   xmlns:inkscape="http://www.inkscape.org/namespaces/inkscape"
   width="347.34943"
   height="209.23019"
   id="svg2"
   version="1.1"
   inkscape:version="0.48.4 r9939"
   sodipodi:docname="moindre_carre_projection.svg">
  <sodipodi:namedview
     id="base"
     pagecolor="#ffffff"
     bordercolor="#666666"
     borderopacity="1.0"
     inkscape:pageopacity="0.0"
     inkscape:pageshadow="2"
     inkscape:zoom="1.979899"
     inkscape:cx="378.58518"
     inkscape:cy="77.863053"
     inkscape:document-units="px"
     inkscape:current-layer="layer1"
     showgrid="false"
     fit-margin-top="0"
     fit-margin-left="0"
     fit-margin-right="0"
     fit-margin-bottom="0"
     inkscape:window-width="1215"
     inkscape:window-height="776"
     inkscape:window-x="65"
     inkscape:window-y="24"
     inkscape:window-maximized="1"
     inkscape:object-paths="true"
     inkscape:object-nodes="true"
     inkscape:snap-intersection-paths="false"
     inkscape:snap-midpoints="true"
     inkscape:snap-smooth-nodes="true"
     inkscape:snap-object-midpoints="true" />
  <defs
     id="defs4">
    <marker
       style="overflow:visible"
       id="Arrow1Lstart"
       refX="0"
       refY="0"
       orient="auto"
       inkscape:stockid="Arrow1Lstart">
      <path
         inkscape:connector-curvature="0"
         transform="matrix(0.8,0,0,0.8,10,0)"
         style="fill-rule:evenodd;stroke:#000000;stroke-width:1pt"
         d="M 0,0 5,-5 -12.5,0 5,5 0,0 z"
         id="path3777" />
    </marker>
    <marker
       style="overflow:visible"
       id="Arrow1Lend"
       refX="0"
       refY="0"
       orient="auto"
       inkscape:stockid="Arrow1Lend">
      <path
         inkscape:connector-curvature="0"
         transform="matrix(-0.8,0,0,-0.8,-10,0)"
         style="fill-rule:evenodd;stroke:#000000;stroke-width:1pt"
         d="M 0,0 5,-5 -12.5,0 5,5 0,0 z"
         id="path3780" />
    </marker>
    <marker
       style="overflow:visible"
       id="Arrow1Lend-5"
       refX="0"
       refY="0"
       orient="auto"
       inkscape:stockid="Arrow1Lend">
      <path
         transform="matrix(-0.8,0,0,-0.8,-10,0)"
         style="fill-rule:evenodd;stroke:#000000;stroke-width:1pt"
         d="M 0,0 5,-5 -12.5,0 5,5 0,0 z"
         id="path3780-8"
         inkscape:connector-curvature="0" />
    </marker>
  </defs>
  <metadata
     id="metadata7">
    <rdf:RDF>
      <cc:Work
         rdf:about="">
        <dc:format>image/svg+xml</dc:format>
        <dc:type
           rdf:resource="http://purl.org/dc/dcmitype/StillImage" />
        <dc:title />
      </cc:Work>
    </rdf:RDF>
  </metadata>
  <g
     transform="translate(-205.5,-537.20147)"
     id="layer1"
     inkscape:groupmode="layer"
     inkscape:label="Calque 1">
    <path
       sodipodi:nodetypes="cc"
       inkscape:connector-curvature="0"
       id="path4332"
       d="m 362.32143,632.04254 23.42925,0"
       style="fill:none;stroke:#000000;stroke-width:1;stroke-linecap:butt;stroke-linejoin:miter;stroke-miterlimit:4;stroke-opacity:1;stroke-dasharray:1, 1;stroke-dashoffset:0" />
    <path
       inkscape:connector-curvature="0"
       id="path2985"
       d="m 206,714.6479 311.42857,0"
       style="fill:none;stroke:#000000;stroke-width:1px;stroke-linecap:butt;stroke-linejoin:miter;stroke-opacity:1;marker-end:url(#Arrow1Lend)" />
    <path
       sodipodi:nodetypes="cc"
       inkscape:connector-curvature="0"
       id="path2985-5"
       d="m 239.91122,745.93167 0,-192.73565"
       style="fill:none;stroke:#000000;stroke-width:1px;stroke-linecap:butt;stroke-linejoin:miter;stroke-opacity:1;marker-end:url(#Arrow1Lend)" />
    <path
       transform="matrix(0.55340623,0,0,0.55340623,259.44735,466.11237)"
       d="m 308.09653,389.44958 c 0,2.64999 -2.14823,4.79823 -4.79822,4.79823 -2.64999,0 -4.79823,-2.14824 -4.79823,-4.79823 0,-2.64998 2.14824,-4.79822 4.79823,-4.79822 2.64999,0 4.79822,2.14824 4.79822,4.79822 z"
       sodipodi:ry="4.7982244"
       sodipodi:rx="4.7982244"
       sodipodi:cy="389.44958"
       sodipodi:cx="303.29831"
       id="path4243-7"
       style="stroke:none"
       sodipodi:type="arc" />
    <path
       transform="matrix(0.55340623,0,0,0.55340623,325.10727,453.99054)"
       d="m 308.09653,389.44958 c 0,2.64999 -2.14823,4.79823 -4.79822,4.79823 -2.64999,0 -4.79823,-2.14824 -4.79823,-4.79823 0,-2.64998 2.14824,-4.79822 4.79823,-4.79822 2.64999,0 4.79822,2.14824 4.79822,4.79822 z"
       sodipodi:ry="4.7982244"
       sodipodi:rx="4.7982244"
       sodipodi:cy="389.44958"
       sodipodi:cx="303.29831"
       id="path4243-23"
       style="stroke:none"
       sodipodi:type="arc" />
    <path
       inkscape:connector-curvature="0"
       id="path4324"
       d="m 427.67857,681.6479 0,-24.46429"
       style="fill:none;stroke:#000000;stroke-width:1px;stroke-linecap:butt;stroke-linejoin:miter;stroke-opacity:1" />
    <path
       inkscape:connector-curvature="0"
       id="path4326"
       d="m 492.95444,669.359 0.0446,12.89764"
       style="fill:none;stroke:#000000;stroke-width:1px;stroke-linecap:butt;stroke-linejoin:miter;stroke-opacity:1"
       sodipodi:nodetypes="cc" />
    <path
       transform="matrix(0.55340623,0,0,0.55340623,287.15283,433.61872)"
       d="m 308.09653,389.44958 c 0,2.64999 -2.14823,4.79823 -4.79822,4.79823 -2.64999,0 -4.79823,-2.14824 -4.79823,-4.79823 0,-2.64998 2.14824,-4.79822 4.79823,-4.79822 2.64999,0 4.79822,2.14824 4.79822,4.79822 z"
       sodipodi:ry="4.7982244"
       sodipodi:rx="4.7982244"
       sodipodi:cy="389.44958"
       sodipodi:cx="303.29831"
       id="path4243-23-7-3"
       style="stroke:none"
       sodipodi:type="arc" />
    <path
       sodipodi:nodetypes="cc"
       inkscape:connector-curvature="0"
       id="path4326-2-7"
       d="m 454.95537,647.81656 0,19.82143"
       style="fill:none;stroke:#000000;stroke-width:1px;stroke-linecap:butt;stroke-linejoin:miter;stroke-opacity:1" />
    <g
       id="g4532">
      <path
         sodipodi:type="arc"
         style="stroke:none"
         id="path4243-23-7"
         sodipodi:cx="303.29831"
         sodipodi:cy="389.44958"
         sodipodi:rx="4.7982244"
         sodipodi:ry="4.7982244"
         d="m 308.09653,389.44958 c 0,2.64999 -2.14823,4.79823 -4.79822,4.79823 -2.64999,0 -4.79823,-2.14824 -4.79823,-4.79823 0,-2.64998 2.14824,-4.79822 4.79823,-4.79822 2.64999,0 4.79822,2.14824 4.79822,4.79822 z"
         transform="matrix(0.55340623,0,0,0.55340623,160.00997,376.11872)" />
      <path
         style="fill:none;stroke:#000000;stroke-width:1px;stroke-linecap:butt;stroke-linejoin:miter;stroke-opacity:1"
         d="m 327.85715,591.48718 0,27.31214"
         id="path4326-2"
         inkscape:connector-curvature="0"
         sodipodi:nodetypes="cc" />
    </g>
    <path
       transform="matrix(0.55340623,0,0,0.55340623,122.15283,371.65444)"
       d="m 308.09653,389.44958 c 0,2.64999 -2.14823,4.79823 -4.79822,4.79823 -2.64999,0 -4.79823,-2.14824 -4.79823,-4.79823 0,-2.64998 2.14824,-4.79822 4.79823,-4.79822 2.64999,0 4.79822,2.14824 4.79822,4.79822 z"
       sodipodi:ry="4.7982244"
       sodipodi:rx="4.7982244"
       sodipodi:cy="389.44958"
       sodipodi:cx="303.29831"
       id="path4243-23-7-2"
       style="stroke:none"
       sodipodi:type="arc" />
    <path
       sodipodi:nodetypes="cc"
       inkscape:connector-curvature="0"
       id="path4326-2-6"
       d="m 290.00001,587.0229 0,17.32143"
       style="fill:none;stroke:#000000;stroke-width:1px;stroke-linecap:butt;stroke-linejoin:miter;stroke-opacity:1" />
    <path
       transform="matrix(0.55340623,0,0,0.55340623,88.938541,324.33301)"
       d="m 308.09653,389.44958 c 0,2.64999 -2.14823,4.79823 -4.79822,4.79823 -2.64999,0 -4.79823,-2.14824 -4.79823,-4.79823 0,-2.64998 2.14824,-4.79822 4.79823,-4.79822 2.64999,0 4.79822,2.14824 4.79822,4.79822 z"
       sodipodi:ry="4.7982244"
       sodipodi:rx="4.7982244"
       sodipodi:cy="389.44958"
       sodipodi:cx="303.29831"
       id="path4243-23-7-0"
       style="stroke:none"
       sodipodi:type="arc" />
    <path
       sodipodi:nodetypes="cc"
       inkscape:connector-curvature="0"
       id="path4326-2-1"
       d="m 256.78572,539.70147 0,52.14286"
       style="fill:none;stroke:#000000;stroke-width:1px;stroke-linecap:butt;stroke-linejoin:miter;stroke-opacity:1" />
    <g
       transform="translate(0,-54)"
       id="g4528">
      <path
         sodipodi:type="arc"
         style="stroke:none"
         id="path4243-23-7-6"
         sodipodi:cx="303.29831"
         sodipodi:cy="389.44958"
         sodipodi:rx="4.7982244"
         sodipodi:ry="4.7982244"
         d="m 308.09653,389.44958 c 0,2.64999 -2.14823,4.79823 -4.79822,4.79823 -2.64999,0 -4.79823,-2.14824 -4.79823,-4.79823 0,-2.64998 2.14824,-4.79822 4.79823,-4.79822 2.64999,0 4.79822,2.14824 4.79822,4.79822 z"
         transform="matrix(0.55340623,0,0,0.55340623,194.47426,393.79729)" />
      <path
         style="fill:none;stroke:#000000;stroke-width:1px;stroke-linecap:butt;stroke-linejoin:miter;stroke-opacity:1"
         d="m 362.32144,609.16575 0,76.87679"
         id="path4326-2-15"
         inkscape:connector-curvature="0"
         sodipodi:nodetypes="cc" />
    </g>
    <path
       transform="matrix(-0.55340623,0,0,-0.55340623,476.4186,860.21278)"
       d="m 308.09653,389.44958 c 0,2.64999 -2.14823,4.79823 -4.79822,4.79823 -2.64999,0 -4.79823,-2.14824 -4.79823,-4.79823 0,-2.64998 2.14824,-4.79822 4.79823,-4.79822 2.64999,0 4.79822,2.14824 4.79822,4.79822 z"
       sodipodi:ry="4.7982244"
       sodipodi:rx="4.7982244"
       sodipodi:cy="389.44958"
       sodipodi:cx="303.29831"
       id="path4243-23-7-4-5"
       style="stroke:none"
       sodipodi:type="arc" />
    <path
       sodipodi:nodetypes="cc"
       inkscape:connector-curvature="0"
       id="path4326-2-2-3"
       d="m 308.57142,644.84432 0,-33.21428"
       style="fill:none;stroke:#000000;stroke-width:1px;stroke-linecap:butt;stroke-linejoin:miter;stroke-opacity:1" />
    <path
       transform="matrix(-0.55340623,0,0,-0.55340623,436.59717,837.53421)"
       d="m 308.09653,389.44958 c 0,2.64999 -2.14823,4.79823 -4.79822,4.79823 -2.64999,0 -4.79823,-2.14824 -4.79823,-4.79823 0,-2.64998 2.14824,-4.79822 4.79823,-4.79822 2.64999,0 4.79822,2.14824 4.79822,4.79822 z"
       sodipodi:ry="4.7982244"
       sodipodi:rx="4.7982244"
       sodipodi:cy="389.44958"
       sodipodi:cx="303.29831"
       id="path4243-23-7-4-4"
       style="stroke:none"
       sodipodi:type="arc" />
    <path
       sodipodi:nodetypes="cc"
       inkscape:connector-curvature="0"
       id="path4326-2-2-1"
       d="m 268.75,622.16575 0,-26.0789"
       style="fill:none;stroke:#000000;stroke-width:1px;stroke-linecap:butt;stroke-linejoin:miter;stroke-opacity:1" />
    <path
       transform="matrix(-0.55340623,0,0,-0.55340623,515.88289,884.10564)"
       d="m 308.09653,389.44958 c 0,2.64999 -2.14823,4.79823 -4.79822,4.79823 -2.64999,0 -4.79823,-2.14824 -4.79823,-4.79823 0,-2.64998 2.14824,-4.79822 4.79823,-4.79822 2.64999,0 4.79822,2.14824 4.79822,4.79822 z"
       sodipodi:ry="4.7982244"
       sodipodi:rx="4.7982244"
       sodipodi:cy="389.44958"
       sodipodi:cx="303.29831"
       id="path4243-23-7-4-3"
       style="stroke:none"
       sodipodi:type="arc" />
    <path
       sodipodi:nodetypes="cc"
       inkscape:connector-curvature="0"
       id="path4326-2-2-9"
       d="m 348.03571,668.73718 0,-42.5"
       style="fill:none;stroke:#000000;stroke-width:1px;stroke-linecap:butt;stroke-linejoin:miter;stroke-opacity:1" />
    <path
       transform="matrix(-0.55340623,0,0,-0.55340623,559.45432,910.64136)"
       d="m 308.09653,389.44958 c 0,2.64999 -2.14823,4.79823 -4.79822,4.79823 -2.64999,0 -4.79823,-2.14824 -4.79823,-4.79823 0,-2.64998 2.14824,-4.79822 4.79823,-4.79822 2.64999,0 4.79822,2.14824 4.79822,4.79822 z"
       sodipodi:ry="4.7982244"
       sodipodi:rx="4.7982244"
       sodipodi:cy="389.44958"
       sodipodi:cx="303.29831"
       id="path4243-23-7-4-31"
       style="stroke:none"
       sodipodi:type="arc" />
    <path
       sodipodi:nodetypes="cc"
       inkscape:connector-curvature="0"
       id="path4326-2-2-4"
       d="m 391.60714,695.2729 0,-51.60714"
       style="fill:none;stroke:#000000;stroke-width:1px;stroke-linecap:butt;stroke-linejoin:miter;stroke-opacity:1" />
    <path
       transform="matrix(-0.55340623,0,0,-0.55340623,637.49003,914.31993)"
       d="m 308.09653,389.44958 c 0,2.64999 -2.14823,4.79823 -4.79822,4.79823 -2.64999,0 -4.79823,-2.14824 -4.79823,-4.79823 0,-2.64998 2.14824,-4.79822 4.79823,-4.79822 2.64999,0 4.79822,2.14824 4.79822,4.79822 z"
       sodipodi:ry="4.7982244"
       sodipodi:rx="4.7982244"
       sodipodi:cy="389.44958"
       sodipodi:cx="303.29831"
       id="path4243-23-7-4-2"
       style="stroke:none"
       sodipodi:type="arc" />
    <path
       sodipodi:nodetypes="cc"
       inkscape:connector-curvature="0"
       id="path4326-2-2-8"
       d="m 469.64285,698.95147 0,-25.66968"
       style="fill:none;stroke:#000000;stroke-width:1px;stroke-linecap:butt;stroke-linejoin:miter;stroke-opacity:1" />
    <path
       inkscape:connector-curvature="0"
       id="path4241"
       d="M 223.24371,578.60064 550.53314,704.36463"
       style="fill:none;stroke:#ff0000;stroke-width:2;stroke-linecap:butt;stroke-linejoin:miter;stroke-miterlimit:4;stroke-opacity:1;stroke-dasharray:none"
       sodipodi:nodetypes="cc" />
    <path
       sodipodi:nodetypes="cc"
       inkscape:connector-curvature="0"
       id="path4536"
       d="m 384.93624,557.72023 0,72.00154"
       style="fill:none;stroke:#000000;stroke-width:1px;stroke-linecap:butt;stroke-linejoin:miter;stroke-opacity:1;marker-start:url(#Arrow1Lstart);marker-end:url(#Arrow1Lend-5)" />
    <text
       sodipodi:linespacing="125%"
       id="text4490-2-3"
       y="545.40686"
       x="349.94107"
       style="font-size:12px;font-style:normal;font-variant:normal;font-weight:normal;font-stretch:normal;text-align:start;line-height:125%;letter-spacing:0px;word-spacing:0px;writing-mode:lr-tb;text-anchor:start;fill:#000000;fill-opacity:1;stroke:none;font-family:Sans;-inkscape-font-specification:Sans"
       xml:space="preserve"><tspan
         id="tspan4524-8"
         y="545.40686"
         x="349.94107"
         sodipodi:role="line" /></text>
    <g
       id="g3079"
       ns0:preamble="/cal/homes/salmon/.config/inkscape/extensions/test_sty.sty"
       ns0:text="$y$"
       transform="translate(0.72336621,422.48921)">
      <defs
         id="defs3081">
        <g
           id="g3083">
          <symbol
             style="overflow:visible"
             id="textext-5f00e7b6-0"
             overflow="visible">
            <path
               inkscape:connector-curvature="0"
               id="path3086"
               d=""
               style="stroke:none" />
          </symbol>
          <symbol
             style="overflow:visible"
             id="textext-5f00e7b6-1"
             overflow="visible">
            <path
               inkscape:connector-curvature="0"
               id="path3089"
               d="m 4.84375,-3.796875 c 0.046875,-0.140625 0.046875,-0.15625 0.046875,-0.234375 0,-0.171875 -0.140625,-0.265625 -0.296875,-0.265625 -0.09375,0 -0.25,0.0625 -0.34375,0.203125 -0.015625,0.0625 -0.109375,0.359375 -0.140625,0.546875 -0.078125,0.25 -0.140625,0.53125 -0.203125,0.796875 l -0.453125,1.796875 c -0.03125,0.140625 -0.46875,0.84375 -1.125,0.84375 -0.5,0 -0.609375,-0.4375 -0.609375,-0.8125 C 1.71875,-1.375 1.890625,-2 2.21875,-2.875 2.375,-3.28125 2.421875,-3.390625 2.421875,-3.59375 c 0,-0.4375 -0.3125,-0.8125 -0.8125,-0.8125 -0.953125,0 -1.3125,1.453125 -1.3125,1.53125 0,0.109375 0.09375,0.109375 0.109375,0.109375 0.109375,0 0.109375,-0.03125 0.15625,-0.1875 0.28125,-0.9375 0.671875,-1.234375 1.015625,-1.234375 0.078125,0 0.25,0 0.25,0.3125 0,0.25 -0.109375,0.515625 -0.171875,0.703125 -0.40625,1.0625 -0.578125,1.625 -0.578125,2.09375 0,0.890625 0.625,1.1875 1.21875,1.1875 0.390625,0 0.71875,-0.171875 1,-0.453125 -0.125,0.515625 -0.25,1.015625 -0.640625,1.546875 -0.265625,0.328125 -0.640625,0.625 -1.09375,0.625 -0.140625,0 -0.59375,-0.03125 -0.765625,-0.421875 0.15625,0 0.296875,0 0.421875,-0.125 C 1.328125,1.203125 1.421875,1.0625 1.421875,0.875 1.421875,0.5625 1.15625,0.53125 1.0625,0.53125 0.828125,0.53125 0.5,0.6875 0.5,1.171875 c 0,0.5 0.4375,0.875 1.0625,0.875 1.015625,0 2.046875,-0.90625 2.328125,-2.03125 z"
               style="stroke:none" />
          </symbol>
        </g>
      </defs>
      <g
         id="textext-5f00e7b6-2">
        <g
           id="g3092"
           style="fill:#000000;fill-opacity:1">
          <use
             height="1052.3622"
             width="744.09448"
             id="use3094"
             y="134.765"
             x="223.43201"
             xlink:href="#textext-5f00e7b6-1" />
        </g>
      </g>
    </g>
    <g
       transform="translate(121.42857,410.71429)"
       ns0:text="$(x_i,y_i)$"
       ns0:preamble="/cal/homes/salmon/.config/inkscape/extensions/test_sty.sty"
       id="g3263">
      <defs
         id="defs3265">
        <g
           id="g3267">
          <symbol
             style="overflow:visible"
             overflow="visible"
             id="textext-851169a9-0">
            <path
               inkscape:connector-curvature="0"
               style="stroke:none"
               d=""
               id="path3270" />
          </symbol>
          <symbol
             style="overflow:visible"
             overflow="visible"
             id="textext-851169a9-1">
            <path
               inkscape:connector-curvature="0"
               style="stroke:none"
               d="m 3.296875,2.390625 c 0,-0.03125 0,-0.046875 -0.171875,-0.21875 C 1.890625,0.921875 1.5625,-0.96875 1.5625,-2.5 c 0,-1.734375 0.375,-3.46875 1.609375,-4.703125 0.125,-0.125 0.125,-0.140625 0.125,-0.171875 0,-0.078125 -0.03125,-0.109375 -0.09375,-0.109375 -0.109375,0 -1,0.6875 -1.59375,1.953125 -0.5,1.09375 -0.625,2.203125 -0.625,3.03125 0,0.78125 0.109375,1.984375 0.65625,3.125 C 2.25,1.84375 3.09375,2.5 3.203125,2.5 c 0.0625,0 0.09375,-0.03125 0.09375,-0.109375 z"
               id="path3273" />
          </symbol>
          <symbol
             style="overflow:visible"
             overflow="visible"
             id="textext-851169a9-2">
            <path
               inkscape:connector-curvature="0"
               style="stroke:none"
               d="m 2.875,-2.5 c 0,-0.765625 -0.109375,-1.96875 -0.65625,-3.109375 -0.59375,-1.21875 -1.453125,-1.875 -1.546875,-1.875 -0.0625,0 -0.109375,0.046875 -0.109375,0.109375 0,0.03125 0,0.046875 0.1875,0.234375 0.984375,0.984375 1.546875,2.5625 1.546875,4.640625 0,1.71875 -0.359375,3.46875 -1.59375,4.71875 C 0.5625,2.34375 0.5625,2.359375 0.5625,2.390625 0.5625,2.453125 0.609375,2.5 0.671875,2.5 0.765625,2.5 1.671875,1.8125 2.25,0.546875 2.765625,-0.546875 2.875,-1.65625 2.875,-2.5 z"
               id="path3276" />
          </symbol>
          <symbol
             style="overflow:visible"
             overflow="visible"
             id="textext-851169a9-3">
            <path
               inkscape:connector-curvature="0"
               style="stroke:none"
               d=""
               id="path3279" />
          </symbol>
          <symbol
             style="overflow:visible"
             overflow="visible"
             id="textext-851169a9-4">
            <path
               inkscape:connector-curvature="0"
               style="stroke:none"
               d="M 3.328125,-3.015625 C 3.390625,-3.265625 3.625,-4.1875 4.3125,-4.1875 c 0.046875,0 0.296875,0 0.5,0.125 C 4.53125,-4 4.34375,-3.765625 4.34375,-3.515625 c 0,0.15625 0.109375,0.34375 0.375,0.34375 0.21875,0 0.53125,-0.171875 0.53125,-0.578125 0,-0.515625 -0.578125,-0.65625 -0.921875,-0.65625 -0.578125,0 -0.921875,0.53125 -1.046875,0.75 -0.25,-0.65625 -0.78125,-0.75 -1.078125,-0.75 -1.03125,0 -1.609375,1.28125 -1.609375,1.53125 0,0.109375 0.109375,0.109375 0.125,0.109375 0.078125,0 0.109375,-0.03125 0.125,-0.109375 0.34375,-1.0625 1,-1.3125 1.34375,-1.3125 0.1875,0 0.53125,0.09375 0.53125,0.671875 0,0.3125 -0.171875,0.96875 -0.53125,2.375 -0.15625,0.609375 -0.515625,1.03125 -0.953125,1.03125 -0.0625,0 -0.28125,0 -0.5,-0.125 0.25,-0.0625 0.46875,-0.265625 0.46875,-0.546875 0,-0.265625 -0.21875,-0.34375 -0.359375,-0.34375 -0.3125,0 -0.546875,0.25 -0.546875,0.578125 0,0.453125 0.484375,0.65625 0.921875,0.65625 0.671875,0 1.03125,-0.703125 1.046875,-0.75 0.125,0.359375 0.484375,0.75 1.078125,0.75 1.03125,0 1.59375,-1.28125 1.59375,-1.53125 0,-0.109375 -0.078125,-0.109375 -0.109375,-0.109375 -0.09375,0 -0.109375,0.046875 -0.140625,0.109375 -0.328125,1.078125 -1,1.3125 -1.3125,1.3125 -0.390625,0 -0.546875,-0.3125 -0.546875,-0.65625 0,-0.21875 0.046875,-0.4375 0.15625,-0.875 z"
               id="path3282" />
          </symbol>
          <symbol
             style="overflow:visible"
             overflow="visible"
             id="textext-851169a9-5">
            <path
               inkscape:connector-curvature="0"
               style="stroke:none"
               d="m 2.03125,-0.015625 c 0,-0.65625 -0.25,-1.046875 -0.640625,-1.046875 -0.328125,0 -0.53125,0.25 -0.53125,0.53125 C 0.859375,-0.265625 1.0625,0 1.390625,0 1.5,0 1.640625,-0.046875 1.734375,-0.125 1.765625,-0.15625 1.78125,-0.15625 1.78125,-0.15625 c 0.015625,0 0.015625,0 0.015625,0.140625 0,0.75 -0.34375,1.34375 -0.671875,1.671875 -0.109375,0.109375 -0.109375,0.125 -0.109375,0.15625 0,0.078125 0.046875,0.109375 0.09375,0.109375 0.109375,0 0.921875,-0.765625 0.921875,-1.9375 z"
               id="path3285" />
          </symbol>
          <symbol
             style="overflow:visible"
             overflow="visible"
             id="textext-851169a9-6">
            <path
               inkscape:connector-curvature="0"
               style="stroke:none"
               d="m 4.84375,-3.796875 c 0.046875,-0.140625 0.046875,-0.15625 0.046875,-0.234375 0,-0.171875 -0.140625,-0.265625 -0.296875,-0.265625 -0.09375,0 -0.25,0.0625 -0.34375,0.203125 -0.015625,0.0625 -0.109375,0.359375 -0.140625,0.546875 -0.078125,0.25 -0.140625,0.53125 -0.203125,0.796875 l -0.453125,1.796875 c -0.03125,0.140625 -0.46875,0.84375 -1.125,0.84375 -0.5,0 -0.609375,-0.4375 -0.609375,-0.8125 C 1.71875,-1.375 1.890625,-2 2.21875,-2.875 2.375,-3.28125 2.421875,-3.390625 2.421875,-3.59375 c 0,-0.4375 -0.3125,-0.8125 -0.8125,-0.8125 -0.953125,0 -1.3125,1.453125 -1.3125,1.53125 0,0.109375 0.09375,0.109375 0.109375,0.109375 0.109375,0 0.109375,-0.03125 0.15625,-0.1875 0.28125,-0.9375 0.671875,-1.234375 1.015625,-1.234375 0.078125,0 0.25,0 0.25,0.3125 0,0.25 -0.109375,0.515625 -0.171875,0.703125 -0.40625,1.0625 -0.578125,1.625 -0.578125,2.09375 0,0.890625 0.625,1.1875 1.21875,1.1875 0.390625,0 0.71875,-0.171875 1,-0.453125 -0.125,0.515625 -0.25,1.015625 -0.640625,1.546875 -0.265625,0.328125 -0.640625,0.625 -1.09375,0.625 -0.140625,0 -0.59375,-0.03125 -0.765625,-0.421875 0.15625,0 0.296875,0 0.421875,-0.125 C 1.328125,1.203125 1.421875,1.0625 1.421875,0.875 1.421875,0.5625 1.15625,0.53125 1.0625,0.53125 0.828125,0.53125 0.5,0.6875 0.5,1.171875 c 0,0.5 0.4375,0.875 1.0625,0.875 1.015625,0 2.046875,-0.90625 2.328125,-2.03125 z"
               id="path3288" />
          </symbol>
          <symbol
             style="overflow:visible"
             overflow="visible"
             id="textext-851169a9-7">
            <path
               inkscape:connector-curvature="0"
               style="stroke:none"
               d=""
               id="path3291" />
          </symbol>
          <symbol
             style="overflow:visible"
             overflow="visible"
             id="textext-851169a9-8">
            <path
               inkscape:connector-curvature="0"
               style="stroke:none"
               d="m 2.265625,-4.359375 c 0,-0.109375 -0.09375,-0.265625 -0.28125,-0.265625 -0.1875,0 -0.390625,0.1875 -0.390625,0.390625 0,0.109375 0.078125,0.265625 0.28125,0.265625 0.1875,0 0.390625,-0.203125 0.390625,-0.390625 z M 0.84375,-0.8125 c -0.03125,0.09375 -0.0625,0.171875 -0.0625,0.296875 0,0.328125 0.265625,0.578125 0.65625,0.578125 0.6875,0 1,-0.953125 1,-1.0625 0,-0.09375 -0.09375,-0.09375 -0.109375,-0.09375 -0.09375,0 -0.109375,0.046875 -0.140625,0.125 -0.15625,0.5625 -0.453125,0.84375 -0.734375,0.84375 -0.140625,0 -0.171875,-0.09375 -0.171875,-0.25 0,-0.15625 0.046875,-0.28125 0.109375,-0.4375 C 1.46875,-1 1.546875,-1.1875 1.609375,-1.375 1.671875,-1.546875 1.9375,-2.171875 1.953125,-2.265625 1.984375,-2.328125 2,-2.40625 2,-2.484375 2,-2.8125 1.71875,-3.078125 1.34375,-3.078125 0.640625,-3.078125 0.328125,-2.125 0.328125,-2 c 0,0.078125 0.09375,0.078125 0.125,0.078125 0.09375,0 0.09375,-0.03125 0.125,-0.109375 C 0.75,-2.625 1.0625,-2.875 1.3125,-2.875 c 0.109375,0 0.171875,0.046875 0.171875,0.234375 0,0.171875 -0.03125,0.265625 -0.203125,0.703125 z"
               id="path3294" />
          </symbol>
        </g>
      </defs>
      <g
         id="textext-851169a9-9">
        <g
           style="fill:#000000;fill-opacity:1"
           id="g3297">
          <use
             height="210.142"
             width="350"
             xlink:href="#textext-851169a9-1"
             x="223.43201"
             y="134.765"
             id="use3299" />
        </g>
        <g
           style="fill:#000000;fill-opacity:1"
           id="g3301">
          <use
             height="210.142"
             width="350"
             xlink:href="#textext-851169a9-4"
             x="227.306"
             y="134.765"
             id="use3303" />
        </g>
        <g
           style="fill:#000000;fill-opacity:1"
           id="g3305">
          <use
             height="210.142"
             width="350"
             xlink:href="#textext-851169a9-8"
             x="233"
             y="136.259"
             id="use3307" />
        </g>
        <g
           style="fill:#000000;fill-opacity:1"
           id="g3309">
          <use
             height="210.142"
             width="350"
             xlink:href="#textext-851169a9-5"
             x="236.317"
             y="134.765"
             id="use3311" />
        </g>
        <g
           style="fill:#000000;fill-opacity:1"
           id="g3313">
          <use
             height="210.142"
             width="350"
             xlink:href="#textext-851169a9-6"
             x="240.74837"
             y="134.765"
             id="use3315" />
        </g>
        <g
           style="fill:#000000;fill-opacity:1"
           id="g3317">
          <use
             height="210.142"
             width="350"
             xlink:href="#textext-851169a9-8"
             x="245.63"
             y="136.259"
             id="use3319" />
        </g>
        <g
           style="fill:#000000;fill-opacity:1"
           id="g3321">
          <use
             height="210.142"
             width="350"
             xlink:href="#textext-851169a9-2"
             x="248.946"
             y="134.765"
             id="use3323" />
        </g>
      </g>
    </g>
    <flowRoot
       style="font-size:10px;font-style:normal;font-weight:normal;line-height:125%;letter-spacing:0px;word-spacing:0px;fill:#000000;fill-opacity:1;stroke:none;font-family:Sans"
       id="flowRoot3418"
       xml:space="preserve"><flowRegion
         id="flowRegion3420"><rect
           y="-435.5723"
           x="5"
           height="73.214287"
           width="91.071426"
           id="rect3422" /></flowRegion><flowPara
         id="flowPara3424" /></flowRoot>    <flowRoot
       style="font-size:10px;font-style:normal;font-weight:normal;line-height:125%;letter-spacing:0px;word-spacing:0px;fill:#000000;fill-opacity:1;stroke:none;font-family:Sans"
       id="flowRoot3426"
       xml:space="preserve"><flowRegion
         id="flowRegion3428"><rect
           y="-400.49521"
           x="184.35284"
           height="22.223356"
           width="0"
           id="rect3430" /></flowRegion><flowPara
         id="flowPara3432" /></flowRoot>    <g
       id="g4647"
       transform="translate(287.55413,593.65345)"
       ns0:preamble="/cal/homes/salmon/.config/inkscape/extensions/test_sty.sty"
       ns0:text="$x$">
      <defs
         id="defs4649">
        <g
           id="g4651">
          <symbol
             id="textext-4f084969-0"
             overflow="visible"
             style="overflow:visible">
            <path
               id="path4654"
               d=""
               style="stroke:none"
               inkscape:connector-curvature="0" />
          </symbol>
          <symbol
             id="textext-4f084969-1"
             overflow="visible"
             style="overflow:visible">
            <path
               id="path4657"
               d="M 3.328125,-3.015625 C 3.390625,-3.265625 3.625,-4.1875 4.3125,-4.1875 c 0.046875,0 0.296875,0 0.5,0.125 C 4.53125,-4 4.34375,-3.765625 4.34375,-3.515625 c 0,0.15625 0.109375,0.34375 0.375,0.34375 0.21875,0 0.53125,-0.171875 0.53125,-0.578125 0,-0.515625 -0.578125,-0.65625 -0.921875,-0.65625 -0.578125,0 -0.921875,0.53125 -1.046875,0.75 -0.25,-0.65625 -0.78125,-0.75 -1.078125,-0.75 -1.03125,0 -1.609375,1.28125 -1.609375,1.53125 0,0.109375 0.109375,0.109375 0.125,0.109375 0.078125,0 0.109375,-0.03125 0.125,-0.109375 0.34375,-1.0625 1,-1.3125 1.34375,-1.3125 0.1875,0 0.53125,0.09375 0.53125,0.671875 0,0.3125 -0.171875,0.96875 -0.53125,2.375 -0.15625,0.609375 -0.515625,1.03125 -0.953125,1.03125 -0.0625,0 -0.28125,0 -0.5,-0.125 0.25,-0.0625 0.46875,-0.265625 0.46875,-0.546875 0,-0.265625 -0.21875,-0.34375 -0.359375,-0.34375 -0.3125,0 -0.546875,0.25 -0.546875,0.578125 0,0.453125 0.484375,0.65625 0.921875,0.65625 0.671875,0 1.03125,-0.703125 1.046875,-0.75 0.125,0.359375 0.484375,0.75 1.078125,0.75 1.03125,0 1.59375,-1.28125 1.59375,-1.53125 0,-0.109375 -0.078125,-0.109375 -0.109375,-0.109375 -0.09375,0 -0.109375,0.046875 -0.140625,0.109375 -0.328125,1.078125 -1,1.3125 -1.3125,1.3125 -0.390625,0 -0.546875,-0.3125 -0.546875,-0.65625 0,-0.21875 0.046875,-0.4375 0.15625,-0.875 z"
               style="stroke:none"
               inkscape:connector-curvature="0" />
          </symbol>
        </g>
      </defs>
      <g
         id="textext-4f084969-2">
        <g
           id="g4660"
           style="fill:#000000;fill-opacity:1">
          <use
             id="use4662"
             y="134.765"
             x="223.43201"
             xlink:href="#textext-4f084969-1"
             width="350"
             height="210.142" />
        </g>
      </g>
    </g>
    <path
       sodipodi:type="arc"
       style="fill:#ff0000;fill-opacity:1;stroke:none"
       id="path3962"
       sodipodi:cx="303.29831"
       sodipodi:cy="389.44958"
       sodipodi:rx="4.7982244"
       sodipodi:ry="4.7982244"
       d="m 308.09653,389.44958 c 0,2.64999 -2.14823,4.79823 -4.79822,4.79823 -2.64999,0 -4.79823,-2.14824 -4.79823,-4.79823 0,-2.64998 2.14824,-4.79822 4.79823,-4.79822 2.64999,0 4.79822,2.14824 4.79822,4.79822 z"
       transform="matrix(0.55340623,0,0,0.55340623,88.938546,376.3205)" />
    <path
       transform="matrix(0.55340623,0,0,0.55340623,122.15284,388.8205)"
       d="m 308.09653,389.44958 c 0,2.64999 -2.14823,4.79823 -4.79822,4.79823 -2.64999,0 -4.79823,-2.14824 -4.79823,-4.79823 0,-2.64998 2.14824,-4.79822 4.79823,-4.79822 2.64999,0 4.79822,2.14824 4.79822,4.79822 z"
       sodipodi:ry="4.7982244"
       sodipodi:rx="4.7982244"
       sodipodi:cy="389.44958"
       sodipodi:cx="303.29831"
       id="path4194"
       style="fill:#ff0000;fill-opacity:1;stroke:none"
       sodipodi:type="arc" />
    <path
       transform="matrix(0.55340623,0,0,0.55340623,140.72425,396.10621)"
       d="m 308.09653,389.44958 c 0,2.64999 -2.14823,4.79823 -4.79822,4.79823 -2.64999,0 -4.79823,-2.14824 -4.79823,-4.79823 0,-2.64998 2.14824,-4.79822 4.79823,-4.79822 2.64999,0 4.79822,2.14824 4.79822,4.79822 z"
       sodipodi:ry="4.7982244"
       sodipodi:rx="4.7982244"
       sodipodi:cy="389.44958"
       sodipodi:cx="303.29831"
       id="path4194-4"
       style="fill:#ff0000;fill-opacity:1;stroke:none"
       sodipodi:type="arc" />
    <path
       transform="matrix(0.55340623,0,0,0.55340623,160.00998,403.27549)"
       d="m 308.09653,389.44958 c 0,2.64999 -2.14823,4.79823 -4.79822,4.79823 -2.64999,0 -4.79823,-2.14824 -4.79823,-4.79823 0,-2.64998 2.14824,-4.79822 4.79823,-4.79822 2.64999,0 4.79822,2.14824 4.79822,4.79822 z"
       sodipodi:ry="4.7982244"
       sodipodi:rx="4.7982244"
       sodipodi:cy="389.44958"
       sodipodi:cx="303.29831"
       id="path4194-4-5"
       style="fill:#ff0000;fill-opacity:1;stroke:none"
       sodipodi:type="arc" />
    <path
       transform="matrix(0.55340623,0,0,0.55340623,180.18854,410.71335)"
       d="m 308.09653,389.44958 c 0,2.64999 -2.14823,4.79823 -4.79822,4.79823 -2.64999,0 -4.79823,-2.14824 -4.79823,-4.79823 0,-2.64998 2.14824,-4.79822 4.79823,-4.79822 2.64999,0 4.79822,2.14824 4.79822,4.79822 z"
       sodipodi:ry="4.7982244"
       sodipodi:rx="4.7982244"
       sodipodi:cy="389.44958"
       sodipodi:cx="303.29831"
       id="path4194-4-5-6"
       style="fill:#ff0000;fill-opacity:1;stroke:none"
       sodipodi:type="arc" />
    <path
       transform="matrix(0.55340623,0,0,0.55340623,194.47427,416.51871)"
       d="m 308.09653,389.44958 c 0,2.64999 -2.14823,4.79823 -4.79822,4.79823 -2.64999,0 -4.79823,-2.14824 -4.79823,-4.79823 0,-2.64998 2.14824,-4.79822 4.79823,-4.79822 2.64999,0 4.79822,2.14824 4.79822,4.79822 z"
       sodipodi:ry="4.7982244"
       sodipodi:rx="4.7982244"
       sodipodi:cy="389.44958"
       sodipodi:cx="303.29831"
       id="path4194-4-5-68"
       style="fill:#ff0000;fill-opacity:1;stroke:none"
       sodipodi:type="arc" />
    <path
       transform="matrix(0.55340623,0,0,0.55340623,223.75997,428.14193)"
       d="m 308.09653,389.44958 c 0,2.64999 -2.14823,4.79823 -4.79822,4.79823 -2.64999,0 -4.79823,-2.14824 -4.79823,-4.79823 0,-2.64998 2.14824,-4.79822 4.79823,-4.79822 2.64999,0 4.79822,2.14824 4.79822,4.79822 z"
       sodipodi:ry="4.7982244"
       sodipodi:rx="4.7982244"
       sodipodi:cy="389.44958"
       sodipodi:cx="303.29831"
       id="path4194-4-5-68-1"
       style="fill:#ff0000;fill-opacity:1;stroke:none"
       sodipodi:type="arc" />
    <path
       transform="matrix(0.55340623,0,0,0.55340623,259.8314,441.65978)"
       d="m 308.09653,389.44958 c 0,2.64999 -2.14823,4.79823 -4.79822,4.79823 -2.64999,0 -4.79823,-2.14824 -4.79823,-4.79823 0,-2.64998 2.14824,-4.79822 4.79823,-4.79822 2.64999,0 4.79822,2.14824 4.79822,4.79822 z"
       sodipodi:ry="4.7982244"
       sodipodi:rx="4.7982244"
       sodipodi:cy="389.44958"
       sodipodi:cx="303.29831"
       id="path4194-4-5-68-8"
       style="fill:#ff0000;fill-opacity:1;stroke:none"
       sodipodi:type="arc" />
    <path
       transform="matrix(0.55340623,0,0,0.55340623,287.1082,452.11416)"
       d="m 308.09653,389.44958 c 0,2.64999 -2.14823,4.79823 -4.79822,4.79823 -2.64999,0 -4.79823,-2.14824 -4.79823,-4.79823 0,-2.64998 2.14824,-4.79822 4.79823,-4.79822 2.64999,0 4.79822,2.14824 4.79822,4.79822 z"
       sodipodi:ry="4.7982244"
       sodipodi:rx="4.7982244"
       sodipodi:cy="389.44958"
       sodipodi:cx="303.29831"
       id="path4194-4-5-68-86"
       style="fill:#ff0000;fill-opacity:1;stroke:none"
       sodipodi:type="arc" />
    <path
       transform="matrix(0.55340623,0,0,0.55340623,301.79568,457.75796)"
       d="m 308.09653,389.44958 c 0,2.64999 -2.14823,4.79823 -4.79822,4.79823 -2.64999,0 -4.79823,-2.14824 -4.79823,-4.79823 0,-2.64998 2.14824,-4.79822 4.79823,-4.79822 2.64999,0 4.79822,2.14824 4.79822,4.79822 z"
       sodipodi:ry="4.7982244"
       sodipodi:rx="4.7982244"
       sodipodi:cy="389.44958"
       sodipodi:cx="303.29831"
       id="path4194-4-5-68-14"
       style="fill:#ff0000;fill-opacity:1;stroke:none"
       sodipodi:type="arc" />
    <path
       transform="matrix(0.55340623,0,0,0.55340623,325.15187,466.73281)"
       d="m 308.09653,389.44958 c 0,2.64999 -2.14823,4.79823 -4.79822,4.79823 -2.64999,0 -4.79823,-2.14824 -4.79823,-4.79823 0,-2.64998 2.14824,-4.79822 4.79823,-4.79822 2.64999,0 4.79822,2.14824 4.79822,4.79822 z"
       sodipodi:ry="4.7982244"
       sodipodi:rx="4.7982244"
       sodipodi:cy="389.44958"
       sodipodi:cx="303.29831"
       id="path4194-4-5-68-14-5"
       style="fill:#ff0000;fill-opacity:1;stroke:none"
       sodipodi:type="arc" />
    <path
       sodipodi:type="arc"
       style="fill:#ff0000;fill-opacity:1;stroke:none"
       id="path4550"
       sodipodi:cx="303.29831"
       sodipodi:cy="389.44958"
       sodipodi:rx="4.7982244"
       sodipodi:ry="4.7982244"
       d="m 308.09653,389.44958 c 0,2.64999 -2.14823,4.79823 -4.79822,4.79823 -2.64999,0 -4.79823,-2.14824 -4.79823,-4.79823 0,-2.64998 2.14824,-4.79822 4.79823,-4.79822 2.64999,0 4.79822,2.14824 4.79822,4.79822 z"
       transform="matrix(0.55340623,0,0,0.55340623,100.90283,380.56302)" />
    <path
       style="fill:none;stroke:#000000;stroke-width:1;stroke-linecap:butt;stroke-linejoin:miter;stroke-miterlimit:4;stroke-opacity:1;stroke-dasharray:1, 1;stroke-dashoffset:0"
       d="m 362.32143,555.32112 23.42925,0"
       id="path3475"
       inkscape:connector-curvature="0"
       sodipodi:nodetypes="cc" />
    <g
       ns0:text="$y=\\theta_0^{\\star}+\\theta_1^{\\star} x$"
       ns0:preamble="/home/jo/Documents/Mes_papiers/Fercoq/latex/dyn_screen_lasso/mindgap_fig.sty"
       transform="matrix(0.94498785,0.32710542,-0.32710542,0.94498785,332.53852,478.00509)"
       style="fill:#ff0000;fill-opacity:1"
       id="g5226">
      <defs
         id="defs5228">
        <g
           id="g5230">
          <symbol
             overflow="visible"
             id="textext-2fcca352-0">
            <path
               style="stroke:none;"
               d=""
               id="path5233" />
          </symbol>
          <symbol
             overflow="visible"
             id="textext-2fcca352-1">
            <path
               style="stroke:none;"
               d="M 4.84375 -3.796875 C 4.890625 -3.9375 4.890625 -3.953125 4.890625 -4.03125 C 4.890625 -4.203125 4.75 -4.296875 4.59375 -4.296875 C 4.5 -4.296875 4.34375 -4.234375 4.25 -4.09375 C 4.234375 -4.03125 4.140625 -3.734375 4.109375 -3.546875 C 4.03125 -3.296875 3.96875 -3.015625 3.90625 -2.75 L 3.453125 -0.953125 C 3.421875 -0.8125 2.984375 -0.109375 2.328125 -0.109375 C 1.828125 -0.109375 1.71875 -0.546875 1.71875 -0.921875 C 1.71875 -1.375 1.890625 -2 2.21875 -2.875 C 2.375 -3.28125 2.421875 -3.390625 2.421875 -3.59375 C 2.421875 -4.03125 2.109375 -4.40625 1.609375 -4.40625 C 0.65625 -4.40625 0.296875 -2.953125 0.296875 -2.875 C 0.296875 -2.765625 0.390625 -2.765625 0.40625 -2.765625 C 0.515625 -2.765625 0.515625 -2.796875 0.5625 -2.953125 C 0.84375 -3.890625 1.234375 -4.1875 1.578125 -4.1875 C 1.65625 -4.1875 1.828125 -4.1875 1.828125 -3.875 C 1.828125 -3.625 1.71875 -3.359375 1.65625 -3.171875 C 1.25 -2.109375 1.078125 -1.546875 1.078125 -1.078125 C 1.078125 -0.1875 1.703125 0.109375 2.296875 0.109375 C 2.6875 0.109375 3.015625 -0.0625 3.296875 -0.34375 C 3.171875 0.171875 3.046875 0.671875 2.65625 1.203125 C 2.390625 1.53125 2.015625 1.828125 1.5625 1.828125 C 1.421875 1.828125 0.96875 1.796875 0.796875 1.40625 C 0.953125 1.40625 1.09375 1.40625 1.21875 1.28125 C 1.328125 1.203125 1.421875 1.0625 1.421875 0.875 C 1.421875 0.5625 1.15625 0.53125 1.0625 0.53125 C 0.828125 0.53125 0.5 0.6875 0.5 1.171875 C 0.5 1.671875 0.9375 2.046875 1.5625 2.046875 C 2.578125 2.046875 3.609375 1.140625 3.890625 0.015625 Z M 4.84375 -3.796875 "
               id="path5236" />
          </symbol>
          <symbol
             overflow="visible"
             id="textext-2fcca352-2">
            <path
               style="stroke:none;"
               d="M 4.53125 -4.984375 C 4.53125 -5.640625 4.359375 -7.03125 3.34375 -7.03125 C 1.953125 -7.03125 0.421875 -4.21875 0.421875 -1.9375 C 0.421875 -1 0.703125 0.109375 1.609375 0.109375 C 3.015625 0.109375 4.53125 -2.75 4.53125 -4.984375 Z M 1.46875 -3.625 C 1.640625 -4.25 1.84375 -5.046875 2.25 -5.765625 C 2.515625 -6.25 2.875 -6.8125 3.328125 -6.8125 C 3.8125 -6.8125 3.875 -6.171875 3.875 -5.609375 C 3.875 -5.109375 3.796875 -4.609375 3.5625 -3.625 Z M 3.46875 -3.296875 C 3.359375 -2.84375 3.15625 -2 2.765625 -1.28125 C 2.421875 -0.59375 2.046875 -0.109375 1.609375 -0.109375 C 1.28125 -0.109375 1.078125 -0.40625 1.078125 -1.328125 C 1.078125 -1.75 1.140625 -2.328125 1.390625 -3.296875 Z M 3.46875 -3.296875 "
               id="path5239" />
          </symbol>
          <symbol
             overflow="visible"
             id="textext-2fcca352-3">
            <path
               style="stroke:none;"
               d="M 3.328125 -3.015625 C 3.390625 -3.265625 3.625 -4.1875 4.3125 -4.1875 C 4.359375 -4.1875 4.609375 -4.1875 4.8125 -4.0625 C 4.53125 -4 4.34375 -3.765625 4.34375 -3.515625 C 4.34375 -3.359375 4.453125 -3.171875 4.71875 -3.171875 C 4.9375 -3.171875 5.25 -3.34375 5.25 -3.75 C 5.25 -4.265625 4.671875 -4.40625 4.328125 -4.40625 C 3.75 -4.40625 3.40625 -3.875 3.28125 -3.65625 C 3.03125 -4.3125 2.5 -4.40625 2.203125 -4.40625 C 1.171875 -4.40625 0.59375 -3.125 0.59375 -2.875 C 0.59375 -2.765625 0.703125 -2.765625 0.71875 -2.765625 C 0.796875 -2.765625 0.828125 -2.796875 0.84375 -2.875 C 1.1875 -3.9375 1.84375 -4.1875 2.1875 -4.1875 C 2.375 -4.1875 2.71875 -4.09375 2.71875 -3.515625 C 2.71875 -3.203125 2.546875 -2.546875 2.1875 -1.140625 C 2.03125 -0.53125 1.671875 -0.109375 1.234375 -0.109375 C 1.171875 -0.109375 0.953125 -0.109375 0.734375 -0.234375 C 0.984375 -0.296875 1.203125 -0.5 1.203125 -0.78125 C 1.203125 -1.046875 0.984375 -1.125 0.84375 -1.125 C 0.53125 -1.125 0.296875 -0.875 0.296875 -0.546875 C 0.296875 -0.09375 0.78125 0.109375 1.21875 0.109375 C 1.890625 0.109375 2.25 -0.59375 2.265625 -0.640625 C 2.390625 -0.28125 2.75 0.109375 3.34375 0.109375 C 4.375 0.109375 4.9375 -1.171875 4.9375 -1.421875 C 4.9375 -1.53125 4.859375 -1.53125 4.828125 -1.53125 C 4.734375 -1.53125 4.71875 -1.484375 4.6875 -1.421875 C 4.359375 -0.34375 3.6875 -0.109375 3.375 -0.109375 C 2.984375 -0.109375 2.828125 -0.421875 2.828125 -0.765625 C 2.828125 -0.984375 2.875 -1.203125 2.984375 -1.640625 Z M 3.328125 -3.015625 "
               id="path5242" />
          </symbol>
          <symbol
             overflow="visible"
             id="textext-2fcca352-4">
            <path
               style="stroke:none;"
               d=""
               id="path5245" />
          </symbol>
          <symbol
             overflow="visible"
             id="textext-2fcca352-5">
            <path
               style="stroke:none;"
               d="M 0.890625 -3.484375 C 0.875 -3.46875 0.84375 -3.453125 0.84375 -3.421875 C 0.828125 -3.390625 0.828125 -3.34375 0.828125 -3.3125 C 0.828125 -3.234375 0.8125 -3.140625 0.890625 -3.09375 C 0.96875 -3.078125 1.078125 -3.09375 1.15625 -3.09375 L 6.515625 -3.09375 C 6.59375 -3.09375 6.671875 -3.09375 6.765625 -3.09375 C 6.8125 -3.09375 6.859375 -3.09375 6.890625 -3.125 C 6.921875 -3.15625 6.921875 -3.203125 6.921875 -3.265625 C 6.921875 -3.34375 6.9375 -3.453125 6.84375 -3.484375 C 6.796875 -3.484375 6.75 -3.484375 6.703125 -3.484375 L 1.046875 -3.484375 C 1 -3.484375 0.953125 -3.5 0.890625 -3.484375 Z M 0.890625 -1.90625 C 0.875 -1.890625 0.84375 -1.875 0.84375 -1.84375 C 0.828125 -1.8125 0.828125 -1.78125 0.828125 -1.75 C 0.828125 -1.671875 0.8125 -1.5625 0.890625 -1.53125 C 0.96875 -1.5 1.078125 -1.515625 1.15625 -1.515625 L 6.765625 -1.515625 C 6.8125 -1.515625 6.859375 -1.515625 6.890625 -1.5625 C 6.921875 -1.578125 6.921875 -1.640625 6.921875 -1.6875 C 6.921875 -1.765625 6.9375 -1.890625 6.84375 -1.90625 C 6.796875 -1.90625 6.75 -1.90625 6.703125 -1.90625 L 1.046875 -1.90625 C 1 -1.90625 0.953125 -1.921875 0.890625 -1.90625 Z M 0.890625 -1.90625 "
               id="path5248" />
          </symbol>
          <symbol
             overflow="visible"
             id="textext-2fcca352-6">
            <path
               style="stroke:none;"
               d="M 3.671875 -2.703125 L 1 -2.703125 C 0.9375 -2.703125 0.859375 -2.6875 0.84375 -2.609375 C 0.8125 -2.53125 0.8125 -2.375 0.875 -2.328125 C 0.921875 -2.296875 1 -2.296875 1.0625 -2.296875 L 3.671875 -2.296875 L 3.671875 -0.125 C 3.671875 0.046875 3.671875 0.203125 3.671875 0.375 C 3.671875 0.4375 3.6875 0.515625 3.765625 0.53125 C 3.84375 0.5625 4 0.5625 4.046875 0.515625 C 4.09375 0.453125 4.078125 0.375 4.078125 0.3125 L 4.078125 -2.296875 L 6.75 -2.296875 C 6.8125 -2.296875 6.890625 -2.3125 6.921875 -2.390625 C 6.9375 -2.46875 6.953125 -2.625 6.875 -2.6875 C 6.828125 -2.71875 6.765625 -2.703125 6.703125 -2.703125 L 4.078125 -2.703125 L 4.078125 -5.328125 C 4.078125 -5.390625 4.09375 -5.46875 4.046875 -5.515625 C 4 -5.578125 3.84375 -5.5625 3.765625 -5.546875 C 3.6875 -5.515625 3.671875 -5.4375 3.671875 -5.375 C 3.671875 -5.203125 3.671875 -5.046875 3.671875 -4.875 Z M 3.671875 -2.703125 "
               id="path5251" />
          </symbol>
          <symbol
             overflow="visible"
             id="textext-2fcca352-7">
            <path
               style="stroke:none;"
               d=""
               id="path5254" />
          </symbol>
          <symbol
             overflow="visible"
             id="textext-2fcca352-8">
            <path
               style="stroke:none;"
               d="M 1.96875 -3.375 C 1.921875 -3.359375 1.890625 -3.328125 1.875 -3.28125 C 1.875 -3.21875 1.859375 -3.15625 1.84375 -3.09375 C 1.796875 -2.890625 1.734375 -2.6875 1.6875 -2.484375 L 1.65625 -2.328125 C 1.640625 -2.296875 1.640625 -2.265625 1.625 -2.25 C 1.609375 -2.234375 1.578125 -2.25 1.546875 -2.25 C 1.5 -2.25 1.4375 -2.25 1.390625 -2.265625 C 1.15625 -2.265625 0.953125 -2.296875 0.71875 -2.3125 C 0.640625 -2.3125 0.484375 -2.359375 0.4375 -2.265625 C 0.390625 -2.171875 0.515625 -2.109375 0.578125 -2.0625 L 0.640625 -2.046875 C 0.828125 -1.921875 1.015625 -1.8125 1.203125 -1.6875 C 1.25 -1.671875 1.296875 -1.640625 1.34375 -1.609375 C 1.359375 -1.59375 1.390625 -1.578125 1.40625 -1.5625 C 1.40625 -1.53125 1.390625 -1.5 1.375 -1.484375 L 1.3125 -1.328125 C 1.234375 -1.125 1.140625 -0.921875 1.0625 -0.703125 L 1.03125 -0.65625 C 1.015625 -0.578125 0.9375 -0.453125 1.046875 -0.40625 C 1.140625 -0.390625 1.21875 -0.484375 1.265625 -0.53125 C 1.4375 -0.671875 1.609375 -0.828125 1.78125 -0.96875 C 1.828125 -1.015625 1.875 -1.046875 1.9375 -1.09375 C 1.953125 -1.109375 1.96875 -1.125 2 -1.125 C 2.03125 -1.109375 2.046875 -1.09375 2.0625 -1.078125 L 2.1875 -0.96875 C 2.34375 -0.84375 2.5 -0.703125 2.65625 -0.578125 C 2.703125 -0.53125 2.75 -0.484375 2.8125 -0.453125 C 2.84375 -0.421875 2.875 -0.390625 2.921875 -0.40625 C 3.03125 -0.453125 2.96875 -0.578125 2.9375 -0.65625 L 2.90625 -0.703125 C 2.828125 -0.90625 2.75 -1.109375 2.65625 -1.3125 L 2.59375 -1.484375 C 2.578125 -1.5 2.5625 -1.53125 2.578125 -1.546875 C 2.578125 -1.578125 2.609375 -1.59375 2.625 -1.609375 C 2.671875 -1.640625 2.734375 -1.671875 2.78125 -1.703125 C 2.96875 -1.8125 3.171875 -1.9375 3.359375 -2.0625 C 3.421875 -2.09375 3.546875 -2.140625 3.546875 -2.21875 C 3.546875 -2.265625 3.5 -2.3125 3.453125 -2.328125 C 3.421875 -2.328125 3.390625 -2.3125 3.359375 -2.3125 C 3.28125 -2.3125 3.203125 -2.3125 3.125 -2.296875 C 2.921875 -2.28125 2.734375 -2.265625 2.546875 -2.25 C 2.5 -2.25 2.453125 -2.25 2.40625 -2.25 C 2.390625 -2.25 2.359375 -2.234375 2.34375 -2.265625 C 2.328125 -2.28125 2.328125 -2.3125 2.3125 -2.34375 C 2.296875 -2.390625 2.28125 -2.453125 2.265625 -2.515625 C 2.234375 -2.71875 2.171875 -2.921875 2.125 -3.125 L 2.109375 -3.1875 C 2.09375 -3.265625 2.078125 -3.40625 1.96875 -3.375 Z M 1.96875 -3.375 "
               id="path5257" />
          </symbol>
          <symbol
             overflow="visible"
             id="textext-2fcca352-9">
            <path
               style="stroke:none;"
               d=""
               id="path5260" />
          </symbol>
          <symbol
             overflow="visible"
             id="textext-2fcca352-10">
            <path
               style="stroke:none;"
               d="M 3.59375 -2.21875 C 3.59375 -2.984375 3.5 -3.546875 3.1875 -4.03125 C 2.96875 -4.34375 2.53125 -4.625 1.984375 -4.625 C 0.359375 -4.625 0.359375 -2.71875 0.359375 -2.21875 C 0.359375 -1.71875 0.359375 0.140625 1.984375 0.140625 C 3.59375 0.140625 3.59375 -1.71875 3.59375 -2.21875 Z M 1.984375 -0.0625 C 1.65625 -0.0625 1.234375 -0.25 1.09375 -0.8125 C 1 -1.21875 1 -1.796875 1 -2.3125 C 1 -2.828125 1 -3.359375 1.09375 -3.734375 C 1.25 -4.28125 1.6875 -4.4375 1.984375 -4.4375 C 2.359375 -4.4375 2.71875 -4.203125 2.84375 -3.796875 C 2.953125 -3.421875 2.96875 -2.921875 2.96875 -2.3125 C 2.96875 -1.796875 2.96875 -1.28125 2.875 -0.84375 C 2.734375 -0.203125 2.265625 -0.0625 1.984375 -0.0625 Z M 1.984375 -0.0625 "
               id="path5263" />
          </symbol>
          <symbol
             overflow="visible"
             id="textext-2fcca352-11">
            <path
               style="stroke:none;"
               d="M 2.328125 -4.4375 C 2.328125 -4.625 2.328125 -4.625 2.125 -4.625 C 1.671875 -4.1875 1.046875 -4.1875 0.765625 -4.1875 L 0.765625 -3.9375 C 0.921875 -3.9375 1.390625 -3.9375 1.765625 -4.125 L 1.765625 -0.578125 C 1.765625 -0.34375 1.765625 -0.25 1.078125 -0.25 L 0.8125 -0.25 L 0.8125 0 C 0.9375 0 1.796875 -0.03125 2.046875 -0.03125 C 2.265625 -0.03125 3.140625 0 3.296875 0 L 3.296875 -0.25 L 3.03125 -0.25 C 2.328125 -0.25 2.328125 -0.34375 2.328125 -0.578125 Z M 2.328125 -4.4375 "
               id="path5266" />
          </symbol>
        </g>
      </defs>
      <g
         style="fill:#ff0000;fill-opacity:1"
         id="textext-2fcca352-12">
        <g
           style="fill:#ff0000;fill-opacity:1"
           id="g5269">
          <use
             style="fill:#ff0000;fill-opacity:1"
             xlink:href="#textext-2fcca352-1"
             x="223.432"
             y="134.765"
             id="use5271" />
        </g>
        <g
           style="fill:#ff0000;fill-opacity:1"
           id="g5273">
          <use
             style="fill:#ff0000;fill-opacity:1"
             xlink:href="#textext-2fcca352-5"
             x="231.441"
             y="134.765"
             id="use5275" />
        </g>
        <g
           style="fill:#ff0000;fill-opacity:1"
           id="g5277">
          <use
             style="fill:#ff0000;fill-opacity:1"
             xlink:href="#textext-2fcca352-2"
             x="241.956"
             y="134.765"
             id="use5279" />
        </g>
        <g
           style="fill:#ff0000;fill-opacity:1"
           id="g5281">
          <use
             style="fill:#ff0000;fill-opacity:1"
             xlink:href="#textext-2fcca352-8"
             x="246.909"
             y="131.15"
             id="use5283" />
        </g>
        <g
           style="fill:#ff0000;fill-opacity:1"
           id="g5285">
          <use
             style="fill:#ff0000;fill-opacity:1"
             xlink:href="#textext-2fcca352-10"
             x="246.632"
             y="137.238"
             id="use5287" />
        </g>
        <g
           style="fill:#ff0000;fill-opacity:1"
           id="g5289">
          <use
             style="fill:#ff0000;fill-opacity:1"
             xlink:href="#textext-2fcca352-6"
             x="253.591"
             y="134.765"
             id="use5291" />
        </g>
        <g
           style="fill:#ff0000;fill-opacity:1"
           id="g5293">
          <use
             style="fill:#ff0000;fill-opacity:1"
             xlink:href="#textext-2fcca352-2"
             x="263.552"
             y="134.765"
             id="use5295" />
        </g>
        <g
           style="fill:#ff0000;fill-opacity:1"
           id="g5297">
          <use
             style="fill:#ff0000;fill-opacity:1"
             xlink:href="#textext-2fcca352-8"
             x="268.506"
             y="131.15"
             id="use5299" />
        </g>
        <g
           style="fill:#ff0000;fill-opacity:1"
           id="g5301">
          <use
             style="fill:#ff0000;fill-opacity:1"
             xlink:href="#textext-2fcca352-11"
             x="268.229"
             y="137.238"
             id="use5303" />
        </g>
        <g
           style="fill:#ff0000;fill-opacity:1"
           id="g5305">
          <use
             style="fill:#ff0000;fill-opacity:1"
             xlink:href="#textext-2fcca352-3"
             x="272.974"
             y="134.765"
             id="use5307" />
        </g>
      </g>
    </g>
    <g
       id="g5705"
       transform="translate(168.8361,459.15886)"
       ns0:preamble="/home/jo/Documents/Mes_papiers/Fercoq/latex/dyn_screen_lasso/mindgap_fig.sty"
       ns0:text="$|y_i-\\theta_0^{\\star}-\\theta_1^{\\star} x_i|$">
      <defs
         id="defs5707">
        <g
           id="g5709">
          <symbol
             id="textext-5a7bf2f1-0"
             overflow="visible">
            <path
               id="path5712"
               d=""
               style="stroke:none;" />
          </symbol>
          <symbol
             id="textext-5a7bf2f1-1"
             overflow="visible">
            <path
               id="path5715"
               d="M 1.25 -7.484375 C 1.203125 -7.453125 1.1875 -7.390625 1.1875 -7.328125 C 1.1875 -7.203125 1.1875 -7.0625 1.1875 -6.9375 L 1.1875 2.25 C 1.1875 2.296875 1.171875 2.359375 1.203125 2.40625 C 1.234375 2.5 1.328125 2.484375 1.40625 2.484375 C 1.4375 2.484375 1.46875 2.484375 1.5 2.46875 C 1.5625 2.453125 1.578125 2.390625 1.578125 2.328125 C 1.578125 2.203125 1.578125 2.078125 1.578125 1.9375 L 1.578125 -7.234375 C 1.578125 -7.28125 1.59375 -7.34375 1.578125 -7.40625 C 1.546875 -7.5 1.453125 -7.484375 1.359375 -7.484375 C 1.328125 -7.484375 1.28125 -7.484375 1.25 -7.484375 Z M 1.25 -7.484375 "
               style="stroke:none;" />
          </symbol>
          <symbol
             id="textext-5a7bf2f1-2"
             overflow="visible">
            <path
               id="path5718"
               d="M 0.890625 -2.6875 C 0.875 -2.6875 0.84375 -2.65625 0.84375 -2.625 C 0.828125 -2.609375 0.828125 -2.5625 0.828125 -2.53125 C 0.828125 -2.453125 0.8125 -2.359375 0.890625 -2.3125 C 0.96875 -2.28125 1.078125 -2.296875 1.15625 -2.296875 L 6.765625 -2.296875 C 6.8125 -2.296875 6.859375 -2.296875 6.890625 -2.34375 C 6.921875 -2.375 6.921875 -2.421875 6.921875 -2.46875 C 6.921875 -2.546875 6.9375 -2.671875 6.84375 -2.6875 C 6.796875 -2.703125 6.75 -2.703125 6.703125 -2.703125 L 1.046875 -2.703125 C 1 -2.703125 0.953125 -2.71875 0.890625 -2.6875 Z M 0.890625 -2.6875 "
               style="stroke:none;" />
          </symbol>
          <symbol
             id="textext-5a7bf2f1-3"
             overflow="visible">
            <path
               id="path5721"
               d=""
               style="stroke:none;" />
          </symbol>
          <symbol
             id="textext-5a7bf2f1-4"
             overflow="visible">
            <path
               id="path5724"
               d="M 4.84375 -3.796875 C 4.890625 -3.9375 4.890625 -3.953125 4.890625 -4.03125 C 4.890625 -4.203125 4.75 -4.296875 4.59375 -4.296875 C 4.5 -4.296875 4.34375 -4.234375 4.25 -4.09375 C 4.234375 -4.03125 4.140625 -3.734375 4.109375 -3.546875 C 4.03125 -3.296875 3.96875 -3.015625 3.90625 -2.75 L 3.453125 -0.953125 C 3.421875 -0.8125 2.984375 -0.109375 2.328125 -0.109375 C 1.828125 -0.109375 1.71875 -0.546875 1.71875 -0.921875 C 1.71875 -1.375 1.890625 -2 2.21875 -2.875 C 2.375 -3.28125 2.421875 -3.390625 2.421875 -3.59375 C 2.421875 -4.03125 2.109375 -4.40625 1.609375 -4.40625 C 0.65625 -4.40625 0.296875 -2.953125 0.296875 -2.875 C 0.296875 -2.765625 0.390625 -2.765625 0.40625 -2.765625 C 0.515625 -2.765625 0.515625 -2.796875 0.5625 -2.953125 C 0.84375 -3.890625 1.234375 -4.1875 1.578125 -4.1875 C 1.65625 -4.1875 1.828125 -4.1875 1.828125 -3.875 C 1.828125 -3.625 1.71875 -3.359375 1.65625 -3.171875 C 1.25 -2.109375 1.078125 -1.546875 1.078125 -1.078125 C 1.078125 -0.1875 1.703125 0.109375 2.296875 0.109375 C 2.6875 0.109375 3.015625 -0.0625 3.296875 -0.34375 C 3.171875 0.171875 3.046875 0.671875 2.65625 1.203125 C 2.390625 1.53125 2.015625 1.828125 1.5625 1.828125 C 1.421875 1.828125 0.96875 1.796875 0.796875 1.40625 C 0.953125 1.40625 1.09375 1.40625 1.21875 1.28125 C 1.328125 1.203125 1.421875 1.0625 1.421875 0.875 C 1.421875 0.5625 1.15625 0.53125 1.0625 0.53125 C 0.828125 0.53125 0.5 0.6875 0.5 1.171875 C 0.5 1.671875 0.9375 2.046875 1.5625 2.046875 C 2.578125 2.046875 3.609375 1.140625 3.890625 0.015625 Z M 4.84375 -3.796875 "
               style="stroke:none;" />
          </symbol>
          <symbol
             id="textext-5a7bf2f1-5"
             overflow="visible">
            <path
               id="path5727"
               d="M 4.53125 -4.984375 C 4.53125 -5.640625 4.359375 -7.03125 3.34375 -7.03125 C 1.953125 -7.03125 0.421875 -4.21875 0.421875 -1.9375 C 0.421875 -1 0.703125 0.109375 1.609375 0.109375 C 3.015625 0.109375 4.53125 -2.75 4.53125 -4.984375 Z M 1.46875 -3.625 C 1.640625 -4.25 1.84375 -5.046875 2.25 -5.765625 C 2.515625 -6.25 2.875 -6.8125 3.328125 -6.8125 C 3.8125 -6.8125 3.875 -6.171875 3.875 -5.609375 C 3.875 -5.109375 3.796875 -4.609375 3.5625 -3.625 Z M 3.46875 -3.296875 C 3.359375 -2.84375 3.15625 -2 2.765625 -1.28125 C 2.421875 -0.59375 2.046875 -0.109375 1.609375 -0.109375 C 1.28125 -0.109375 1.078125 -0.40625 1.078125 -1.328125 C 1.078125 -1.75 1.140625 -2.328125 1.390625 -3.296875 Z M 3.46875 -3.296875 "
               style="stroke:none;" />
          </symbol>
          <symbol
             id="textext-5a7bf2f1-6"
             overflow="visible">
            <path
               id="path5730"
               d="M 3.328125 -3.015625 C 3.390625 -3.265625 3.625 -4.1875 4.3125 -4.1875 C 4.359375 -4.1875 4.609375 -4.1875 4.8125 -4.0625 C 4.53125 -4 4.34375 -3.765625 4.34375 -3.515625 C 4.34375 -3.359375 4.453125 -3.171875 4.71875 -3.171875 C 4.9375 -3.171875 5.25 -3.34375 5.25 -3.75 C 5.25 -4.265625 4.671875 -4.40625 4.328125 -4.40625 C 3.75 -4.40625 3.40625 -3.875 3.28125 -3.65625 C 3.03125 -4.3125 2.5 -4.40625 2.203125 -4.40625 C 1.171875 -4.40625 0.59375 -3.125 0.59375 -2.875 C 0.59375 -2.765625 0.703125 -2.765625 0.71875 -2.765625 C 0.796875 -2.765625 0.828125 -2.796875 0.84375 -2.875 C 1.1875 -3.9375 1.84375 -4.1875 2.1875 -4.1875 C 2.375 -4.1875 2.71875 -4.09375 2.71875 -3.515625 C 2.71875 -3.203125 2.546875 -2.546875 2.1875 -1.140625 C 2.03125 -0.53125 1.671875 -0.109375 1.234375 -0.109375 C 1.171875 -0.109375 0.953125 -0.109375 0.734375 -0.234375 C 0.984375 -0.296875 1.203125 -0.5 1.203125 -0.78125 C 1.203125 -1.046875 0.984375 -1.125 0.84375 -1.125 C 0.53125 -1.125 0.296875 -0.875 0.296875 -0.546875 C 0.296875 -0.09375 0.78125 0.109375 1.21875 0.109375 C 1.890625 0.109375 2.25 -0.59375 2.265625 -0.640625 C 2.390625 -0.28125 2.75 0.109375 3.34375 0.109375 C 4.375 0.109375 4.9375 -1.171875 4.9375 -1.421875 C 4.9375 -1.53125 4.859375 -1.53125 4.828125 -1.53125 C 4.734375 -1.53125 4.71875 -1.484375 4.6875 -1.421875 C 4.359375 -0.34375 3.6875 -0.109375 3.375 -0.109375 C 2.984375 -0.109375 2.828125 -0.421875 2.828125 -0.765625 C 2.828125 -0.984375 2.875 -1.203125 2.984375 -1.640625 Z M 3.328125 -3.015625 "
               style="stroke:none;" />
          </symbol>
          <symbol
             id="textext-5a7bf2f1-7"
             overflow="visible">
            <path
               id="path5733"
               d=""
               style="stroke:none;" />
          </symbol>
          <symbol
             id="textext-5a7bf2f1-8"
             overflow="visible">
            <path
               id="path5736"
               d="M 2.265625 -4.359375 C 2.265625 -4.46875 2.171875 -4.625 1.984375 -4.625 C 1.796875 -4.625 1.59375 -4.4375 1.59375 -4.234375 C 1.59375 -4.125 1.671875 -3.96875 1.875 -3.96875 C 2.0625 -3.96875 2.265625 -4.171875 2.265625 -4.359375 Z M 0.84375 -0.8125 C 0.8125 -0.71875 0.78125 -0.640625 0.78125 -0.515625 C 0.78125 -0.1875 1.046875 0.0625 1.4375 0.0625 C 2.125 0.0625 2.4375 -0.890625 2.4375 -1 C 2.4375 -1.09375 2.34375 -1.09375 2.328125 -1.09375 C 2.234375 -1.09375 2.21875 -1.046875 2.1875 -0.96875 C 2.03125 -0.40625 1.734375 -0.125 1.453125 -0.125 C 1.3125 -0.125 1.28125 -0.21875 1.28125 -0.375 C 1.28125 -0.53125 1.328125 -0.65625 1.390625 -0.8125 C 1.46875 -1 1.546875 -1.1875 1.609375 -1.375 C 1.671875 -1.546875 1.9375 -2.171875 1.953125 -2.265625 C 1.984375 -2.328125 2 -2.40625 2 -2.484375 C 2 -2.8125 1.71875 -3.078125 1.34375 -3.078125 C 0.640625 -3.078125 0.328125 -2.125 0.328125 -2 C 0.328125 -1.921875 0.421875 -1.921875 0.453125 -1.921875 C 0.546875 -1.921875 0.546875 -1.953125 0.578125 -2.03125 C 0.75 -2.625 1.0625 -2.875 1.3125 -2.875 C 1.421875 -2.875 1.484375 -2.828125 1.484375 -2.640625 C 1.484375 -2.46875 1.453125 -2.375 1.28125 -1.9375 Z M 0.84375 -0.8125 "
               style="stroke:none;" />
          </symbol>
          <symbol
             id="textext-5a7bf2f1-9"
             overflow="visible">
            <path
               id="path5739"
               d=""
               style="stroke:none;" />
          </symbol>
          <symbol
             id="textext-5a7bf2f1-10"
             overflow="visible">
            <path
               id="path5742"
               d="M 1.96875 -3.375 C 1.921875 -3.359375 1.890625 -3.328125 1.875 -3.28125 C 1.875 -3.21875 1.859375 -3.15625 1.84375 -3.09375 C 1.796875 -2.890625 1.734375 -2.6875 1.6875 -2.484375 L 1.65625 -2.328125 C 1.640625 -2.296875 1.640625 -2.265625 1.625 -2.25 C 1.609375 -2.234375 1.578125 -2.25 1.546875 -2.25 C 1.5 -2.25 1.4375 -2.25 1.390625 -2.265625 C 1.15625 -2.265625 0.953125 -2.296875 0.71875 -2.3125 C 0.640625 -2.3125 0.484375 -2.359375 0.4375 -2.265625 C 0.390625 -2.171875 0.515625 -2.109375 0.578125 -2.0625 L 0.640625 -2.046875 C 0.828125 -1.921875 1.015625 -1.8125 1.203125 -1.6875 C 1.25 -1.671875 1.296875 -1.640625 1.34375 -1.609375 C 1.359375 -1.59375 1.390625 -1.578125 1.40625 -1.5625 C 1.40625 -1.53125 1.390625 -1.5 1.375 -1.484375 L 1.3125 -1.328125 C 1.234375 -1.125 1.140625 -0.921875 1.0625 -0.703125 L 1.03125 -0.65625 C 1.015625 -0.578125 0.9375 -0.453125 1.046875 -0.40625 C 1.140625 -0.390625 1.21875 -0.484375 1.265625 -0.53125 C 1.4375 -0.671875 1.609375 -0.828125 1.78125 -0.96875 C 1.828125 -1.015625 1.875 -1.046875 1.9375 -1.09375 C 1.953125 -1.109375 1.96875 -1.125 2 -1.125 C 2.03125 -1.109375 2.046875 -1.09375 2.0625 -1.078125 L 2.1875 -0.96875 C 2.34375 -0.84375 2.5 -0.703125 2.65625 -0.578125 C 2.703125 -0.53125 2.75 -0.484375 2.8125 -0.453125 C 2.84375 -0.421875 2.875 -0.390625 2.921875 -0.40625 C 3.03125 -0.453125 2.96875 -0.578125 2.9375 -0.65625 L 2.90625 -0.703125 C 2.828125 -0.90625 2.75 -1.109375 2.65625 -1.3125 L 2.59375 -1.484375 C 2.578125 -1.5 2.5625 -1.53125 2.578125 -1.546875 C 2.578125 -1.578125 2.609375 -1.59375 2.625 -1.609375 C 2.671875 -1.640625 2.734375 -1.671875 2.78125 -1.703125 C 2.96875 -1.8125 3.171875 -1.9375 3.359375 -2.0625 C 3.421875 -2.09375 3.546875 -2.140625 3.546875 -2.21875 C 3.546875 -2.265625 3.5 -2.3125 3.453125 -2.328125 C 3.421875 -2.328125 3.390625 -2.3125 3.359375 -2.3125 C 3.28125 -2.3125 3.203125 -2.3125 3.125 -2.296875 C 2.921875 -2.28125 2.734375 -2.265625 2.546875 -2.25 C 2.5 -2.25 2.453125 -2.25 2.40625 -2.25 C 2.390625 -2.25 2.359375 -2.234375 2.34375 -2.265625 C 2.328125 -2.28125 2.328125 -2.3125 2.3125 -2.34375 C 2.296875 -2.390625 2.28125 -2.453125 2.265625 -2.515625 C 2.234375 -2.71875 2.171875 -2.921875 2.125 -3.125 L 2.109375 -3.1875 C 2.09375 -3.265625 2.078125 -3.40625 1.96875 -3.375 Z M 1.96875 -3.375 "
               style="stroke:none;" />
          </symbol>
          <symbol
             id="textext-5a7bf2f1-11"
             overflow="visible">
            <path
               id="path5745"
               d=""
               style="stroke:none;" />
          </symbol>
          <symbol
             id="textext-5a7bf2f1-12"
             overflow="visible">
            <path
               id="path5748"
               d="M 3.59375 -2.21875 C 3.59375 -2.984375 3.5 -3.546875 3.1875 -4.03125 C 2.96875 -4.34375 2.53125 -4.625 1.984375 -4.625 C 0.359375 -4.625 0.359375 -2.71875 0.359375 -2.21875 C 0.359375 -1.71875 0.359375 0.140625 1.984375 0.140625 C 3.59375 0.140625 3.59375 -1.71875 3.59375 -2.21875 Z M 1.984375 -0.0625 C 1.65625 -0.0625 1.234375 -0.25 1.09375 -0.8125 C 1 -1.21875 1 -1.796875 1 -2.3125 C 1 -2.828125 1 -3.359375 1.09375 -3.734375 C 1.25 -4.28125 1.6875 -4.4375 1.984375 -4.4375 C 2.359375 -4.4375 2.71875 -4.203125 2.84375 -3.796875 C 2.953125 -3.421875 2.96875 -2.921875 2.96875 -2.3125 C 2.96875 -1.796875 2.96875 -1.28125 2.875 -0.84375 C 2.734375 -0.203125 2.265625 -0.0625 1.984375 -0.0625 Z M 1.984375 -0.0625 "
               style="stroke:none;" />
          </symbol>
          <symbol
             id="textext-5a7bf2f1-13"
             overflow="visible">
            <path
               id="path5751"
               d="M 2.328125 -4.4375 C 2.328125 -4.625 2.328125 -4.625 2.125 -4.625 C 1.671875 -4.1875 1.046875 -4.1875 0.765625 -4.1875 L 0.765625 -3.9375 C 0.921875 -3.9375 1.390625 -3.9375 1.765625 -4.125 L 1.765625 -0.578125 C 1.765625 -0.34375 1.765625 -0.25 1.078125 -0.25 L 0.8125 -0.25 L 0.8125 0 C 0.9375 0 1.796875 -0.03125 2.046875 -0.03125 C 2.265625 -0.03125 3.140625 0 3.296875 0 L 3.296875 -0.25 L 3.03125 -0.25 C 2.328125 -0.25 2.328125 -0.34375 2.328125 -0.578125 Z M 2.328125 -4.4375 "
               style="stroke:none;" />
          </symbol>
        </g>
      </defs>
      <g
         id="textext-5a7bf2f1-14">
        <g
           id="g5754"
           style="fill:rgb(0%,0%,0%);fill-opacity:1;">
          <use
             id="use5756"
             y="134.765"
             x="223.432"
             xlink:href="#textext-5a7bf2f1-1" />
        </g>
        <g
           id="g5758"
           style="fill:rgb(0%,0%,0%);fill-opacity:1;">
          <use
             id="use5760"
             y="134.765"
             x="226.199"
             xlink:href="#textext-5a7bf2f1-4" />
        </g>
        <g
           id="g5762"
           style="fill:rgb(0%,0%,0%);fill-opacity:1;">
          <use
             id="use5764"
             y="136.259"
             x="231.083"
             xlink:href="#textext-5a7bf2f1-8" />
        </g>
        <g
           id="g5766"
           style="fill:rgb(0%,0%,0%);fill-opacity:1;">
          <use
             id="use5768"
             y="134.765"
             x="236.614"
             xlink:href="#textext-5a7bf2f1-2" />
        </g>
        <g
           id="g5770"
           style="fill:rgb(0%,0%,0%);fill-opacity:1;">
          <use
             id="use5772"
             y="134.765"
             x="246.575"
             xlink:href="#textext-5a7bf2f1-5" />
        </g>
        <g
           id="g5774"
           style="fill:rgb(0%,0%,0%);fill-opacity:1;">
          <use
             id="use5776"
             y="131.15"
             x="251.528"
             xlink:href="#textext-5a7bf2f1-10" />
        </g>
        <g
           id="g5778"
           style="fill:rgb(0%,0%,0%);fill-opacity:1;">
          <use
             id="use5780"
             y="137.238"
             x="251.252"
             xlink:href="#textext-5a7bf2f1-12" />
        </g>
        <g
           id="g5782"
           style="fill:rgb(0%,0%,0%);fill-opacity:1;">
          <use
             id="use5784"
             y="134.765"
             x="258.211"
             xlink:href="#textext-5a7bf2f1-2" />
        </g>
        <g
           id="g5786"
           style="fill:rgb(0%,0%,0%);fill-opacity:1;">
          <use
             id="use5788"
             y="134.765"
             x="268.171"
             xlink:href="#textext-5a7bf2f1-5" />
        </g>
        <g
           id="g5790"
           style="fill:rgb(0%,0%,0%);fill-opacity:1;">
          <use
             id="use5792"
             y="131.15"
             x="273.125"
             xlink:href="#textext-5a7bf2f1-10" />
        </g>
        <g
           id="g5794"
           style="fill:rgb(0%,0%,0%);fill-opacity:1;">
          <use
             id="use5796"
             y="137.238"
             x="272.848"
             xlink:href="#textext-5a7bf2f1-13" />
        </g>
        <g
           id="g5798"
           style="fill:rgb(0%,0%,0%);fill-opacity:1;">
          <use
             id="use5800"
             y="134.765"
             x="277.593"
             xlink:href="#textext-5a7bf2f1-6" />
        </g>
        <g
           id="g5802"
           style="fill:rgb(0%,0%,0%);fill-opacity:1;">
          <use
             id="use5804"
             y="136.259"
             x="283.287"
             xlink:href="#textext-5a7bf2f1-8" />
        </g>
        <g
           id="g5806"
           style="fill:rgb(0%,0%,0%);fill-opacity:1;">
          <use
             id="use5808"
             y="134.765"
             x="286.604"
             xlink:href="#textext-5a7bf2f1-1" />
        </g>
      </g>
    </g>
  </g>
</svg>
