<?xml version="1.0" encoding="utf-8" standalone="no"?>
<!DOCTYPE svg PUBLIC "-//W3C//DTD SVG 1.1//EN"
  "http://www.w3.org/Graphics/SVG/1.1/DTD/svg11.dtd">
<!-- Created with matplotlib (http://matplotlib.org/) -->
<svg height="432pt" version="1.1" viewBox="0 0 432 432" width="432pt" xmlns="http://www.w3.org/2000/svg" xmlns:xlink="http://www.w3.org/1999/xlink">
 <defs>
  <style type="text/css">
*{stroke-linecap:butt;stroke-linejoin:round;}
  </style>
 </defs>
 <g id="figure_1">
  <g id="patch_1">
   <path d="
M0 432
L432 432
L432 0
L0 0
z
" style="fill:#ffffff;"/>
  </g>
  <g id="axes_1">
   <g id="patch_2">
    <path d="
M54 388.8
L388.8 388.8
L388.8 43.2
L54 43.2
z
" style="fill:#ffffff;"/>
   </g>
   <g id="matplotlib.axis_1">
    <g id="xtick_1">
     <g id="line2d_1">
      <defs>
       <path d="
M0 0
L0 0" id="m849d0bd0d6" style="stroke:#262626;stroke-width:1.6;"/>
      </defs>
      <g>
       <use style="fill:#262626;stroke:#262626;stroke-width:1.6;" x="87.48" xlink:href="#m849d0bd0d6" y="388.8"/>
      </g>
     </g>
     <g id="line2d_2">
      <g>
       <use style="fill:#262626;stroke:#262626;stroke-width:1.6;" x="87.48" xlink:href="#m849d0bd0d6" y="43.2"/>
      </g>
     </g>
     <g id="text_1">
      <!-- $-4$ -->
      <defs>
       <path d="
M65.9062 23
C67.5938 23 69.4062 23 69.4062 25
C69.4062 27 67.5938 27 65.9062 27
L11.7969 27
C10.0938 27 8.29688 27 8.29688 25
C8.29688 23 10.0938 23 11.7969 23
z
" id="CMSY10-0"/>
       <path d="
M33.5938 64.4062
C33.5938 66.5 33.5 66.5 31.7031 66.5
L2 19.5938
L2 17
L27.7969 17
L27.7969 7.14062
C27.7969 3.5 27.5938 2.5 20.5938 2.5
L18.7031 2.5
L18.7031 0
C21.9062 0 27.2969 0 30.7031 0
C34.0938 0 39.5 0 42.7031 0
L42.7031 2.5
L40.7969 2.5
C33.7969 2.5 33.5938 3.5 33.5938 7.14062
L33.5938 17
L43.7969 17
L43.7969 19.5938
L33.5938 19.5938
z

M28.0938 57.8594
L28.0938 19.5938
L4 19.5938
z
" id="CMR17-52"/>
      </defs>
      <g style="fill:#262626;" transform="translate(77.3790084789 411.069588287)scale(0.16 -0.16)">
       <use transform="scale(0.996264009963)" xlink:href="#CMSY10-0"/>
       <use transform="translate(77.4874676506 0.0)scale(0.996264009963)" xlink:href="#CMR17-52"/>
      </g>
     </g>
    </g>
    <g id="xtick_2">
     <g id="line2d_3">
      <g>
       <use style="fill:#262626;stroke:#262626;stroke-width:1.6;" x="154.44" xlink:href="#m849d0bd0d6" y="388.8"/>
      </g>
     </g>
     <g id="line2d_4">
      <g>
       <use style="fill:#262626;stroke:#262626;stroke-width:1.6;" x="154.44" xlink:href="#m849d0bd0d6" y="43.2"/>
      </g>
     </g>
     <g id="text_2">
      <!-- $-2$ -->
      <defs>
       <path d="
M41.7031 15.4531
L39.9062 15.4531
C38.9062 8.375 38.0938 7.17188 37.7031 6.5625
C37.2031 5.76562 30 5.76562 28.5938 5.76562
L9.40625 5.76562
C13 9.67188 20 16.75 28.5 24.9531
C34.5938 30.7344 41.7031 37.5312 41.7031 47.4219
C41.7031 59.2188 32.2969 66 21.7969 66
C10.7969 66 4.09375 56.3125 4.09375 47.3438
C4.09375 43.4375 7 42.9375 8.20312 42.9375
C9.20312 42.9375 12.2031 43.5469 12.2031 47.0312
C12.2031 50.1094 9.59375 51 8.20312 51
C7.59375 51 7 50.9062 6.59375 50.7031
C8.5 59.2188 14.2969 63.4062 20.4062 63.4062
C29.0938 63.4062 34.7969 56.5156 34.7969 47.4219
C34.7969 38.7344 29.7031 31.25 24 24.75
L4.09375 2.28125
L4.09375 0
L39.2969 0
z
" id="CMR17-50"/>
      </defs>
      <g style="fill:#262626;" transform="translate(144.339008479 411.069588287)scale(0.16 -0.16)">
       <use transform="scale(0.996264009963)" xlink:href="#CMSY10-0"/>
       <use transform="translate(77.4874676506 0.0)scale(0.996264009963)" xlink:href="#CMR17-50"/>
      </g>
     </g>
    </g>
    <g id="xtick_3">
     <g id="line2d_5">
      <g>
       <use style="fill:#262626;stroke:#262626;stroke-width:1.6;" x="221.4" xlink:href="#m849d0bd0d6" y="388.8"/>
      </g>
     </g>
     <g id="line2d_6">
      <g>
       <use style="fill:#262626;stroke:#262626;stroke-width:1.6;" x="221.4" xlink:href="#m849d0bd0d6" y="43.2"/>
      </g>
     </g>
     <g id="text_3">
      <!-- $0$ -->
      <defs>
       <path d="
M42 31.6406
C42 37.75 41.9062 48.125 37.7031 56.1094
C34 63.1094 28.0938 65.5938 22.9062 65.5938
C18.0938 65.5938 12 63.4062 8.20312 56.2031
C4.20312 48.7188 3.79688 39.4375 3.79688 31.6406
C3.79688 25.9531 3.90625 17.2812 7 9.67188
C11.2969 -0.609375 19 -2 22.9062 -2
C27.5 -2 34.5 -0.109375 38.5938 9.375
C41.5938 16.2812 42 24.3594 42 31.6406
M22.9062 -0.40625
C16.5 -0.40625 12.7031 5.07812 11.2969 12.6875
C10.2031 18.5625 10.2031 27.1562 10.2031 32.75
C10.2031 40.4375 10.2031 46.8281 11.5 52.9219
C13.4062 61.3906 19 64 22.9062 64
C27 64 32.2969 61.2969 34.2031 53.125
C35.5 47.4375 35.5938 40.7344 35.5938 32.75
C35.5938 26.25 35.5938 18.2656 34.4062 12.375
C32.2969 1.48438 26.4062 -0.40625 22.9062 -0.40625" id="CMR17-48"/>
      </defs>
      <g style="fill:#262626;" transform="translate(217.498006499 411.069588287)scale(0.16 -0.16)">
       <use transform="scale(0.996264009963)" xlink:href="#CMR17-48"/>
      </g>
     </g>
    </g>
    <g id="xtick_4">
     <g id="line2d_7">
      <g>
       <use style="fill:#262626;stroke:#262626;stroke-width:1.6;" x="288.36" xlink:href="#m849d0bd0d6" y="388.8"/>
      </g>
     </g>
     <g id="line2d_8">
      <g>
       <use style="fill:#262626;stroke:#262626;stroke-width:1.6;" x="288.36" xlink:href="#m849d0bd0d6" y="43.2"/>
      </g>
     </g>
     <g id="text_4">
      <!-- $2$ -->
      <g style="fill:#262626;" transform="translate(284.458006499 411.069588287)scale(0.16 -0.16)">
       <use transform="scale(0.996264009963)" xlink:href="#CMR17-50"/>
      </g>
     </g>
    </g>
    <g id="xtick_5">
     <g id="line2d_9">
      <g>
       <use style="fill:#262626;stroke:#262626;stroke-width:1.6;" x="355.32" xlink:href="#m849d0bd0d6" y="388.8"/>
      </g>
     </g>
     <g id="line2d_10">
      <g>
       <use style="fill:#262626;stroke:#262626;stroke-width:1.6;" x="355.32" xlink:href="#m849d0bd0d6" y="43.2"/>
      </g>
     </g>
     <g id="text_5">
      <!-- $4$ -->
      <g style="fill:#262626;" transform="translate(351.418006499 411.069588287)scale(0.16 -0.16)">
       <use transform="scale(0.996264009963)" xlink:href="#CMR17-52"/>
      </g>
     </g>
    </g>
   </g>
   <g id="matplotlib.axis_2">
    <g id="ytick_1">
     <g id="line2d_11">
      <g>
       <use style="fill:#262626;stroke:#262626;stroke-width:1.6;" x="54.0" xlink:href="#m849d0bd0d6" y="354.24"/>
      </g>
     </g>
     <g id="line2d_12">
      <g>
       <use style="fill:#262626;stroke:#262626;stroke-width:1.6;" x="388.8" xlink:href="#m849d0bd0d6" y="354.24"/>
      </g>
     </g>
     <g id="text_6">
      <!-- $-4$ -->
      <g style="fill:#262626;" transform="translate(22.5980169579 358.22505604)scale(0.16 -0.16)">
       <use transform="scale(0.996264009963)" xlink:href="#CMSY10-0"/>
       <use transform="translate(77.4874676506 0.0)scale(0.996264009963)" xlink:href="#CMR17-52"/>
      </g>
     </g>
    </g>
    <g id="ytick_2">
     <g id="line2d_13">
      <g>
       <use style="fill:#262626;stroke:#262626;stroke-width:1.6;" x="54.0" xlink:href="#m849d0bd0d6" y="285.12"/>
      </g>
     </g>
     <g id="line2d_14">
      <g>
       <use style="fill:#262626;stroke:#262626;stroke-width:1.6;" x="388.8" xlink:href="#m849d0bd0d6" y="285.12"/>
      </g>
     </g>
     <g id="text_7">
      <!-- $-2$ -->
      <g style="fill:#262626;" transform="translate(22.5980169579 289.10505604)scale(0.16 -0.16)">
       <use transform="scale(0.996264009963)" xlink:href="#CMSY10-0"/>
       <use transform="translate(77.4874676506 0.0)scale(0.996264009963)" xlink:href="#CMR17-50"/>
      </g>
     </g>
    </g>
    <g id="ytick_3">
     <g id="line2d_15">
      <g>
       <use style="fill:#262626;stroke:#262626;stroke-width:1.6;" x="54.0" xlink:href="#m849d0bd0d6" y="216.0"/>
      </g>
     </g>
     <g id="line2d_16">
      <g>
       <use style="fill:#262626;stroke:#262626;stroke-width:1.6;" x="388.8" xlink:href="#m849d0bd0d6" y="216.0"/>
      </g>
     </g>
     <g id="text_8">
      <!-- $0$ -->
      <g style="fill:#262626;" transform="translate(34.9960129981 219.98505604)scale(0.16 -0.16)">
       <use transform="scale(0.996264009963)" xlink:href="#CMR17-48"/>
      </g>
     </g>
    </g>
    <g id="ytick_4">
     <g id="line2d_17">
      <g>
       <use style="fill:#262626;stroke:#262626;stroke-width:1.6;" x="54.0" xlink:href="#m849d0bd0d6" y="146.88"/>
      </g>
     </g>
     <g id="line2d_18">
      <g>
       <use style="fill:#262626;stroke:#262626;stroke-width:1.6;" x="388.8" xlink:href="#m849d0bd0d6" y="146.88"/>
      </g>
     </g>
     <g id="text_9">
      <!-- $2$ -->
      <g style="fill:#262626;" transform="translate(34.9960129981 150.86505604)scale(0.16 -0.16)">
       <use transform="scale(0.996264009963)" xlink:href="#CMR17-50"/>
      </g>
     </g>
    </g>
    <g id="ytick_5">
     <g id="line2d_19">
      <g>
       <use style="fill:#262626;stroke:#262626;stroke-width:1.6;" x="54.0" xlink:href="#m849d0bd0d6" y="77.76"/>
      </g>
     </g>
     <g id="line2d_20">
      <g>
       <use style="fill:#262626;stroke:#262626;stroke-width:1.6;" x="388.8" xlink:href="#m849d0bd0d6" y="77.76"/>
      </g>
     </g>
     <g id="text_10">
      <!-- $4$ -->
      <g style="fill:#262626;" transform="translate(34.9960129981 81.7450560399)scale(0.16 -0.16)">
       <use transform="scale(0.996264009963)" xlink:href="#CMR17-52"/>
      </g>
     </g>
    </g>
   </g>
   <g id="PathCollection_1">
    <path clip-path="url(#p2265e122b5)" d="
M223.091 235.774
L223.493 235.2
L226.048 231.709
L226.473 231.168
L229.855 228.552
L230.465 228.218
L233.236 226.864
L236.618 225.582
L239.324 224.727
L240 224.549
L243.382 223.762
L246.764 223.034
L250.145 222.334
L253.527 221.642
L255.488 221.236
L256.909 221.02
L260.291 220.491
L263.673 219.941
L267.055 219.365
L270.436 218.758
L273.818 218.118
L275.678 217.745
L277.2 215.862
L278.428 214.255
L277.2 213.871
L273.818 212.87
L270.436 211.924
L267.055 211.027
L266.008 210.764
L263.673 209.796
L260.291 208.459
L257.171 207.273
L256.909 207.132
L253.527 205.361
L250.474 203.782
L250.145 203.562
L246.764 201.284
L245.348 200.291
L243.382 198.635
L241.367 196.8
L240 195.389
L238.223 193.309
L236.618 191.279
L235.656 189.818
L233.449 186.327
L233.236 185.988
L231.706 182.836
L229.991 179.345
L229.855 179.075
L228.705 175.855
L227.41 172.364
L226.473 169.953
L226.217 168.873
L225.349 165.382
L224.432 161.891
L223.463 158.4
L223.091 157.132
L221.534 158.4
L219.709 159.971
L219.349 161.891
L218.728 165.382
L218.14 168.873
L217.582 172.364
L217.049 175.855
L216.537 179.345
L216.327 180.812
L215.934 182.836
L215.264 186.327
L214.586 189.818
L213.881 193.309
L213.118 196.8
L212.945 197.497
L212.118 200.291
L210.876 203.782
L209.564 206.643
L209.241 207.273
L206.706 210.764
L206.182 211.202
L202.8 213.84
L202.244 214.255
L202.8 215.99
L203.338 217.745
L206.182 219.246
L209.564 221.162
L209.681 221.236
L212.945 224.053
L213.599 224.727
L216.327 228.098
L216.399 228.218
L218.255 231.709
L219.709 234.645
L221.41 235.2
L223.091 235.774" style="fill:#270000;fill-opacity:0.75;"/>
   </g>
   <g id="PathCollection_2">
    <path clip-path="url(#p2265e122b5)" d="
M223.091 281.045
L223.457 280.582
L226.156 277.091
L226.473 276.672
L229.855 273.954
L230.478 273.6
L233.236 272
L236.618 270.478
L237.603 270.109
L240 269.192
L243.382 268.051
L246.764 266.995
L248.021 266.618
L250.145 265.969
L253.527 264.946
L256.909 263.911
L259.4 263.127
L260.291 262.842
L263.673 261.716
L267.055 260.536
L269.504 259.636
L270.436 259.289
L273.818 257.957
L277.2 256.55
L278.12 256.145
L280.582 255.049
L283.964 253.457
L285.577 252.655
L287.345 251.768
L290.727 249.979
L292.19 249.164
L294.109 248.091
L297.491 246.102
L298.185 245.673
L300.873 244.018
L303.717 242.182
L304.255 241.839
L307.636 239.581
L308.912 238.691
L311.018 237.258
L313.917 235.2
L314.4 234.872
L317.782 232.476
L318.821 231.709
L321.164 230.1
L323.797 228.218
L324.545 227.74
L327.927 225.496
L329.044 224.727
L331.309 223.424
L334.691 221.408
L334.969 221.236
L338.073 219.829
L341.455 218.243
L342.48 217.745
L343.645 214.255
L341.455 212.686
L338.682 210.764
L338.073 210.069
L335.536 207.273
L334.691 205.953
L333.25 203.782
L331.453 200.291
L331.309 199.954
L329.907 196.8
L328.539 193.309
L327.927 191.622
L327.249 189.818
L325.987 186.327
L324.739 182.836
L324.545 182.301
L323.435 179.345
L322.086 175.855
L321.164 173.56
L320.664 172.364
L319.135 168.873
L317.782 165.935
L317.516 165.382
L315.748 161.891
L314.4 159.373
L313.857 158.4
L311.797 154.909
L311.018 153.66
L309.558 151.418
L307.636 148.623
L307.136 147.927
L304.49 144.436
L304.255 144.142
L301.581 140.945
L300.873 140.14
L298.396 137.455
L297.491 136.521
L294.889 133.964
L294.109 133.232
L291.012 130.473
L290.727 130.23
L287.345 127.498
L286.672 126.982
L283.964 124.998
L281.792 123.491
L280.582 122.687
L277.2 120.561
L276.258 120
L273.818 118.609
L270.436 116.783
L269.9 116.509
L267.055 115.112
L263.673 113.534
L262.514 113.018
L260.291 112.066
L256.909 110.674
L254.045 109.527
L253.527 109.327
L250.145 108.039
L246.764 106.737
L245.016 106.036
L243.382 105.405
L240 103.992
L236.944 102.545
L236.618 102.397
L233.236 100.541
L231.133 99.0545
L229.855 98.1817
L227.146 95.5636
L226.473 94.9344
L224.611 92.0727
L223.091 89.8118
L219.709 91.0139
L219.227 92.0727
L217.691 95.5636
L216.327 98.767
L216.161 99.0545
L214.208 102.545
L212.945 104.883
L212.201 106.036
L210.027 109.527
L209.564 110.3
L207.741 113.018
L206.182 115.436
L205.439 116.509
L203.118 120
L202.8 120.499
L200.806 123.491
L199.418 125.665
L198.556 126.982
L196.369 130.473
L196.036 131.028
L194.258 133.964
L192.655 136.738
L192.239 137.455
L190.312 140.945
L189.273 142.926
L188.483 144.436
L186.75 147.927
L185.891 149.753
L185.114 151.418
L183.572 154.909
L182.509 157.45
L182.117 158.4
L180.754 161.891
L179.464 165.382
L179.127 166.344
L178.256 168.873
L177.113 172.364
L176.022 175.855
L175.745 176.774
L174.986 179.345
L173.984 182.836
L172.993 186.327
L172.364 188.52
L171.998 189.818
L170.976 193.309
L169.87 196.8
L168.982 199.275
L168.624 200.291
L167.15 203.782
L165.6 206.629
L165.257 207.273
L162.624 210.764
L162.218 211.091
L158.836 213.877
L158.388 214.255
L158.836 215.836
L159.39 217.745
L162.218 219.322
L165.6 221.166
L165.731 221.236
L168.982 223.598
L170.568 224.727
L172.364 226.258
L174.709 228.218
L175.745 229.187
L178.491 231.709
L179.127 232.337
L182.075 235.2
L182.509 235.64
L185.552 238.691
L185.891 239.039
L188.973 242.182
L189.273 242.491
L192.365 245.673
L192.655 245.972
L195.737 249.164
L196.036 249.473
L199.081 252.655
L199.418 253.004
L202.373 256.145
L202.8 256.593
L205.574 259.636
L206.182 260.293
L208.625 263.127
L209.564 264.197
L211.463 266.618
L212.945 268.472
L214.039 270.109
L216.327 273.464
L216.395 273.6
L218.182 277.091
L219.709 280.01
L221.559 280.582
L223.091 281.045
M223.091 235.774
L221.41 235.2
L219.709 234.645
L218.255 231.709
L216.399 228.218
L216.327 228.098
L213.599 224.727
L212.945 224.053
L209.681 221.236
L209.564 221.162
L206.182 219.246
L203.338 217.745
L202.8 215.99
L202.244 214.255
L202.8 213.84
L206.182 211.202
L206.706 210.764
L209.241 207.273
L209.564 206.643
L210.876 203.782
L212.118 200.291
L212.945 197.497
L213.118 196.8
L213.881 193.309
L214.586 189.818
L215.264 186.327
L215.934 182.836
L216.327 180.812
L216.537 179.345
L217.049 175.855
L217.582 172.364
L218.14 168.873
L218.728 165.382
L219.349 161.891
L219.709 159.971
L221.534 158.4
L223.091 157.132
L223.463 158.4
L224.432 161.891
L225.349 165.382
L226.217 168.873
L226.473 169.953
L227.41 172.364
L228.705 175.855
L229.855 179.075
L229.991 179.345
L231.706 182.836
L233.236 185.988
L233.449 186.327
L235.656 189.818
L236.618 191.279
L238.223 193.309
L240 195.389
L241.367 196.8
L243.382 198.635
L245.348 200.291
L246.764 201.284
L250.145 203.562
L250.474 203.782
L253.527 205.361
L256.909 207.132
L257.171 207.273
L260.291 208.459
L263.673 209.796
L266.008 210.764
L267.055 211.027
L270.436 211.924
L273.818 212.87
L277.2 213.871
L278.428 214.255
L277.2 215.862
L275.678 217.745
L273.818 218.118
L270.436 218.758
L267.055 219.365
L263.673 219.941
L260.291 220.491
L256.909 221.02
L255.488 221.236
L253.527 221.642
L250.145 222.334
L246.764 223.034
L243.382 223.762
L240 224.549
L239.324 224.727
L236.618 225.582
L233.236 226.864
L230.465 228.218
L229.855 228.552
L226.473 231.168
L226.048 231.709
L223.493 235.2
L223.091 235.774" style="fill:#640000;fill-opacity:0.75;"/>
   </g>
   <g id="PathCollection_3">
    <path clip-path="url(#p2265e122b5)" d="
M219.709 316.487
L223.091 317.307
L224.881 315.491
L226.473 313.842
L229.398 312
L229.855 311.706
L233.236 310.169
L236.618 308.976
L238.206 308.509
L240 307.97
L243.382 307.074
L246.764 306.246
L250.145 305.45
L251.999 305.018
L253.527 304.654
L256.909 303.84
L260.291 303.002
L263.673 302.131
L265.91 301.527
L267.055 301.212
L270.436 300.229
L273.818 299.193
L277.2 298.097
L277.378 298.036
L280.582 296.914
L283.964 295.662
L286.821 294.545
L287.345 294.336
L290.727 292.91
L294.109 291.408
L294.867 291.055
L297.491 289.801
L300.873 288.104
L301.9 287.564
L304.255 286.296
L307.636 284.391
L308.176 284.073
L311.018 282.36
L313.845 280.582
L314.4 280.225
L317.782 277.957
L319.022 277.091
L321.164 275.562
L323.807 273.6
L324.545 273.04
L327.927 270.376
L328.254 270.109
L331.309 267.562
L332.401 266.618
L334.691 264.6
L336.305 263.127
L338.073 261.486
L339.999 259.636
L341.455 258.217
L343.51 256.145
L344.836 254.792
L346.865 252.655
L348.218 251.216
L350.091 249.164
L351.6 247.503
L353.214 245.673
L354.982 243.674
L356.264 242.182
L358.364 239.769
L359.275 238.691
L361.745 235.843
L362.288 235.2
L365.127 231.981
L365.361 231.709
L368.509 228.293
L368.576 228.218
L371.891 224.916
L372.076 224.727
L375.273 221.996
L376.14 221.236
L378.655 219.618
L381.492 217.745
L382.036 215.522
L382.339 214.255
L382.036 213.952
L378.768 210.764
L378.655 210.582
L376.539 207.273
L375.273 204.467
L374.956 203.782
L373.702 200.291
L372.657 196.8
L371.891 193.898
L371.731 193.309
L370.857 189.818
L370.016 186.327
L369.185 182.836
L368.509 180.031
L368.339 179.345
L367.451 175.855
L366.527 172.364
L365.56 168.873
L365.127 167.39
L364.525 165.382
L363.42 161.891
L362.253 158.4
L361.745 156.966
L360.998 154.909
L359.656 151.418
L358.364 148.233
L358.236 147.927
L356.699 144.436
L355.079 140.945
L354.982 140.745
L353.328 137.455
L351.6 134.179
L351.483 133.964
L349.492 130.473
L348.218 128.34
L347.382 126.982
L345.133 123.491
L344.836 123.049
L342.72 120
L341.455 118.252
L340.151 116.509
L338.073 113.841
L337.41 113.018
L334.691 109.772
L334.478 109.527
L331.333 106.036
L331.309 106.01
L327.952 102.545
L327.927 102.52
L324.545 99.274
L324.308 99.0545
L321.164 96.2477
L320.367 95.5636
L317.782 93.4186
L316.093 92.0727
L314.4 90.7669
L311.446 88.5818
L311.018 88.2752
L307.636 85.9544
L306.321 85.0909
L304.255 83.7761
L300.873 81.721
L300.664 81.6
L297.491 79.8159
L294.303 78.1091
L294.109 78.0084
L290.727 76.3368
L287.345 74.7499
L287.049 74.6182
L283.964 73.284
L280.582 71.8992
L278.589 71.1273
L277.2 70.6038
L273.818 69.3985
L270.436 68.258
L268.491 67.6364
L267.055 67.1899
L263.673 66.191
L260.291 65.2376
L256.909 64.3207
L256.245 64.1455
L253.527 63.4477
L250.145 62.5895
L246.764 61.7222
L243.382 60.8193
L242.811 60.6545
L240 59.8638
L236.618 58.7855
L233.236 57.4909
L232.573 57.1636
L229.855 55.856
L226.648 53.6727
L226.473 53.5561
L223.384 50.1818
L223.091 49.8689
L221.863 50.1818
L219.709 50.7442
L217.895 53.6727
L216.327 56.2683
L215.591 57.1636
L212.945 60.4638
L212.762 60.6545
L209.564 64.0762
L209.491 64.1455
L206.182 67.3952
L205.918 67.6364
L202.8 70.5668
L202.177 71.1273
L199.418 73.6776
L198.374 74.6182
L196.036 76.7857
L194.591 78.1091
L192.655 79.9343
L190.882 81.6
L189.273 83.1582
L187.284 85.0909
L185.891 86.4876
L183.82 88.5818
L182.509 89.9507
L180.502 92.0727
L179.127 93.5749
L177.335 95.5636
L175.745 97.3879
L174.319 99.0545
L172.364 101.419
L171.45 102.545
L168.982 105.699
L168.723 106.036
L166.143 109.527
L165.6 110.29
L163.699 113.018
L162.218 115.229
L161.379 116.509
L159.182 120
L158.836 120.573
L157.113 123.491
L155.455 126.425
L155.146 126.982
L153.3 130.473
L152.073 132.903
L151.549 133.964
L149.905 137.455
L148.691 140.163
L148.348 140.945
L146.893 144.436
L145.512 147.927
L145.309 148.468
L144.227 151.418
L143.014 154.909
L141.927 158.216
L141.868 158.4
L140.807 161.891
L139.803 165.382
L138.851 168.873
L138.545 170.054
L137.961 172.364
L137.117 175.855
L136.305 179.345
L135.516 182.836
L135.164 184.414
L134.745 186.327
L133.974 189.818
L133.172 193.309
L132.304 196.8
L131.782 198.652
L131.33 200.291
L130.174 203.782
L128.685 207.273
L128.4 207.744
L126.615 210.764
L125.018 212.406
L123.259 214.255
L124.053 217.745
L125.018 218.432
L128.4 220.785
L129.062 221.236
L131.782 223.757
L132.851 224.727
L135.164 227.237
L136.087 228.218
L138.545 231.138
L139.037 231.709
L141.836 235.2
L141.927 235.319
L144.572 238.691
L145.309 239.656
L147.284 242.182
L148.691 244.005
L150.008 245.673
L152.073 248.297
L152.77 249.164
L155.455 252.487
L155.593 252.655
L158.502 256.145
L158.836 256.542
L161.507 259.636
L162.218 260.448
L164.618 263.127
L165.6 264.205
L167.847 266.618
L168.982 267.814
L171.206 270.109
L172.364 271.28
L174.702 273.6
L175.745 274.614
L178.341 277.091
L179.127 277.825
L182.125 280.582
L182.509 280.927
L185.891 283.93
L186.053 284.073
L189.273 286.844
L190.112 287.564
L192.655 289.695
L194.27 291.055
L196.036 292.507
L198.484 294.545
L199.418 295.307
L202.684 298.036
L202.8 298.131
L206.182 301.02
L206.735 301.527
L209.564 304.065
L210.514 305.018
L212.945 307.405
L213.885 308.509
L216.327 311.316
L216.764 312
L219.044 315.491
L219.709 316.487
M223.091 281.045
L221.559 280.582
L219.709 280.01
L218.182 277.091
L216.395 273.6
L216.327 273.464
L214.039 270.109
L212.945 268.472
L211.463 266.618
L209.564 264.197
L208.625 263.127
L206.182 260.293
L205.574 259.636
L202.8 256.593
L202.373 256.145
L199.418 253.004
L199.081 252.655
L196.036 249.473
L195.737 249.164
L192.655 245.972
L192.365 245.673
L189.273 242.491
L188.973 242.182
L185.891 239.039
L185.552 238.691
L182.509 235.64
L182.075 235.2
L179.127 232.337
L178.491 231.709
L175.745 229.187
L174.709 228.218
L172.364 226.258
L170.568 224.727
L168.982 223.598
L165.731 221.236
L165.6 221.166
L162.218 219.322
L159.39 217.745
L158.836 215.836
L158.388 214.255
L158.836 213.877
L162.218 211.091
L162.624 210.764
L165.257 207.273
L165.6 206.629
L167.15 203.782
L168.624 200.291
L168.982 199.275
L169.87 196.8
L170.976 193.309
L171.998 189.818
L172.364 188.52
L172.993 186.327
L173.984 182.836
L174.986 179.345
L175.745 176.774
L176.022 175.855
L177.113 172.364
L178.256 168.873
L179.127 166.344
L179.464 165.382
L180.754 161.891
L182.117 158.4
L182.509 157.45
L183.572 154.909
L185.114 151.418
L185.891 149.753
L186.75 147.927
L188.483 144.436
L189.273 142.926
L190.312 140.945
L192.239 137.455
L192.655 136.738
L194.258 133.964
L196.036 131.028
L196.369 130.473
L198.556 126.982
L199.418 125.665
L200.806 123.491
L202.8 120.499
L203.118 120
L205.439 116.509
L206.182 115.436
L207.741 113.018
L209.564 110.3
L210.027 109.527
L212.201 106.036
L212.945 104.883
L214.208 102.545
L216.161 99.0545
L216.327 98.767
L217.691 95.5636
L219.227 92.0727
L219.709 91.0139
L223.091 89.8118
L224.611 92.0727
L226.473 94.9344
L227.146 95.5636
L229.855 98.1817
L231.133 99.0545
L233.236 100.541
L236.618 102.397
L236.944 102.545
L240 103.992
L243.382 105.405
L245.016 106.036
L246.764 106.737
L250.145 108.039
L253.527 109.327
L254.045 109.527
L256.909 110.674
L260.291 112.066
L262.514 113.018
L263.673 113.534
L267.055 115.112
L269.9 116.509
L270.436 116.783
L273.818 118.609
L276.258 120
L277.2 120.561
L280.582 122.687
L281.792 123.491
L283.964 124.998
L286.672 126.982
L287.345 127.498
L290.727 130.23
L291.012 130.473
L294.109 133.232
L294.889 133.964
L297.491 136.521
L298.396 137.455
L300.873 140.14
L301.581 140.945
L304.255 144.142
L304.49 144.436
L307.136 147.927
L307.636 148.623
L309.558 151.418
L311.018 153.66
L311.797 154.909
L313.857 158.4
L314.4 159.373
L315.748 161.891
L317.516 165.382
L317.782 165.935
L319.135 168.873
L320.664 172.364
L321.164 173.56
L322.086 175.855
L323.435 179.345
L324.545 182.301
L324.739 182.836
L325.987 186.327
L327.249 189.818
L327.927 191.622
L328.539 193.309
L329.907 196.8
L331.309 199.954
L331.453 200.291
L333.25 203.782
L334.691 205.953
L335.536 207.273
L338.073 210.069
L338.682 210.764
L341.455 212.686
L343.645 214.255
L342.48 217.745
L341.455 218.243
L338.073 219.829
L334.969 221.236
L334.691 221.408
L331.309 223.424
L329.044 224.727
L327.927 225.496
L324.545 227.74
L323.797 228.218
L321.164 230.1
L318.821 231.709
L317.782 232.476
L314.4 234.872
L313.917 235.2
L311.018 237.258
L308.912 238.691
L307.636 239.581
L304.255 241.839
L303.717 242.182
L300.873 244.018
L298.185 245.673
L297.491 246.102
L294.109 248.091
L292.19 249.164
L290.727 249.979
L287.345 251.768
L285.577 252.655
L283.964 253.457
L280.582 255.049
L278.12 256.145
L277.2 256.55
L273.818 257.957
L270.436 259.289
L269.504 259.636
L267.055 260.536
L263.673 261.716
L260.291 262.842
L259.4 263.127
L256.909 263.911
L253.527 264.946
L250.145 265.969
L248.021 266.618
L246.764 266.995
L243.382 268.051
L240 269.192
L237.603 270.109
L236.618 270.478
L233.236 272
L230.478 273.6
L229.855 273.954
L226.473 276.672
L226.156 277.091
L223.457 280.582
L223.091 281.045" style="fill:#a30000;fill-opacity:0.75;"/>
   </g>
   <g id="PathCollection_4">
    <path clip-path="url(#p2265e122b5)" d="
M223.091 347.032
L223.235 346.909
L226.473 344.111
L227.791 343.418
L229.855 342.313
L233.236 341.034
L236.618 340.041
L237.083 339.927
L240 339.2
L243.382 338.456
L246.764 337.769
L250.145 337.108
L253.527 336.454
L253.618 336.436
L256.909 335.78
L260.291 335.086
L263.673 334.365
L267.055 333.609
L269.878 332.945
L270.436 332.811
L273.818 331.955
L277.2 331.05
L280.582 330.093
L282.717 329.455
L283.964 329.074
L287.345 327.985
L290.727 326.836
L293.164 325.964
L294.109 325.618
L297.491 324.319
L300.873 322.954
L302.011 322.473
L304.255 321.503
L307.636 319.974
L309.733 318.982
L311.018 318.361
L314.4 316.656
L316.615 315.491
L317.782 314.864
L321.164 312.973
L322.836 312
L324.545 310.984
L327.927 308.896
L328.531 308.509
L331.309 306.69
L333.774 305.018
L334.691 304.382
L338.073 301.954
L338.647 301.527
L341.455 299.395
L343.186 298.036
L344.836 296.712
L347.452 294.545
L348.218 293.897
L351.471 291.055
L351.6 290.939
L354.982 287.824
L355.256 287.564
L358.364 284.549
L358.84 284.073
L361.745 281.107
L362.246 280.582
L365.127 277.489
L365.488 277.091
L368.509 273.685
L368.583 273.6
L371.535 270.109
L371.891 269.679
L374.363 266.618
L375.273 265.469
L377.081 263.127
L378.655 261.054
L379.704 259.636
L382.036 256.436
L382.243 256.145
L384.695 252.655
L385.418 251.616
L387.086 249.164
L388.8 246.634
L388.8 245.673
L388.8 242.182
L388.8 238.691
L388.8 235.2
L388.8 231.709
L388.8 228.218
L388.8 224.727
L388.8 221.236
L388.8 217.745
L388.8 214.255
L388.8 210.764
L388.8 207.273
L388.8 203.782
L388.8 200.291
L388.8 196.8
L388.8 193.309
L388.8 189.818
L388.8 186.327
L388.8 182.836
L388.8 179.345
L388.8 175.855
L388.8 172.364
L388.8 168.873
L388.8 165.382
L388.8 161.891
L388.8 158.4
L388.8 154.909
L388.8 151.418
L388.8 147.927
L388.8 144.436
L388.8 140.945
L388.8 137.455
L388.8 135.63
L388.124 133.964
L386.64 130.473
L385.418 127.729
L385.078 126.982
L383.414 123.491
L382.036 120.724
L381.667 120
L379.811 116.509
L378.655 114.419
L377.859 113.018
L375.799 109.527
L375.273 108.669
L373.618 106.036
L371.891 103.389
L371.326 102.545
L368.904 99.0545
L368.509 98.505
L366.339 95.5636
L365.127 93.975
L363.636 92.0727
L361.745 89.7392
L360.781 88.5818
L358.364 85.7704
L357.762 85.0909
L354.982 82.0447
L354.564 81.6
L351.6 78.5406
L351.169 78.1091
L348.218 75.2389
L347.56 74.6182
L344.836 72.1225
L343.715 71.1273
L341.455 69.1759
L339.612 67.6364
L338.073 66.3852
L335.223 64.1455
L334.691 63.7379
L331.309 61.2377
L330.492 60.6545
L327.927 58.872
L325.377 57.1636
L324.545 56.6202
L321.164 54.4936
L319.806 53.6727
L317.782 52.4786
L314.4 50.5628
L313.699 50.1818
L311.018 48.7602
L307.636 47.0425
L306.913 46.6909
L304.255 45.4298
L300.873 43.8976
L299.258 43.2
L297.491 43.2
L294.109 43.2
L290.727 43.2
L287.345 43.2
L283.964 43.2
L280.582 43.2
L277.2 43.2
L273.818 43.2
L270.436 43.2
L267.055 43.2
L263.673 43.2
L260.291 43.2
L256.909 43.2
L253.527 43.2
L250.145 43.2
L246.764 43.2
L243.382 43.2
L240 43.2
L236.618 43.2
L233.236 43.2
L229.855 43.2
L226.473 43.2
L223.091 43.2
L219.709 43.2
L216.327 43.2
L212.945 43.2
L209.564 43.2
L206.182 43.2
L202.8 43.2
L199.418 43.2
L196.036 43.2
L192.655 43.2
L191.723 43.2
L189.273 44.9691
L186.897 46.6909
L185.891 47.4371
L182.509 49.9685
L182.228 50.1818
L179.127 52.5897
L177.754 53.6727
L175.745 55.2968
L173.477 57.1636
L172.364 58.1032
L169.398 60.6545
L168.982 61.0222
L165.6 64.0697
L165.518 64.1455
L162.218 67.2642
L161.833 67.6364
L158.836 70.611
L158.328 71.1273
L155.455 74.126
L154.993 74.6182
L152.073 77.826
L151.821 78.1091
L148.803 81.6
L148.691 81.7336
L145.938 85.0909
L145.309 85.8815
L143.21 88.5818
L141.927 90.2851
L140.611 92.0727
L138.545 94.971
L138.132 95.5636
L135.78 99.0545
L135.164 100.001
L133.544 102.545
L131.782 105.413
L131.407 106.036
L129.385 109.527
L128.4 111.292
L127.458 113.018
L125.625 116.509
L125.018 117.714
L123.89 120
L122.238 123.491
L121.636 124.817
L120.676 126.982
L119.194 130.473
L118.255 132.789
L117.788 133.964
L116.466 137.455
L115.207 140.945
L114.873 141.921
L114.028 144.436
L112.915 147.927
L111.859 151.418
L111.491 152.705
L110.872 154.909
L109.945 158.4
L109.069 161.891
L108.239 165.382
L108.109 165.958
L107.466 168.873
L106.734 172.364
L106.035 175.855
L105.363 179.345
L104.727 182.742
L104.71 182.836
L104.077 186.327
L103.437 189.818
L102.77 193.309
L102.05 196.8
L101.345 199.811
L101.235 200.291
L100.274 203.782
L99.0342 207.273
L97.9636 209.403
L97.2924 210.764
L94.5818 214.105
L94.4631 214.255
L94.5818 214.879
L95.1375 217.745
L97.9636 220.103
L99.3483 221.236
L101.345 223.461
L102.504 224.727
L104.727 227.634
L105.183 228.218
L107.616 231.709
L108.109 232.468
L109.918 235.2
L111.491 237.682
L112.143 238.691
L114.343 242.182
L114.873 243.034
L116.548 245.673
L118.255 248.369
L118.768 249.164
L121.032 252.655
L121.636 253.579
L123.351 256.145
L125.018 258.61
L125.727 259.636
L128.178 263.127
L128.4 263.439
L130.721 266.618
L131.782 268.044
L133.352 270.109
L135.164 272.443
L136.081 273.6
L138.545 276.641
L138.919 277.091
L141.875 280.582
L141.927 280.643
L144.964 284.073
L145.309 284.453
L148.189 287.564
L148.691 288.093
L151.56 291.055
L152.073 291.572
L155.086 294.545
L155.455 294.901
L158.778 298.036
L158.836 298.091
L162.218 301.142
L162.654 301.527
L165.6 304.071
L166.721 305.018
L168.982 306.888
L170.982 308.509
L172.364 309.604
L175.444 312
L175.745 312.23
L179.127 314.759
L180.122 315.491
L182.509 317.212
L184.995 318.982
L185.891 319.606
L189.273 321.943
L190.043 322.473
L192.655 324.234
L195.211 325.964
L196.036 326.511
L199.418 328.781
L200.396 329.455
L202.8 331.078
L205.447 332.945
L206.182 333.454
L209.564 335.966
L210.129 336.436
L212.945 338.731
L214.172 339.927
L216.327 341.989
L217.425 343.418
L219.709 346.336
L222.486 346.909
L223.091 347.032
M219.709 316.487
L219.044 315.491
L216.764 312
L216.327 311.316
L213.885 308.509
L212.945 307.405
L210.514 305.018
L209.564 304.065
L206.735 301.527
L206.182 301.02
L202.8 298.131
L202.684 298.036
L199.418 295.307
L198.484 294.545
L196.036 292.507
L194.27 291.055
L192.655 289.695
L190.112 287.564
L189.273 286.844
L186.053 284.073
L185.891 283.93
L182.509 280.927
L182.125 280.582
L179.127 277.825
L178.341 277.091
L175.745 274.614
L174.702 273.6
L172.364 271.28
L171.206 270.109
L168.982 267.814
L167.847 266.618
L165.6 264.205
L164.618 263.127
L162.218 260.448
L161.507 259.636
L158.836 256.542
L158.502 256.145
L155.593 252.655
L155.455 252.487
L152.77 249.164
L152.073 248.297
L150.008 245.673
L148.691 244.005
L147.284 242.182
L145.309 239.656
L144.572 238.691
L141.927 235.319
L141.836 235.2
L139.037 231.709
L138.545 231.138
L136.087 228.218
L135.164 227.237
L132.851 224.727
L131.782 223.757
L129.062 221.236
L128.4 220.785
L125.018 218.432
L124.053 217.745
L123.259 214.255
L125.018 212.406
L126.615 210.764
L128.4 207.744
L128.685 207.273
L130.174 203.782
L131.33 200.291
L131.782 198.652
L132.304 196.8
L133.172 193.309
L133.974 189.818
L134.745 186.327
L135.164 184.414
L135.516 182.836
L136.305 179.345
L137.117 175.855
L137.961 172.364
L138.545 170.054
L138.851 168.873
L139.803 165.382
L140.807 161.891
L141.868 158.4
L141.927 158.216
L143.014 154.909
L144.227 151.418
L145.309 148.468
L145.512 147.927
L146.893 144.436
L148.348 140.945
L148.691 140.163
L149.905 137.455
L151.549 133.964
L152.073 132.903
L153.3 130.473
L155.146 126.982
L155.455 126.425
L157.113 123.491
L158.836 120.573
L159.182 120
L161.379 116.509
L162.218 115.229
L163.699 113.018
L165.6 110.29
L166.143 109.527
L168.723 106.036
L168.982 105.699
L171.45 102.545
L172.364 101.419
L174.319 99.0545
L175.745 97.3879
L177.335 95.5636
L179.127 93.5749
L180.502 92.0727
L182.509 89.9507
L183.82 88.5818
L185.891 86.4876
L187.284 85.0909
L189.273 83.1582
L190.882 81.6
L192.655 79.9343
L194.591 78.1091
L196.036 76.7857
L198.374 74.6182
L199.418 73.6776
L202.177 71.1273
L202.8 70.5668
L205.918 67.6364
L206.182 67.3952
L209.491 64.1455
L209.564 64.0762
L212.762 60.6545
L212.945 60.4638
L215.591 57.1636
L216.327 56.2683
L217.895 53.6727
L219.709 50.7442
L221.863 50.1818
L223.091 49.8689
L223.384 50.1818
L226.473 53.5561
L226.648 53.6727
L229.855 55.856
L232.573 57.1636
L233.236 57.4909
L236.618 58.7855
L240 59.8638
L242.811 60.6545
L243.382 60.8193
L246.764 61.7222
L250.145 62.5895
L253.527 63.4477
L256.245 64.1455
L256.909 64.3207
L260.291 65.2376
L263.673 66.191
L267.055 67.1899
L268.491 67.6364
L270.436 68.258
L273.818 69.3985
L277.2 70.6038
L278.589 71.1273
L280.582 71.8992
L283.964 73.284
L287.049 74.6182
L287.345 74.7499
L290.727 76.3368
L294.109 78.0084
L294.303 78.1091
L297.491 79.8159
L300.664 81.6
L300.873 81.721
L304.255 83.7761
L306.321 85.0909
L307.636 85.9544
L311.018 88.2752
L311.446 88.5818
L314.4 90.7669
L316.093 92.0727
L317.782 93.4186
L320.367 95.5636
L321.164 96.2477
L324.308 99.0545
L324.545 99.274
L327.927 102.52
L327.952 102.545
L331.309 106.01
L331.333 106.036
L334.478 109.527
L334.691 109.772
L337.41 113.018
L338.073 113.841
L340.151 116.509
L341.455 118.252
L342.72 120
L344.836 123.049
L345.133 123.491
L347.382 126.982
L348.218 128.34
L349.492 130.473
L351.483 133.964
L351.6 134.179
L353.328 137.455
L354.982 140.745
L355.079 140.945
L356.699 144.436
L358.236 147.927
L358.364 148.233
L359.656 151.418
L360.998 154.909
L361.745 156.966
L362.253 158.4
L363.42 161.891
L364.525 165.382
L365.127 167.39
L365.56 168.873
L366.527 172.364
L367.451 175.855
L368.339 179.345
L368.509 180.031
L369.185 182.836
L370.016 186.327
L370.857 189.818
L371.731 193.309
L371.891 193.898
L372.657 196.8
L373.702 200.291
L374.956 203.782
L375.273 204.467
L376.539 207.273
L378.655 210.582
L378.768 210.764
L382.036 213.952
L382.339 214.255
L382.036 215.522
L381.492 217.745
L378.655 219.618
L376.14 221.236
L375.273 221.996
L372.076 224.727
L371.891 224.916
L368.576 228.218
L368.509 228.293
L365.361 231.709
L365.127 231.981
L362.288 235.2
L361.745 235.843
L359.275 238.691
L358.364 239.769
L356.264 242.182
L354.982 243.674
L353.214 245.673
L351.6 247.503
L350.091 249.164
L348.218 251.216
L346.865 252.655
L344.836 254.792
L343.51 256.145
L341.455 258.217
L339.999 259.636
L338.073 261.486
L336.305 263.127
L334.691 264.6
L332.401 266.618
L331.309 267.562
L328.254 270.109
L327.927 270.376
L324.545 273.04
L323.807 273.6
L321.164 275.562
L319.022 277.091
L317.782 277.957
L314.4 280.225
L313.845 280.582
L311.018 282.36
L308.176 284.073
L307.636 284.391
L304.255 286.296
L301.9 287.564
L300.873 288.104
L297.491 289.801
L294.867 291.055
L294.109 291.408
L290.727 292.91
L287.345 294.336
L286.821 294.545
L283.964 295.662
L280.582 296.914
L277.378 298.036
L277.2 298.097
L273.818 299.193
L270.436 300.229
L267.055 301.212
L265.91 301.527
L263.673 302.131
L260.291 303.002
L256.909 303.84
L253.527 304.654
L251.999 305.018
L250.145 305.45
L246.764 306.246
L243.382 307.074
L240 307.97
L238.206 308.509
L236.618 308.976
L233.236 310.169
L229.855 311.706
L229.398 312
L226.473 313.842
L224.881 315.491
L223.091 317.307
L219.709 316.487" style="fill:#df0000;fill-opacity:0.75;"/>
   </g>
   <g id="PathCollection_5">
    <path clip-path="url(#p2265e122b5)" d="
M219.709 372.033
L223.091 372.639
L224.816 371.345
L226.473 370.082
L229.855 368.514
L231.868 367.855
L233.236 367.399
L236.618 366.524
L240 365.796
L243.382 365.154
L246.764 364.559
L247.924 364.364
L250.145 363.982
L253.527 363.407
L256.909 362.826
L260.291 362.228
L263.673 361.606
L267.055 360.955
L267.461 360.873
L270.436 360.259
L273.818 359.522
L277.2 358.744
L280.582 357.921
L282.678 357.382
L283.964 357.045
L287.345 356.11
L290.727 355.124
L294.109 354.086
L294.712 353.891
L297.491 352.977
L300.873 351.808
L304.255 350.583
L304.738 350.4
L307.636 349.28
L311.018 347.914
L313.399 346.909
L314.4 346.479
L317.782 344.964
L321.093 343.418
L321.164 343.385
L324.545 341.712
L327.927 339.975
L328.016 339.927
L331.309 338.138
L334.33 336.436
L334.691 336.229
L338.073 334.218
L340.142 332.945
L341.455 332.122
L344.836 329.93
L345.547 329.455
L348.218 327.631
L350.585 325.964
L351.6 325.234
L354.982 322.729
L355.318 322.473
L358.364 320.1
L359.759 318.982
L361.745 317.356
L363.962 315.491
L365.127 314.489
L367.945 312
L368.509 311.491
L371.726 308.509
L371.891 308.353
L375.273 305.065
L375.32 305.018
L378.655 301.619
L378.742 301.527
L382.01 298.036
L382.036 298.008
L385.13 294.545
L385.418 294.215
L388.115 291.055
L388.8 290.234
L388.8 287.564
L388.8 284.073
L388.8 280.582
L388.8 277.091
L388.8 273.6
L388.8 270.109
L388.8 266.618
L388.8 263.127
L388.8 259.636
L388.8 256.145
L388.8 252.655
L388.8 249.164
L388.8 246.634
L387.086 249.164
L385.418 251.616
L384.695 252.655
L382.243 256.145
L382.036 256.436
L379.704 259.636
L378.655 261.054
L377.081 263.127
L375.273 265.469
L374.363 266.618
L371.891 269.679
L371.535 270.109
L368.583 273.6
L368.509 273.685
L365.488 277.091
L365.127 277.489
L362.246 280.582
L361.745 281.107
L358.84 284.073
L358.364 284.549
L355.256 287.564
L354.982 287.824
L351.6 290.939
L351.471 291.055
L348.218 293.897
L347.452 294.545
L344.836 296.712
L343.186 298.036
L341.455 299.395
L338.647 301.527
L338.073 301.954
L334.691 304.382
L333.774 305.018
L331.309 306.69
L328.531 308.509
L327.927 308.896
L324.545 310.984
L322.836 312
L321.164 312.973
L317.782 314.864
L316.615 315.491
L314.4 316.656
L311.018 318.361
L309.733 318.982
L307.636 319.974
L304.255 321.503
L302.011 322.473
L300.873 322.954
L297.491 324.319
L294.109 325.618
L293.164 325.964
L290.727 326.836
L287.345 327.985
L283.964 329.074
L282.717 329.455
L280.582 330.093
L277.2 331.05
L273.818 331.955
L270.436 332.811
L269.878 332.945
L267.055 333.609
L263.673 334.365
L260.291 335.086
L256.909 335.78
L253.618 336.436
L253.527 336.454
L250.145 337.108
L246.764 337.769
L243.382 338.456
L240 339.2
L237.083 339.927
L236.618 340.041
L233.236 341.034
L229.855 342.313
L227.791 343.418
L226.473 344.111
L223.235 346.909
L223.091 347.032
L222.486 346.909
L219.709 346.336
L217.425 343.418
L216.327 341.989
L214.172 339.927
L212.945 338.731
L210.129 336.436
L209.564 335.966
L206.182 333.454
L205.447 332.945
L202.8 331.078
L200.396 329.455
L199.418 328.781
L196.036 326.511
L195.211 325.964
L192.655 324.234
L190.043 322.473
L189.273 321.943
L185.891 319.606
L184.995 318.982
L182.509 317.212
L180.122 315.491
L179.127 314.759
L175.745 312.23
L175.444 312
L172.364 309.604
L170.982 308.509
L168.982 306.888
L166.721 305.018
L165.6 304.071
L162.654 301.527
L162.218 301.142
L158.836 298.091
L158.778 298.036
L155.455 294.901
L155.086 294.545
L152.073 291.572
L151.56 291.055
L148.691 288.093
L148.189 287.564
L145.309 284.453
L144.964 284.073
L141.927 280.643
L141.875 280.582
L138.919 277.091
L138.545 276.641
L136.081 273.6
L135.164 272.443
L133.352 270.109
L131.782 268.044
L130.721 266.618
L128.4 263.439
L128.178 263.127
L125.727 259.636
L125.018 258.61
L123.351 256.145
L121.636 253.579
L121.032 252.655
L118.768 249.164
L118.255 248.369
L116.548 245.673
L114.873 243.034
L114.343 242.182
L112.143 238.691
L111.491 237.682
L109.918 235.2
L108.109 232.468
L107.616 231.709
L105.183 228.218
L104.727 227.634
L102.504 224.727
L101.345 223.461
L99.3483 221.236
L97.9636 220.103
L95.1375 217.745
L94.5818 214.879
L94.4631 214.255
L94.5818 214.105
L97.2924 210.764
L97.9636 209.403
L99.0342 207.273
L100.274 203.782
L101.235 200.291
L101.345 199.811
L102.05 196.8
L102.77 193.309
L103.437 189.818
L104.077 186.327
L104.71 182.836
L104.727 182.742
L105.363 179.345
L106.035 175.855
L106.734 172.364
L107.466 168.873
L108.109 165.958
L108.239 165.382
L109.069 161.891
L109.945 158.4
L110.872 154.909
L111.491 152.705
L111.859 151.418
L112.915 147.927
L114.028 144.436
L114.873 141.921
L115.207 140.945
L116.466 137.455
L117.788 133.964
L118.255 132.789
L119.194 130.473
L120.676 126.982
L121.636 124.817
L122.238 123.491
L123.89 120
L125.018 117.714
L125.625 116.509
L127.458 113.018
L128.4 111.292
L129.385 109.527
L131.407 106.036
L131.782 105.413
L133.544 102.545
L135.164 100.001
L135.78 99.0545
L138.132 95.5636
L138.545 94.971
L140.611 92.0727
L141.927 90.2851
L143.21 88.5818
L145.309 85.8815
L145.938 85.0909
L148.691 81.7336
L148.803 81.6
L151.821 78.1091
L152.073 77.826
L154.993 74.6182
L155.455 74.126
L158.328 71.1273
L158.836 70.611
L161.833 67.6364
L162.218 67.2642
L165.518 64.1455
L165.6 64.0697
L168.982 61.0222
L169.398 60.6545
L172.364 58.1032
L173.477 57.1636
L175.745 55.2968
L177.754 53.6727
L179.127 52.5897
L182.228 50.1818
L182.509 49.9685
L185.891 47.4371
L186.897 46.6909
L189.273 44.9691
L191.723 43.2
L189.273 43.2
L185.891 43.2
L182.509 43.2
L179.127 43.2
L175.745 43.2
L172.364 43.2
L168.982 43.2
L165.6 43.2
L162.218 43.2
L158.836 43.2
L155.455 43.2
L152.073 43.2
L149.486 43.2
L148.691 43.907
L145.629 46.6909
L145.309 46.9885
L141.955 50.1818
L141.927 50.2089
L138.545 53.5821
L138.457 53.6727
L135.164 57.1152
L135.118 57.1636
L131.933 60.6545
L131.782 60.8249
L128.893 64.1455
L128.4 64.7278
L125.989 67.6364
L125.018 68.8393
L123.211 71.1273
L121.636 73.1774
L120.553 74.6182
L118.255 77.7623
L118.006 78.1091
L115.579 81.6
L114.873 82.6474
L113.258 85.0909
L111.491 87.8482
L111.03 88.5818
L108.907 92.0727
L108.109 93.4274
L106.876 95.5636
L104.928 99.0545
L104.727 99.4271
L103.079 102.545
L101.345 105.945
L101.3 106.036
L99.6164 109.527
L97.996 113.018
L97.9636 113.091
L96.4666 116.509
L94.9984 120
L94.5818 121.033
L93.6087 123.491
L92.2851 126.982
L91.2 129.974
L91.0224 130.473
L89.8355 133.964
L88.7037 137.455
L87.8182 140.323
L87.6295 140.945
L86.6233 144.436
L85.6681 147.927
L84.7624 151.418
L84.4364 152.745
L83.9141 154.909
L83.1169 158.4
L82.3628 161.891
L81.6493 165.382
L81.0545 168.453
L80.9747 168.873
L80.3438 172.364
L79.7415 175.855
L79.1623 179.345
L78.5991 182.836
L78.0424 186.327
L77.6727 188.621
L77.4831 189.818
L76.9075 193.309
L76.2851 196.8
L75.5796 200.291
L74.7326 203.782
L74.2909 205.194
L73.6521 207.273
L72.133 210.764
L70.9091 212.474
L69.6559 214.255
L70.243 217.745
L70.9091 218.386
L73.9241 221.236
L74.2909 221.708
L76.6776 224.727
L77.6727 226.234
L79.0068 228.218
L81.0545 231.626
L81.1054 231.709
L83.0938 235.2
L84.4364 237.664
L85.0062 238.691
L86.8936 242.182
L87.8182 243.914
L88.7742 245.673
L90.6655 249.164
L91.2 250.147
L92.5892 252.655
L94.5398 256.145
L94.5818 256.22
L96.5518 259.636
L97.9636 262.047
L98.608 263.127
L100.728 266.618
L101.345 267.615
L102.92 270.109
L104.727 272.914
L105.178 273.6
L107.52 277.091
L108.109 277.949
L109.951 280.582
L111.491 282.735
L112.467 284.073
L114.873 287.296
L115.077 287.564
L117.796 291.055
L118.255 291.629
L120.627 294.545
L121.636 295.759
L123.572 298.036
L125.018 299.701
L126.639 301.527
L128.4 303.468
L129.838 305.018
L131.782 307.069
L133.177 308.509
L135.164 310.516
L136.666 312
L138.545 313.818
L140.315 315.491
L141.927 316.984
L144.134 318.982
L145.309 320.024
L148.134 322.473
L148.691 322.946
L152.073 325.753
L152.332 325.964
L155.455 328.447
L156.75 329.455
L158.836 331.045
L161.386 332.945
L162.218 333.553
L165.6 335.971
L166.264 336.436
L168.982 338.302
L171.398 339.927
L172.364 340.564
L175.745 342.753
L176.792 343.418
L179.127 344.876
L182.437 346.909
L182.509 346.952
L185.891 348.966
L188.321 350.4
L189.273 350.952
L192.655 352.904
L194.358 353.891
L196.036 354.845
L199.418 356.794
L200.413 357.382
L202.8 358.768
L206.182 360.82
L206.262 360.873
L209.564 362.987
L211.486 364.364
L212.945 365.391
L215.87 367.855
L216.327 368.233
L219.089 371.345
L219.709 372.033" style="fill:#ff1d00;fill-opacity:0.75;"/>
    <path clip-path="url(#p2265e122b5)" d="
M388.8 135.63
L388.8 133.964
L388.8 130.473
L388.8 126.982
L388.8 123.491
L388.8 120
L388.8 116.509
L388.8 113.018
L388.8 109.527
L388.8 106.036
L388.8 102.545
L388.8 99.0545
L388.8 95.5636
L388.8 92.0727
L388.8 88.5818
L388.8 85.0909
L388.8 81.6
L388.8 79.331
L387.89 78.1091
L385.418 74.884
L385.21 74.6182
L382.39 71.1273
L382.036 70.7016
L379.428 67.6364
L378.655 66.7515
L376.319 64.1455
L375.273 63.0088
L373.05 60.6545
L371.891 59.4577
L369.61 57.1636
L368.509 56.0838
L365.984 53.6727
L365.127 52.8741
L362.158 50.1818
L361.745 49.8169
L358.364 46.9063
L358.106 46.6909
L354.982 44.1389
L353.798 43.2
L351.6 43.2
L348.218 43.2
L344.836 43.2
L341.455 43.2
L338.073 43.2
L334.691 43.2
L331.309 43.2
L327.927 43.2
L324.545 43.2
L321.164 43.2
L317.782 43.2
L314.4 43.2
L311.018 43.2
L307.636 43.2
L304.255 43.2
L300.873 43.2
L299.258 43.2
L300.873 43.8976
L304.255 45.4298
L306.913 46.6909
L307.636 47.0425
L311.018 48.7602
L313.699 50.1818
L314.4 50.5628
L317.782 52.4786
L319.806 53.6727
L321.164 54.4936
L324.545 56.6202
L325.377 57.1636
L327.927 58.872
L330.492 60.6545
L331.309 61.2377
L334.691 63.7379
L335.223 64.1455
L338.073 66.3852
L339.612 67.6364
L341.455 69.1759
L343.715 71.1273
L344.836 72.1225
L347.56 74.6182
L348.218 75.2389
L351.169 78.1091
L351.6 78.5406
L354.564 81.6
L354.982 82.0447
L357.762 85.0909
L358.364 85.7704
L360.781 88.5818
L361.745 89.7392
L363.636 92.0727
L365.127 93.975
L366.339 95.5636
L368.509 98.505
L368.904 99.0545
L371.326 102.545
L371.891 103.389
L373.618 106.036
L375.273 108.669
L375.799 109.527
L377.859 113.018
L378.655 114.419
L379.811 116.509
L381.667 120
L382.036 120.724
L383.414 123.491
L385.078 126.982
L385.418 127.729
L386.64 130.473
L388.124 133.964
L388.8 135.63" style="fill:#ff1d00;fill-opacity:0.75;"/>
   </g>
   <g id="PathCollection_6">
    <path clip-path="url(#p2265e122b5)" d="
M212.736 388.8
L212.945 388.8
L216.327 388.8
L219.709 388.8
L223.091 388.8
L226.473 388.8
L229.855 388.8
L233.236 388.8
L236.618 388.8
L240 388.8
L242.911 388.8
L243.382 388.719
L246.764 388.181
L250.145 387.664
L253.527 387.152
L256.909 386.635
L260.291 386.102
L263.673 385.549
L265.071 385.309
L267.055 384.964
L270.436 384.343
L273.818 383.689
L277.2 382.997
L280.582 382.266
L282.54 381.818
L283.964 381.488
L287.345 380.658
L290.727 379.783
L294.109 378.862
L295.975 378.327
L297.491 377.886
L300.873 376.851
L304.255 375.766
L307.022 374.836
L307.636 374.626
L311.018 373.419
L314.4 372.158
L316.489 371.345
L317.782 370.834
L321.164 369.442
L324.545 367.994
L324.858 367.855
L327.927 366.466
L331.309 364.878
L332.367 364.364
L334.691 363.213
L338.073 361.48
L339.218 360.873
L341.455 359.666
L344.836 357.781
L345.529 357.382
L348.218 355.806
L351.388 353.891
L351.6 353.76
L354.982 351.616
L356.843 350.4
L358.364 349.388
L361.745 347.073
L361.978 346.909
L365.127 344.651
L366.799 343.418
L368.509 342.134
L371.37 339.927
L371.891 339.518
L375.273 336.789
L375.698 336.436
L378.655 333.941
L379.805 332.945
L382.036 330.977
L383.72 329.455
L385.418 327.888
L387.455 325.964
L388.8 324.667
L388.8 322.473
L388.8 318.982
L388.8 315.491
L388.8 312
L388.8 308.509
L388.8 305.018
L388.8 301.527
L388.8 298.036
L388.8 294.545
L388.8 291.055
L388.8 290.234
L388.115 291.055
L385.418 294.215
L385.13 294.545
L382.036 298.008
L382.01 298.036
L378.742 301.527
L378.655 301.619
L375.32 305.018
L375.273 305.065
L371.891 308.353
L371.726 308.509
L368.509 311.491
L367.945 312
L365.127 314.489
L363.962 315.491
L361.745 317.356
L359.759 318.982
L358.364 320.1
L355.318 322.473
L354.982 322.729
L351.6 325.234
L350.585 325.964
L348.218 327.631
L345.547 329.455
L344.836 329.93
L341.455 332.122
L340.142 332.945
L338.073 334.218
L334.691 336.229
L334.33 336.436
L331.309 338.138
L328.016 339.927
L327.927 339.975
L324.545 341.712
L321.164 343.385
L321.093 343.418
L317.782 344.964
L314.4 346.479
L313.399 346.909
L311.018 347.914
L307.636 349.28
L304.738 350.4
L304.255 350.583
L300.873 351.808
L297.491 352.977
L294.712 353.891
L294.109 354.086
L290.727 355.124
L287.345 356.11
L283.964 357.045
L282.678 357.382
L280.582 357.921
L277.2 358.744
L273.818 359.522
L270.436 360.259
L267.461 360.873
L267.055 360.955
L263.673 361.606
L260.291 362.228
L256.909 362.826
L253.527 363.407
L250.145 363.982
L247.924 364.364
L246.764 364.559
L243.382 365.154
L240 365.796
L236.618 366.524
L233.236 367.399
L231.868 367.855
L229.855 368.514
L226.473 370.082
L224.816 371.345
L223.091 372.639
L219.709 372.033
L219.089 371.345
L216.327 368.233
L215.87 367.855
L212.945 365.391
L211.486 364.364
L209.564 362.987
L206.262 360.873
L206.182 360.82
L202.8 358.768
L200.413 357.382
L199.418 356.794
L196.036 354.845
L194.358 353.891
L192.655 352.904
L189.273 350.952
L188.321 350.4
L185.891 348.966
L182.509 346.952
L182.437 346.909
L179.127 344.876
L176.792 343.418
L175.745 342.753
L172.364 340.564
L171.398 339.927
L168.982 338.302
L166.264 336.436
L165.6 335.971
L162.218 333.553
L161.386 332.945
L158.836 331.045
L156.75 329.455
L155.455 328.447
L152.332 325.964
L152.073 325.753
L148.691 322.946
L148.134 322.473
L145.309 320.024
L144.134 318.982
L141.927 316.984
L140.315 315.491
L138.545 313.818
L136.666 312
L135.164 310.516
L133.177 308.509
L131.782 307.069
L129.838 305.018
L128.4 303.468
L126.639 301.527
L125.018 299.701
L123.572 298.036
L121.636 295.759
L120.627 294.545
L118.255 291.629
L117.796 291.055
L115.077 287.564
L114.873 287.296
L112.467 284.073
L111.491 282.735
L109.951 280.582
L108.109 277.949
L107.52 277.091
L105.178 273.6
L104.727 272.914
L102.92 270.109
L101.345 267.615
L100.728 266.618
L98.608 263.127
L97.9636 262.047
L96.5518 259.636
L94.5818 256.22
L94.5398 256.145
L92.5892 252.655
L91.2 250.147
L90.6655 249.164
L88.7742 245.673
L87.8182 243.914
L86.8936 242.182
L85.0062 238.691
L84.4364 237.664
L83.0938 235.2
L81.1054 231.709
L81.0545 231.626
L79.0068 228.218
L77.6727 226.234
L76.6776 224.727
L74.2909 221.708
L73.9241 221.236
L70.9091 218.386
L70.243 217.745
L69.6559 214.255
L70.9091 212.474
L72.133 210.764
L73.6521 207.273
L74.2909 205.194
L74.7326 203.782
L75.5796 200.291
L76.2851 196.8
L76.9075 193.309
L77.4831 189.818
L77.6727 188.621
L78.0424 186.327
L78.5991 182.836
L79.1623 179.345
L79.7415 175.855
L80.3438 172.364
L80.9747 168.873
L81.0545 168.453
L81.6493 165.382
L82.3628 161.891
L83.1169 158.4
L83.9141 154.909
L84.4364 152.745
L84.7624 151.418
L85.6681 147.927
L86.6233 144.436
L87.6295 140.945
L87.8182 140.323
L88.7037 137.455
L89.8355 133.964
L91.0224 130.473
L91.2 129.974
L92.2851 126.982
L93.6087 123.491
L94.5818 121.033
L94.9984 120
L96.4666 116.509
L97.9636 113.091
L97.996 113.018
L99.6164 109.527
L101.3 106.036
L101.345 105.945
L103.079 102.545
L104.727 99.4271
L104.928 99.0545
L106.876 95.5636
L108.109 93.4274
L108.907 92.0727
L111.03 88.5818
L111.491 87.8482
L113.258 85.0909
L114.873 82.6474
L115.579 81.6
L118.006 78.1091
L118.255 77.7623
L120.553 74.6182
L121.636 73.1774
L123.211 71.1273
L125.018 68.8393
L125.989 67.6364
L128.4 64.7278
L128.893 64.1455
L131.782 60.8249
L131.933 60.6545
L135.118 57.1636
L135.164 57.1152
L138.457 53.6727
L138.545 53.5821
L141.927 50.2089
L141.955 50.1818
L145.309 46.9885
L145.629 46.6909
L148.691 43.907
L149.486 43.2
L148.691 43.2
L145.309 43.2
L141.927 43.2
L138.545 43.2
L135.164 43.2
L131.782 43.2
L128.4 43.2
L125.018 43.2
L121.636 43.2
L118.255 43.2
L116.129 43.2
L114.873 44.5883
L113.009 46.6909
L111.491 48.4442
L110.017 50.1818
L108.109 52.4848
L107.145 53.6727
L104.727 56.7245
L104.386 57.1636
L101.742 60.6545
L101.345 61.1923
L99.2077 64.1455
L97.9636 65.9102
L96.7697 67.6364
L94.5818 70.8868
L94.4229 71.1273
L92.1801 74.6182
L91.2 76.188
L90.0225 78.1091
L87.9446 81.6
L87.8182 81.8189
L85.9625 85.0909
L84.4364 87.8664
L84.0499 88.5818
L82.2235 92.0727
L81.0545 94.3815
L80.4665 95.5636
L78.7873 99.0545
L77.6727 101.454
L77.1742 102.545
L75.6362 106.036
L74.2909 109.205
L74.1562 109.527
L72.7533 113.018
L71.4044 116.509
L70.9091 117.844
L70.1223 120
L68.9007 123.491
L67.7306 126.982
L67.5273 127.616
L66.6267 130.473
L65.5756 133.964
L64.5733 137.455
L64.1455 139.019
L63.6275 140.945
L62.7348 144.436
L61.8874 147.927
L61.0839 151.418
L60.7636 152.887
L60.33 154.909
L59.6215 158.4
L58.9514 161.891
L58.3173 165.382
L57.7165 168.873
L57.3818 170.92
L57.1495 172.364
L56.6134 175.855
L56.0978 179.345
L55.5963 182.836
L55.1007 186.327
L54.5999 189.818
L54.0785 193.309
L54 193.795
L54 196.8
L54 200.291
L54 203.782
L54 207.273
L54 210.764
L54 214.255
L54 217.745
L54 221.236
L54 224.727
L54 224.944
L55.9593 228.218
L57.3818 230.877
L57.8338 231.709
L59.601 235.2
L60.7636 237.601
L61.3002 238.691
L62.9745 242.182
L64.1455 244.654
L64.6357 245.673
L66.3106 249.164
L67.5273 251.69
L67.9995 252.655
L69.7238 256.145
L70.9091 258.515
L71.4795 259.636
L73.2832 263.127
L74.2909 265.044
L75.1332 266.618
L77.0368 270.109
L77.6727 271.252
L79.0025 273.6
L81.0217 277.091
L81.0545 277.146
L83.1215 280.582
L84.4364 282.719
L85.2839 284.073
L87.5197 287.564
L87.8182 288.019
L89.8428 291.055
L91.2 293.044
L92.2435 294.545
L94.5818 297.836
L94.7272 298.036
L97.3123 301.527
L97.9636 302.388
L99.9935 305.018
L101.345 306.732
L102.774 308.509
L104.727 310.885
L105.662 312
L108.109 314.858
L108.662 315.491
L111.491 318.662
L111.782 318.982
L114.873 322.306
L115.031 322.473
L118.255 325.8
L118.416 325.964
L121.636 329.154
L121.946 329.455
L125.018 332.375
L125.631 332.945
L128.4 335.472
L129.48 336.436
L131.782 338.452
L133.503 339.927
L135.164 341.323
L137.712 343.418
L138.545 344.091
L141.927 346.759
L142.122 346.909
L145.309 349.323
L146.764 350.4
L148.691 351.801
L151.631 353.891
L152.073 354.199
L155.455 356.507
L156.766 357.382
L158.836 358.739
L162.164 360.873
L162.218 360.907
L165.6 362.991
L167.875 364.364
L168.982 365.02
L172.364 366.985
L173.889 367.855
L175.745 368.895
L179.127 370.757
L180.214 371.345
L182.509 372.569
L185.891 374.349
L186.825 374.836
L189.273 376.092
L192.655 377.821
L193.641 378.327
L196.036 379.536
L199.418 381.264
L200.474 381.818
L202.8 383.018
L206.182 384.842
L206.987 385.309
L209.564 386.778
L212.736 388.8" style="fill:#ff5c00;fill-opacity:0.75;"/>
    <path clip-path="url(#p2265e122b5)" d="
M388.8 79.331
L388.8 78.1091
L388.8 74.6182
L388.8 71.1273
L388.8 67.6364
L388.8 64.1455
L388.8 60.6545
L388.8 57.1636
L388.8 53.6727
L388.8 50.1818
L388.8 46.6909
L388.8 43.2
L385.418 43.2
L382.036 43.2
L378.655 43.2
L375.273 43.2
L371.891 43.2
L368.509 43.2
L365.127 43.2
L361.745 43.2
L358.364 43.2
L354.982 43.2
L353.798 43.2
L354.982 44.1389
L358.106 46.6909
L358.364 46.9063
L361.745 49.8169
L362.158 50.1818
L365.127 52.8741
L365.984 53.6727
L368.509 56.0838
L369.61 57.1636
L371.891 59.4577
L373.05 60.6545
L375.273 63.0088
L376.319 64.1455
L378.655 66.7515
L379.428 67.6364
L382.036 70.7016
L382.39 71.1273
L385.21 74.6182
L385.418 74.884
L387.89 78.1091
L388.8 79.331" style="fill:#ff5c00;fill-opacity:0.75;"/>
   </g>
   <g id="PathCollection_7">
    <path clip-path="url(#p2265e122b5)" d="
M169.366 388.8
L172.364 388.8
L175.745 388.8
L179.127 388.8
L182.509 388.8
L185.891 388.8
L189.273 388.8
L192.655 388.8
L196.036 388.8
L199.418 388.8
L202.8 388.8
L206.182 388.8
L209.564 388.8
L212.736 388.8
L209.564 386.778
L206.987 385.309
L206.182 384.842
L202.8 383.018
L200.474 381.818
L199.418 381.264
L196.036 379.536
L193.641 378.327
L192.655 377.821
L189.273 376.092
L186.825 374.836
L185.891 374.349
L182.509 372.569
L180.214 371.345
L179.127 370.757
L175.745 368.895
L173.889 367.855
L172.364 366.985
L168.982 365.02
L167.875 364.364
L165.6 362.991
L162.218 360.907
L162.164 360.873
L158.836 358.739
L156.766 357.382
L155.455 356.507
L152.073 354.199
L151.631 353.891
L148.691 351.801
L146.764 350.4
L145.309 349.323
L142.122 346.909
L141.927 346.759
L138.545 344.091
L137.712 343.418
L135.164 341.323
L133.503 339.927
L131.782 338.452
L129.48 336.436
L128.4 335.472
L125.631 332.945
L125.018 332.375
L121.946 329.455
L121.636 329.154
L118.416 325.964
L118.255 325.8
L115.031 322.473
L114.873 322.306
L111.782 318.982
L111.491 318.662
L108.662 315.491
L108.109 314.858
L105.662 312
L104.727 310.885
L102.774 308.509
L101.345 306.732
L99.9935 305.018
L97.9636 302.388
L97.3123 301.527
L94.7272 298.036
L94.5818 297.836
L92.2435 294.545
L91.2 293.044
L89.8428 291.055
L87.8182 288.019
L87.5197 287.564
L85.2839 284.073
L84.4364 282.719
L83.1215 280.582
L81.0545 277.146
L81.0217 277.091
L79.0025 273.6
L77.6727 271.252
L77.0368 270.109
L75.1332 266.618
L74.2909 265.044
L73.2832 263.127
L71.4795 259.636
L70.9091 258.515
L69.7238 256.145
L67.9995 252.655
L67.5273 251.69
L66.3106 249.164
L64.6357 245.673
L64.1455 244.654
L62.9745 242.182
L61.3002 238.691
L60.7636 237.601
L59.601 235.2
L57.8338 231.709
L57.3818 230.877
L55.9593 228.218
L54 224.944
L54 228.218
L54 231.709
L54 235.2
L54 238.691
L54 242.182
L54 245.673
L54 249.164
L54 252.655
L54 256.145
L54 259.636
L54 263.127
L54 266.618
L54 269.713
L54.1957 270.109
L55.9555 273.6
L57.3818 276.37
L57.759 277.091
L59.6256 280.582
L60.7636 282.664
L61.5466 284.073
L63.53 287.564
L64.1455 288.623
L65.582 291.055
L67.5273 294.274
L67.6939 294.545
L69.8871 298.036
L70.9091 299.627
L72.1506 301.527
L74.2909 304.731
L74.486 305.018
L76.911 308.509
L77.6727 309.582
L79.4195 312
L81.0545 314.215
L82.013 315.491
L84.4364 318.649
L84.6964 318.982
L87.4814 322.473
L87.8182 322.886
L90.3706 325.964
L91.2 326.943
L93.3652 329.455
L94.5818 330.837
L96.4714 332.945
L97.9636 334.577
L99.6958 336.436
L101.345 338.172
L103.046 339.927
L104.727 341.63
L106.528 343.418
L108.109 344.959
L110.151 346.909
L111.491 348.165
L113.924 350.4
L114.873 351.256
L117.854 353.891
L118.255 354.239
L121.636 357.113
L121.959 357.382
L125.018 359.883
L126.254 360.873
L128.4 362.56
L130.743 364.364
L131.782 365.15
L135.164 367.653
L135.442 367.855
L138.545 370.064
L140.386 371.345
L141.927 372.4
L145.309 374.664
L145.572 374.836
L148.691 376.844
L151.047 378.327
L152.073 378.963
L155.455 381.01
L156.82 381.818
L158.836 382.993
L162.218 384.92
L162.917 385.309
L165.6 386.781
L168.982 388.598
L169.366 388.8" style="fill:#ff9800;fill-opacity:0.75;"/>
    <path clip-path="url(#p2265e122b5)" d="
M242.911 388.8
L243.382 388.8
L246.764 388.8
L250.145 388.8
L253.527 388.8
L256.909 388.8
L260.291 388.8
L263.673 388.8
L267.055 388.8
L270.436 388.8
L273.818 388.8
L277.2 388.8
L280.582 388.8
L283.964 388.8
L287.345 388.8
L290.727 388.8
L294.109 388.8
L297.491 388.8
L300.873 388.8
L304.255 388.8
L307.636 388.8
L311.018 388.8
L314.4 388.8
L317.782 388.8
L321.164 388.8
L324.545 388.8
L327.927 388.8
L330.532 388.8
L331.309 388.47
L334.691 386.979
L338.073 385.436
L338.342 385.309
L341.455 383.817
L344.836 382.141
L345.468 381.818
L348.218 380.389
L351.6 378.575
L352.049 378.327
L354.982 376.68
L358.169 374.836
L358.364 374.722
L361.745 372.676
L363.883 371.345
L365.127 370.558
L368.509 368.359
L369.264 367.855
L371.891 366.07
L374.339 364.364
L375.273 363.701
L378.655 361.241
L379.148 360.873
L382.036 358.681
L383.707 357.382
L385.418 356.027
L388.054 353.891
L388.8 353.275
L388.8 350.4
L388.8 346.909
L388.8 343.418
L388.8 339.927
L388.8 336.436
L388.8 332.945
L388.8 329.455
L388.8 325.964
L388.8 324.667
L387.455 325.964
L385.418 327.888
L383.72 329.455
L382.036 330.977
L379.805 332.945
L378.655 333.941
L375.698 336.436
L375.273 336.789
L371.891 339.518
L371.37 339.927
L368.509 342.134
L366.799 343.418
L365.127 344.651
L361.978 346.909
L361.745 347.073
L358.364 349.388
L356.843 350.4
L354.982 351.616
L351.6 353.76
L351.388 353.891
L348.218 355.806
L345.529 357.382
L344.836 357.781
L341.455 359.666
L339.218 360.873
L338.073 361.48
L334.691 363.213
L332.367 364.364
L331.309 364.878
L327.927 366.466
L324.858 367.855
L324.545 367.994
L321.164 369.442
L317.782 370.834
L316.489 371.345
L314.4 372.158
L311.018 373.419
L307.636 374.626
L307.022 374.836
L304.255 375.766
L300.873 376.851
L297.491 377.886
L295.975 378.327
L294.109 378.862
L290.727 379.783
L287.345 380.658
L283.964 381.488
L282.54 381.818
L280.582 382.266
L277.2 382.997
L273.818 383.689
L270.436 384.343
L267.055 384.964
L265.071 385.309
L263.673 385.549
L260.291 386.102
L256.909 386.635
L253.527 387.152
L250.145 387.664
L246.764 388.181
L243.382 388.719
L242.911 388.8" style="fill:#ff9800;fill-opacity:0.75;"/>
    <path clip-path="url(#p2265e122b5)" d="
M54 193.309
L54 193.795
L54.0785 193.309
L54.5999 189.818
L55.1007 186.327
L55.5963 182.836
L56.0978 179.345
L56.6134 175.855
L57.1495 172.364
L57.3818 170.92
L57.7165 168.873
L58.3173 165.382
L58.9514 161.891
L59.6215 158.4
L60.33 154.909
L60.7636 152.887
L61.0839 151.418
L61.8874 147.927
L62.7348 144.436
L63.6275 140.945
L64.1455 139.019
L64.5733 137.455
L65.5756 133.964
L66.6267 130.473
L67.5273 127.616
L67.7306 126.982
L68.9007 123.491
L70.1223 120
L70.9091 117.844
L71.4044 116.509
L72.7533 113.018
L74.1562 109.527
L74.2909 109.205
L75.6362 106.036
L77.1742 102.545
L77.6727 101.454
L78.7873 99.0545
L80.4665 95.5636
L81.0545 94.3815
L82.2235 92.0727
L84.0499 88.5818
L84.4364 87.8664
L85.9625 85.0909
L87.8182 81.8189
L87.9446 81.6
L90.0225 78.1091
L91.2 76.188
L92.1801 74.6182
L94.4229 71.1273
L94.5818 70.8868
L96.7697 67.6364
L97.9636 65.9102
L99.2077 64.1455
L101.345 61.1923
L101.742 60.6545
L104.386 57.1636
L104.727 56.7245
L107.145 53.6727
L108.109 52.4848
L110.017 50.1818
L111.491 48.4442
L113.009 46.6909
L114.873 44.5883
L116.129 43.2
L114.873 43.2
L111.491 43.2
L108.109 43.2
L104.727 43.2
L101.345 43.2
L97.9636 43.2
L94.5818 43.2
L91.2 43.2
L88.4151 43.2
L87.8182 43.9706
L85.7488 46.6909
L84.4364 48.4576
L83.1781 50.1818
L81.0545 53.1631
L80.6978 53.6727
L78.3144 57.1636
L77.6727 58.1275
L76.0194 60.6545
L74.2909 63.3658
L73.8023 64.1455
L71.6718 67.6364
L70.9091 68.9207
L69.6205 71.1273
L67.6379 74.6182
L67.5273 74.8186
L65.7411 78.1091
L64.1455 81.1363
L63.905 81.6
L62.1485 85.0909
L60.7636 87.9299
L60.4507 88.5818
L58.8276 92.0727
L57.3818 95.2857
L57.2587 95.5636
L55.7639 99.0545
L54.3201 102.545
L54 103.348
L54 106.036
L54 109.527
L54 113.018
L54 116.509
L54 120
L54 123.491
L54 126.982
L54 130.473
L54 133.964
L54 137.455
L54 140.945
L54 144.436
L54 147.927
L54 151.418
L54 154.909
L54 158.4
L54 161.891
L54 165.382
L54 168.873
L54 172.364
L54 175.855
L54 179.345
L54 182.836
L54 186.327
L54 189.818
L54 193.309" style="fill:#ff9800;fill-opacity:0.75;"/>
   </g>
   <g id="PathCollection_8">
    <path clip-path="url(#p2265e122b5)" d="
M131.908 388.8
L135.164 388.8
L138.545 388.8
L141.927 388.8
L145.309 388.8
L148.691 388.8
L152.073 388.8
L155.455 388.8
L158.836 388.8
L162.218 388.8
L165.6 388.8
L168.982 388.8
L169.366 388.8
L168.982 388.598
L165.6 386.781
L162.917 385.309
L162.218 384.92
L158.836 382.993
L156.82 381.818
L155.455 381.01
L152.073 378.963
L151.047 378.327
L148.691 376.844
L145.572 374.836
L145.309 374.664
L141.927 372.4
L140.386 371.345
L138.545 370.064
L135.442 367.855
L135.164 367.653
L131.782 365.15
L130.743 364.364
L128.4 362.56
L126.254 360.873
L125.018 359.883
L121.959 357.382
L121.636 357.113
L118.255 354.239
L117.854 353.891
L114.873 351.256
L113.924 350.4
L111.491 348.165
L110.151 346.909
L108.109 344.959
L106.528 343.418
L104.727 341.63
L103.046 339.927
L101.345 338.172
L99.6958 336.436
L97.9636 334.577
L96.4714 332.945
L94.5818 330.837
L93.3652 329.455
L91.2 326.943
L90.3706 325.964
L87.8182 322.886
L87.4814 322.473
L84.6964 318.982
L84.4364 318.649
L82.013 315.491
L81.0545 314.215
L79.4195 312
L77.6727 309.582
L76.911 308.509
L74.486 305.018
L74.2909 304.731
L72.1506 301.527
L70.9091 299.627
L69.8871 298.036
L67.6939 294.545
L67.5273 294.274
L65.582 291.055
L64.1455 288.623
L63.53 287.564
L61.5466 284.073
L60.7636 282.664
L59.6256 280.582
L57.759 277.091
L57.3818 276.37
L55.9555 273.6
L54.1957 270.109
L54 269.713
L54 270.109
L54 273.6
L54 277.091
L54 280.582
L54 284.073
L54 287.564
L54 291.055
L54 294.545
L54 298.036
L54 301.527
L54 305.018
L54 308.379
L54.0817 308.509
L56.3267 312
L57.3818 313.606
L58.6404 315.491
L60.7636 318.604
L61.0253 318.982
L63.4961 322.473
L64.1455 323.371
L66.0494 325.964
L67.5273 327.935
L68.6854 329.455
L70.9091 332.314
L71.4086 332.945
L74.2249 336.436
L74.2909 336.517
L77.1453 339.927
L77.6727 340.546
L80.1664 343.418
L81.0545 344.422
L83.294 346.909
L84.4364 348.154
L86.5338 350.4
L87.8182 351.75
L89.8921 353.891
L91.2 355.217
L93.3755 357.382
L94.5818 358.561
L96.9912 360.873
L97.9636 361.79
L100.747 364.364
L101.345 364.908
L104.65 367.855
L104.727 367.923
L108.109 370.83
L108.721 371.345
L111.491 373.641
L112.963 374.836
L114.873 376.362
L117.384 378.327
L118.255 378.998
L121.636 381.548
L122.002 381.818
L125.018 384.01
L126.844 385.309
L128.4 386.398
L131.782 388.716
L131.908 388.8" style="fill:#ffd400;fill-opacity:0.75;"/>
    <path clip-path="url(#p2265e122b5)" d="
M330.532 388.8
L331.309 388.8
L334.691 388.8
L338.073 388.8
L341.455 388.8
L344.836 388.8
L348.218 388.8
L351.6 388.8
L354.982 388.8
L358.364 388.8
L361.745 388.8
L365.127 388.8
L368.509 388.8
L371.891 388.8
L373.078 388.8
L375.273 387.414
L378.522 385.309
L378.655 385.222
L382.036 382.941
L383.661 381.818
L385.418 380.584
L388.557 378.327
L388.8 378.15
L388.8 374.836
L388.8 371.345
L388.8 367.855
L388.8 364.364
L388.8 360.873
L388.8 357.382
L388.8 353.891
L388.8 353.275
L388.054 353.891
L385.418 356.027
L383.707 357.382
L382.036 358.681
L379.148 360.873
L378.655 361.241
L375.273 363.701
L374.339 364.364
L371.891 366.07
L369.264 367.855
L368.509 368.359
L365.127 370.558
L363.883 371.345
L361.745 372.676
L358.364 374.722
L358.169 374.836
L354.982 376.68
L352.049 378.327
L351.6 378.575
L348.218 380.389
L345.468 381.818
L344.836 382.141
L341.455 383.817
L338.342 385.309
L338.073 385.436
L334.691 386.979
L331.309 388.47
L330.532 388.8" style="fill:#ffd400;fill-opacity:0.75;"/>
    <path clip-path="url(#p2265e122b5)" d="
M54 102.545
L54 103.348
L54.3201 102.545
L55.7639 99.0545
L57.2587 95.5636
L57.3818 95.2857
L58.8276 92.0727
L60.4507 88.5818
L60.7636 87.9299
L62.1485 85.0909
L63.905 81.6
L64.1455 81.1363
L65.7411 78.1091
L67.5273 74.8186
L67.6379 74.6182
L69.6205 71.1273
L70.9091 68.9207
L71.6718 67.6364
L73.8023 64.1455
L74.2909 63.3658
L76.0194 60.6545
L77.6727 58.1275
L78.3144 57.1636
L80.6978 53.6727
L81.0545 53.1631
L83.1781 50.1818
L84.4364 48.4576
L85.7488 46.6909
L87.8182 43.9706
L88.4151 43.2
L87.8182 43.2
L84.4364 43.2
L81.0545 43.2
L77.6727 43.2
L74.2909 43.2
L70.9091 43.2
L67.5273 43.2
L64.3177 43.2
L64.1455 43.451
L61.959 46.6909
L60.7636 48.5046
L59.6759 50.1818
L57.4661 53.6727
L57.3818 53.8091
L55.3429 57.1636
L54 59.4296
L54 60.6545
L54 64.1455
L54 67.6364
L54 71.1273
L54 74.6182
L54 78.1091
L54 81.6
L54 85.0909
L54 88.5818
L54 92.0727
L54 95.5636
L54 99.0545
L54 102.545" style="fill:#ffd400;fill-opacity:0.75;"/>
   </g>
   <g id="PathCollection_9">
    <path clip-path="url(#p2265e122b5)" d="
M101.721 388.8
L104.727 388.8
L108.109 388.8
L111.491 388.8
L114.873 388.8
L118.255 388.8
L121.636 388.8
L125.018 388.8
L128.4 388.8
L131.782 388.8
L131.908 388.8
L131.782 388.716
L128.4 386.398
L126.844 385.309
L125.018 384.01
L122.002 381.818
L121.636 381.548
L118.255 378.998
L117.384 378.327
L114.873 376.362
L112.963 374.836
L111.491 373.641
L108.721 371.345
L108.109 370.83
L104.727 367.923
L104.65 367.855
L101.345 364.908
L100.747 364.364
L97.9636 361.79
L96.9912 360.873
L94.5818 358.561
L93.3755 357.382
L91.2 355.217
L89.8921 353.891
L87.8182 351.75
L86.5338 350.4
L84.4364 348.154
L83.294 346.909
L81.0545 344.422
L80.1664 343.418
L77.6727 340.546
L77.1453 339.927
L74.2909 336.517
L74.2249 336.436
L71.4086 332.945
L70.9091 332.314
L68.6854 329.455
L67.5273 327.935
L66.0494 325.964
L64.1455 323.371
L63.4961 322.473
L61.0253 318.982
L60.7636 318.604
L58.6404 315.491
L57.3818 313.606
L56.3267 312
L54.0817 308.509
L54 308.379
L54 308.509
L54 312
L54 315.491
L54 318.982
L54 322.473
L54 325.964
L54 329.455
L54 332.945
L54 336.436
L54 339.54
L54.2939 339.927
L56.9916 343.418
L57.3818 343.914
L59.7789 346.909
L60.7636 348.117
L62.6554 350.4
L64.1455 352.166
L65.6257 353.891
L67.5273 356.068
L68.6946 357.382
L70.9091 359.831
L71.8672 360.873
L74.2909 363.462
L75.1491 364.364
L77.6727 366.969
L78.5459 367.855
L81.0545 370.356
L82.0639 371.345
L84.4364 373.631
L85.7095 374.836
L87.8182 376.799
L89.4896 378.327
L91.2 379.865
L93.4118 381.818
L94.5818 382.835
L97.4837 385.309
L97.9636 385.712
L101.345 388.497
L101.721 388.8" style="fill:#ffff1b;fill-opacity:0.75;"/>
    <path clip-path="url(#p2265e122b5)" d="
M373.078 388.8
L375.273 388.8
L378.655 388.8
L382.036 388.8
L385.418 388.8
L388.8 388.8
L388.8 385.309
L388.8 381.818
L388.8 378.327
L388.8 378.15
L388.557 378.327
L385.418 380.584
L383.661 381.818
L382.036 382.941
L378.655 385.222
L378.522 385.309
L375.273 387.414
L373.078 388.8" style="fill:#ffff1b;fill-opacity:0.75;"/>
    <path clip-path="url(#p2265e122b5)" d="
M54 57.1636
L54 59.4296
L55.3429 57.1636
L57.3818 53.8091
L57.4661 53.6727
L59.6759 50.1818
L60.7636 48.5046
L61.959 46.6909
L64.1455 43.451
L64.3177 43.2
L64.1455 43.2
L60.7636 43.2
L57.3818 43.2
L54 43.2
L54 46.6909
L54 50.1818
L54 53.6727
L54 57.1636" style="fill:#ffff1b;fill-opacity:0.75;"/>
   </g>
   <g id="PathCollection_10">
    <path clip-path="url(#p2265e122b5)" d="
M76.001 388.8
L77.6727 388.8
L81.0545 388.8
L84.4364 388.8
L87.8182 388.8
L91.2 388.8
L94.5818 388.8
L97.9636 388.8
L101.345 388.8
L101.721 388.8
L101.345 388.497
L97.9636 385.712
L97.4837 385.309
L94.5818 382.835
L93.4118 381.818
L91.2 379.865
L89.4896 378.327
L87.8182 376.799
L85.7095 374.836
L84.4364 373.631
L82.0639 371.345
L81.0545 370.356
L78.5459 367.855
L77.6727 366.969
L75.1491 364.364
L74.2909 363.462
L71.8672 360.873
L70.9091 359.831
L68.6946 357.382
L67.5273 356.068
L65.6257 353.891
L64.1455 352.166
L62.6554 350.4
L60.7636 348.117
L59.7789 346.909
L57.3818 343.914
L56.9916 343.418
L54.2939 339.927
L54 339.54
L54 339.927
L54 343.418
L54 346.909
L54 350.4
L54 353.891
L54 357.382
L54 360.873
L54 364.364
L54 366.089
L55.549 367.855
L57.3818 369.908
L58.6857 371.345
L60.7636 373.598
L61.9241 374.836
L64.1455 377.167
L65.2693 378.327
L67.5273 380.62
L68.7266 381.818
L70.9091 383.963
L72.3018 385.309
L74.2909 387.201
L76.001 388.8" style="fill:#ffff79;fill-opacity:0.75;"/>
   </g>
   <g id="PathCollection_11">
    <path clip-path="url(#p2265e122b5)" d="
M54 388.8
L57.3818 388.8
L60.7636 388.8
L64.1455 388.8
L67.5273 388.8
L70.9091 388.8
L74.2909 388.8
L76.001 388.8
L74.2909 387.201
L72.3018 385.309
L70.9091 383.963
L68.7266 381.818
L67.5273 380.62
L65.2693 378.327
L64.1455 377.167
L61.9241 374.836
L60.7636 373.598
L58.6857 371.345
L57.3818 369.908
L55.549 367.855
L54 366.089
L54 367.855
L54 371.345
L54 374.836
L54 378.327
L54 381.818
L54 385.309
L54 388.8" style="fill:#ffffd4;fill-opacity:0.75;"/>
   </g>
   <g id="LineCollection_1">
    <path clip-path="url(#p2265e122b5)" d="
M223.091 235.774
L221.41 235.2
L219.709 234.645
L218.255 231.709
L216.399 228.218
L216.327 228.098
L213.599 224.727
L212.945 224.053
L209.681 221.236
L209.564 221.162
L206.182 219.246
L203.338 217.745
L202.8 215.99
L202.244 214.255
L202.8 213.84
L206.182 211.202
L206.706 210.764
L209.241 207.273
L209.564 206.643
L210.876 203.782
L212.118 200.291
L212.945 197.497
L213.118 196.8
L213.881 193.309
L214.586 189.818
L215.264 186.327
L215.934 182.836
L216.327 180.812
L216.537 179.345
L217.049 175.855
L217.582 172.364
L218.14 168.873
L218.728 165.382
L219.349 161.891
L219.709 159.971
L221.534 158.4
L223.091 157.132
L223.463 158.4
L224.432 161.891
L225.349 165.382
L226.217 168.873
L226.473 169.953
L227.41 172.364
L228.705 175.855
L229.855 179.075
L229.991 179.345
L231.706 182.836
L233.236 185.988
L233.449 186.327
L235.656 189.818
L236.618 191.279
L238.223 193.309
L240 195.389
L241.367 196.8
L243.382 198.635
L245.348 200.291
L246.764 201.284
L250.145 203.562
L250.474 203.782
L253.527 205.361
L256.909 207.132
L257.171 207.273
L260.291 208.459
L263.673 209.796
L266.008 210.764
L267.055 211.027
L270.436 211.924
L273.818 212.87
L277.2 213.871
L278.428 214.255
L277.2 215.862
L275.678 217.745
L273.818 218.118
L270.436 218.758
L267.055 219.365
L263.673 219.941
L260.291 220.491
L256.909 221.02
L255.488 221.236
L253.527 221.642
L250.145 222.334
L246.764 223.034
L243.382 223.762
L240 224.549
L239.324 224.727
L236.618 225.582
L233.236 226.864
L230.465 228.218
L229.855 228.552
L226.473 231.168
L226.048 231.709
L223.493 235.2
L223.091 235.774" style="fill:none;stroke:#000000;stroke-width:2.8;"/>
   </g>
   <g id="LineCollection_2">
    <path clip-path="url(#p2265e122b5)" d="
M223.091 281.045
L219.709 280.01
L216.327 273.464
L212.945 268.472
L208.625 263.127
L205.574 259.636
L199.081 252.655
L188.973 242.182
L182.075 235.2
L175.745 229.187
L174.709 228.218
L170.568 224.727
L165.6 221.166
L159.39 217.745
L158.388 214.255
L162.624 210.764
L165.257 207.273
L167.15 203.782
L168.982 199.275
L169.87 196.8
L171.998 189.818
L176.022 175.855
L178.256 168.873
L180.754 161.891
L183.572 154.909
L186.75 147.927
L190.312 140.945
L194.258 133.964
L198.556 126.982
L212.945 104.883
L216.327 98.767
L219.709 91.0139
L223.091 89.8118
L226.473 94.9344
L229.855 98.1817
L233.236 100.541
L236.944 102.545
L240 103.992
L246.764 106.737
L256.909 110.674
L263.673 113.534
L270.436 116.783
L276.258 120
L280.582 122.687
L283.964 124.998
L287.345 127.498
L291.012 130.473
L294.889 133.964
L298.396 137.455
L301.581 140.945
L304.49 144.436
L307.636 148.623
L311.018 153.66
L313.857 158.4
L315.748 161.891
L317.782 165.935
L320.664 172.364
L322.086 175.855
L324.739 182.836
L328.539 193.309
L329.907 196.8
L331.453 200.291
L333.25 203.782
L335.536 207.273
L338.682 210.764
L343.645 214.255
L342.48 217.745
L338.073 219.829
L334.691 221.408
L327.927 225.496
L321.164 230.1
L313.917 235.2
L307.636 239.581
L300.873 244.018
L294.109 248.091
L287.345 251.768
L280.582 255.049
L273.818 257.957
L267.055 260.536
L259.4 263.127
L246.764 266.995
L240 269.192
L236.618 270.478
L233.236 272
L229.855 273.954
L226.473 276.672
L223.091 281.045
L223.091 281.045" style="fill:none;stroke:#000000;stroke-width:2.8;"/>
   </g>
   <g id="LineCollection_3">
    <path clip-path="url(#p2265e122b5)" d="
M219.709 316.487
L216.327 311.316
L212.945 307.405
L209.564 304.065
L202.684 298.036
L185.891 283.93
L178.341 277.091
L172.364 271.28
L167.847 266.618
L162.218 260.448
L158.502 256.145
L152.073 248.297
L138.545 231.138
L135.164 227.237
L132.851 224.727
L128.4 220.785
L124.053 217.745
L123.259 214.255
L126.615 210.764
L128.685 207.273
L130.174 203.782
L131.782 198.652
L132.304 196.8
L133.974 189.818
L137.117 175.855
L138.851 168.873
L140.807 161.891
L143.014 154.909
L145.512 147.927
L148.691 140.163
L151.549 133.964
L153.3 130.473
L157.113 123.491
L159.182 120
L163.699 113.018
L166.143 109.527
L168.982 105.699
L174.319 99.0545
L179.127 93.5749
L183.82 88.5818
L189.273 83.1582
L194.591 78.1091
L206.182 67.3952
L209.564 64.0762
L212.945 60.4638
L216.327 56.2683
L219.709 50.7442
L223.091 49.8689
L226.648 53.6727
L229.855 55.856
L233.236 57.4909
L236.618 58.7855
L242.811 60.6545
L246.764 61.7222
L260.291 65.2376
L268.491 67.6364
L273.818 69.3985
L280.582 71.8992
L287.345 74.7499
L294.303 78.1091
L300.873 81.721
L307.636 85.9544
L311.446 88.5818
L316.093 92.0727
L321.164 96.2477
L324.545 99.274
L327.952 102.545
L331.333 106.036
L334.691 109.772
L338.073 113.841
L341.455 118.252
L345.133 123.491
L348.218 128.34
L351.6 134.179
L355.079 140.945
L358.364 148.233
L360.998 154.909
L363.42 161.891
L365.56 168.873
L367.451 175.855
L370.016 186.327
L371.891 193.898
L372.657 196.8
L373.702 200.291
L375.273 204.467
L376.539 207.273
L378.768 210.764
L382.339 214.255
L381.492 217.745
L376.14 221.236
L371.891 224.916
L368.509 228.293
L362.288 235.2
L356.264 242.182
L351.6 247.503
L344.836 254.792
L339.999 259.636
L334.691 264.6
L331.309 267.562
L327.927 270.376
L321.164 275.562
L317.782 277.957
L311.018 282.36
L307.636 284.391
L300.873 288.104
L294.109 291.408
L286.821 294.545
L280.582 296.914
L273.818 299.193
L265.91 301.527
L260.291 303.002
L246.764 306.246
L240 307.97
L236.618 308.976
L233.236 310.169
L229.398 312
L226.473 313.842
L223.091 317.307
L219.709 316.487
L219.709 316.487" style="fill:none;stroke:#000000;stroke-width:2.8;"/>
   </g>
   <g id="LineCollection_4">
    <path clip-path="url(#p2265e122b5)" d="
M388.8 246.634
L382.036 256.436
L377.081 263.127
L371.891 269.679
L368.509 273.685
L362.246 280.582
L358.364 284.549
L354.982 287.824
L351.471 291.055
L344.836 296.712
L341.455 299.395
L338.073 301.954
L331.309 306.69
L327.927 308.896
L321.164 312.973
L314.4 316.656
L307.636 319.974
L300.873 322.954
L293.164 325.964
L287.345 327.985
L280.582 330.093
L273.818 331.955
L267.055 333.609
L256.909 335.78
L240 339.2
L236.618 340.041
L233.236 341.034
L229.855 342.313
L226.473 344.111
L223.091 347.032
L219.709 346.336
L216.327 341.989
L212.945 338.731
L209.564 335.966
L202.8 331.078
L184.995 318.982
L179.127 314.759
L172.364 309.604
L166.721 305.018
L162.218 301.142
L155.455 294.901
L151.56 291.055
L145.309 284.453
L141.875 280.582
L136.081 273.6
L131.782 268.044
L128.178 263.127
L123.351 256.145
L118.255 248.369
L107.616 231.709
L104.727 227.634
L102.504 224.727
L99.3483 221.236
L95.1375 217.745
L94.4631 214.255
L97.2924 210.764
L99.0342 207.273
L100.274 203.782
L101.345 199.811
L102.77 193.309
L107.466 168.873
L109.069 161.891
L110.872 154.909
L112.915 147.927
L115.207 140.945
L118.255 132.789
L120.676 126.982
L123.89 120
L127.458 113.018
L129.385 109.527
L133.544 102.545
L135.78 99.0545
L140.611 92.0727
L143.21 88.5818
L145.938 85.0909
L148.803 81.6
L152.073 77.826
L155.455 74.126
L158.836 70.611
L162.218 67.2642
L168.982 61.0222
L173.477 57.1636
L179.127 52.5897
L186.897 46.6909
L191.723 43.2
L191.723 43.2" style="fill:none;stroke:#000000;stroke-width:2.8;"/>
    <path clip-path="url(#p2265e122b5)" d="
M388.8 135.63
L388.124 133.964
L386.64 130.473
L385.418 127.729
L385.078 126.982
L383.414 123.491
L382.036 120.724
L381.667 120
L379.811 116.509
L378.655 114.419
L377.859 113.018
L375.799 109.527
L375.273 108.669
L373.618 106.036
L371.891 103.389
L371.326 102.545
L368.904 99.0545
L368.509 98.505
L366.339 95.5636
L365.127 93.975
L363.636 92.0727
L361.745 89.7392
L360.781 88.5818
L358.364 85.7704
L357.762 85.0909
L354.982 82.0447
L354.564 81.6
L351.6 78.5406
L351.169 78.1091
L348.218 75.2389
L347.56 74.6182
L344.836 72.1225
L343.715 71.1273
L341.455 69.1759
L339.612 67.6364
L338.073 66.3852
L335.223 64.1455
L334.691 63.7379
L331.309 61.2377
L330.492 60.6545
L327.927 58.872
L325.377 57.1636
L324.545 56.6202
L321.164 54.4936
L319.806 53.6727
L317.782 52.4786
L314.4 50.5628
L313.699 50.1818
L311.018 48.7602
L307.636 47.0425
L306.913 46.6909
L304.255 45.4298
L300.873 43.8976
L299.258 43.2" style="fill:none;stroke:#000000;stroke-width:2.8;"/>
   </g>
   <g id="LineCollection_5">
    <path clip-path="url(#p2265e122b5)" d="
M388.8 290.234
L385.13 294.545
L382.01 298.036
L378.655 301.619
L375.273 305.065
L368.509 311.491
L363.962 315.491
L358.364 320.1
L351.6 325.234
L345.547 329.455
L340.142 332.945
L334.33 336.436
L327.927 339.975
L321.093 343.418
L313.399 346.909
L307.636 349.28
L300.873 351.808
L294.109 354.086
L287.345 356.11
L280.582 357.921
L273.818 359.522
L267.055 360.955
L256.909 362.826
L240 365.796
L236.618 366.524
L231.868 367.855
L229.855 368.514
L226.473 370.082
L223.091 372.639
L219.709 372.033
L215.87 367.855
L212.945 365.391
L209.564 362.987
L202.8 358.768
L182.437 346.909
L175.745 342.753
L168.982 338.302
L162.218 333.553
L156.75 329.455
L152.073 325.753
L145.309 320.024
L140.315 315.491
L135.164 310.516
L129.838 305.018
L125.018 299.701
L120.627 294.545
L115.077 287.564
L111.491 282.735
L107.52 277.091
L102.92 270.109
L98.608 263.127
L94.5398 256.145
L87.8182 243.914
L83.0938 235.2
L79.0068 228.218
L76.6776 224.727
L73.9241 221.236
L70.243 217.745
L69.6559 214.255
L72.133 210.764
L73.6521 207.273
L74.7326 203.782
L75.5796 200.291
L76.9075 193.309
L81.0545 168.453
L82.3628 161.891
L84.4364 152.745
L85.6681 147.927
L87.8182 140.323
L89.8355 133.964
L92.2851 126.982
L94.9984 120
L97.996 113.018
L101.345 105.945
L104.928 99.0545
L108.907 92.0727
L113.258 85.0909
L115.579 81.6
L120.553 74.6182
L125.018 68.8393
L128.893 64.1455
L131.933 60.6545
L135.164 57.1152
L138.545 53.5821
L145.309 46.9885
L149.486 43.2
L149.486 43.2" style="fill:none;stroke:#000000;stroke-width:2.8;"/>
    <path clip-path="url(#p2265e122b5)" d="
M388.8 79.331
L387.89 78.1091
L385.418 74.884
L385.21 74.6182
L382.39 71.1273
L382.036 70.7016
L379.428 67.6364
L378.655 66.7515
L376.319 64.1455
L375.273 63.0088
L373.05 60.6545
L371.891 59.4577
L369.61 57.1636
L368.509 56.0838
L365.984 53.6727
L365.127 52.8741
L362.158 50.1818
L361.745 49.8169
L358.364 46.9063
L358.106 46.6909
L354.982 44.1389
L353.798 43.2" style="fill:none;stroke:#000000;stroke-width:2.8;"/>
   </g>
   <g id="LineCollection_6">
    <path clip-path="url(#p2265e122b5)" d="
M212.736 388.8
L209.564 386.778
L206.987 385.309
L206.182 384.842
L202.8 383.018
L200.474 381.818
L199.418 381.264
L196.036 379.536
L193.641 378.327
L192.655 377.821
L189.273 376.092
L186.825 374.836
L185.891 374.349
L182.509 372.569
L180.214 371.345
L179.127 370.757
L175.745 368.895
L173.889 367.855
L172.364 366.985
L168.982 365.02
L167.875 364.364
L165.6 362.991
L162.218 360.907
L162.164 360.873
L158.836 358.739
L156.766 357.382
L155.455 356.507
L152.073 354.199
L151.631 353.891
L148.691 351.801
L146.764 350.4
L145.309 349.323
L142.122 346.909
L141.927 346.759
L138.545 344.091
L137.712 343.418
L135.164 341.323
L133.503 339.927
L131.782 338.452
L129.48 336.436
L128.4 335.472
L125.631 332.945
L125.018 332.375
L121.946 329.455
L121.636 329.154
L118.416 325.964
L118.255 325.8
L115.031 322.473
L114.873 322.306
L111.782 318.982
L111.491 318.662
L108.662 315.491
L108.109 314.858
L105.662 312
L104.727 310.885
L102.774 308.509
L101.345 306.732
L99.9935 305.018
L97.9636 302.388
L97.3123 301.527
L94.7272 298.036
L94.5818 297.836
L92.2435 294.545
L91.2 293.044
L89.8428 291.055
L87.8182 288.019
L87.5197 287.564
L85.2839 284.073
L84.4364 282.719
L83.1215 280.582
L81.0545 277.146
L81.0217 277.091
L79.0025 273.6
L77.6727 271.252
L77.0368 270.109
L75.1332 266.618
L74.2909 265.044
L73.2832 263.127
L71.4795 259.636
L70.9091 258.515
L69.7238 256.145
L67.9995 252.655
L67.5273 251.69
L66.3106 249.164
L64.6357 245.673
L64.1455 244.654
L62.9745 242.182
L61.3002 238.691
L60.7636 237.601
L59.601 235.2
L57.8338 231.709
L57.3818 230.877
L55.9593 228.218
L54 224.944" style="fill:none;stroke:#000000;stroke-width:2.8;"/>
    <path clip-path="url(#p2265e122b5)" d="
M242.911 388.8
L243.382 388.719
L246.764 388.181
L250.145 387.664
L253.527 387.152
L256.909 386.635
L260.291 386.102
L263.673 385.549
L265.071 385.309
L267.055 384.964
L270.436 384.343
L273.818 383.689
L277.2 382.997
L280.582 382.266
L282.54 381.818
L283.964 381.488
L287.345 380.658
L290.727 379.783
L294.109 378.862
L295.975 378.327
L297.491 377.886
L300.873 376.851
L304.255 375.766
L307.022 374.836
L307.636 374.626
L311.018 373.419
L314.4 372.158
L316.489 371.345
L317.782 370.834
L321.164 369.442
L324.545 367.994
L324.858 367.855
L327.927 366.466
L331.309 364.878
L332.367 364.364
L334.691 363.213
L338.073 361.48
L339.218 360.873
L341.455 359.666
L344.836 357.781
L345.529 357.382
L348.218 355.806
L351.388 353.891
L351.6 353.76
L354.982 351.616
L356.843 350.4
L358.364 349.388
L361.745 347.073
L361.978 346.909
L365.127 344.651
L366.799 343.418
L368.509 342.134
L371.37 339.927
L371.891 339.518
L375.273 336.789
L375.698 336.436
L378.655 333.941
L379.805 332.945
L382.036 330.977
L383.72 329.455
L385.418 327.888
L387.455 325.964
L388.8 324.667" style="fill:none;stroke:#000000;stroke-width:2.8;"/>
    <path clip-path="url(#p2265e122b5)" d="
M54 193.795
L54.0785 193.309
L54.5999 189.818
L55.1007 186.327
L55.5963 182.836
L56.0978 179.345
L56.6134 175.855
L57.1495 172.364
L57.3818 170.92
L57.7165 168.873
L58.3173 165.382
L58.9514 161.891
L59.6215 158.4
L60.33 154.909
L60.7636 152.887
L61.0839 151.418
L61.8874 147.927
L62.7348 144.436
L63.6275 140.945
L64.1455 139.019
L64.5733 137.455
L65.5756 133.964
L66.6267 130.473
L67.5273 127.616
L67.7306 126.982
L68.9007 123.491
L70.1223 120
L70.9091 117.844
L71.4044 116.509
L72.7533 113.018
L74.1562 109.527
L74.2909 109.205
L75.6362 106.036
L77.1742 102.545
L77.6727 101.454
L78.7873 99.0545
L80.4665 95.5636
L81.0545 94.3815
L82.2235 92.0727
L84.0499 88.5818
L84.4364 87.8664
L85.9625 85.0909
L87.8182 81.8189
L87.9446 81.6
L90.0225 78.1091
L91.2 76.188
L92.1801 74.6182
L94.4229 71.1273
L94.5818 70.8868
L96.7697 67.6364
L97.9636 65.9102
L99.2077 64.1455
L101.345 61.1923
L101.742 60.6545
L104.386 57.1636
L104.727 56.7245
L107.145 53.6727
L108.109 52.4848
L110.017 50.1818
L111.491 48.4442
L113.009 46.6909
L114.873 44.5883
L116.129 43.2" style="fill:none;stroke:#000000;stroke-width:2.8;"/>
   </g>
   <g id="LineCollection_7">
    <path clip-path="url(#p2265e122b5)" d="
M169.366 388.8
L168.982 388.598
L165.6 386.781
L162.917 385.309
L162.218 384.92
L158.836 382.993
L156.82 381.818
L155.455 381.01
L152.073 378.963
L151.047 378.327
L148.691 376.844
L145.572 374.836
L145.309 374.664
L141.927 372.4
L140.386 371.345
L138.545 370.064
L135.442 367.855
L135.164 367.653
L131.782 365.15
L130.743 364.364
L128.4 362.56
L126.254 360.873
L125.018 359.883
L121.959 357.382
L121.636 357.113
L118.255 354.239
L117.854 353.891
L114.873 351.256
L113.924 350.4
L111.491 348.165
L110.151 346.909
L108.109 344.959
L106.528 343.418
L104.727 341.63
L103.046 339.927
L101.345 338.172
L99.6958 336.436
L97.9636 334.577
L96.4714 332.945
L94.5818 330.837
L93.3652 329.455
L91.2 326.943
L90.3706 325.964
L87.8182 322.886
L87.4814 322.473
L84.6964 318.982
L84.4364 318.649
L82.013 315.491
L81.0545 314.215
L79.4195 312
L77.6727 309.582
L76.911 308.509
L74.486 305.018
L74.2909 304.731
L72.1506 301.527
L70.9091 299.627
L69.8871 298.036
L67.6939 294.545
L67.5273 294.274
L65.582 291.055
L64.1455 288.623
L63.53 287.564
L61.5466 284.073
L60.7636 282.664
L59.6256 280.582
L57.759 277.091
L57.3818 276.37
L55.9555 273.6
L54.1957 270.109
L54 269.713" style="fill:none;stroke:#000000;stroke-width:2.8;"/>
    <path clip-path="url(#p2265e122b5)" d="
M330.532 388.8
L331.309 388.47
L334.691 386.979
L338.073 385.436
L338.342 385.309
L341.455 383.817
L344.836 382.141
L345.468 381.818
L348.218 380.389
L351.6 378.575
L352.049 378.327
L354.982 376.68
L358.169 374.836
L358.364 374.722
L361.745 372.676
L363.883 371.345
L365.127 370.558
L368.509 368.359
L369.264 367.855
L371.891 366.07
L374.339 364.364
L375.273 363.701
L378.655 361.241
L379.148 360.873
L382.036 358.681
L383.707 357.382
L385.418 356.027
L388.054 353.891
L388.8 353.275" style="fill:none;stroke:#000000;stroke-width:2.8;"/>
    <path clip-path="url(#p2265e122b5)" d="
M54 103.348
L54.3201 102.545
L55.7639 99.0545
L57.2587 95.5636
L57.3818 95.2857
L58.8276 92.0727
L60.4507 88.5818
L60.7636 87.9299
L62.1485 85.0909
L63.905 81.6
L64.1455 81.1363
L65.7411 78.1091
L67.5273 74.8186
L67.6379 74.6182
L69.6205 71.1273
L70.9091 68.9207
L71.6718 67.6364
L73.8023 64.1455
L74.2909 63.3658
L76.0194 60.6545
L77.6727 58.1275
L78.3144 57.1636
L80.6978 53.6727
L81.0545 53.1631
L83.1781 50.1818
L84.4364 48.4576
L85.7488 46.6909
L87.8182 43.9706
L88.4151 43.2" style="fill:none;stroke:#000000;stroke-width:2.8;"/>
   </g>
   <g id="LineCollection_8">
    <path clip-path="url(#p2265e122b5)" d="
M131.908 388.8
L131.782 388.716
L128.4 386.398
L126.844 385.309
L125.018 384.01
L122.002 381.818
L121.636 381.548
L118.255 378.998
L117.384 378.327
L114.873 376.362
L112.963 374.836
L111.491 373.641
L108.721 371.345
L108.109 370.83
L104.727 367.923
L104.65 367.855
L101.345 364.908
L100.747 364.364
L97.9636 361.79
L96.9912 360.873
L94.5818 358.561
L93.3755 357.382
L91.2 355.217
L89.8921 353.891
L87.8182 351.75
L86.5338 350.4
L84.4364 348.154
L83.294 346.909
L81.0545 344.422
L80.1664 343.418
L77.6727 340.546
L77.1453 339.927
L74.2909 336.517
L74.2249 336.436
L71.4086 332.945
L70.9091 332.314
L68.6854 329.455
L67.5273 327.935
L66.0494 325.964
L64.1455 323.371
L63.4961 322.473
L61.0253 318.982
L60.7636 318.604
L58.6404 315.491
L57.3818 313.606
L56.3267 312
L54.0817 308.509
L54 308.379" style="fill:none;stroke:#000000;stroke-width:2.8;"/>
    <path clip-path="url(#p2265e122b5)" d="
M373.078 388.8
L375.273 387.414
L378.522 385.309
L378.655 385.222
L382.036 382.941
L383.661 381.818
L385.418 380.584
L388.557 378.327
L388.8 378.15" style="fill:none;stroke:#000000;stroke-width:2.8;"/>
    <path clip-path="url(#p2265e122b5)" d="
M54 59.4296
L55.3429 57.1636
L57.3818 53.8091
L57.4661 53.6727
L59.6759 50.1818
L60.7636 48.5046
L61.959 46.6909
L64.1455 43.451
L64.3177 43.2" style="fill:none;stroke:#000000;stroke-width:2.8;"/>
   </g>
   <g id="LineCollection_9">
    <path clip-path="url(#p2265e122b5)" d="
M101.721 388.8
L101.345 388.497
L97.9636 385.712
L97.4837 385.309
L94.5818 382.835
L93.4118 381.818
L91.2 379.865
L89.4896 378.327
L87.8182 376.799
L85.7095 374.836
L84.4364 373.631
L82.0639 371.345
L81.0545 370.356
L78.5459 367.855
L77.6727 366.969
L75.1491 364.364
L74.2909 363.462
L71.8672 360.873
L70.9091 359.831
L68.6946 357.382
L67.5273 356.068
L65.6257 353.891
L64.1455 352.166
L62.6554 350.4
L60.7636 348.117
L59.7789 346.909
L57.3818 343.914
L56.9916 343.418
L54.2939 339.927
L54 339.54" style="fill:none;stroke:#000000;stroke-width:2.8;"/>
   </g>
   <g id="LineCollection_10">
    <path clip-path="url(#p2265e122b5)" d="
M76.001 388.8
L74.2909 387.201
L72.3018 385.309
L70.9091 383.963
L68.7266 381.818
L67.5273 380.62
L65.2693 378.327
L64.1455 377.167
L61.9241 374.836
L60.7636 373.598
L58.6857 371.345
L57.3818 369.908
L55.549 367.855
L54 366.089" style="fill:none;stroke:#000000;stroke-width:2.8;"/>
   </g>
   <g id="patch_3">
    <path d="
M54 43.2
L388.8 43.2" style="fill:none;stroke:#262626;stroke-linecap:square;stroke-linejoin:miter;stroke-width:1.25;"/>
   </g>
   <g id="patch_4">
    <path d="
M388.8 388.8
L388.8 43.2" style="fill:none;stroke:#262626;stroke-linecap:square;stroke-linejoin:miter;stroke-width:1.25;"/>
   </g>
   <g id="patch_5">
    <path d="
M54 388.8
L388.8 388.8" style="fill:none;stroke:#262626;stroke-linecap:square;stroke-linejoin:miter;stroke-width:1.25;"/>
   </g>
   <g id="patch_6">
    <path d="
M54 388.8
L54 43.2" style="fill:none;stroke:#262626;stroke-linecap:square;stroke-linejoin:miter;stroke-width:1.25;"/>
   </g>
  </g>
 </g>
 <defs>
  <clipPath id="p2265e122b5">
   <rect height="345.6" width="334.8" x="54.0" y="43.2"/>
  </clipPath>
 </defs>
</svg>
