<?xml version="1.0" encoding="utf-8" standalone="no"?>
<!DOCTYPE svg PUBLIC "-//W3C//DTD SVG 1.1//EN"
  "http://www.w3.org/Graphics/SVG/1.1/DTD/svg11.dtd">
<!-- Created with matplotlib (http://matplotlib.org/) -->
<svg height="432pt" version="1.1" viewBox="0 0 432 432" width="432pt" xmlns="http://www.w3.org/2000/svg" xmlns:xlink="http://www.w3.org/1999/xlink">
 <defs>
  <style type="text/css">
*{stroke-linecap:butt;stroke-linejoin:round;}
  </style>
 </defs>
 <g id="figure_1">
  <g id="patch_1">
   <path d="
M0 432
L432 432
L432 0
L0 0
z
" style="fill:#ffffff;"/>
  </g>
  <g id="axes_1">
   <g id="patch_2">
    <path d="
M54 388.8
L388.8 388.8
L388.8 43.2
L54 43.2
z
" style="fill:#ffffff;"/>
   </g>
   <g id="matplotlib.axis_1">
    <g id="xtick_1">
     <g id="line2d_1">
      <defs>
       <path d="
M0 0
L0 0" id="m849d0bd0d6" style="stroke:#262626;stroke-width:1.6;"/>
      </defs>
      <g>
       <use style="fill:#262626;stroke:#262626;stroke-width:1.6;" x="87.48" xlink:href="#m849d0bd0d6" y="388.8"/>
      </g>
     </g>
     <g id="line2d_2">
      <g>
       <use style="fill:#262626;stroke:#262626;stroke-width:1.6;" x="87.48" xlink:href="#m849d0bd0d6" y="43.2"/>
      </g>
     </g>
     <g id="text_1">
      <!-- $-4$ -->
      <defs>
       <path d="
M65.9062 23
C67.5938 23 69.4062 23 69.4062 25
C69.4062 27 67.5938 27 65.9062 27
L11.7969 27
C10.0938 27 8.29688 27 8.29688 25
C8.29688 23 10.0938 23 11.7969 23
z
" id="CMSY10-0"/>
       <path d="
M33.5938 64.4062
C33.5938 66.5 33.5 66.5 31.7031 66.5
L2 19.5938
L2 17
L27.7969 17
L27.7969 7.14062
C27.7969 3.5 27.5938 2.5 20.5938 2.5
L18.7031 2.5
L18.7031 0
C21.9062 0 27.2969 0 30.7031 0
C34.0938 0 39.5 0 42.7031 0
L42.7031 2.5
L40.7969 2.5
C33.7969 2.5 33.5938 3.5 33.5938 7.14062
L33.5938 17
L43.7969 17
L43.7969 19.5938
L33.5938 19.5938
z

M28.0938 57.8594
L28.0938 19.5938
L4 19.5938
z
" id="CMR17-52"/>
      </defs>
      <g style="fill:#262626;" transform="translate(77.3790084789 411.069588287)scale(0.16 -0.16)">
       <use transform="scale(0.996264009963)" xlink:href="#CMSY10-0"/>
       <use transform="translate(77.4874676506 0.0)scale(0.996264009963)" xlink:href="#CMR17-52"/>
      </g>
     </g>
    </g>
    <g id="xtick_2">
     <g id="line2d_3">
      <g>
       <use style="fill:#262626;stroke:#262626;stroke-width:1.6;" x="154.44" xlink:href="#m849d0bd0d6" y="388.8"/>
      </g>
     </g>
     <g id="line2d_4">
      <g>
       <use style="fill:#262626;stroke:#262626;stroke-width:1.6;" x="154.44" xlink:href="#m849d0bd0d6" y="43.2"/>
      </g>
     </g>
     <g id="text_2">
      <!-- $-2$ -->
      <defs>
       <path d="
M41.7031 15.4531
L39.9062 15.4531
C38.9062 8.375 38.0938 7.17188 37.7031 6.5625
C37.2031 5.76562 30 5.76562 28.5938 5.76562
L9.40625 5.76562
C13 9.67188 20 16.75 28.5 24.9531
C34.5938 30.7344 41.7031 37.5312 41.7031 47.4219
C41.7031 59.2188 32.2969 66 21.7969 66
C10.7969 66 4.09375 56.3125 4.09375 47.3438
C4.09375 43.4375 7 42.9375 8.20312 42.9375
C9.20312 42.9375 12.2031 43.5469 12.2031 47.0312
C12.2031 50.1094 9.59375 51 8.20312 51
C7.59375 51 7 50.9062 6.59375 50.7031
C8.5 59.2188 14.2969 63.4062 20.4062 63.4062
C29.0938 63.4062 34.7969 56.5156 34.7969 47.4219
C34.7969 38.7344 29.7031 31.25 24 24.75
L4.09375 2.28125
L4.09375 0
L39.2969 0
z
" id="CMR17-50"/>
      </defs>
      <g style="fill:#262626;" transform="translate(144.339008479 411.069588287)scale(0.16 -0.16)">
       <use transform="scale(0.996264009963)" xlink:href="#CMSY10-0"/>
       <use transform="translate(77.4874676506 0.0)scale(0.996264009963)" xlink:href="#CMR17-50"/>
      </g>
     </g>
    </g>
    <g id="xtick_3">
     <g id="line2d_5">
      <g>
       <use style="fill:#262626;stroke:#262626;stroke-width:1.6;" x="221.4" xlink:href="#m849d0bd0d6" y="388.8"/>
      </g>
     </g>
     <g id="line2d_6">
      <g>
       <use style="fill:#262626;stroke:#262626;stroke-width:1.6;" x="221.4" xlink:href="#m849d0bd0d6" y="43.2"/>
      </g>
     </g>
     <g id="text_3">
      <!-- $0$ -->
      <defs>
       <path d="
M42 31.6406
C42 37.75 41.9062 48.125 37.7031 56.1094
C34 63.1094 28.0938 65.5938 22.9062 65.5938
C18.0938 65.5938 12 63.4062 8.20312 56.2031
C4.20312 48.7188 3.79688 39.4375 3.79688 31.6406
C3.79688 25.9531 3.90625 17.2812 7 9.67188
C11.2969 -0.609375 19 -2 22.9062 -2
C27.5 -2 34.5 -0.109375 38.5938 9.375
C41.5938 16.2812 42 24.3594 42 31.6406
M22.9062 -0.40625
C16.5 -0.40625 12.7031 5.07812 11.2969 12.6875
C10.2031 18.5625 10.2031 27.1562 10.2031 32.75
C10.2031 40.4375 10.2031 46.8281 11.5 52.9219
C13.4062 61.3906 19 64 22.9062 64
C27 64 32.2969 61.2969 34.2031 53.125
C35.5 47.4375 35.5938 40.7344 35.5938 32.75
C35.5938 26.25 35.5938 18.2656 34.4062 12.375
C32.2969 1.48438 26.4062 -0.40625 22.9062 -0.40625" id="CMR17-48"/>
      </defs>
      <g style="fill:#262626;" transform="translate(217.498006499 411.069588287)scale(0.16 -0.16)">
       <use transform="scale(0.996264009963)" xlink:href="#CMR17-48"/>
      </g>
     </g>
    </g>
    <g id="xtick_4">
     <g id="line2d_7">
      <g>
       <use style="fill:#262626;stroke:#262626;stroke-width:1.6;" x="288.36" xlink:href="#m849d0bd0d6" y="388.8"/>
      </g>
     </g>
     <g id="line2d_8">
      <g>
       <use style="fill:#262626;stroke:#262626;stroke-width:1.6;" x="288.36" xlink:href="#m849d0bd0d6" y="43.2"/>
      </g>
     </g>
     <g id="text_4">
      <!-- $2$ -->
      <g style="fill:#262626;" transform="translate(284.458006499 411.069588287)scale(0.16 -0.16)">
       <use transform="scale(0.996264009963)" xlink:href="#CMR17-50"/>
      </g>
     </g>
    </g>
    <g id="xtick_5">
     <g id="line2d_9">
      <g>
       <use style="fill:#262626;stroke:#262626;stroke-width:1.6;" x="355.32" xlink:href="#m849d0bd0d6" y="388.8"/>
      </g>
     </g>
     <g id="line2d_10">
      <g>
       <use style="fill:#262626;stroke:#262626;stroke-width:1.6;" x="355.32" xlink:href="#m849d0bd0d6" y="43.2"/>
      </g>
     </g>
     <g id="text_5">
      <!-- $4$ -->
      <g style="fill:#262626;" transform="translate(351.418006499 411.069588287)scale(0.16 -0.16)">
       <use transform="scale(0.996264009963)" xlink:href="#CMR17-52"/>
      </g>
     </g>
    </g>
   </g>
   <g id="matplotlib.axis_2">
    <g id="ytick_1">
     <g id="line2d_11">
      <g>
       <use style="fill:#262626;stroke:#262626;stroke-width:1.6;" x="54.0" xlink:href="#m849d0bd0d6" y="354.24"/>
      </g>
     </g>
     <g id="line2d_12">
      <g>
       <use style="fill:#262626;stroke:#262626;stroke-width:1.6;" x="388.8" xlink:href="#m849d0bd0d6" y="354.24"/>
      </g>
     </g>
     <g id="text_6">
      <!-- $-4$ -->
      <g style="fill:#262626;" transform="translate(22.5980169579 358.22505604)scale(0.16 -0.16)">
       <use transform="scale(0.996264009963)" xlink:href="#CMSY10-0"/>
       <use transform="translate(77.4874676506 0.0)scale(0.996264009963)" xlink:href="#CMR17-52"/>
      </g>
     </g>
    </g>
    <g id="ytick_2">
     <g id="line2d_13">
      <g>
       <use style="fill:#262626;stroke:#262626;stroke-width:1.6;" x="54.0" xlink:href="#m849d0bd0d6" y="285.12"/>
      </g>
     </g>
     <g id="line2d_14">
      <g>
       <use style="fill:#262626;stroke:#262626;stroke-width:1.6;" x="388.8" xlink:href="#m849d0bd0d6" y="285.12"/>
      </g>
     </g>
     <g id="text_7">
      <!-- $-2$ -->
      <g style="fill:#262626;" transform="translate(22.5980169579 289.10505604)scale(0.16 -0.16)">
       <use transform="scale(0.996264009963)" xlink:href="#CMSY10-0"/>
       <use transform="translate(77.4874676506 0.0)scale(0.996264009963)" xlink:href="#CMR17-50"/>
      </g>
     </g>
    </g>
    <g id="ytick_3">
     <g id="line2d_15">
      <g>
       <use style="fill:#262626;stroke:#262626;stroke-width:1.6;" x="54.0" xlink:href="#m849d0bd0d6" y="216.0"/>
      </g>
     </g>
     <g id="line2d_16">
      <g>
       <use style="fill:#262626;stroke:#262626;stroke-width:1.6;" x="388.8" xlink:href="#m849d0bd0d6" y="216.0"/>
      </g>
     </g>
     <g id="text_8">
      <!-- $0$ -->
      <g style="fill:#262626;" transform="translate(34.9960129981 219.98505604)scale(0.16 -0.16)">
       <use transform="scale(0.996264009963)" xlink:href="#CMR17-48"/>
      </g>
     </g>
    </g>
    <g id="ytick_4">
     <g id="line2d_17">
      <g>
       <use style="fill:#262626;stroke:#262626;stroke-width:1.6;" x="54.0" xlink:href="#m849d0bd0d6" y="146.88"/>
      </g>
     </g>
     <g id="line2d_18">
      <g>
       <use style="fill:#262626;stroke:#262626;stroke-width:1.6;" x="388.8" xlink:href="#m849d0bd0d6" y="146.88"/>
      </g>
     </g>
     <g id="text_9">
      <!-- $2$ -->
      <g style="fill:#262626;" transform="translate(34.9960129981 150.86505604)scale(0.16 -0.16)">
       <use transform="scale(0.996264009963)" xlink:href="#CMR17-50"/>
      </g>
     </g>
    </g>
    <g id="ytick_5">
     <g id="line2d_19">
      <g>
       <use style="fill:#262626;stroke:#262626;stroke-width:1.6;" x="54.0" xlink:href="#m849d0bd0d6" y="77.76"/>
      </g>
     </g>
     <g id="line2d_20">
      <g>
       <use style="fill:#262626;stroke:#262626;stroke-width:1.6;" x="388.8" xlink:href="#m849d0bd0d6" y="77.76"/>
      </g>
     </g>
     <g id="text_10">
      <!-- $4$ -->
      <g style="fill:#262626;" transform="translate(34.9960129981 81.7450560399)scale(0.16 -0.16)">
       <use transform="scale(0.996264009963)" xlink:href="#CMR17-52"/>
      </g>
     </g>
    </g>
   </g>
   <g id="PathCollection_1">
    <path clip-path="url(#p2265e122b5)" d="
M219.709 303.165
L223.091 304.607
L226.473 303.949
L229.855 303.212
L233.236 302.392
L236.468 301.527
L236.618 301.485
L240 300.452
L243.382 299.322
L246.764 298.091
L246.904 298.036
L250.145 296.701
L253.527 295.192
L254.882 294.545
L256.909 293.519
L260.291 291.681
L261.374 291.055
L263.673 289.636
L266.815 287.564
L267.055 287.394
L270.436 284.864
L271.434 284.073
L273.818 282.033
L275.42 280.582
L277.2 278.834
L278.881 277.091
L280.582 275.165
L281.896 273.6
L283.964 270.885
L284.527 270.109
L286.813 266.618
L287.345 265.709
L288.79 263.127
L290.506 259.636
L290.727 259.123
L291.956 256.145
L293.186 252.655
L294.109 249.517
L294.209 249.164
L295.02 245.673
L295.65 242.182
L296.108 238.691
L296.4 235.2
L296.536 231.709
L296.52 228.218
L296.36 224.727
L296.062 221.236
L295.632 217.745
L294.109 215.891
L292.756 214.255
L290.727 212.923
L287.415 210.764
L287.345 210.719
L283.964 208.58
L281.882 207.273
L280.582 206.471
L277.2 204.404
L276.17 203.782
L273.818 202.385
L270.436 200.392
L270.263 200.291
L267.055 198.458
L264.131 196.8
L263.673 196.544
L260.291 194.685
L257.766 193.309
L256.909 192.85
L253.527 191.063
L251.148 189.818
L250.145 189.303
L246.764 187.588
L244.251 186.327
L243.382 185.898
L240 184.256
L237.046 182.836
L236.618 182.634
L233.236 181.064
L229.855 179.51
L229.489 179.345
L226.473 178.008
L223.091 176.528
L219.709 176.487
L216.327 177.922
L213.124 179.345
L212.945 179.427
L209.564 181.041
L206.182 182.728
L205.972 182.836
L202.8 184.536
L199.595 186.327
L199.418 186.43
L196.036 188.461
L193.863 189.818
L192.655 190.603
L189.273 192.88
L188.657 193.309
L185.891 195.316
L183.918 196.8
L182.509 197.906
L179.574 200.291
L179.127 200.671
L175.745 203.64
L175.589 203.782
L172.364 206.844
L171.927 207.273
L168.982 210.305
L168.55 210.764
L165.6 214.062
L165.433 214.255
L164.52 217.745
L165.6 220.983
L165.685 221.236
L166.96 224.727
L168.322 228.218
L168.982 229.801
L169.782 231.709
L171.336 235.2
L172.364 237.387
L172.98 238.691
L174.72 242.182
L175.745 244.145
L176.548 245.673
L178.467 249.164
L179.127 250.314
L180.479 252.655
L182.509 256.04
L182.572 256.145
L184.768 259.636
L185.891 261.362
L187.047 263.127
L189.273 266.417
L189.41 266.618
L191.872 270.109
L192.655 271.185
L194.422 273.6
L196.036 275.742
L197.059 277.091
L199.418 280.114
L199.785 280.582
L202.605 284.073
L202.8 284.307
L205.522 287.564
L206.182 288.333
L208.53 291.055
L209.564 292.222
L211.632 294.545
L212.945 295.985
L214.829 298.036
L216.327 299.63
L218.123 301.527
L219.709 303.165" style="fill:#250000;fill-opacity:0.75;"/>
   </g>
   <g id="PathCollection_2">
    <path clip-path="url(#p2265e122b5)" d="
M219.709 344.637
L223.091 345.993
L226.473 345.88
L229.855 345.721
L233.236 345.514
L236.618 345.259
L240 344.955
L243.382 344.599
L246.764 344.19
L250.145 343.728
L252.18 343.418
L253.527 343.205
L256.909 342.615
L260.291 341.964
L263.673 341.252
L267.055 340.475
L269.262 339.927
L270.436 339.624
L273.818 338.687
L277.2 337.678
L280.582 336.594
L281.044 336.436
L283.964 335.401
L287.345 334.12
L290.258 332.945
L290.727 332.748
L294.109 331.243
L297.491 329.644
L297.872 329.455
L300.873 327.891
L304.255 326.023
L304.357 325.964
L307.636 323.97
L309.97 322.473
L311.018 321.763
L314.4 319.362
L314.912 318.982
L317.782 316.725
L319.28 315.491
L321.164 313.842
L323.177 312
L324.545 310.664
L326.661 308.509
L327.927 307.128
L329.784 305.018
L331.309 303.152
L332.586 301.527
L334.691 298.627
L335.104 298.036
L337.352 294.545
L338.073 293.322
L339.361 291.055
L341.156 287.564
L341.455 286.923
L342.736 284.073
L344.133 280.582
L344.836 278.593
L345.35 277.091
L346.393 273.6
L347.283 270.109
L348.025 266.618
L348.218 265.5
L348.616 263.127
L349.07 259.636
L349.394 256.145
L349.592 252.655
L349.67 249.164
L349.63 245.673
L349.478 242.182
L349.216 238.691
L348.849 235.2
L348.379 231.709
L348.218 230.727
L347.804 228.218
L347.129 224.727
L346.361 221.236
L345.501 217.745
L344.836 216.893
L342.769 214.255
L341.455 213.254
L338.166 210.764
L338.073 210.694
L334.691 208.193
L333.439 207.273
L331.309 205.731
L328.602 203.782
L327.927 203.303
L324.545 200.923
L323.642 200.291
L321.164 198.585
L318.556 196.8
L317.782 196.278
L314.4 194.015
L313.337 193.309
L311.018 191.791
L307.985 189.818
L307.636 189.594
L304.255 187.446
L302.481 186.327
L300.873 185.327
L297.491 183.24
L296.831 182.836
L294.109 181.195
L291.021 179.345
L290.727 179.172
L287.345 177.196
L285.034 175.855
L283.964 175.242
L280.582 173.326
L278.869 172.364
L277.2 171.439
L273.818 169.583
L272.511 168.873
L270.436 167.761
L267.055 165.964
L265.947 165.382
L263.673 164.203
L260.291 162.467
L259.157 161.891
L256.909 160.765
L253.527 159.088
L252.122 158.4
L250.145 157.444
L246.764 155.827
L244.822 154.909
L243.382 154.237
L240 152.68
L237.231 151.418
L236.618 151.143
L233.236 149.645
L229.855 148.162
L229.309 147.927
L226.473 146.72
L223.091 145.298
L219.709 145.054
L216.327 146.014
L212.945 147.023
L210.052 147.927
L209.564 148.084
L206.182 149.217
L202.8 150.403
L200.029 151.418
L199.418 151.649
L196.036 152.973
L192.655 154.357
L191.355 154.909
L189.273 155.821
L185.891 157.361
L183.694 158.4
L182.509 158.978
L179.127 160.689
L176.84 161.891
L175.745 162.485
L172.364 164.384
L170.648 165.382
L168.982 166.385
L165.6 168.492
L165.009 168.873
L162.218 170.732
L159.853 172.364
L158.836 173.091
L155.455 175.59
L155.108 175.855
L152.073 178.257
L150.74 179.345
L148.691 181.088
L146.697 182.836
L145.309 184.105
L142.949 186.327
L141.927 187.333
L139.473 189.818
L138.545 190.802
L136.245 193.309
L135.164 194.546
L133.246 196.8
L131.782 198.609
L130.456 200.291
L128.4 203.042
L127.862 203.782
L125.453 207.273
L125.018 207.939
L123.221 210.764
L121.636 213.413
L121.145 214.255
L120.824 217.745
L121.636 219.819
L122.194 221.236
L123.645 224.727
L125.018 227.878
L125.167 228.218
L126.775 231.709
L128.4 235.099
L128.449 235.2
L130.209 238.691
L131.782 241.701
L132.034 242.182
L133.943 245.673
L135.164 247.831
L135.92 249.164
L137.973 252.655
L138.545 253.597
L140.102 256.145
L141.927 259.047
L142.3 259.636
L144.576 263.127
L145.309 264.22
L146.926 266.618
L148.691 269.167
L149.346 270.109
L151.84 273.6
L152.073 273.917
L154.414 277.091
L155.455 278.467
L157.06 280.582
L158.836 282.866
L159.779 284.073
L162.218 287.124
L162.572 287.564
L165.441 291.055
L165.6 291.243
L168.391 294.545
L168.982 295.229
L171.418 298.036
L172.364 299.104
L174.521 301.527
L175.745 302.875
L177.702 305.018
L179.127 306.548
L180.963 308.509
L182.509 310.128
L184.305 312
L185.891 313.621
L187.728 315.491
L189.273 317.033
L191.235 318.982
L192.655 320.366
L194.825 322.473
L196.036 323.626
L198.501 325.964
L199.418 326.817
L202.264 329.455
L202.8 329.942
L206.115 332.945
L206.182 333.005
L209.564 335.997
L210.062 336.436
L212.945 338.931
L214.103 339.927
L216.327 341.81
L218.237 343.418
L219.709 344.637
M219.709 303.165
L218.123 301.527
L216.327 299.63
L214.829 298.036
L212.945 295.985
L211.632 294.545
L209.564 292.222
L208.53 291.055
L206.182 288.333
L205.522 287.564
L202.8 284.307
L202.605 284.073
L199.785 280.582
L199.418 280.114
L197.059 277.091
L196.036 275.742
L194.422 273.6
L192.655 271.185
L191.872 270.109
L189.41 266.618
L189.273 266.417
L187.047 263.127
L185.891 261.362
L184.768 259.636
L182.572 256.145
L182.509 256.04
L180.479 252.655
L179.127 250.314
L178.467 249.164
L176.548 245.673
L175.745 244.145
L174.72 242.182
L172.98 238.691
L172.364 237.387
L171.336 235.2
L169.782 231.709
L168.982 229.801
L168.322 228.218
L166.96 224.727
L165.685 221.236
L165.6 220.983
L164.52 217.745
L165.433 214.255
L165.6 214.062
L168.55 210.764
L168.982 210.305
L171.927 207.273
L172.364 206.844
L175.589 203.782
L175.745 203.64
L179.127 200.671
L179.574 200.291
L182.509 197.906
L183.918 196.8
L185.891 195.316
L188.657 193.309
L189.273 192.88
L192.655 190.603
L193.863 189.818
L196.036 188.461
L199.418 186.43
L199.595 186.327
L202.8 184.536
L205.972 182.836
L206.182 182.728
L209.564 181.041
L212.945 179.427
L213.124 179.345
L216.327 177.922
L219.709 176.487
L223.091 176.528
L226.473 178.008
L229.489 179.345
L229.855 179.51
L233.236 181.064
L236.618 182.634
L237.046 182.836
L240 184.256
L243.382 185.898
L244.251 186.327
L246.764 187.588
L250.145 189.303
L251.148 189.818
L253.527 191.063
L256.909 192.85
L257.766 193.309
L260.291 194.685
L263.673 196.544
L264.131 196.8
L267.055 198.458
L270.263 200.291
L270.436 200.392
L273.818 202.385
L276.17 203.782
L277.2 204.404
L280.582 206.471
L281.882 207.273
L283.964 208.58
L287.345 210.719
L287.415 210.764
L290.727 212.923
L292.756 214.255
L294.109 215.891
L295.632 217.745
L296.062 221.236
L296.36 224.727
L296.52 228.218
L296.536 231.709
L296.4 235.2
L296.108 238.691
L295.65 242.182
L295.02 245.673
L294.209 249.164
L294.109 249.517
L293.186 252.655
L291.956 256.145
L290.727 259.123
L290.506 259.636
L288.79 263.127
L287.345 265.709
L286.813 266.618
L284.527 270.109
L283.964 270.885
L281.896 273.6
L280.582 275.165
L278.881 277.091
L277.2 278.834
L275.42 280.582
L273.818 282.033
L271.434 284.073
L270.436 284.864
L267.055 287.394
L266.815 287.564
L263.673 289.636
L261.374 291.055
L260.291 291.681
L256.909 293.519
L254.882 294.545
L253.527 295.192
L250.145 296.701
L246.904 298.036
L246.764 298.091
L243.382 299.322
L240 300.452
L236.618 301.485
L236.468 301.527
L233.236 302.392
L229.855 303.212
L226.473 303.949
L223.091 304.607
L219.709 303.165" style="fill:#5f0000;fill-opacity:0.75;"/>
   </g>
   <g id="PathCollection_3">
    <path clip-path="url(#p2265e122b5)" d="
M219.709 376.41
L223.091 377.733
L226.473 377.858
L229.855 377.948
L233.236 378.004
L236.618 378.023
L240 378.006
L243.382 377.952
L246.764 377.86
L250.145 377.729
L253.527 377.558
L256.909 377.347
L260.291 377.094
L263.673 376.799
L267.055 376.46
L270.436 376.077
L273.818 375.649
L277.2 375.174
L279.393 374.836
L280.582 374.648
L283.964 374.063
L287.345 373.428
L290.727 372.74
L294.109 371.999
L296.891 371.345
L297.491 371.2
L300.873 370.326
L304.255 369.392
L307.636 368.398
L309.381 367.855
L311.018 367.327
L314.4 366.175
L317.782 364.955
L319.34 364.364
L321.164 363.646
L324.545 362.244
L327.686 360.873
L327.927 360.763
L331.309 359.159
L334.691 357.47
L334.861 357.382
L338.073 355.64
L341.147 353.891
L341.455 353.708
L344.836 351.617
L346.719 350.4
L348.218 349.386
L351.6 347
L351.723 346.909
L354.982 344.405
L356.215 343.418
L358.364 341.61
L360.287 339.927
L361.745 338.582
L363.986 336.436
L365.127 335.28
L367.35 332.945
L368.509 331.654
L370.416 329.455
L371.891 327.642
L373.211 325.964
L375.273 323.161
L375.763 322.473
L378.082 318.982
L378.655 318.055
L380.188 315.491
L382.036 312.136
L382.109 312
L383.833 308.509
L385.399 305.018
L385.418 304.971
L386.789 301.527
L388.034 298.036
L388.8 295.627
L388.8 294.545
L388.8 291.055
L388.8 287.564
L388.8 284.073
L388.8 280.582
L388.8 277.091
L388.8 273.6
L388.8 270.109
L388.8 266.618
L388.8 263.127
L388.8 259.636
L388.8 256.145
L388.8 252.655
L388.8 249.164
L388.8 245.673
L388.8 242.182
L388.8 238.691
L388.8 235.2
L388.8 231.709
L388.8 228.508
L388.729 228.218
L387.794 224.727
L386.785 221.236
L385.704 217.745
L385.418 217.369
L383.047 214.255
L382.036 213.417
L378.822 210.764
L378.655 210.628
L375.273 207.893
L374.502 207.273
L371.891 205.201
L370.093 203.782
L368.509 202.548
L365.598 200.291
L365.127 199.931
L361.745 197.361
L361.004 196.8
L358.364 194.832
L356.311 193.309
L354.982 192.336
L351.6 189.872
L351.526 189.818
L348.218 187.458
L346.626 186.327
L344.836 185.073
L341.629 182.836
L341.455 182.716
L338.073 180.407
L336.511 179.345
L334.691 178.125
L331.309 175.868
L331.289 175.855
L327.927 173.659
L325.935 172.364
L324.545 171.472
L321.164 169.315
L320.464 168.873
L317.782 167.197
L314.861 165.382
L314.4 165.099
L311.018 163.041
L309.117 161.891
L307.636 161.006
L304.255 159
L303.234 158.4
L300.873 157.028
L297.491 155.074
L297.202 154.909
L294.109 153.161
L291.007 151.418
L290.727 151.263
L287.345 149.405
L284.64 147.927
L283.964 147.563
L280.582 145.756
L278.093 144.436
L277.2 143.968
L273.818 142.214
L271.355 140.945
L270.436 140.478
L267.055 138.775
L264.411 137.455
L263.673 137.09
L260.291 135.439
L257.245 133.964
L256.909 133.803
L253.527 132.204
L250.145 130.617
L249.835 130.473
L246.764 129.067
L243.382 127.532
L242.155 126.982
L240 126.027
L236.618 124.544
L234.189 123.491
L233.236 123.082
L229.855 121.652
L226.473 120.236
L225.901 120
L223.091 118.854
L219.709 118.491
L216.327 119.162
L212.945 119.871
L212.359 120
L209.564 120.63
L206.182 121.433
L202.8 122.278
L199.418 123.164
L198.225 123.491
L196.036 124.105
L192.655 125.097
L189.273 126.135
L186.63 126.982
L185.891 127.225
L182.509 128.379
L179.127 129.584
L176.727 130.473
L175.745 130.846
L172.364 132.18
L168.982 133.568
L168.05 133.964
L165.6 135.033
L162.218 136.565
L160.323 137.455
L158.836 138.172
L155.455 139.861
L153.357 140.945
L152.073 141.63
L148.691 143.49
L147.025 144.436
L145.309 145.442
L141.927 147.491
L141.227 147.927
L138.545 149.655
L135.896 151.418
L135.164 151.922
L131.782 154.319
L130.973 154.909
L128.4 156.853
L126.412 158.4
L125.018 159.525
L122.17 161.891
L121.636 162.351
L118.255 165.351
L118.221 165.382
L114.873 168.553
L114.545 168.873
L111.491 171.969
L111.112 172.364
L108.109 175.625
L107.903 175.855
L104.906 179.345
L104.727 179.564
L102.108 182.836
L101.345 183.836
L99.4913 186.327
L97.9636 188.487
L97.0438 189.818
L94.7561 193.309
L94.5818 193.589
L92.6298 196.8
L91.2 199.295
L90.642 200.291
L88.7963 203.782
L87.8182 205.753
L87.0801 207.273
L85.4916 210.764
L84.4364 213.252
L84.0203 214.255
L84.0488 217.745
L84.4364 218.655
L85.5409 221.236
L87.0965 224.727
L87.8182 226.282
L88.7204 228.218
L90.4095 231.709
L91.2 233.285
L92.1651 235.2
L93.9844 238.691
L94.5818 239.799
L95.8718 242.182
L97.818 245.673
L97.9636 245.925
L99.8372 249.164
L101.345 251.701
L101.914 252.655
L104.058 256.145
L104.727 257.205
L106.268 259.636
L108.109 262.471
L108.537 263.127
L110.874 266.618
L111.491 267.517
L113.276 270.109
L114.873 272.374
L115.74 273.6
L118.255 277.076
L118.265 277.091
L120.863 280.582
L121.636 281.6
L123.523 284.073
L125.018 285.992
L126.247 287.564
L128.4 290.262
L129.035 291.055
L131.782 294.416
L131.888 294.545
L134.811 298.036
L135.164 298.45
L137.801 301.527
L138.545 302.38
L140.858 305.018
L141.927 306.216
L143.983 308.509
L145.309 309.962
L147.176 312
L148.691 313.625
L150.438 315.491
L152.073 317.207
L153.77 318.982
L155.455 320.713
L157.174 322.473
L158.836 324.147
L160.649 325.964
L162.218 327.511
L164.197 329.455
L165.6 330.811
L167.819 332.945
L168.982 334.047
L171.515 336.436
L172.364 337.224
L175.287 339.927
L175.745 340.345
L179.127 343.41
L179.136 343.418
L182.509 346.414
L183.069 346.909
L185.891 349.367
L187.083 350.4
L189.273 352.271
L191.177 353.891
L192.655 355.13
L195.353 357.382
L196.036 357.944
L199.418 360.713
L199.615 360.873
L202.8 363.428
L203.971 364.364
L206.182 366.105
L208.414 367.855
L209.564 368.743
L212.945 371.345
L212.945 371.346
L216.327 373.895
L217.582 374.836
L219.709 376.41
M219.709 344.637
L218.237 343.418
L216.327 341.81
L214.103 339.927
L212.945 338.931
L210.062 336.436
L209.564 335.997
L206.182 333.005
L206.115 332.945
L202.8 329.942
L202.264 329.455
L199.418 326.817
L198.501 325.964
L196.036 323.626
L194.825 322.473
L192.655 320.366
L191.235 318.982
L189.273 317.033
L187.728 315.491
L185.891 313.621
L184.305 312
L182.509 310.128
L180.963 308.509
L179.127 306.548
L177.702 305.018
L175.745 302.875
L174.521 301.527
L172.364 299.104
L171.418 298.036
L168.982 295.229
L168.391 294.545
L165.6 291.243
L165.441 291.055
L162.572 287.564
L162.218 287.124
L159.779 284.073
L158.836 282.866
L157.06 280.582
L155.455 278.467
L154.414 277.091
L152.073 273.917
L151.84 273.6
L149.346 270.109
L148.691 269.167
L146.926 266.618
L145.309 264.22
L144.576 263.127
L142.3 259.636
L141.927 259.047
L140.102 256.145
L138.545 253.597
L137.973 252.655
L135.92 249.164
L135.164 247.831
L133.943 245.673
L132.034 242.182
L131.782 241.701
L130.209 238.691
L128.449 235.2
L128.4 235.099
L126.775 231.709
L125.167 228.218
L125.018 227.878
L123.645 224.727
L122.194 221.236
L121.636 219.819
L120.824 217.745
L121.145 214.255
L121.636 213.413
L123.221 210.764
L125.018 207.939
L125.453 207.273
L127.862 203.782
L128.4 203.042
L130.456 200.291
L131.782 198.609
L133.246 196.8
L135.164 194.546
L136.245 193.309
L138.545 190.802
L139.473 189.818
L141.927 187.333
L142.949 186.327
L145.309 184.105
L146.697 182.836
L148.691 181.088
L150.74 179.345
L152.073 178.257
L155.108 175.855
L155.455 175.59
L158.836 173.091
L159.853 172.364
L162.218 170.732
L165.009 168.873
L165.6 168.492
L168.982 166.385
L170.648 165.382
L172.364 164.384
L175.745 162.485
L176.84 161.891
L179.127 160.689
L182.509 158.978
L183.694 158.4
L185.891 157.361
L189.273 155.821
L191.355 154.909
L192.655 154.357
L196.036 152.973
L199.418 151.649
L200.029 151.418
L202.8 150.403
L206.182 149.217
L209.564 148.084
L210.052 147.927
L212.945 147.023
L216.327 146.014
L219.709 145.054
L223.091 145.298
L226.473 146.72
L229.309 147.927
L229.855 148.162
L233.236 149.645
L236.618 151.143
L237.231 151.418
L240 152.68
L243.382 154.237
L244.822 154.909
L246.764 155.827
L250.145 157.444
L252.122 158.4
L253.527 159.088
L256.909 160.765
L259.157 161.891
L260.291 162.467
L263.673 164.203
L265.947 165.382
L267.055 165.964
L270.436 167.761
L272.511 168.873
L273.818 169.583
L277.2 171.439
L278.869 172.364
L280.582 173.326
L283.964 175.242
L285.034 175.855
L287.345 177.196
L290.727 179.172
L291.021 179.345
L294.109 181.195
L296.831 182.836
L297.491 183.24
L300.873 185.327
L302.481 186.327
L304.255 187.446
L307.636 189.594
L307.985 189.818
L311.018 191.791
L313.337 193.309
L314.4 194.015
L317.782 196.278
L318.556 196.8
L321.164 198.585
L323.642 200.291
L324.545 200.923
L327.927 203.303
L328.602 203.782
L331.309 205.731
L333.439 207.273
L334.691 208.193
L338.073 210.694
L338.166 210.764
L341.455 213.254
L342.769 214.255
L344.836 216.893
L345.501 217.745
L346.361 221.236
L347.129 224.727
L347.804 228.218
L348.218 230.727
L348.379 231.709
L348.849 235.2
L349.216 238.691
L349.478 242.182
L349.63 245.673
L349.67 249.164
L349.592 252.655
L349.394 256.145
L349.07 259.636
L348.616 263.127
L348.218 265.5
L348.025 266.618
L347.283 270.109
L346.393 273.6
L345.35 277.091
L344.836 278.593
L344.133 280.582
L342.736 284.073
L341.455 286.923
L341.156 287.564
L339.361 291.055
L338.073 293.322
L337.352 294.545
L335.104 298.036
L334.691 298.627
L332.586 301.527
L331.309 303.152
L329.784 305.018
L327.927 307.128
L326.661 308.509
L324.545 310.664
L323.177 312
L321.164 313.842
L319.28 315.491
L317.782 316.725
L314.912 318.982
L314.4 319.362
L311.018 321.763
L309.97 322.473
L307.636 323.97
L304.357 325.964
L304.255 326.023
L300.873 327.891
L297.872 329.455
L297.491 329.644
L294.109 331.243
L290.727 332.748
L290.258 332.945
L287.345 334.12
L283.964 335.401
L281.044 336.436
L280.582 336.594
L277.2 337.678
L273.818 338.687
L270.436 339.624
L269.262 339.927
L267.055 340.475
L263.673 341.252
L260.291 341.964
L256.909 342.615
L253.527 343.205
L252.18 343.418
L250.145 343.728
L246.764 344.19
L243.382 344.599
L240 344.955
L236.618 345.259
L233.236 345.514
L229.855 345.721
L226.473 345.88
L223.091 345.993
L219.709 344.637" style="fill:#960000;fill-opacity:0.75;"/>
   </g>
   <g id="PathCollection_4">
    <path clip-path="url(#p2265e122b5)" d="
M199.546 388.8
L202.8 388.8
L206.182 388.8
L209.564 388.8
L212.945 388.8
L216.327 388.8
L219.709 388.8
L223.091 388.8
L226.473 388.8
L229.855 388.8
L233.236 388.8
L236.618 388.8
L240 388.8
L243.382 388.8
L246.764 388.8
L250.145 388.8
L253.527 388.8
L256.909 388.8
L260.291 388.8
L263.673 388.8
L267.055 388.8
L270.436 388.8
L273.818 388.8
L277.2 388.8
L280.582 388.8
L283.964 388.8
L287.345 388.8
L290.727 388.8
L294.109 388.8
L297.491 388.8
L300.873 388.8
L304.255 388.8
L307.636 388.8
L311.018 388.8
L314.4 388.8
L317.782 388.8
L321.164 388.8
L324.545 388.8
L327.927 388.8
L331.309 388.8
L334.691 388.8
L338.073 388.8
L341.455 388.8
L344.836 388.8
L348.218 388.8
L351.6 388.8
L351.916 388.8
L354.982 387.49
L358.364 385.976
L359.793 385.309
L361.745 384.366
L365.127 382.662
L366.737 381.818
L368.509 380.854
L371.891 378.939
L372.931 378.327
L375.273 376.897
L378.512 374.836
L378.655 374.742
L382.036 372.426
L383.555 371.345
L385.418 369.964
L388.16 367.855
L388.8 367.341
L388.8 364.364
L388.8 360.873
L388.8 357.382
L388.8 353.891
L388.8 350.4
L388.8 346.909
L388.8 343.418
L388.8 339.927
L388.8 336.436
L388.8 332.945
L388.8 329.455
L388.8 325.964
L388.8 322.473
L388.8 318.982
L388.8 315.491
L388.8 312
L388.8 308.509
L388.8 305.018
L388.8 301.527
L388.8 298.036
L388.8 295.627
L388.034 298.036
L386.789 301.527
L385.418 304.971
L385.399 305.018
L383.833 308.509
L382.109 312
L382.036 312.136
L380.188 315.491
L378.655 318.055
L378.082 318.982
L375.763 322.473
L375.273 323.161
L373.211 325.964
L371.891 327.642
L370.416 329.455
L368.509 331.654
L367.35 332.945
L365.127 335.28
L363.986 336.436
L361.745 338.582
L360.287 339.927
L358.364 341.61
L356.215 343.418
L354.982 344.405
L351.723 346.909
L351.6 347
L348.218 349.386
L346.719 350.4
L344.836 351.617
L341.455 353.708
L341.147 353.891
L338.073 355.64
L334.861 357.382
L334.691 357.47
L331.309 359.159
L327.927 360.763
L327.686 360.873
L324.545 362.244
L321.164 363.646
L319.34 364.364
L317.782 364.955
L314.4 366.175
L311.018 367.327
L309.381 367.855
L307.636 368.398
L304.255 369.392
L300.873 370.326
L297.491 371.2
L296.891 371.345
L294.109 371.999
L290.727 372.74
L287.345 373.428
L283.964 374.063
L280.582 374.648
L279.393 374.836
L277.2 375.174
L273.818 375.649
L270.436 376.077
L267.055 376.46
L263.673 376.799
L260.291 377.094
L256.909 377.347
L253.527 377.558
L250.145 377.729
L246.764 377.86
L243.382 377.952
L240 378.006
L236.618 378.023
L233.236 378.004
L229.855 377.948
L226.473 377.858
L223.091 377.733
L219.709 376.41
L217.582 374.836
L216.327 373.895
L212.945 371.346
L212.945 371.345
L209.564 368.743
L208.414 367.855
L206.182 366.105
L203.971 364.364
L202.8 363.428
L199.615 360.873
L199.418 360.713
L196.036 357.944
L195.353 357.382
L192.655 355.13
L191.177 353.891
L189.273 352.271
L187.083 350.4
L185.891 349.367
L183.069 346.909
L182.509 346.414
L179.136 343.418
L179.127 343.41
L175.745 340.345
L175.287 339.927
L172.364 337.224
L171.515 336.436
L168.982 334.047
L167.819 332.945
L165.6 330.811
L164.197 329.455
L162.218 327.511
L160.649 325.964
L158.836 324.147
L157.174 322.473
L155.455 320.713
L153.77 318.982
L152.073 317.207
L150.438 315.491
L148.691 313.625
L147.176 312
L145.309 309.962
L143.983 308.509
L141.927 306.216
L140.858 305.018
L138.545 302.38
L137.801 301.527
L135.164 298.45
L134.811 298.036
L131.888 294.545
L131.782 294.416
L129.035 291.055
L128.4 290.262
L126.247 287.564
L125.018 285.992
L123.523 284.073
L121.636 281.6
L120.863 280.582
L118.265 277.091
L118.255 277.076
L115.74 273.6
L114.873 272.374
L113.276 270.109
L111.491 267.517
L110.874 266.618
L108.537 263.127
L108.109 262.471
L106.268 259.636
L104.727 257.205
L104.058 256.145
L101.914 252.655
L101.345 251.701
L99.8372 249.164
L97.9636 245.925
L97.818 245.673
L95.8718 242.182
L94.5818 239.799
L93.9844 238.691
L92.1651 235.2
L91.2 233.285
L90.4095 231.709
L88.7204 228.218
L87.8182 226.282
L87.0965 224.727
L85.5409 221.236
L84.4364 218.655
L84.0488 217.745
L84.0203 214.255
L84.4364 213.252
L85.4916 210.764
L87.0801 207.273
L87.8182 205.753
L88.7963 203.782
L90.642 200.291
L91.2 199.295
L92.6298 196.8
L94.5818 193.589
L94.7561 193.309
L97.0438 189.818
L97.9636 188.487
L99.4913 186.327
L101.345 183.836
L102.108 182.836
L104.727 179.564
L104.906 179.345
L107.903 175.855
L108.109 175.625
L111.112 172.364
L111.491 171.969
L114.545 168.873
L114.873 168.553
L118.221 165.382
L118.255 165.351
L121.636 162.351
L122.17 161.891
L125.018 159.525
L126.412 158.4
L128.4 156.853
L130.973 154.909
L131.782 154.319
L135.164 151.922
L135.896 151.418
L138.545 149.655
L141.227 147.927
L141.927 147.491
L145.309 145.442
L147.025 144.436
L148.691 143.49
L152.073 141.63
L153.357 140.945
L155.455 139.861
L158.836 138.172
L160.323 137.455
L162.218 136.565
L165.6 135.033
L168.05 133.964
L168.982 133.568
L172.364 132.18
L175.745 130.846
L176.727 130.473
L179.127 129.584
L182.509 128.379
L185.891 127.225
L186.63 126.982
L189.273 126.135
L192.655 125.097
L196.036 124.105
L198.225 123.491
L199.418 123.164
L202.8 122.278
L206.182 121.433
L209.564 120.63
L212.359 120
L212.945 119.871
L216.327 119.162
L219.709 118.491
L223.091 118.854
L225.901 120
L226.473 120.236
L229.855 121.652
L233.236 123.082
L234.189 123.491
L236.618 124.544
L240 126.027
L242.155 126.982
L243.382 127.532
L246.764 129.067
L249.835 130.473
L250.145 130.617
L253.527 132.204
L256.909 133.803
L257.245 133.964
L260.291 135.439
L263.673 137.09
L264.411 137.455
L267.055 138.775
L270.436 140.478
L271.355 140.945
L273.818 142.214
L277.2 143.968
L278.093 144.436
L280.582 145.756
L283.964 147.563
L284.64 147.927
L287.345 149.405
L290.727 151.263
L291.007 151.418
L294.109 153.161
L297.202 154.909
L297.491 155.074
L300.873 157.028
L303.234 158.4
L304.255 159
L307.636 161.006
L309.117 161.891
L311.018 163.041
L314.4 165.099
L314.861 165.382
L317.782 167.197
L320.464 168.873
L321.164 169.315
L324.545 171.472
L325.935 172.364
L327.927 173.659
L331.289 175.855
L331.309 175.868
L334.691 178.125
L336.511 179.345
L338.073 180.407
L341.455 182.716
L341.629 182.836
L344.836 185.073
L346.626 186.327
L348.218 187.458
L351.526 189.818
L351.6 189.872
L354.982 192.336
L356.311 193.309
L358.364 194.832
L361.004 196.8
L361.745 197.361
L365.127 199.931
L365.598 200.291
L368.509 202.548
L370.093 203.782
L371.891 205.201
L374.502 207.273
L375.273 207.893
L378.655 210.628
L378.822 210.764
L382.036 213.417
L383.047 214.255
L385.418 217.369
L385.704 217.745
L386.785 221.236
L387.794 224.727
L388.729 228.218
L388.8 228.508
L388.8 228.218
L388.8 224.727
L388.8 221.236
L388.8 217.745
L388.8 214.255
L388.8 210.764
L388.8 207.273
L388.8 203.782
L388.8 200.291
L388.8 196.8
L388.8 193.309
L388.8 190.283
L388.204 189.818
L385.418 187.672
L383.665 186.327
L382.036 185.093
L379.046 182.836
L378.655 182.545
L375.273 180.038
L374.333 179.345
L371.891 177.566
L369.533 175.855
L368.509 175.121
L365.127 172.709
L364.641 172.364
L361.745 170.335
L359.648 168.873
L358.364 167.987
L354.982 165.668
L354.562 165.382
L351.6 163.387
L349.369 161.891
L348.218 161.128
L344.836 158.9
L344.073 158.4
L341.455 156.705
L338.666 154.909
L338.073 154.531
L334.691 152.392
L333.143 151.418
L331.309 150.278
L327.927 148.186
L327.506 147.927
L324.545 146.131
L321.741 144.436
L321.164 144.092
L317.782 142.087
L315.844 140.945
L314.4 140.104
L311.018 138.146
L309.815 137.455
L307.636 136.216
L304.255 134.305
L303.645 133.964
L300.873 132.427
L297.491 130.563
L297.325 130.473
L294.109 128.736
L290.844 126.982
L290.727 126.92
L287.345 125.14
L284.194 123.491
L283.964 123.372
L280.582 121.639
L277.366 120
L277.2 119.916
L273.818 118.23
L270.436 116.553
L270.347 116.509
L267.055 114.912
L263.673 113.282
L263.119 113.018
L260.291 111.684
L256.909 110.101
L255.671 109.527
L253.527 108.545
L250.145 107.008
L247.986 106.036
L246.764 105.492
L243.382 104.002
L240.047 102.545
L240 102.525
L236.618 101.082
L233.236 99.6515
L231.809 99.0545
L229.855 98.2461
L226.473 96.8625
L223.267 95.5636
L223.091 95.493
L219.709 95.0491
L216.327 95.5249
L216.068 95.5636
L212.945 96.0405
L209.564 96.5901
L206.182 97.1737
L202.8 97.7918
L199.418 98.4449
L196.423 99.0545
L196.036 99.135
L192.655 99.8721
L189.273 100.647
L185.891 101.46
L182.509 102.311
L181.618 102.545
L179.127 103.214
L175.745 104.162
L172.364 105.152
L169.462 106.036
L168.982 106.186
L165.6 107.281
L162.218 108.422
L159.064 109.527
L158.836 109.609
L155.455 110.865
L152.073 112.17
L149.95 113.018
L148.691 113.534
L145.309 114.967
L141.927 116.453
L141.804 116.509
L138.545 118.023
L135.164 119.651
L134.461 120
L131.782 121.365
L128.4 123.147
L127.766 123.491
L125.018 125.024
L121.636 126.973
L121.622 126.982
L118.255 129.035
L115.968 130.473
L114.873 131.183
L111.491 133.439
L110.725 133.964
L108.109 135.815
L105.857 137.455
L104.727 138.304
L101.345 140.921
L101.315 140.945
L97.9636 143.695
L97.0846 144.436
L94.5818 146.622
L93.1252 147.927
L91.2 149.717
L89.416 151.418
L87.8182 153.001
L85.9385 154.909
L84.4364 156.496
L82.6762 158.4
L81.0545 160.228
L79.614 161.891
L77.6727 164.229
L76.738 165.382
L74.2909 168.536
L74.0359 168.873
L71.5041 172.364
L70.9091 173.224
L69.1292 175.855
L67.5273 178.346
L66.898 179.345
L64.8099 182.836
L64.1455 184.008
L62.8574 186.327
L61.0278 189.818
L60.7636 190.351
L59.3276 193.309
L57.7381 196.8
L57.3818 197.633
L56.2667 200.291
L54.9007 203.782
L54 206.257
L54 207.273
L54 210.764
L54 214.255
L54 217.745
L54 221.236
L54 222.84
L54.8832 224.727
L56.5726 228.218
L57.3818 229.837
L58.3215 231.709
L60.1278 235.2
L60.7636 236.392
L61.9949 238.691
L63.9156 242.182
L64.1455 242.587
L65.9009 245.673
L67.5273 248.462
L67.9379 249.164
L70.0369 252.655
L70.9091 254.07
L72.1927 256.145
L74.2909 259.462
L74.4015 259.636
L76.675 263.127
L77.6727 264.626
L79.0033 266.618
L81.0545 269.625
L81.3858 270.109
L83.83 273.6
L84.4364 274.448
L86.3326 277.091
L87.8182 279.121
L88.8908 280.582
L91.2 283.667
L91.5051 284.073
L94.1807 287.564
L94.5818 288.077
L96.9164 291.055
L97.9636 292.366
L99.7096 294.545
L101.345 296.551
L102.561 298.036
L104.727 300.638
L105.471 301.527
L108.109 304.63
L108.44 305.018
L111.47 308.509
L111.491 308.533
L114.563 312
L114.873 312.343
L117.718 315.491
L118.255 316.076
L120.933 318.982
L121.636 319.733
L124.211 322.473
L125.018 323.319
L127.552 325.964
L128.4 326.836
L130.956 329.455
L131.782 330.288
L134.424 332.945
L135.164 333.678
L137.958 336.436
L138.545 337.008
L141.557 339.927
L141.927 340.281
L145.223 343.418
L145.309 343.499
L148.691 346.66
L148.959 346.909
L152.073 349.768
L152.764 350.4
L155.455 352.826
L156.64 353.891
L158.836 355.837
L160.586 357.382
L162.218 358.803
L164.604 360.873
L165.6 361.726
L168.693 364.364
L168.982 364.606
L172.364 367.439
L172.862 367.855
L175.745 370.228
L177.109 371.345
L179.127 372.979
L181.432 374.836
L182.509 375.693
L185.832 378.327
L185.891 378.374
L189.273 381.005
L190.322 381.818
L192.655 383.603
L194.893 385.309
L196.036 386.17
L199.418 388.705
L199.546 388.8" style="fill:#cd0000;fill-opacity:0.75;"/>
   </g>
   <g id="PathCollection_5">
    <path clip-path="url(#p2265e122b5)" d="
M166.639 388.8
L168.982 388.8
L172.364 388.8
L175.745 388.8
L179.127 388.8
L182.509 388.8
L185.891 388.8
L189.273 388.8
L192.655 388.8
L196.036 388.8
L199.418 388.8
L199.546 388.8
L199.418 388.705
L196.036 386.17
L194.893 385.309
L192.655 383.603
L190.322 381.818
L189.273 381.005
L185.891 378.374
L185.832 378.327
L182.509 375.693
L181.432 374.836
L179.127 372.979
L177.109 371.345
L175.745 370.228
L172.862 367.855
L172.364 367.439
L168.982 364.606
L168.693 364.364
L165.6 361.726
L164.604 360.873
L162.218 358.803
L160.586 357.382
L158.836 355.837
L156.64 353.891
L155.455 352.826
L152.764 350.4
L152.073 349.768
L148.959 346.909
L148.691 346.66
L145.309 343.499
L145.223 343.418
L141.927 340.281
L141.557 339.927
L138.545 337.008
L137.958 336.436
L135.164 333.678
L134.424 332.945
L131.782 330.288
L130.956 329.455
L128.4 326.836
L127.552 325.964
L125.018 323.319
L124.211 322.473
L121.636 319.733
L120.933 318.982
L118.255 316.076
L117.718 315.491
L114.873 312.343
L114.563 312
L111.491 308.533
L111.47 308.509
L108.44 305.018
L108.109 304.63
L105.471 301.527
L104.727 300.638
L102.561 298.036
L101.345 296.551
L99.7096 294.545
L97.9636 292.366
L96.9164 291.055
L94.5818 288.077
L94.1807 287.564
L91.5051 284.073
L91.2 283.667
L88.8908 280.582
L87.8182 279.121
L86.3326 277.091
L84.4364 274.448
L83.83 273.6
L81.3858 270.109
L81.0545 269.625
L79.0033 266.618
L77.6727 264.626
L76.675 263.127
L74.4015 259.636
L74.2909 259.462
L72.1927 256.145
L70.9091 254.07
L70.0369 252.655
L67.9379 249.164
L67.5273 248.462
L65.9009 245.673
L64.1455 242.587
L63.9156 242.182
L61.9949 238.691
L60.7636 236.392
L60.1278 235.2
L58.3215 231.709
L57.3818 229.837
L56.5726 228.218
L54.8832 224.727
L54 222.84
L54 224.727
L54 228.218
L54 231.709
L54 235.2
L54 238.691
L54 242.182
L54 245.673
L54 249.164
L54 252.655
L54 256.145
L54 259.636
L54 263.127
L54 266.618
L54 270.109
L54 272.273
L54.9244 273.6
L57.3818 277.064
L57.4008 277.091
L59.9365 280.582
L60.7636 281.701
L62.5233 284.073
L64.1455 286.222
L65.1615 287.564
L67.5273 290.635
L67.8517 291.055
L70.5976 294.545
L70.9091 294.935
L73.3992 298.036
L74.2909 299.129
L76.2539 301.527
L77.6727 303.233
L79.1621 305.018
L81.0545 307.251
L82.1246 308.509
L84.4364 311.186
L85.1417 312
L87.8182 315.042
L88.2141 315.491
L91.2 318.824
L91.3423 318.982
L94.5274 322.473
L94.5818 322.531
L97.7705 325.964
L97.9636 326.169
L101.07 329.455
L101.345 329.741
L104.428 332.945
L104.727 333.252
L107.844 336.436
L108.109 336.704
L111.318 339.927
L111.491 340.098
L114.852 343.418
L114.873 343.438
L118.255 346.721
L118.448 346.909
L121.636 349.953
L122.106 350.4
L125.018 353.135
L125.826 353.891
L128.4 356.27
L129.608 357.382
L131.782 359.359
L133.453 360.873
L135.164 362.403
L137.362 364.364
L138.545 365.405
L141.337 367.855
L141.927 368.367
L145.309 371.287
L145.377 371.345
L148.691 374.16
L149.49 374.836
L152.073 376.996
L153.671 378.327
L155.455 379.795
L157.921 381.818
L158.836 382.561
L162.218 385.292
L162.239 385.309
L165.6 387.978
L166.639 388.8" style="fill:#ff0800;fill-opacity:0.75;"/>
    <path clip-path="url(#p2265e122b5)" d="
M351.916 388.8
L354.982 388.8
L358.364 388.8
L361.745 388.8
L365.127 388.8
L368.509 388.8
L371.891 388.8
L375.273 388.8
L378.655 388.8
L382.036 388.8
L385.418 388.8
L388.8 388.8
L388.8 385.309
L388.8 381.818
L388.8 378.327
L388.8 374.836
L388.8 371.345
L388.8 367.855
L388.8 367.341
L388.16 367.855
L385.418 369.964
L383.555 371.345
L382.036 372.426
L378.655 374.742
L378.512 374.836
L375.273 376.897
L372.931 378.327
L371.891 378.939
L368.509 380.854
L366.737 381.818
L365.127 382.662
L361.745 384.366
L359.793 385.309
L358.364 385.976
L354.982 387.49
L351.916 388.8" style="fill:#ff0800;fill-opacity:0.75;"/>
    <path clip-path="url(#p2265e122b5)" d="
M54 203.782
L54 206.257
L54.9007 203.782
L56.2667 200.291
L57.3818 197.633
L57.7381 196.8
L59.3276 193.309
L60.7636 190.351
L61.0278 189.818
L62.8574 186.327
L64.1455 184.008
L64.8099 182.836
L66.898 179.345
L67.5273 178.346
L69.1292 175.855
L70.9091 173.224
L71.5041 172.364
L74.0359 168.873
L74.2909 168.536
L76.738 165.382
L77.6727 164.229
L79.614 161.891
L81.0545 160.228
L82.6762 158.4
L84.4364 156.496
L85.9385 154.909
L87.8182 153.001
L89.416 151.418
L91.2 149.717
L93.1252 147.927
L94.5818 146.622
L97.0846 144.436
L97.9636 143.695
L101.315 140.945
L101.345 140.921
L104.727 138.304
L105.857 137.455
L108.109 135.815
L110.725 133.964
L111.491 133.439
L114.873 131.183
L115.968 130.473
L118.255 129.035
L121.622 126.982
L121.636 126.973
L125.018 125.024
L127.766 123.491
L128.4 123.147
L131.782 121.365
L134.461 120
L135.164 119.651
L138.545 118.023
L141.804 116.509
L141.927 116.453
L145.309 114.967
L148.691 113.534
L149.95 113.018
L152.073 112.17
L155.455 110.865
L158.836 109.609
L159.064 109.527
L162.218 108.422
L165.6 107.281
L168.982 106.186
L169.462 106.036
L172.364 105.152
L175.745 104.162
L179.127 103.214
L181.618 102.545
L182.509 102.311
L185.891 101.46
L189.273 100.647
L192.655 99.8721
L196.036 99.135
L196.423 99.0545
L199.418 98.4449
L202.8 97.7918
L206.182 97.1737
L209.564 96.5901
L212.945 96.0405
L216.068 95.5636
L216.327 95.5249
L219.709 95.0491
L223.091 95.493
L223.267 95.5636
L226.473 96.8625
L229.855 98.2461
L231.809 99.0545
L233.236 99.6515
L236.618 101.082
L240 102.525
L240.047 102.545
L243.382 104.002
L246.764 105.492
L247.986 106.036
L250.145 107.008
L253.527 108.545
L255.671 109.527
L256.909 110.101
L260.291 111.684
L263.119 113.018
L263.673 113.282
L267.055 114.912
L270.347 116.509
L270.436 116.553
L273.818 118.23
L277.2 119.916
L277.366 120
L280.582 121.639
L283.964 123.372
L284.194 123.491
L287.345 125.14
L290.727 126.92
L290.844 126.982
L294.109 128.736
L297.325 130.473
L297.491 130.563
L300.873 132.427
L303.645 133.964
L304.255 134.305
L307.636 136.216
L309.815 137.455
L311.018 138.146
L314.4 140.104
L315.844 140.945
L317.782 142.087
L321.164 144.092
L321.741 144.436
L324.545 146.131
L327.506 147.927
L327.927 148.186
L331.309 150.278
L333.143 151.418
L334.691 152.392
L338.073 154.531
L338.666 154.909
L341.455 156.705
L344.073 158.4
L344.836 158.9
L348.218 161.128
L349.369 161.891
L351.6 163.387
L354.562 165.382
L354.982 165.668
L358.364 167.987
L359.648 168.873
L361.745 170.335
L364.641 172.364
L365.127 172.709
L368.509 175.121
L369.533 175.855
L371.891 177.566
L374.333 179.345
L375.273 180.038
L378.655 182.545
L379.046 182.836
L382.036 185.093
L383.665 186.327
L385.418 187.672
L388.204 189.818
L388.8 190.283
L388.8 189.818
L388.8 186.327
L388.8 182.836
L388.8 179.345
L388.8 175.855
L388.8 172.364
L388.8 168.873
L388.8 165.382
L388.8 165.331
L385.418 162.891
L384.026 161.891
L382.036 160.477
L379.102 158.4
L378.655 158.086
L375.273 155.732
L374.086 154.909
L371.891 153.404
L368.982 151.418
L368.509 151.099
L365.127 148.828
L363.78 147.927
L361.745 146.582
L358.488 144.436
L358.364 144.355
L354.982 142.167
L353.086 140.945
L351.6 139.998
L348.218 137.852
L347.587 137.455
L344.836 135.738
L341.979 133.964
L341.455 133.641
L338.073 131.576
L336.256 130.473
L334.691 129.532
L331.309 127.51
L330.42 126.982
L327.927 125.517
L324.545 123.538
L324.465 123.491
L321.164 121.594
L318.377 120
L317.782 119.663
L314.4 117.763
L312.157 116.509
L311.018 115.879
L307.636 114.021
L305.798 113.018
L304.255 112.184
L300.873 110.369
L299.294 109.527
L297.491 108.576
L294.109 106.803
L292.634 106.036
L290.727 105.054
L287.345 103.324
L285.811 102.545
L283.964 101.617
L280.582 99.9296
L278.814 99.0545
L277.2 98.2632
L273.818 96.6186
L271.632 95.5636
L270.436 94.9919
L267.055 93.39
L264.254 92.0727
L263.673 91.8019
L260.291 90.2426
L256.909 88.6934
L256.663 88.5818
L253.527 87.1751
L250.145 85.6689
L248.835 85.0909
L246.764 84.1865
L243.382 82.7232
L240.763 81.6
L240 81.2756
L236.618 79.8552
L233.236 78.4461
L232.418 78.1091
L229.855 77.0638
L226.473 75.6979
L223.773 74.6182
L223.091 74.3479
L219.709 73.8418
L216.327 74.1762
L212.945 74.5389
L212.257 74.6182
L209.564 74.9346
L206.182 75.361
L202.8 75.8173
L199.418 76.304
L196.036 76.8214
L192.655 77.3701
L189.273 77.9506
L188.395 78.1091
L185.891 78.5702
L182.509 79.2256
L179.127 79.9147
L175.745 80.6382
L172.364 81.3966
L171.494 81.6
L168.982 82.1999
L165.6 83.0431
L162.218 83.9236
L158.836 84.842
L157.953 85.0909
L155.455 85.8107
L152.073 86.8235
L148.691 87.8769
L146.509 88.5818
L145.309 88.9784
L141.927 90.135
L138.545 91.3353
L136.537 92.0727
L135.164 92.5891
L131.782 93.9023
L128.4 95.2627
L127.674 95.5636
L125.018 96.6916
L121.636 98.1761
L119.697 99.0545
L118.255 99.7243
L114.873 101.343
L112.436 102.545
L111.491 103.024
L108.109 104.787
L105.783 106.036
L104.727 106.619
L101.345 108.538
L99.65 109.527
L97.9636 110.539
L94.5818 112.627
L93.9645 113.018
L91.2 114.82
L88.6821 116.509
L87.8182 117.106
L84.4364 119.503
L83.7534 120
L81.0545 122.023
L79.1481 123.491
L77.6727 124.663
L74.8283 126.982
L74.2909 127.434
L70.9091 130.354
L70.7749 130.473
L67.5273 133.442
L66.9708 133.964
L64.1455 136.705
L63.3909 137.455
L60.7636 140.162
L60.0201 140.945
L57.3818 143.834
L56.8444 144.436
L54 147.75
L54 147.927
L54 151.418
L54 154.909
L54 158.4
L54 161.891
L54 165.382
L54 168.873
L54 172.364
L54 175.855
L54 179.345
L54 182.836
L54 186.327
L54 189.818
L54 193.309
L54 196.8
L54 200.291
L54 203.782" style="fill:#ff0800;fill-opacity:0.75;"/>
   </g>
   <g id="PathCollection_6">
    <path clip-path="url(#p2265e122b5)" d="
M136.996 388.8
L138.545 388.8
L141.927 388.8
L145.309 388.8
L148.691 388.8
L152.073 388.8
L155.455 388.8
L158.836 388.8
L162.218 388.8
L165.6 388.8
L166.639 388.8
L165.6 387.978
L162.239 385.309
L162.218 385.292
L158.836 382.561
L157.921 381.818
L155.455 379.795
L153.671 378.327
L152.073 376.996
L149.49 374.836
L148.691 374.16
L145.377 371.345
L145.309 371.287
L141.927 368.367
L141.337 367.855
L138.545 365.405
L137.362 364.364
L135.164 362.403
L133.453 360.873
L131.782 359.359
L129.608 357.382
L128.4 356.27
L125.826 353.891
L125.018 353.135
L122.106 350.4
L121.636 349.953
L118.448 346.909
L118.255 346.721
L114.873 343.438
L114.852 343.418
L111.491 340.098
L111.318 339.927
L108.109 336.704
L107.844 336.436
L104.727 333.252
L104.428 332.945
L101.345 329.741
L101.07 329.455
L97.9636 326.169
L97.7705 325.964
L94.5818 322.531
L94.5274 322.473
L91.3423 318.982
L91.2 318.824
L88.2141 315.491
L87.8182 315.042
L85.1417 312
L84.4364 311.186
L82.1246 308.509
L81.0545 307.251
L79.1621 305.018
L77.6727 303.233
L76.2539 301.527
L74.2909 299.129
L73.3992 298.036
L70.9091 294.935
L70.5976 294.545
L67.8517 291.055
L67.5273 290.635
L65.1615 287.564
L64.1455 286.222
L62.5233 284.073
L60.7636 281.701
L59.9365 280.582
L57.4008 277.091
L57.3818 277.064
L54.9244 273.6
L54 272.273
L54 273.6
L54 277.091
L54 280.582
L54 284.073
L54 287.564
L54 291.055
L54 294.545
L54 298.036
L54 301.527
L54 305.018
L54 307.119
L55.1608 308.509
L57.3818 311.131
L58.1206 312
L60.7636 315.066
L61.1311 315.491
L64.1455 318.928
L64.1928 318.982
L67.3083 322.473
L67.5273 322.715
L70.476 325.964
L70.9091 326.435
L73.6958 329.455
L74.2909 330.091
L76.9683 332.945
L77.6727 333.687
L80.294 336.436
L81.0545 337.224
L83.6733 339.927
L84.4364 340.705
L87.1069 343.418
L87.8182 344.132
L90.5953 346.909
L91.2 347.506
L94.1389 350.4
L94.5818 350.831
L97.7383 353.891
L97.9636 354.107
L101.345 357.335
L101.395 357.382
L104.727 360.514
L105.11 360.873
L108.109 363.648
L108.884 364.364
L111.491 366.74
L112.717 367.855
L114.873 369.791
L116.609 371.345
L118.255 372.802
L120.561 374.836
L121.636 375.775
L124.573 378.327
L125.018 378.71
L128.4 381.607
L128.648 381.818
L131.782 384.461
L132.79 385.309
L135.164 387.282
L136.996 388.8" style="fill:#ff3f00;fill-opacity:0.75;"/>
    <path clip-path="url(#p2265e122b5)" d="
M385.418 162.891
L388.8 165.331
L388.8 161.891
L388.8 158.4
L388.8 154.909
L388.8 151.418
L388.8 147.927
L388.8 144.436
L388.8 143.031
L385.775 140.945
L385.418 140.702
L382.036 138.408
L380.626 137.455
L378.655 136.136
L375.395 133.964
L375.273 133.883
L371.891 131.665
L370.066 130.473
L368.509 129.466
L365.127 127.288
L364.649 126.982
L361.745 125.141
L359.132 123.491
L358.364 123.01
L354.982 120.908
L353.514 120
L351.6 118.827
L348.218 116.765
L347.796 116.509
L344.836 114.733
L341.968 113.018
L341.455 112.714
L338.073 110.725
L336.025 109.527
L334.691 108.754
L331.309 106.804
L329.969 106.036
L327.927 104.878
L324.545 102.968
L323.791 102.545
L321.164 101.086
L317.782 99.2159
L317.488 99.0545
L314.4 97.3764
L311.05 95.5636
L311.018 95.5464
L307.636 93.7484
L304.47 92.0727
L304.255 91.9595
L300.873 90.2009
L297.744 88.5818
L297.491 88.4519
L294.109 86.7326
L290.864 85.0909
L290.727 85.0224
L287.345 83.3425
L283.964 81.6711
L283.818 81.6
L280.582 80.0296
L277.2 78.3978
L276.596 78.1091
L273.818 76.7928
L270.436 75.2007
L269.188 74.6182
L267.055 73.6311
L263.673 72.0787
L261.584 71.1273
L260.291 70.5436
L256.909 69.0308
L253.771 67.6364
L253.527 67.5292
L250.145 66.0559
L246.764 64.5928
L245.719 64.1455
L243.382 63.1533
L240 61.73
L237.423 60.6545
L236.618 60.3218
L233.236 58.9384
L229.855 57.5659
L228.852 57.1636
L226.473 56.217
L223.091 54.8846
L219.709 54.3261
L216.327 54.5518
L212.945 54.8029
L209.564 55.0796
L206.182 55.3823
L202.8 55.7114
L199.418 56.0672
L196.036 56.4501
L192.655 56.8604
L190.311 57.1636
L189.273 57.3005
L185.891 57.7734
L182.509 58.2755
L179.127 58.807
L175.745 59.3685
L172.364 59.9602
L168.982 60.5828
L168.609 60.6545
L165.6 61.2451
L162.218 61.9407
L158.836 62.669
L155.455 63.4305
L152.413 64.1455
L152.073 64.2269
L148.691 65.069
L145.309 65.9465
L141.927 66.8598
L139.16 67.6364
L138.545 67.8124
L135.164 68.815
L131.782 69.8559
L128.4 70.9358
L127.819 71.1273
L125.018 72.0706
L121.636 73.2496
L118.255 74.4704
L117.857 74.6182
L114.873 75.7526
L111.491 77.0814
L108.958 78.1091
L108.109 78.4613
L104.727 79.9057
L101.345 81.3977
L100.899 81.6
L97.9636 82.9623
L94.5818 84.581
L93.5451 85.0909
L91.2 86.2728
L87.8182 88.0278
L86.7784 88.5818
L84.4364 89.8617
L81.0545 91.7634
L80.518 92.0727
L77.6727 93.7563
L74.7037 95.5636
L74.2909 95.8217
L70.9091 97.988
L69.2874 99.0545
L67.5273 100.245
L64.2129 102.545
L64.1455 102.594
L60.7636 105.065
L59.4675 106.036
L57.3818 107.646
L55.0044 109.527
L54 110.346
L54 113.018
L54 116.509
L54 120
L54 123.491
L54 126.982
L54 130.473
L54 133.964
L54 137.455
L54 140.945
L54 144.436
L54 147.75
L56.8444 144.436
L57.3818 143.834
L60.0201 140.945
L60.7636 140.162
L63.3909 137.455
L64.1455 136.705
L66.9708 133.964
L67.5273 133.442
L70.7749 130.473
L70.9091 130.354
L74.2909 127.434
L74.8283 126.982
L77.6727 124.663
L79.1481 123.491
L81.0545 122.023
L83.7534 120
L84.4364 119.503
L87.8182 117.106
L88.6821 116.509
L91.2 114.82
L93.9645 113.018
L94.5818 112.627
L97.9636 110.539
L99.65 109.527
L101.345 108.538
L104.727 106.619
L105.783 106.036
L108.109 104.787
L111.491 103.024
L112.436 102.545
L114.873 101.343
L118.255 99.7243
L119.697 99.0545
L121.636 98.1761
L125.018 96.6916
L127.674 95.5636
L128.4 95.2627
L131.782 93.9023
L135.164 92.5891
L136.537 92.0727
L138.545 91.3353
L141.927 90.135
L145.309 88.9784
L146.509 88.5818
L148.691 87.8769
L152.073 86.8235
L155.455 85.8107
L157.953 85.0909
L158.836 84.842
L162.218 83.9236
L165.6 83.0431
L168.982 82.1999
L171.494 81.6
L172.364 81.3966
L175.745 80.6382
L179.127 79.9147
L182.509 79.2256
L185.891 78.5702
L188.395 78.1091
L189.273 77.9506
L192.655 77.3701
L196.036 76.8214
L199.418 76.304
L202.8 75.8173
L206.182 75.361
L209.564 74.9346
L212.257 74.6182
L212.945 74.5389
L216.327 74.1762
L219.709 73.8418
L223.091 74.3479
L223.773 74.6182
L226.473 75.6979
L229.855 77.0638
L232.418 78.1091
L233.236 78.4461
L236.618 79.8552
L240 81.2756
L240.763 81.6
L243.382 82.7232
L246.764 84.1865
L248.835 85.0909
L250.145 85.6689
L253.527 87.1751
L256.663 88.5818
L256.909 88.6934
L260.291 90.2426
L263.673 91.8019
L264.254 92.0727
L267.055 93.39
L270.436 94.9919
L271.632 95.5636
L273.818 96.6186
L277.2 98.2632
L278.814 99.0545
L280.582 99.9296
L283.964 101.617
L285.811 102.545
L287.345 103.324
L290.727 105.054
L292.634 106.036
L294.109 106.803
L297.491 108.576
L299.294 109.527
L300.873 110.369
L304.255 112.184
L305.798 113.018
L307.636 114.021
L311.018 115.879
L312.157 116.509
L314.4 117.763
L317.782 119.663
L318.377 120
L321.164 121.594
L324.465 123.491
L324.545 123.538
L327.927 125.517
L330.42 126.982
L331.309 127.51
L334.691 129.532
L336.256 130.473
L338.073 131.576
L341.455 133.641
L341.979 133.964
L344.836 135.738
L347.587 137.455
L348.218 137.852
L351.6 139.998
L353.086 140.945
L354.982 142.167
L358.364 144.355
L358.488 144.436
L361.745 146.582
L363.78 147.927
L365.127 148.828
L368.509 151.099
L368.982 151.418
L371.891 153.404
L374.086 154.909
L375.273 155.732
L378.655 158.086
L379.102 158.4
L382.036 160.477
L384.026 161.891
L385.418 162.891" style="fill:#ff3f00;fill-opacity:0.75;"/>
   </g>
   <g id="PathCollection_7">
    <path clip-path="url(#p2265e122b5)" d="
M109.804 388.8
L111.491 388.8
L114.873 388.8
L118.255 388.8
L121.636 388.8
L125.018 388.8
L128.4 388.8
L131.782 388.8
L135.164 388.8
L136.996 388.8
L135.164 387.282
L132.79 385.309
L131.782 384.461
L128.648 381.818
L128.4 381.607
L125.018 378.71
L124.573 378.327
L121.636 375.775
L120.561 374.836
L118.255 372.802
L116.609 371.345
L114.873 369.791
L112.717 367.855
L111.491 366.74
L108.884 364.364
L108.109 363.648
L105.11 360.873
L104.727 360.514
L101.395 357.382
L101.345 357.335
L97.9636 354.107
L97.7383 353.891
L94.5818 350.831
L94.1389 350.4
L91.2 347.506
L90.5953 346.909
L87.8182 344.132
L87.1069 343.418
L84.4364 340.705
L83.6733 339.927
L81.0545 337.224
L80.294 336.436
L77.6727 333.687
L76.9683 332.945
L74.2909 330.091
L73.6958 329.455
L70.9091 326.435
L70.476 325.964
L67.5273 322.715
L67.3083 322.473
L64.1928 318.982
L64.1455 318.928
L61.1311 315.491
L60.7636 315.066
L58.1206 312
L57.3818 311.131
L55.1608 308.509
L54 307.119
L54 308.509
L54 312
L54 315.491
L54 318.982
L54 322.473
L54 325.964
L54 329.455
L54 332.945
L54 335.641
L54.7432 336.436
L57.3818 339.227
L58.0462 339.927
L60.7636 342.758
L61.3995 343.418
L64.1455 346.236
L64.8036 346.909
L67.5273 349.663
L68.259 350.4
L70.9091 353.04
L71.7661 353.891
L74.2909 356.369
L75.3254 357.382
L77.6727 359.653
L78.9373 360.873
L81.0545 362.892
L82.6024 364.364
L84.4364 366.088
L86.3211 367.855
L87.8182 369.242
L90.094 371.345
L91.2 372.356
L93.9215 374.836
L94.5818 375.432
L97.8041 378.327
L97.9636 378.469
L101.345 381.464
L101.746 381.818
L104.727 384.422
L105.746 385.309
L108.109 387.344
L109.804 388.8" style="fill:#ff7600;fill-opacity:0.75;"/>
    <path clip-path="url(#p2265e122b5)" d="
M388.8 143.031
L388.8 140.945
L388.8 137.455
L388.8 133.964
L388.8 130.473
L388.8 126.982
L388.8 123.491
L388.8 122.669
L385.418 120.436
L384.755 120
L382.036 118.231
L379.382 116.509
L378.655 116.042
L375.273 113.88
L373.919 113.018
L371.891 111.739
L368.509 109.615
L368.369 109.527
L365.127 107.522
L362.717 106.036
L361.745 105.443
L358.364 103.389
L356.969 102.545
L354.982 101.355
L351.6 99.3378
L351.122 99.0545
L348.218 97.3486
L345.168 95.5636
L344.836 95.3712
L341.455 93.4227
L339.101 92.0727
L338.073 91.4877
L334.691 89.5762
L332.922 88.5818
L331.309 87.6826
L327.927 85.8082
L326.625 85.0909
L324.545 83.955
L321.164 82.1176
L320.205 81.6
L317.782 80.3037
L314.4 78.5034
L313.654 78.1091
L311.018 76.728
L307.636 74.9647
L306.967 74.6182
L304.255 73.2267
L300.873 71.5005
L300.136 71.1273
L297.491 69.7989
L294.109 68.1098
L293.154 67.6364
L290.727 66.4438
L287.345 64.7917
L286.012 64.1455
L283.964 63.1604
L280.582 61.5454
L278.703 60.6545
L277.2 59.9478
L273.818 58.3698
L271.216 57.1636
L270.436 56.8051
L267.055 55.2642
L263.673 53.7323
L263.54 53.6727
L260.291 52.2276
L256.909 50.733
L255.651 50.1818
L253.527 49.2593
L250.145 47.8019
L247.548 46.6909
L246.764 46.3583
L243.382 44.9381
L240 43.5278
L239.206 43.2
L236.618 43.2
L233.236 43.2
L229.855 43.2
L226.473 43.2
L223.091 43.2
L219.709 43.2
L216.327 43.2
L212.945 43.2
L209.564 43.2
L206.182 43.2
L202.8 43.2
L199.418 43.2
L196.036 43.2
L192.655 43.2
L189.273 43.2
L185.891 43.2
L182.509 43.2
L179.127 43.2
L175.745 43.2
L172.364 43.2
L168.982 43.2
L165.6 43.2
L162.218 43.2
L158.836 43.2
L155.455 43.2
L154.453 43.2
L152.073 43.6548
L148.691 44.3304
L145.309 45.0368
L141.927 45.7745
L138.545 46.5439
L137.923 46.6909
L135.164 47.3549
L131.782 48.2013
L128.4 49.0814
L125.018 49.9956
L124.352 50.1818
L121.636 50.956
L118.255 51.955
L114.873 52.9905
L112.717 53.6727
L111.491 54.069
L108.109 55.1962
L104.727 56.3623
L102.475 57.1636
L101.345 57.5743
L97.9636 58.84
L94.5818 60.1473
L93.3066 60.6545
L91.2 61.5108
L87.8182 62.9265
L84.9928 64.1455
L84.4364 64.3909
L81.0545 65.9223
L77.6727 67.5009
L77.3897 67.6364
L74.2909 69.1537
L70.9091 70.859
L70.3898 71.1273
L67.5273 72.642
L64.1455 74.483
L63.9029 74.6182
L60.7636 76.4109
L57.8708 78.1091
L57.3818 78.4034
L54 80.4874
L54 81.6
L54 85.0909
L54 88.5818
L54 92.0727
L54 95.5636
L54 99.0545
L54 102.545
L54 106.036
L54 109.527
L54 110.346
L55.0044 109.527
L57.3818 107.646
L59.4675 106.036
L60.7636 105.065
L64.1455 102.594
L64.2129 102.545
L67.5273 100.245
L69.2874 99.0545
L70.9091 97.988
L74.2909 95.8217
L74.7037 95.5636
L77.6727 93.7563
L80.518 92.0727
L81.0545 91.7634
L84.4364 89.8617
L86.7784 88.5818
L87.8182 88.0278
L91.2 86.2728
L93.5451 85.0909
L94.5818 84.581
L97.9636 82.9623
L100.899 81.6
L101.345 81.3977
L104.727 79.9057
L108.109 78.4613
L108.958 78.1091
L111.491 77.0814
L114.873 75.7526
L117.857 74.6182
L118.255 74.4704
L121.636 73.2496
L125.018 72.0706
L127.819 71.1273
L128.4 70.9358
L131.782 69.8559
L135.164 68.815
L138.545 67.8124
L139.16 67.6364
L141.927 66.8598
L145.309 65.9465
L148.691 65.069
L152.073 64.2269
L152.413 64.1455
L155.455 63.4305
L158.836 62.669
L162.218 61.9407
L165.6 61.2451
L168.609 60.6545
L168.982 60.5828
L172.364 59.9602
L175.745 59.3685
L179.127 58.807
L182.509 58.2755
L185.891 57.7734
L189.273 57.3005
L190.311 57.1636
L192.655 56.8604
L196.036 56.4501
L199.418 56.0672
L202.8 55.7114
L206.182 55.3823
L209.564 55.0796
L212.945 54.8029
L216.327 54.5518
L219.709 54.3261
L223.091 54.8846
L226.473 56.217
L228.852 57.1636
L229.855 57.5659
L233.236 58.9384
L236.618 60.3218
L237.423 60.6545
L240 61.73
L243.382 63.1533
L245.719 64.1455
L246.764 64.5928
L250.145 66.0559
L253.527 67.5292
L253.771 67.6364
L256.909 69.0308
L260.291 70.5436
L261.584 71.1273
L263.673 72.0787
L267.055 73.6311
L269.188 74.6182
L270.436 75.2007
L273.818 76.7928
L276.596 78.1091
L277.2 78.3978
L280.582 80.0296
L283.818 81.6
L283.964 81.6711
L287.345 83.3425
L290.727 85.0224
L290.864 85.0909
L294.109 86.7326
L297.491 88.4519
L297.744 88.5818
L300.873 90.2009
L304.255 91.9595
L304.47 92.0727
L307.636 93.7484
L311.018 95.5464
L311.05 95.5636
L314.4 97.3764
L317.488 99.0545
L317.782 99.2159
L321.164 101.086
L323.791 102.545
L324.545 102.968
L327.927 104.878
L329.969 106.036
L331.309 106.804
L334.691 108.754
L336.025 109.527
L338.073 110.725
L341.455 112.714
L341.968 113.018
L344.836 114.733
L347.796 116.509
L348.218 116.765
L351.6 118.827
L353.514 120
L354.982 120.908
L358.364 123.01
L359.132 123.491
L361.745 125.141
L364.649 126.982
L365.127 127.288
L368.509 129.466
L370.066 130.473
L371.891 131.665
L375.273 133.883
L375.395 133.964
L378.655 136.136
L380.626 137.455
L382.036 138.408
L385.418 140.702
L385.775 140.945
L388.8 143.031" style="fill:#ff7600;fill-opacity:0.75;"/>
   </g>
   <g id="PathCollection_8">
    <path clip-path="url(#p2265e122b5)" d="
M84.5377 388.8
L87.8182 388.8
L91.2 388.8
L94.5818 388.8
L97.9636 388.8
L101.345 388.8
L104.727 388.8
L108.109 388.8
L109.804 388.8
L108.109 387.344
L105.746 385.309
L104.727 384.422
L101.746 381.818
L101.345 381.464
L97.9636 378.469
L97.8041 378.327
L94.5818 375.432
L93.9215 374.836
L91.2 372.356
L90.094 371.345
L87.8182 369.242
L86.3211 367.855
L84.4364 366.088
L82.6024 364.364
L81.0545 362.892
L78.9373 360.873
L77.6727 359.653
L75.3254 357.382
L74.2909 356.369
L71.7661 353.891
L70.9091 353.04
L68.259 350.4
L67.5273 349.663
L64.8036 346.909
L64.1455 346.236
L61.3995 343.418
L60.7636 342.758
L58.0462 339.927
L57.3818 339.227
L54.7432 336.436
L54 335.641
L54 336.436
L54 339.927
L54 343.418
L54 346.909
L54 350.4
L54 353.891
L54 357.382
L54 360.385
L54.4937 360.873
L57.3818 363.692
L58.0715 364.364
L60.7636 366.956
L61.699 367.855
L64.1455 370.179
L65.377 371.345
L67.5273 373.361
L69.1056 374.836
L70.9091 376.504
L72.8855 378.327
L74.2909 379.61
L76.717 381.818
L77.6727 382.679
L80.6007 385.309
L81.0545 385.713
L84.4364 388.71
L84.5377 388.8" style="fill:#ffb000;fill-opacity:0.75;"/>
    <path clip-path="url(#p2265e122b5)" d="
M385.418 120.436
L388.8 122.669
L388.8 120
L388.8 116.509
L388.8 113.018
L388.8 109.527
L388.8 106.036
L388.8 103.822
L386.808 102.545
L385.418 101.663
L382.036 99.5237
L381.291 99.0545
L378.655 97.4099
L375.685 95.5636
L375.273 95.3096
L371.891 93.2368
L369.984 92.0727
L368.509 91.1799
L365.127 89.1422
L364.192 88.5818
L361.745 87.1277
L358.364 85.1252
L358.305 85.0909
L354.982 83.1521
L352.311 81.6
L351.6 81.1899
L348.218 79.2521
L346.214 78.1091
L344.836 77.3296
L341.455 75.4269
L340.009 74.6182
L338.073 73.5432
L334.691 71.6754
L333.692 71.1273
L331.309 69.8296
L327.927 67.9968
L327.258 67.6364
L324.545 66.1881
L321.164 64.3902
L320.7 64.1455
L317.782 62.6177
L314.4 60.8548
L314.013 60.6545
L311.018 59.1175
L307.636 57.3897
L307.191 57.1636
L304.255 55.6868
L300.873 53.994
L300.226 53.6727
L297.491 52.3248
L294.109 50.6669
L293.112 50.1818
L290.727 49.0305
L287.345 47.4076
L285.841 46.6909
L283.964 45.8033
L280.582 44.2154
L278.405 43.2
L277.2 43.2
L273.818 43.2
L270.436 43.2
L267.055 43.2
L263.673 43.2
L260.291 43.2
L256.909 43.2
L253.527 43.2
L250.145 43.2
L246.764 43.2
L243.382 43.2
L240 43.2
L239.206 43.2
L240 43.5278
L243.382 44.9381
L246.764 46.3583
L247.548 46.6909
L250.145 47.8019
L253.527 49.2593
L255.651 50.1818
L256.909 50.733
L260.291 52.2276
L263.54 53.6727
L263.673 53.7323
L267.055 55.2642
L270.436 56.8051
L271.216 57.1636
L273.818 58.3698
L277.2 59.9478
L278.703 60.6545
L280.582 61.5454
L283.964 63.1604
L286.012 64.1455
L287.345 64.7917
L290.727 66.4438
L293.154 67.6364
L294.109 68.1098
L297.491 69.7989
L300.136 71.1273
L300.873 71.5005
L304.255 73.2267
L306.967 74.6182
L307.636 74.9647
L311.018 76.728
L313.654 78.1091
L314.4 78.5034
L317.782 80.3037
L320.205 81.6
L321.164 82.1176
L324.545 83.955
L326.625 85.0909
L327.927 85.8082
L331.309 87.6826
L332.922 88.5818
L334.691 89.5762
L338.073 91.4877
L339.101 92.0727
L341.455 93.4227
L344.836 95.3712
L345.168 95.5636
L348.218 97.3486
L351.122 99.0545
L351.6 99.3378
L354.982 101.355
L356.969 102.545
L358.364 103.389
L361.745 105.443
L362.717 106.036
L365.127 107.522
L368.369 109.527
L368.509 109.615
L371.891 111.739
L373.919 113.018
L375.273 113.88
L378.655 116.042
L379.382 116.509
L382.036 118.231
L384.755 120
L385.418 120.436" style="fill:#ffb000;fill-opacity:0.75;"/>
    <path clip-path="url(#p2265e122b5)" d="
M54 78.1091
L54 80.4874
L57.3818 78.4034
L57.8708 78.1091
L60.7636 76.4109
L63.9029 74.6182
L64.1455 74.483
L67.5273 72.642
L70.3898 71.1273
L70.9091 70.859
L74.2909 69.1537
L77.3897 67.6364
L77.6727 67.5009
L81.0545 65.9223
L84.4364 64.3909
L84.9928 64.1455
L87.8182 62.9265
L91.2 61.5108
L93.3066 60.6545
L94.5818 60.1473
L97.9636 58.84
L101.345 57.5743
L102.475 57.1636
L104.727 56.3623
L108.109 55.1962
L111.491 54.069
L112.717 53.6727
L114.873 52.9905
L118.255 51.955
L121.636 50.956
L124.352 50.1818
L125.018 49.9956
L128.4 49.0814
L131.782 48.2013
L135.164 47.3549
L137.923 46.6909
L138.545 46.5439
L141.927 45.7745
L145.309 45.0368
L148.691 44.3304
L152.073 43.6548
L154.453 43.2
L152.073 43.2
L148.691 43.2
L145.309 43.2
L141.927 43.2
L138.545 43.2
L135.164 43.2
L131.782 43.2
L128.4 43.2
L125.018 43.2
L121.636 43.2
L118.255 43.2
L114.873 43.2
L111.491 43.2
L108.109 43.2
L104.727 43.2
L101.345 43.2
L97.9636 43.2
L94.5818 43.2
L91.2 43.2
L87.8182 43.2
L84.4364 43.2
L81.0545 43.2
L80.4683 43.2
L77.6727 44.2866
L74.2909 45.6408
L71.743 46.6909
L70.9091 47.0419
L67.5273 48.5027
L64.1455 50.0071
L63.7622 50.1818
L60.7636 51.5786
L57.3818 53.1991
L56.4175 53.6727
L54 54.8867
L54 57.1636
L54 60.6545
L54 64.1455
L54 67.6364
L54 71.1273
L54 74.6182
L54 78.1091" style="fill:#ffb000;fill-opacity:0.75;"/>
   </g>
   <g id="PathCollection_9">
    <path clip-path="url(#p2265e122b5)" d="
M60.8435 388.8
L64.1455 388.8
L67.5273 388.8
L70.9091 388.8
L74.2909 388.8
L77.6727 388.8
L81.0545 388.8
L84.4364 388.8
L84.5377 388.8
L84.4364 388.71
L81.0545 385.713
L80.6007 385.309
L77.6727 382.679
L76.717 381.818
L74.2909 379.61
L72.8855 378.327
L70.9091 376.504
L69.1056 374.836
L67.5273 373.361
L65.377 371.345
L64.1455 370.179
L61.699 367.855
L60.7636 366.956
L58.0715 364.364
L57.3818 363.692
L54.4937 360.873
L54 360.385
L54 360.873
L54 364.364
L54 367.855
L54 371.345
L54 374.836
L54 378.327
L54 381.818
L54 382.544
L57.0041 385.309
L57.3818 385.653
L60.7636 388.728
L60.8435 388.8" style="fill:#ffe700;fill-opacity:0.75;"/>
    <path clip-path="url(#p2265e122b5)" d="
M388.8 103.822
L388.8 102.545
L388.8 99.0545
L388.8 95.5636
L388.8 92.0727
L388.8 88.5818
L388.8 86.1907
L387.034 85.0909
L385.418 84.0924
L382.036 82.0115
L381.364 81.6
L378.655 79.9546
L375.605 78.1091
L375.273 77.9094
L371.891 75.8906
L369.751 74.6182
L368.509 73.8853
L365.127 71.8997
L363.805 71.1273
L361.745 69.9333
L358.364 67.981
L357.763 67.6364
L354.982 66.0527
L351.621 64.1455
L351.6 64.1339
L348.218 62.2426
L345.368 60.6545
L344.836 60.3603
L341.455 58.5021
L339.008 57.1636
L338.073 56.6557
L334.691 54.8306
L332.535 53.6727
L331.309 53.0192
L327.927 51.2272
L325.944 50.1818
L324.545 49.45
L321.164 47.6911
L319.23 46.6909
L317.782 45.9473
L314.4 44.2215
L312.387 43.2
L311.018 43.2
L307.636 43.2
L304.255 43.2
L300.873 43.2
L297.491 43.2
L294.109 43.2
L290.727 43.2
L287.345 43.2
L283.964 43.2
L280.582 43.2
L278.405 43.2
L280.582 44.2154
L283.964 45.8033
L285.841 46.6909
L287.345 47.4076
L290.727 49.0305
L293.112 50.1818
L294.109 50.6669
L297.491 52.3248
L300.226 53.6727
L300.873 53.994
L304.255 55.6868
L307.191 57.1636
L307.636 57.3897
L311.018 59.1175
L314.013 60.6545
L314.4 60.8548
L317.782 62.6177
L320.7 64.1455
L321.164 64.3902
L324.545 66.1881
L327.258 67.6364
L327.927 67.9968
L331.309 69.8296
L333.692 71.1273
L334.691 71.6754
L338.073 73.5432
L340.009 74.6182
L341.455 75.4269
L344.836 77.3296
L346.214 78.1091
L348.218 79.2521
L351.6 81.1899
L352.311 81.6
L354.982 83.1521
L358.305 85.0909
L358.364 85.1252
L361.745 87.1277
L364.192 88.5818
L365.127 89.1422
L368.509 91.1799
L369.984 92.0727
L371.891 93.2368
L375.273 95.3096
L375.685 95.5636
L378.655 97.4099
L381.291 99.0545
L382.036 99.5237
L385.418 101.663
L386.808 102.545
L388.8 103.822" style="fill:#ffe700;fill-opacity:0.75;"/>
    <path clip-path="url(#p2265e122b5)" d="
M54 53.6727
L54 54.8867
L56.4175 53.6727
L57.3818 53.1991
L60.7636 51.5786
L63.7622 50.1818
L64.1455 50.0071
L67.5273 48.5027
L70.9091 47.0419
L71.743 46.6909
L74.2909 45.6408
L77.6727 44.2866
L80.4683 43.2
L77.6727 43.2
L74.2909 43.2
L70.9091 43.2
L67.5273 43.2
L64.1455 43.2
L60.7636 43.2
L57.3818 43.2
L54 43.2
L54 46.6909
L54 50.1818
L54 53.6727" style="fill:#ffe700;fill-opacity:0.75;"/>
   </g>
   <g id="PathCollection_10">
    <path clip-path="url(#p2265e122b5)" d="
M54 388.8
L57.3818 388.8
L60.7636 388.8
L60.8435 388.8
L60.7636 388.728
L57.3818 385.653
L57.0041 385.309
L54 382.544
L54 385.309
L54 388.8" style="fill:#ffff2e;fill-opacity:0.75;"/>
    <path clip-path="url(#p2265e122b5)" d="
M388.8 86.1907
L388.8 85.0909
L388.8 81.6
L388.8 78.1091
L388.8 74.6182
L388.8 71.1273
L388.8 69.5693
L385.616 67.6364
L385.418 67.5174
L382.036 65.4915
L379.782 64.1455
L378.655 63.4777
L375.273 61.4836
L373.86 60.6545
L371.891 59.5071
L368.509 57.5447
L367.849 57.1636
L365.127 55.6048
L361.745 53.6742
L361.743 53.6727
L358.364 51.77
L355.533 50.1818
L354.982 49.8746
L351.6 48.0021
L349.222 46.6909
L348.218 46.1411
L344.836 44.3002
L342.806 43.2
L341.455 43.2
L338.073 43.2
L334.691 43.2
L331.309 43.2
L327.927 43.2
L324.545 43.2
L321.164 43.2
L317.782 43.2
L314.4 43.2
L312.387 43.2
L314.4 44.2215
L317.782 45.9473
L319.23 46.6909
L321.164 47.6911
L324.545 49.45
L325.944 50.1818
L327.927 51.2272
L331.309 53.0192
L332.535 53.6727
L334.691 54.8306
L338.073 56.6557
L339.008 57.1636
L341.455 58.5021
L344.836 60.3603
L345.368 60.6545
L348.218 62.2426
L351.6 64.1339
L351.621 64.1455
L354.982 66.0527
L357.763 67.6364
L358.364 67.981
L361.745 69.9333
L363.805 71.1273
L365.127 71.8997
L368.509 73.8853
L369.751 74.6182
L371.891 75.8906
L375.273 77.9094
L375.605 78.1091
L378.655 79.9546
L381.364 81.6
L382.036 82.0115
L385.418 84.0924
L387.034 85.0909
L388.8 86.1907" style="fill:#ffff2e;fill-opacity:0.75;"/>
   </g>
   <g id="PathCollection_11">
    <path clip-path="url(#p2265e122b5)" d="
M388.8 69.5693
L388.8 67.6364
L388.8 64.1455
L388.8 60.6545
L388.8 57.1636
L388.8 53.7963
L388.593 53.6727
L385.418 51.7955
L382.681 50.1818
L382.036 49.8047
L378.655 47.8357
L376.681 46.6909
L375.273 45.88
L371.891 43.9413
L370.592 43.2
L368.509 43.2
L365.127 43.2
L361.745 43.2
L358.364 43.2
L354.982 43.2
L351.6 43.2
L348.218 43.2
L344.836 43.2
L342.806 43.2
L344.836 44.3002
L348.218 46.1411
L349.222 46.6909
L351.6 48.0021
L354.982 49.8746
L355.533 50.1818
L358.364 51.77
L361.743 53.6727
L361.745 53.6742
L365.127 55.6048
L367.849 57.1636
L368.509 57.5447
L371.891 59.5071
L373.86 60.6545
L375.273 61.4836
L378.655 63.4777
L379.782 64.1455
L382.036 65.4915
L385.418 67.5174
L385.616 67.6364
L388.8 69.5693" style="fill:#ffff85;fill-opacity:0.75;"/>
   </g>
   <g id="PathCollection_12">
    <path clip-path="url(#p2265e122b5)" d="
M388.8 53.7963
L388.8 53.6727
L388.8 50.1818
L388.8 46.6909
L388.8 43.2
L385.418 43.2
L382.036 43.2
L378.655 43.2
L375.273 43.2
L371.891 43.2
L370.592 43.2
L371.891 43.9413
L375.273 45.88
L376.681 46.6909
L378.655 47.8357
L382.036 49.8047
L382.681 50.1818
L385.418 51.7955
L388.593 53.6727
L388.8 53.7963" style="fill:#ffffd8;fill-opacity:0.75;"/>
   </g>
   <g id="LineCollection_1">
    <path clip-path="url(#p2265e122b5)" d="
M219.709 303.165
L214.829 298.036
L208.53 291.055
L202.605 284.073
L197.059 277.091
L191.872 270.109
L187.047 263.127
L182.509 256.04
L178.467 249.164
L174.72 242.182
L171.336 235.2
L168.322 228.218
L165.6 220.983
L164.52 217.745
L165.433 214.255
L168.982 210.305
L172.364 206.844
L175.745 203.64
L179.574 200.291
L183.918 196.8
L189.273 192.88
L193.863 189.818
L199.595 186.327
L206.182 182.728
L213.124 179.345
L219.709 176.487
L223.091 176.528
L233.236 181.064
L240 184.256
L250.145 189.303
L257.766 193.309
L267.055 198.458
L276.17 203.782
L283.964 208.58
L292.756 214.255
L295.632 217.745
L296.062 221.236
L296.36 224.727
L296.52 228.218
L296.536 231.709
L296.4 235.2
L296.108 238.691
L295.65 242.182
L295.02 245.673
L294.109 249.517
L293.186 252.655
L291.956 256.145
L290.506 259.636
L288.79 263.127
L286.813 266.618
L283.964 270.885
L280.582 275.165
L277.2 278.834
L273.818 282.033
L270.436 284.864
L266.815 287.564
L261.374 291.055
L256.909 293.519
L253.527 295.192
L246.764 298.091
L240 300.452
L236.468 301.527
L229.855 303.212
L223.091 304.607
L219.709 303.165
L219.709 303.165" style="fill:none;stroke:#000000;stroke-width:2.8;"/>
   </g>
   <g id="LineCollection_2">
    <path clip-path="url(#p2265e122b5)" d="
M219.709 344.637
L212.945 338.931
L206.115 332.945
L198.501 325.964
L191.235 318.982
L184.305 312
L177.702 305.018
L171.418 298.036
L165.441 291.055
L158.836 282.866
L154.414 277.091
L148.691 269.167
L144.576 263.127
L140.102 256.145
L135.92 249.164
L131.782 241.701
L128.4 235.099
L125.018 227.878
L122.194 221.236
L120.824 217.745
L121.145 214.255
L123.221 210.764
L125.453 207.273
L128.4 203.042
L131.782 198.609
L135.164 194.546
L138.545 190.802
L141.927 187.333
L145.309 184.105
L148.691 181.088
L152.073 178.257
L155.455 175.59
L159.853 172.364
L165.6 168.492
L172.364 164.384
L179.127 160.689
L185.891 157.361
L192.655 154.357
L200.029 151.418
L206.182 149.217
L212.945 147.023
L219.709 145.054
L223.091 145.298
L233.236 149.645
L243.382 154.237
L253.527 159.088
L263.673 164.203
L273.818 169.583
L285.034 175.855
L294.109 181.195
L302.481 186.327
L311.018 191.791
L318.556 196.8
L328.602 203.782
L338.166 210.764
L342.769 214.255
L345.501 217.745
L347.129 224.727
L348.379 231.709
L349.216 238.691
L349.63 245.673
L349.67 249.164
L349.592 252.655
L349.394 256.145
L349.07 259.636
L348.218 265.5
L348.025 266.618
L347.283 270.109
L346.393 273.6
L344.836 278.593
L344.133 280.582
L342.736 284.073
L341.156 287.564
L338.073 293.322
L337.352 294.545
L334.691 298.627
L331.309 303.152
L327.927 307.128
L324.545 310.664
L321.164 313.842
L317.782 316.725
L314.4 319.362
L309.97 322.473
L304.255 326.023
L297.491 329.644
L290.258 332.945
L283.964 335.401
L280.582 336.594
L273.818 338.687
L267.055 340.475
L260.291 341.964
L252.18 343.418
L246.764 344.19
L240 344.955
L233.236 345.514
L226.473 345.88
L223.091 345.993
L219.709 344.637
L219.709 344.637" style="fill:none;stroke:#000000;stroke-width:2.8;"/>
   </g>
   <g id="LineCollection_3">
    <path clip-path="url(#p2265e122b5)" d="
M388.8 295.627
L388.034 298.036
L386.789 301.527
L385.399 305.018
L383.833 308.509
L382.036 312.136
L378.655 318.055
L378.082 318.982
L375.273 323.161
L371.891 327.642
L368.509 331.654
L365.127 335.28
L361.745 338.582
L358.364 341.61
L354.982 344.405
L351.6 347
L346.719 350.4
L341.147 353.891
L334.691 357.47
L327.686 360.873
L321.164 363.646
L317.782 364.955
L311.018 367.327
L304.255 369.392
L296.891 371.345
L290.727 372.74
L283.964 374.063
L277.2 375.174
L270.436 376.077
L263.673 376.799
L256.909 377.347
L250.145 377.729
L243.382 377.952
L233.236 378.004
L223.091 377.733
L219.709 376.41
L212.945 371.345
L202.8 363.428
L195.353 357.382
L185.891 349.367
L179.127 343.41
L171.515 336.436
L164.197 329.455
L157.174 322.473
L150.438 315.491
L143.983 308.509
L137.801 301.527
L131.782 294.416
L125.018 285.992
L120.863 280.582
L114.873 272.374
L110.874 266.618
L106.268 259.636
L101.345 251.701
L97.818 245.673
L93.9844 238.691
L90.4095 231.709
L87.0965 224.727
L84.0488 217.745
L84.0203 214.255
L85.4916 210.764
L87.8182 205.753
L90.642 200.291
L92.6298 196.8
L94.7561 193.309
L97.9636 188.487
L101.345 183.836
L104.906 179.345
L108.109 175.625
L111.491 171.969
L114.873 168.553
L118.255 165.351
L122.17 161.891
L128.4 156.853
L131.782 154.319
L138.545 149.655
L141.927 147.491
L148.691 143.49
L155.455 139.861
L162.218 136.565
L168.982 133.568
L176.727 130.473
L182.509 128.379
L189.273 126.135
L198.225 123.491
L202.8 122.278
L212.359 120
L219.709 118.491
L223.091 118.854
L234.189 123.491
L243.382 127.532
L253.527 132.204
L264.411 137.455
L273.818 142.214
L284.64 147.927
L297.202 154.909
L304.255 159
L314.861 165.382
L325.935 172.364
L336.511 179.345
L346.626 186.327
L356.311 193.309
L365.598 200.291
L375.273 207.893
L383.047 214.255
L385.704 217.745
L387.794 224.727
L388.8 228.508
L388.8 228.508" style="fill:none;stroke:#000000;stroke-width:2.8;"/>
   </g>
   <g id="LineCollection_4">
    <path clip-path="url(#p2265e122b5)" d="
M199.546 388.8
L199.418 388.705
L196.036 386.17
L194.893 385.309
L192.655 383.603
L190.322 381.818
L189.273 381.005
L185.891 378.374
L185.832 378.327
L182.509 375.693
L181.432 374.836
L179.127 372.979
L177.109 371.345
L175.745 370.228
L172.862 367.855
L172.364 367.439
L168.982 364.606
L168.693 364.364
L165.6 361.726
L164.604 360.873
L162.218 358.803
L160.586 357.382
L158.836 355.837
L156.64 353.891
L155.455 352.826
L152.764 350.4
L152.073 349.768
L148.959 346.909
L148.691 346.66
L145.309 343.499
L145.223 343.418
L141.927 340.281
L141.557 339.927
L138.545 337.008
L137.958 336.436
L135.164 333.678
L134.424 332.945
L131.782 330.288
L130.956 329.455
L128.4 326.836
L127.552 325.964
L125.018 323.319
L124.211 322.473
L121.636 319.733
L120.933 318.982
L118.255 316.076
L117.718 315.491
L114.873 312.343
L114.563 312
L111.491 308.533
L111.47 308.509
L108.44 305.018
L108.109 304.63
L105.471 301.527
L104.727 300.638
L102.561 298.036
L101.345 296.551
L99.7096 294.545
L97.9636 292.366
L96.9164 291.055
L94.5818 288.077
L94.1807 287.564
L91.5051 284.073
L91.2 283.667
L88.8908 280.582
L87.8182 279.121
L86.3326 277.091
L84.4364 274.448
L83.83 273.6
L81.3858 270.109
L81.0545 269.625
L79.0033 266.618
L77.6727 264.626
L76.675 263.127
L74.4015 259.636
L74.2909 259.462
L72.1927 256.145
L70.9091 254.07
L70.0369 252.655
L67.9379 249.164
L67.5273 248.462
L65.9009 245.673
L64.1455 242.587
L63.9156 242.182
L61.9949 238.691
L60.7636 236.392
L60.1278 235.2
L58.3215 231.709
L57.3818 229.837
L56.5726 228.218
L54.8832 224.727
L54 222.84" style="fill:none;stroke:#000000;stroke-width:2.8;"/>
    <path clip-path="url(#p2265e122b5)" d="
M351.916 388.8
L354.982 387.49
L358.364 385.976
L359.793 385.309
L361.745 384.366
L365.127 382.662
L366.737 381.818
L368.509 380.854
L371.891 378.939
L372.931 378.327
L375.273 376.897
L378.512 374.836
L378.655 374.742
L382.036 372.426
L383.555 371.345
L385.418 369.964
L388.16 367.855
L388.8 367.341" style="fill:none;stroke:#000000;stroke-width:2.8;"/>
    <path clip-path="url(#p2265e122b5)" d="
M54 206.257
L56.2667 200.291
L57.7381 196.8
L61.0278 189.818
L64.8099 182.836
L67.5273 178.346
L71.5041 172.364
L74.2909 168.536
L77.6727 164.229
L81.0545 160.228
L84.4364 156.496
L87.8182 153.001
L91.2 149.717
L94.5818 146.622
L97.9636 143.695
L101.345 140.921
L108.109 135.815
L111.491 133.439
L118.255 129.035
L125.018 125.024
L131.782 121.365
L138.545 118.023
L145.309 114.967
L152.073 112.17
L159.064 109.527
L165.6 107.281
L172.364 105.152
L181.618 102.545
L189.273 100.647
L196.423 99.0545
L206.182 97.1737
L216.327 95.5249
L219.709 95.0491
L223.267 95.5636
L236.618 101.082
L247.986 106.036
L260.291 111.684
L270.436 116.553
L284.194 123.491
L297.491 130.563
L311.018 138.146
L321.741 144.436
L333.143 151.418
L344.836 158.9
L354.982 165.668
L365.127 172.709
L375.273 180.038
L385.418 187.672
L388.8 190.283
L388.8 190.283" style="fill:none;stroke:#000000;stroke-width:2.8;"/>
   </g>
   <g id="LineCollection_5">
    <path clip-path="url(#p2265e122b5)" d="
M166.639 388.8
L165.6 387.978
L162.239 385.309
L162.218 385.292
L158.836 382.561
L157.921 381.818
L155.455 379.795
L153.671 378.327
L152.073 376.996
L149.49 374.836
L148.691 374.16
L145.377 371.345
L145.309 371.287
L141.927 368.367
L141.337 367.855
L138.545 365.405
L137.362 364.364
L135.164 362.403
L133.453 360.873
L131.782 359.359
L129.608 357.382
L128.4 356.27
L125.826 353.891
L125.018 353.135
L122.106 350.4
L121.636 349.953
L118.448 346.909
L118.255 346.721
L114.873 343.438
L114.852 343.418
L111.491 340.098
L111.318 339.927
L108.109 336.704
L107.844 336.436
L104.727 333.252
L104.428 332.945
L101.345 329.741
L101.07 329.455
L97.9636 326.169
L97.7705 325.964
L94.5818 322.531
L94.5274 322.473
L91.3423 318.982
L91.2 318.824
L88.2141 315.491
L87.8182 315.042
L85.1417 312
L84.4364 311.186
L82.1246 308.509
L81.0545 307.251
L79.1621 305.018
L77.6727 303.233
L76.2539 301.527
L74.2909 299.129
L73.3992 298.036
L70.9091 294.935
L70.5976 294.545
L67.8517 291.055
L67.5273 290.635
L65.1615 287.564
L64.1455 286.222
L62.5233 284.073
L60.7636 281.701
L59.9365 280.582
L57.4008 277.091
L57.3818 277.064
L54.9244 273.6
L54 272.273" style="fill:none;stroke:#000000;stroke-width:2.8;"/>
    <path clip-path="url(#p2265e122b5)" d="
M54 147.75
L56.8444 144.436
L57.3818 143.834
L60.7636 140.162
L64.1455 136.705
L67.5273 133.442
L70.9091 130.354
L74.8283 126.982
L81.0545 122.023
L84.4364 119.503
L91.2 114.82
L97.9636 110.539
L101.345 108.538
L108.109 104.787
L114.873 101.343
L121.636 98.1761
L128.4 95.2627
L136.537 92.0727
L141.927 90.135
L148.691 87.8769
L157.953 85.0909
L165.6 83.0431
L172.364 81.3966
L182.509 79.2256
L192.655 77.3701
L202.8 75.8173
L212.945 74.5389
L219.709 73.8418
L223.091 74.3479
L233.236 78.4461
L246.764 84.1865
L256.909 88.6934
L270.436 94.9919
L280.582 99.9296
L292.634 106.036
L304.255 112.184
L314.4 117.763
L324.545 123.538
L338.073 131.576
L348.218 137.852
L358.488 144.436
L368.982 151.418
L379.102 158.4
L388.8 165.331
L388.8 165.331" style="fill:none;stroke:#000000;stroke-width:2.8;"/>
   </g>
   <g id="LineCollection_6">
    <path clip-path="url(#p2265e122b5)" d="
M136.996 388.8
L135.164 387.282
L132.79 385.309
L131.782 384.461
L128.648 381.818
L128.4 381.607
L125.018 378.71
L124.573 378.327
L121.636 375.775
L120.561 374.836
L118.255 372.802
L116.609 371.345
L114.873 369.791
L112.717 367.855
L111.491 366.74
L108.884 364.364
L108.109 363.648
L105.11 360.873
L104.727 360.514
L101.395 357.382
L101.345 357.335
L97.9636 354.107
L97.7383 353.891
L94.5818 350.831
L94.1389 350.4
L91.2 347.506
L90.5953 346.909
L87.8182 344.132
L87.1069 343.418
L84.4364 340.705
L83.6733 339.927
L81.0545 337.224
L80.294 336.436
L77.6727 333.687
L76.9683 332.945
L74.2909 330.091
L73.6958 329.455
L70.9091 326.435
L70.476 325.964
L67.5273 322.715
L67.3083 322.473
L64.1928 318.982
L64.1455 318.928
L61.1311 315.491
L60.7636 315.066
L58.1206 312
L57.3818 311.131
L55.1608 308.509
L54 307.119" style="fill:none;stroke:#000000;stroke-width:2.8;"/>
    <path clip-path="url(#p2265e122b5)" d="
M388.8 143.031
L378.655 136.136
L368.509 129.466
L358.364 123.01
L347.796 116.509
L334.691 108.754
L323.791 102.545
L311.018 95.5464
L297.491 88.4519
L283.818 81.6
L269.188 74.6182
L256.909 69.0308
L245.719 64.1455
L233.236 58.9384
L223.091 54.8846
L219.709 54.3261
L209.564 55.0796
L199.418 56.0672
L189.273 57.3005
L179.127 58.807
L168.609 60.6545
L158.836 62.669
L152.073 64.2269
L141.927 66.8598
L135.164 68.815
L127.819 71.1273
L121.636 73.2496
L114.873 75.7526
L108.109 78.4613
L100.899 81.6
L93.5451 85.0909
L86.7784 88.5818
L80.518 92.0727
L74.2909 95.8217
L67.5273 100.245
L60.7636 105.065
L57.3818 107.646
L54 110.346
L54 110.346" style="fill:none;stroke:#000000;stroke-width:2.8;"/>
   </g>
   <g id="LineCollection_7">
    <path clip-path="url(#p2265e122b5)" d="
M109.804 388.8
L108.109 387.344
L105.746 385.309
L104.727 384.422
L101.746 381.818
L101.345 381.464
L97.9636 378.469
L97.8041 378.327
L94.5818 375.432
L93.9215 374.836
L91.2 372.356
L90.094 371.345
L87.8182 369.242
L86.3211 367.855
L84.4364 366.088
L82.6024 364.364
L81.0545 362.892
L78.9373 360.873
L77.6727 359.653
L75.3254 357.382
L74.2909 356.369
L71.7661 353.891
L70.9091 353.04
L68.259 350.4
L67.5273 349.663
L64.8036 346.909
L64.1455 346.236
L61.3995 343.418
L60.7636 342.758
L58.0462 339.927
L57.3818 339.227
L54.7432 336.436
L54 335.641" style="fill:none;stroke:#000000;stroke-width:2.8;"/>
    <path clip-path="url(#p2265e122b5)" d="
M54 80.4874
L57.3818 78.4034
L57.8708 78.1091
L60.7636 76.4109
L63.9029 74.6182
L64.1455 74.483
L67.5273 72.642
L70.3898 71.1273
L70.9091 70.859
L74.2909 69.1537
L77.3897 67.6364
L77.6727 67.5009
L81.0545 65.9223
L84.4364 64.3909
L84.9928 64.1455
L87.8182 62.9265
L91.2 61.5108
L93.3066 60.6545
L94.5818 60.1473
L97.9636 58.84
L101.345 57.5743
L102.475 57.1636
L104.727 56.3623
L108.109 55.1962
L111.491 54.069
L112.717 53.6727
L114.873 52.9905
L118.255 51.955
L121.636 50.956
L124.352 50.1818
L125.018 49.9956
L128.4 49.0814
L131.782 48.2013
L135.164 47.3549
L137.923 46.6909
L138.545 46.5439
L141.927 45.7745
L145.309 45.0368
L148.691 44.3304
L152.073 43.6548
L154.453 43.2" style="fill:none;stroke:#000000;stroke-width:2.8;"/>
    <path clip-path="url(#p2265e122b5)" d="
M239.206 43.2
L240 43.5278
L243.382 44.9381
L246.764 46.3583
L247.548 46.6909
L250.145 47.8019
L253.527 49.2593
L255.651 50.1818
L256.909 50.733
L260.291 52.2276
L263.54 53.6727
L263.673 53.7323
L267.055 55.2642
L270.436 56.8051
L271.216 57.1636
L273.818 58.3698
L277.2 59.9478
L278.703 60.6545
L280.582 61.5454
L283.964 63.1604
L286.012 64.1455
L287.345 64.7917
L290.727 66.4438
L293.154 67.6364
L294.109 68.1098
L297.491 69.7989
L300.136 71.1273
L300.873 71.5005
L304.255 73.2267
L306.967 74.6182
L307.636 74.9647
L311.018 76.728
L313.654 78.1091
L314.4 78.5034
L317.782 80.3037
L320.205 81.6
L321.164 82.1176
L324.545 83.955
L326.625 85.0909
L327.927 85.8082
L331.309 87.6826
L332.922 88.5818
L334.691 89.5762
L338.073 91.4877
L339.101 92.0727
L341.455 93.4227
L344.836 95.3712
L345.168 95.5636
L348.218 97.3486
L351.122 99.0545
L351.6 99.3378
L354.982 101.355
L356.969 102.545
L358.364 103.389
L361.745 105.443
L362.717 106.036
L365.127 107.522
L368.369 109.527
L368.509 109.615
L371.891 111.739
L373.919 113.018
L375.273 113.88
L378.655 116.042
L379.382 116.509
L382.036 118.231
L384.755 120
L385.418 120.436
L388.8 122.669" style="fill:none;stroke:#000000;stroke-width:2.8;"/>
   </g>
   <g id="LineCollection_8">
    <path clip-path="url(#p2265e122b5)" d="
M84.5377 388.8
L84.4364 388.71
L81.0545 385.713
L80.6007 385.309
L77.6727 382.679
L76.717 381.818
L74.2909 379.61
L72.8855 378.327
L70.9091 376.504
L69.1056 374.836
L67.5273 373.361
L65.377 371.345
L64.1455 370.179
L61.699 367.855
L60.7636 366.956
L58.0715 364.364
L57.3818 363.692
L54.4937 360.873
L54 360.385" style="fill:none;stroke:#000000;stroke-width:2.8;"/>
    <path clip-path="url(#p2265e122b5)" d="
M388.8 103.822
L386.808 102.545
L385.418 101.663
L382.036 99.5237
L381.291 99.0545
L378.655 97.4099
L375.685 95.5636
L375.273 95.3096
L371.891 93.2368
L369.984 92.0727
L368.509 91.1799
L365.127 89.1422
L364.192 88.5818
L361.745 87.1277
L358.364 85.1252
L358.305 85.0909
L354.982 83.1521
L352.311 81.6
L351.6 81.1899
L348.218 79.2521
L346.214 78.1091
L344.836 77.3296
L341.455 75.4269
L340.009 74.6182
L338.073 73.5432
L334.691 71.6754
L333.692 71.1273
L331.309 69.8296
L327.927 67.9968
L327.258 67.6364
L324.545 66.1881
L321.164 64.3902
L320.7 64.1455
L317.782 62.6177
L314.4 60.8548
L314.013 60.6545
L311.018 59.1175
L307.636 57.3897
L307.191 57.1636
L304.255 55.6868
L300.873 53.994
L300.226 53.6727
L297.491 52.3248
L294.109 50.6669
L293.112 50.1818
L290.727 49.0305
L287.345 47.4076
L285.841 46.6909
L283.964 45.8033
L280.582 44.2154
L278.405 43.2" style="fill:none;stroke:#000000;stroke-width:2.8;"/>
    <path clip-path="url(#p2265e122b5)" d="
M54 54.8867
L56.4175 53.6727
L57.3818 53.1991
L60.7636 51.5786
L63.7622 50.1818
L64.1455 50.0071
L67.5273 48.5027
L70.9091 47.0419
L71.743 46.6909
L74.2909 45.6408
L77.6727 44.2866
L80.4683 43.2" style="fill:none;stroke:#000000;stroke-width:2.8;"/>
   </g>
   <g id="LineCollection_9">
    <path clip-path="url(#p2265e122b5)" d="
M60.8435 388.8
L60.7636 388.728
L57.3818 385.653
L57.0041 385.309
L54 382.544" style="fill:none;stroke:#000000;stroke-width:2.8;"/>
    <path clip-path="url(#p2265e122b5)" d="
M388.8 86.1907
L387.034 85.0909
L385.418 84.0924
L382.036 82.0115
L381.364 81.6
L378.655 79.9546
L375.605 78.1091
L375.273 77.9094
L371.891 75.8906
L369.751 74.6182
L368.509 73.8853
L365.127 71.8997
L363.805 71.1273
L361.745 69.9333
L358.364 67.981
L357.763 67.6364
L354.982 66.0527
L351.621 64.1455
L351.6 64.1339
L348.218 62.2426
L345.368 60.6545
L344.836 60.3603
L341.455 58.5021
L339.008 57.1636
L338.073 56.6557
L334.691 54.8306
L332.535 53.6727
L331.309 53.0192
L327.927 51.2272
L325.944 50.1818
L324.545 49.45
L321.164 47.6911
L319.23 46.6909
L317.782 45.9473
L314.4 44.2215
L312.387 43.2" style="fill:none;stroke:#000000;stroke-width:2.8;"/>
   </g>
   <g id="LineCollection_10">
    <path clip-path="url(#p2265e122b5)" d="
M388.8 69.5693
L385.616 67.6364
L385.418 67.5174
L382.036 65.4915
L379.782 64.1455
L378.655 63.4777
L375.273 61.4836
L373.86 60.6545
L371.891 59.5071
L368.509 57.5447
L367.849 57.1636
L365.127 55.6048
L361.745 53.6742
L361.743 53.6727
L358.364 51.77
L355.533 50.1818
L354.982 49.8746
L351.6 48.0021
L349.222 46.6909
L348.218 46.1411
L344.836 44.3002
L342.806 43.2" style="fill:none;stroke:#000000;stroke-width:2.8;"/>
   </g>
   <g id="LineCollection_11">
    <path clip-path="url(#p2265e122b5)" d="
M388.8 53.7963
L388.593 53.6727
L385.418 51.7955
L382.681 50.1818
L382.036 49.8047
L378.655 47.8357
L376.681 46.6909
L375.273 45.88
L371.891 43.9413
L370.592 43.2" style="fill:none;stroke:#000000;stroke-width:2.8;"/>
   </g>
   <g id="patch_3">
    <path d="
M54 43.2
L388.8 43.2" style="fill:none;stroke:#262626;stroke-linecap:square;stroke-linejoin:miter;stroke-width:1.25;"/>
   </g>
   <g id="patch_4">
    <path d="
M388.8 388.8
L388.8 43.2" style="fill:none;stroke:#262626;stroke-linecap:square;stroke-linejoin:miter;stroke-width:1.25;"/>
   </g>
   <g id="patch_5">
    <path d="
M54 388.8
L388.8 388.8" style="fill:none;stroke:#262626;stroke-linecap:square;stroke-linejoin:miter;stroke-width:1.25;"/>
   </g>
   <g id="patch_6">
    <path d="
M54 388.8
L54 43.2" style="fill:none;stroke:#262626;stroke-linecap:square;stroke-linejoin:miter;stroke-width:1.25;"/>
   </g>
  </g>
 </g>
 <defs>
  <clipPath id="p2265e122b5">
   <rect height="345.6" width="334.8" x="54.0" y="43.2"/>
  </clipPath>
 </defs>
</svg>
