<?xml version="1.0" encoding="utf-8" standalone="no"?>
<!DOCTYPE svg PUBLIC "-//W3C//DTD SVG 1.1//EN"
  "http://www.w3.org/Graphics/SVG/1.1/DTD/svg11.dtd">
<!-- Created with matplotlib (http://matplotlib.org/) -->
<svg height="345.6pt" version="1.1" viewBox="0 0 460.8 345.6" width="460.8pt" xmlns="http://www.w3.org/2000/svg" xmlns:xlink="http://www.w3.org/1999/xlink">
 <defs>
  <style type="text/css">
*{stroke-linecap:butt;stroke-linejoin:round;}
  </style>
 </defs>
 <g id="figure_1">
  <g id="patch_1">
   <path d="M 0 345.6 
L 460.8 345.6 
L 460.8 0 
L 0 0 
z
" style="fill:#ffffff;"/>
  </g>
  <g id="axes_1">
   <g id="patch_2">
    <path d="M 57.6 307.584 
L 414.72 307.584 
L 414.72 41.472 
L 57.6 41.472 
z
" style="fill:#ffffff;"/>
   </g>
   <g id="PolyCollection_1">
    <defs>
     <path d="M 77.521611 -125.204426 
L 77.358389 -125.204426 
L 77.324467 -126.604849 
L 77.280668 -128.005272 
L 77.225858 -129.405695 
L 77.159388 -130.806118 
L 77.081268 -132.206541 
L 76.992264 -133.606964 
L 76.893892 -135.007387 
L 76.788265 -136.40781 
L 76.677801 -137.808233 
L 76.56481 -139.208656 
L 76.45104 -140.609079 
L 76.33726 -142.009502 
L 76.222992 -143.409925 
L 76.106472 -144.810348 
L 75.984896 -146.210771 
L 75.854924 -147.611194 
L 75.713381 -149.011617 
L 75.55799 -150.41204 
L 75.387978 -151.812463 
L 75.204369 -153.212886 
L 75.009853 -154.613309 
L 74.808171 -156.013733 
L 74.603091 -157.414156 
L 74.397129 -158.814579 
L 74.190258 -160.215002 
L 73.978861 -161.615425 
L 73.755194 -163.015848 
L 73.50751 -164.416271 
L 73.22093 -165.816694 
L 72.878999 -167.217117 
L 72.465749 -168.61754 
L 71.968034 -170.017963 
L 71.377795 -171.418386 
L 70.693968 -172.818809 
L 69.923721 -174.219232 
L 69.08284 -175.619655 
L 68.195117 -177.020078 
L 67.290777 -178.420501 
L 66.404049 -179.820924 
L 65.570138 -181.221347 
L 64.821928 -182.62177 
L 64.186812 -184.022193 
L 63.684059 -185.422616 
L 63.323052 -186.823039 
L 63.102672 -188.223462 
L 63.011924 -189.623885 
L 63.03175 -191.024308 
L 63.137794 -192.424731 
L 63.303758 -193.825154 
L 63.504888 -195.225577 
L 63.721105 -196.626 
L 63.939377 -198.026423 
L 64.155005 -199.426846 
L 64.371688 -200.827269 
L 64.600397 -202.227692 
L 64.857249 -203.628115 
L 65.160718 -205.028538 
L 65.528585 -206.428961 
L 65.975064 -207.829384 
L 66.508484 -209.229807 
L 67.129837 -210.63023 
L 67.832352 -212.030653 
L 68.602106 -213.431076 
L 69.419522 -214.831499 
L 70.261488 -216.231922 
L 71.103735 -217.632345 
L 71.923113 -219.032768 
L 72.699438 -220.433191 
L 73.416711 -221.833614 
L 74.063634 -223.234038 
L 74.633499 -224.634461 
L 75.123609 -226.034884 
L 75.534464 -227.435307 
L 75.868924 -228.83573 
L 76.131523 -230.236153 
L 76.328007 -231.636576 
L 76.4651 -233.036999 
L 76.55044 -234.437422 
L 76.592563 -235.837845 
L 76.600834 -237.238268 
L 76.585241 -238.638691 
L 76.55601 -240.039114 
L 76.523061 -241.439537 
L 76.495362 -242.83996 
L 76.480288 -244.240383 
L 76.483087 -245.640806 
L 76.506555 -247.041229 
L 76.550983 -248.441652 
L 76.614383 -249.842075 
L 76.692961 -251.242498 
L 76.781767 -252.642921 
L 76.875395 -254.043344 
L 76.968646 -255.443767 
L 77.057067 -256.84419 
L 77.137288 -258.244613 
L 77.207172 -259.645036 
L 77.265773 -261.045459 
L 77.313162 -262.445882 
L 77.350171 -263.846305 
L 77.529829 -263.846305 
L 77.529829 -263.846305 
L 77.566838 -262.445882 
L 77.614227 -261.045459 
L 77.672828 -259.645036 
L 77.742712 -258.244613 
L 77.822933 -256.84419 
L 77.911354 -255.443767 
L 78.004605 -254.043344 
L 78.098233 -252.642921 
L 78.187039 -251.242498 
L 78.265617 -249.842075 
L 78.329017 -248.441652 
L 78.373445 -247.041229 
L 78.396913 -245.640806 
L 78.399712 -244.240383 
L 78.384638 -242.83996 
L 78.356939 -241.439537 
L 78.32399 -240.039114 
L 78.294759 -238.638691 
L 78.279166 -237.238268 
L 78.287437 -235.837845 
L 78.32956 -234.437422 
L 78.4149 -233.036999 
L 78.551993 -231.636576 
L 78.748477 -230.236153 
L 79.011076 -228.83573 
L 79.345536 -227.435307 
L 79.756391 -226.034884 
L 80.246501 -224.634461 
L 80.816366 -223.234038 
L 81.463289 -221.833614 
L 82.180562 -220.433191 
L 82.956887 -219.032768 
L 83.776265 -217.632345 
L 84.618512 -216.231922 
L 85.460478 -214.831499 
L 86.277894 -213.431076 
L 87.047648 -212.030653 
L 87.750163 -210.63023 
L 88.371516 -209.229807 
L 88.904936 -207.829384 
L 89.351415 -206.428961 
L 89.719282 -205.028538 
L 90.022751 -203.628115 
L 90.279603 -202.227692 
L 90.508312 -200.827269 
L 90.724995 -199.426846 
L 90.940623 -198.026423 
L 91.158895 -196.626 
L 91.375112 -195.225577 
L 91.576242 -193.825154 
L 91.742206 -192.424731 
L 91.84825 -191.024308 
L 91.868076 -189.623885 
L 91.777328 -188.223462 
L 91.556948 -186.823039 
L 91.195941 -185.422616 
L 90.693188 -184.022193 
L 90.058072 -182.62177 
L 89.309862 -181.221347 
L 88.475951 -179.820924 
L 87.589223 -178.420501 
L 86.684883 -177.020078 
L 85.79716 -175.619655 
L 84.956279 -174.219232 
L 84.186032 -172.818809 
L 83.502205 -171.418386 
L 82.911966 -170.017963 
L 82.414251 -168.61754 
L 82.001001 -167.217117 
L 81.65907 -165.816694 
L 81.37249 -164.416271 
L 81.124806 -163.015848 
L 80.901139 -161.615425 
L 80.689742 -160.215002 
L 80.482871 -158.814579 
L 80.276909 -157.414156 
L 80.071829 -156.013733 
L 79.870147 -154.613309 
L 79.675631 -153.212886 
L 79.492022 -151.812463 
L 79.32201 -150.41204 
L 79.166619 -149.011617 
L 79.025076 -147.611194 
L 78.895104 -146.210771 
L 78.773528 -144.810348 
L 78.657008 -143.409925 
L 78.54274 -142.009502 
L 78.42896 -140.609079 
L 78.31519 -139.208656 
L 78.202199 -137.808233 
L 78.091735 -136.40781 
L 77.986108 -135.007387 
L 77.887736 -133.606964 
L 77.798732 -132.206541 
L 77.720612 -130.806118 
L 77.654142 -129.405695 
L 77.599332 -128.005272 
L 77.555533 -126.604849 
L 77.521611 -125.204426 
z
" id="m335d0b8869" style="stroke:#3d3d3d;stroke-width:1.5;"/>
    </defs>
    <g clip-path="url(#p162e96854f)">
     <use style="fill:#3274a1;stroke:#3d3d3d;stroke-width:1.5;" x="0" xlink:href="#m335d0b8869" y="345.6"/>
    </g>
   </g>
   <g id="PolyCollection_2">
    <defs>
     <path d="M 117.146515 -55.463093 
L 117.093485 -55.463093 
L 117.082065 -57.852678 
L 117.067595 -60.242263 
L 117.050092 -62.631848 
L 117.029928 -65.021433 
L 117.007878 -67.411018 
L 116.985089 -69.800603 
L 116.962964 -72.190188 
L 116.942952 -74.579773 
L 116.926274 -76.969358 
L 116.913633 -79.358942 
L 116.904975 -81.748527 
L 116.899355 -84.138112 
L 116.894962 -86.527697 
L 116.889326 -88.917282 
L 116.879683 -91.306867 
L 116.863454 -93.696452 
L 116.838742 -96.086037 
L 116.804775 -98.475622 
L 116.762171 -100.865207 
L 116.712974 -103.254792 
L 116.660408 -105.644377 
L 116.608369 -108.033961 
L 116.560713 -110.423546 
L 116.520471 -112.813131 
L 116.489128 -115.202716 
L 116.466115 -117.592301 
L 116.448637 -119.981886 
L 116.431886 -122.371471 
L 116.409609 -124.761056 
L 116.37493 -127.150641 
L 116.321263 -129.540226 
L 116.243145 -131.929811 
L 116.136839 -134.319396 
L 116.000625 -136.70898 
L 115.834764 -139.098565 
L 115.641201 -141.48815 
L 115.423112 -143.877735 
L 115.184418 -146.26732 
L 114.929349 -148.656905 
L 114.662113 -151.04649 
L 114.386661 -153.436075 
L 114.106521 -155.82566 
L 113.824654 -158.215245 
L 113.543311 -160.60483 
L 113.263909 -162.994415 
L 112.986934 -165.383999 
L 112.711941 -167.773584 
L 112.437645 -170.163169 
L 112.162115 -172.552754 
L 111.883059 -174.942339 
L 111.598149 -177.331924 
L 111.305399 -179.721509 
L 111.003583 -182.111094 
L 110.692718 -184.500679 
L 110.37458 -186.890264 
L 110.053199 -189.279849 
L 109.735188 -191.669434 
L 109.429751 -194.059018 
L 109.148228 -196.448603 
L 108.903118 -198.838188 
L 108.706662 -201.227773 
L 108.569231 -203.617358 
L 108.497848 -206.006943 
L 108.495187 -208.396528 
L 108.559331 -210.786113 
L 108.684352 -213.175698 
L 108.86161 -215.565283 
L 109.081463 -217.954868 
L 109.334978 -220.344453 
L 109.61526 -222.734037 
L 109.91811 -225.123622 
L 110.241937 -227.513207 
L 110.587021 -229.902792 
L 110.954369 -232.292377 
L 111.344501 -234.681962 
L 111.756429 -237.071547 
L 112.187061 -239.461132 
L 112.631068 -241.850717 
L 113.081215 -244.240302 
L 113.529016 -246.629887 
L 113.965564 -249.019472 
L 114.382401 -251.409056 
L 114.772266 -253.798641 
L 115.129659 -256.188226 
L 115.451126 -258.577811 
L 115.735287 -260.967396 
L 115.982607 -263.356981 
L 116.195001 -265.746566 
L 116.375342 -268.136151 
L 116.526987 -270.525736 
L 116.653379 -272.915321 
L 116.757779 -275.304906 
L 116.843134 -277.694491 
L 116.912058 -280.084075 
L 116.96687 -282.47366 
L 117.009664 -284.863245 
L 117.042363 -287.25283 
L 117.066746 -289.642415 
L 117.084445 -292.032 
L 117.155555 -292.032 
L 117.155555 -292.032 
L 117.173254 -289.642415 
L 117.197637 -287.25283 
L 117.230336 -284.863245 
L 117.27313 -282.47366 
L 117.327942 -280.084075 
L 117.396866 -277.694491 
L 117.482221 -275.304906 
L 117.586621 -272.915321 
L 117.713013 -270.525736 
L 117.864658 -268.136151 
L 118.044999 -265.746566 
L 118.257393 -263.356981 
L 118.504713 -260.967396 
L 118.788874 -258.577811 
L 119.110341 -256.188226 
L 119.467734 -253.798641 
L 119.857599 -251.409056 
L 120.274436 -249.019472 
L 120.710984 -246.629887 
L 121.158785 -244.240302 
L 121.608932 -241.850717 
L 122.052939 -239.461132 
L 122.483571 -237.071547 
L 122.895499 -234.681962 
L 123.285631 -232.292377 
L 123.652979 -229.902792 
L 123.998063 -227.513207 
L 124.32189 -225.123622 
L 124.62474 -222.734037 
L 124.905022 -220.344453 
L 125.158537 -217.954868 
L 125.37839 -215.565283 
L 125.555648 -213.175698 
L 125.680669 -210.786113 
L 125.744813 -208.396528 
L 125.742152 -206.006943 
L 125.670769 -203.617358 
L 125.533338 -201.227773 
L 125.336882 -198.838188 
L 125.091772 -196.448603 
L 124.810249 -194.059018 
L 124.504812 -191.669434 
L 124.186801 -189.279849 
L 123.86542 -186.890264 
L 123.547282 -184.500679 
L 123.236417 -182.111094 
L 122.934601 -179.721509 
L 122.641851 -177.331924 
L 122.356941 -174.942339 
L 122.077885 -172.552754 
L 121.802355 -170.163169 
L 121.528059 -167.773584 
L 121.253066 -165.383999 
L 120.976091 -162.994415 
L 120.696689 -160.60483 
L 120.415346 -158.215245 
L 120.133479 -155.82566 
L 119.853339 -153.436075 
L 119.577887 -151.04649 
L 119.310651 -148.656905 
L 119.055582 -146.26732 
L 118.816888 -143.877735 
L 118.598799 -141.48815 
L 118.405236 -139.098565 
L 118.239375 -136.70898 
L 118.103161 -134.319396 
L 117.996855 -131.929811 
L 117.918737 -129.540226 
L 117.86507 -127.150641 
L 117.830391 -124.761056 
L 117.808114 -122.371471 
L 117.791363 -119.981886 
L 117.773885 -117.592301 
L 117.750872 -115.202716 
L 117.719529 -112.813131 
L 117.679287 -110.423546 
L 117.631631 -108.033961 
L 117.579592 -105.644377 
L 117.527026 -103.254792 
L 117.477829 -100.865207 
L 117.435225 -98.475622 
L 117.401258 -96.086037 
L 117.376546 -93.696452 
L 117.360317 -91.306867 
L 117.350674 -88.917282 
L 117.345038 -86.527697 
L 117.340645 -84.138112 
L 117.335025 -81.748527 
L 117.326367 -79.358942 
L 117.313726 -76.969358 
L 117.297048 -74.579773 
L 117.277036 -72.190188 
L 117.254911 -69.800603 
L 117.232122 -67.411018 
L 117.210072 -65.021433 
L 117.189908 -62.631848 
L 117.172405 -60.242263 
L 117.157935 -57.852678 
L 117.146515 -55.463093 
z
" id="m3b51c123a5" style="stroke:#3d3d3d;stroke-width:1.5;"/>
    </defs>
    <g clip-path="url(#p162e96854f)">
     <use style="fill:#e1812c;stroke:#3d3d3d;stroke-width:1.5;" x="0" xlink:href="#m3b51c123a5" y="345.6"/>
    </g>
   </g>
   <g id="PolyCollection_3">
    <defs>
     <path d="M 156.86351 -91.023671 
L 156.73649 -91.023671 
L 156.714767 -92.431157 
L 156.688198 -93.838642 
L 156.656638 -95.246128 
L 156.620255 -96.653613 
L 156.579581 -98.061099 
L 156.535517 -99.468585 
L 156.489286 -100.87607 
L 156.442309 -102.283556 
L 156.396031 -103.691041 
L 156.351682 -105.098527 
L 156.310014 -106.506012 
L 156.271041 -107.913498 
L 156.233823 -109.320983 
L 156.196325 -110.728469 
L 156.155377 -112.135955 
L 156.106767 -113.54344 
L 156.045436 -114.950926 
L 155.9658 -116.358411 
L 155.862132 -117.765897 
L 155.729 -119.173382 
L 155.561696 -120.580868 
L 155.356649 -121.988353 
L 155.111766 -123.395839 
L 154.826702 -124.803324 
L 154.503032 -126.21081 
L 154.14432 -127.618296 
L 153.75608 -129.025781 
L 153.345631 -130.433267 
L 152.921826 -131.840752 
L 152.494672 -133.248238 
L 152.074835 -134.655723 
L 151.673045 -136.063209 
L 151.29943 -137.470694 
L 150.962814 -138.87818 
L 150.670024 -140.285666 
L 150.425275 -141.693151 
L 150.229696 -143.100637 
L 150.081045 -144.508122 
L 149.973688 -145.915608 
L 149.898854 -147.323093 
L 149.845185 -148.730579 
L 149.799555 -150.138064 
L 149.748105 -151.54555 
L 149.677397 -152.953036 
L 149.575579 -154.360521 
L 149.433431 -155.768007 
L 149.245155 -157.175492 
L 149.00882 -158.582978 
L 148.72637 -159.990463 
L 148.403217 -161.397949 
L 148.047441 -162.805434 
L 147.668747 -164.21292 
L 147.277326 -165.620405 
L 146.882812 -167.027891 
L 146.493513 -168.435377 
L 146.116053 -169.842862 
L 145.75546 -171.250348 
L 145.415691 -172.657833 
L 145.100446 -174.065319 
L 144.814114 -175.472804 
L 144.562593 -176.88029 
L 144.353823 -178.287775 
L 144.197847 -179.695261 
L 144.106355 -181.102747 
L 144.091752 -182.510232 
L 144.16586 -183.917718 
L 144.338478 -185.325203 
L 144.616005 -186.732689 
L 145.000353 -188.140174 
L 145.488307 -189.54766 
L 146.071425 -190.955145 
L 146.736475 -192.362631 
L 147.466342 -193.770117 
L 148.241273 -195.177602 
L 149.040289 -196.585088 
L 149.842612 -197.992573 
L 150.628955 -199.400059 
L 151.382566 -200.807544 
L 152.089953 -202.21503 
L 152.741281 -203.622515 
L 153.330441 -205.030001 
L 153.854826 -206.437487 
L 154.314893 -207.844972 
L 154.713564 -209.252458 
L 155.055547 -210.659943 
L 155.346657 -212.067429 
L 155.593182 -213.474914 
L 155.80136 -214.8824 
L 155.97699 -216.289885 
L 156.125184 -217.697371 
L 156.250263 -219.104856 
L 156.35576 -220.512342 
L 156.444515 -221.919828 
L 156.518804 -223.327313 
L 156.580491 -224.734799 
L 156.631157 -226.142284 
L 156.672211 -227.54977 
L 156.704947 -228.957255 
L 156.730586 -230.364741 
L 156.869414 -230.364741 
L 156.869414 -230.364741 
L 156.895053 -228.957255 
L 156.927789 -227.54977 
L 156.968843 -226.142284 
L 157.019509 -224.734799 
L 157.081196 -223.327313 
L 157.155485 -221.919828 
L 157.24424 -220.512342 
L 157.349737 -219.104856 
L 157.474816 -217.697371 
L 157.62301 -216.289885 
L 157.79864 -214.8824 
L 158.006818 -213.474914 
L 158.253343 -212.067429 
L 158.544453 -210.659943 
L 158.886436 -209.252458 
L 159.285107 -207.844972 
L 159.745174 -206.437487 
L 160.269559 -205.030001 
L 160.858719 -203.622515 
L 161.510047 -202.21503 
L 162.217434 -200.807544 
L 162.971045 -199.400059 
L 163.757388 -197.992573 
L 164.559711 -196.585088 
L 165.358727 -195.177602 
L 166.133658 -193.770117 
L 166.863525 -192.362631 
L 167.528575 -190.955145 
L 168.111693 -189.54766 
L 168.599647 -188.140174 
L 168.983995 -186.732689 
L 169.261522 -185.325203 
L 169.43414 -183.917718 
L 169.508248 -182.510232 
L 169.493645 -181.102747 
L 169.402153 -179.695261 
L 169.246177 -178.287775 
L 169.037407 -176.88029 
L 168.785886 -175.472804 
L 168.499554 -174.065319 
L 168.184309 -172.657833 
L 167.84454 -171.250348 
L 167.483947 -169.842862 
L 167.106487 -168.435377 
L 166.717188 -167.027891 
L 166.322674 -165.620405 
L 165.931253 -164.21292 
L 165.552559 -162.805434 
L 165.196783 -161.397949 
L 164.87363 -159.990463 
L 164.59118 -158.582978 
L 164.354845 -157.175492 
L 164.166569 -155.768007 
L 164.024421 -154.360521 
L 163.922603 -152.953036 
L 163.851895 -151.54555 
L 163.800445 -150.138064 
L 163.754815 -148.730579 
L 163.701146 -147.323093 
L 163.626312 -145.915608 
L 163.518955 -144.508122 
L 163.370304 -143.100637 
L 163.174725 -141.693151 
L 162.929976 -140.285666 
L 162.637186 -138.87818 
L 162.30057 -137.470694 
L 161.926955 -136.063209 
L 161.525165 -134.655723 
L 161.105328 -133.248238 
L 160.678174 -131.840752 
L 160.254369 -130.433267 
L 159.84392 -129.025781 
L 159.45568 -127.618296 
L 159.096968 -126.21081 
L 158.773298 -124.803324 
L 158.488234 -123.395839 
L 158.243351 -121.988353 
L 158.038304 -120.580868 
L 157.871 -119.173382 
L 157.737868 -117.765897 
L 157.6342 -116.358411 
L 157.554564 -114.950926 
L 157.493233 -113.54344 
L 157.444623 -112.135955 
L 157.403675 -110.728469 
L 157.366177 -109.320983 
L 157.328959 -107.913498 
L 157.289986 -106.506012 
L 157.248318 -105.098527 
L 157.203969 -103.691041 
L 157.157691 -102.283556 
L 157.110714 -100.87607 
L 157.064483 -99.468585 
L 157.020419 -98.061099 
L 156.979745 -96.653613 
L 156.943362 -95.246128 
L 156.911802 -93.838642 
L 156.885233 -92.431157 
L 156.86351 -91.023671 
z
" id="m04ad4d20e8" style="stroke:#3d3d3d;stroke-width:1.5;"/>
    </defs>
    <g clip-path="url(#p162e96854f)">
     <use style="fill:#3a923a;stroke:#3d3d3d;stroke-width:1.5;" x="0" xlink:href="#m04ad4d20e8" y="345.6"/>
    </g>
   </g>
   <g id="PolyCollection_4">
    <defs>
     <path d="M 196.545946 -119.115469 
L 196.414054 -119.115469 
L 196.387523 -120.659026 
L 196.354244 -122.202584 
L 196.314128 -123.746141 
L 196.267721 -125.289698 
L 196.216276 -126.833256 
L 196.161707 -128.376813 
L 196.106371 -129.920371 
L 196.052687 -131.463928 
L 196.002616 -133.007486 
L 195.957065 -134.551043 
L 195.915331 -136.094601 
L 195.874666 -137.638158 
L 195.830108 -139.181715 
L 195.7746 -140.725273 
L 195.699453 -142.26883 
L 195.595094 -143.812388 
L 195.45202 -145.355945 
L 195.261843 -146.899503 
L 195.018293 -148.44306 
L 194.71805 -149.986618 
L 194.361323 -151.530175 
L 193.952085 -153.073733 
L 193.497931 -154.61729 
L 193.009546 -156.160847 
L 192.499786 -157.704405 
L 191.982432 -159.247962 
L 191.470695 -160.79152 
L 190.975639 -162.335077 
L 190.504712 -163.878635 
L 190.060649 -165.422192 
L 189.640975 -166.96575 
L 189.238315 -168.509307 
L 188.841541 -170.052864 
L 188.437687 -171.596422 
L 188.014313 -173.139979 
L 187.561915 -174.683537 
L 187.075903 -176.227094 
L 186.557741 -177.770652 
L 186.015016 -179.314209 
L 185.460449 -180.857767 
L 184.910125 -182.401324 
L 184.381389 -183.944882 
L 183.890936 -185.488439 
L 183.453493 -187.031996 
L 183.081347 -188.575554 
L 182.784627 -190.119111 
L 182.572061 -191.662669 
L 182.451773 -193.206226 
L 182.431676 -194.749784 
L 182.519216 -196.293341 
L 182.720407 -197.836899 
L 183.038414 -199.380456 
L 183.472061 -200.924013 
L 184.01474 -202.467571 
L 184.654085 -204.011128 
L 185.372578 -205.554686 
L 186.149016 -207.098243 
L 186.960558 -208.641801 
L 187.784923 -210.185358 
L 188.602317 -211.728916 
L 189.396758 -213.272473 
L 190.156617 -214.81603 
L 190.874405 -216.359588 
L 191.545981 -217.903145 
L 192.169443 -219.446703 
L 192.744004 -220.99026 
L 193.269093 -222.533818 
L 193.743827 -224.077375 
L 194.166906 -225.620933 
L 194.536873 -227.16449 
L 194.852607 -228.708048 
L 195.11391 -230.251605 
L 195.322011 -231.795162 
L 195.479871 -233.33872 
L 195.592227 -234.882277 
L 195.665353 -236.425835 
L 195.7066 -237.969392 
L 195.723808 -239.51295 
L 195.724695 -241.056507 
L 195.716342 -242.600065 
L 195.704832 -244.143622 
L 195.695077 -245.687179 
L 195.690809 -247.230737 
L 195.694685 -248.774294 
L 195.708419 -250.317852 
L 195.732902 -251.861409 
L 195.768275 -253.404967 
L 195.813955 -254.948524 
L 195.868658 -256.492082 
L 195.930456 -258.035639 
L 195.996903 -259.579197 
L 196.065238 -261.122754 
L 196.132648 -262.666311 
L 196.196549 -264.209869 
L 196.254824 -265.753426 
L 196.305998 -267.296984 
L 196.349295 -268.840541 
L 196.384613 -270.384099 
L 196.412398 -271.927656 
L 196.547602 -271.927656 
L 196.547602 -271.927656 
L 196.575387 -270.384099 
L 196.610705 -268.840541 
L 196.654002 -267.296984 
L 196.705176 -265.753426 
L 196.763451 -264.209869 
L 196.827352 -262.666311 
L 196.894762 -261.122754 
L 196.963097 -259.579197 
L 197.029544 -258.035639 
L 197.091342 -256.492082 
L 197.146045 -254.948524 
L 197.191725 -253.404967 
L 197.227098 -251.861409 
L 197.251581 -250.317852 
L 197.265315 -248.774294 
L 197.269191 -247.230737 
L 197.264923 -245.687179 
L 197.255168 -244.143622 
L 197.243658 -242.600065 
L 197.235305 -241.056507 
L 197.236192 -239.51295 
L 197.2534 -237.969392 
L 197.294647 -236.425835 
L 197.367773 -234.882277 
L 197.480129 -233.33872 
L 197.637989 -231.795162 
L 197.84609 -230.251605 
L 198.107393 -228.708048 
L 198.423127 -227.16449 
L 198.793094 -225.620933 
L 199.216173 -224.077375 
L 199.690907 -222.533818 
L 200.215996 -220.99026 
L 200.790557 -219.446703 
L 201.414019 -217.903145 
L 202.085595 -216.359588 
L 202.803383 -214.81603 
L 203.563242 -213.272473 
L 204.357683 -211.728916 
L 205.175077 -210.185358 
L 205.999442 -208.641801 
L 206.810984 -207.098243 
L 207.587422 -205.554686 
L 208.305915 -204.011128 
L 208.94526 -202.467571 
L 209.487939 -200.924013 
L 209.921586 -199.380456 
L 210.239593 -197.836899 
L 210.440784 -196.293341 
L 210.528324 -194.749784 
L 210.508227 -193.206226 
L 210.387939 -191.662669 
L 210.175373 -190.119111 
L 209.878653 -188.575554 
L 209.506507 -187.031996 
L 209.069064 -185.488439 
L 208.578611 -183.944882 
L 208.049875 -182.401324 
L 207.499551 -180.857767 
L 206.944984 -179.314209 
L 206.402259 -177.770652 
L 205.884097 -176.227094 
L 205.398085 -174.683537 
L 204.945687 -173.139979 
L 204.522313 -171.596422 
L 204.118459 -170.052864 
L 203.721685 -168.509307 
L 203.319025 -166.96575 
L 202.899351 -165.422192 
L 202.455288 -163.878635 
L 201.984361 -162.335077 
L 201.489305 -160.79152 
L 200.977568 -159.247962 
L 200.460214 -157.704405 
L 199.950454 -156.160847 
L 199.462069 -154.61729 
L 199.007915 -153.073733 
L 198.598677 -151.530175 
L 198.24195 -149.986618 
L 197.941707 -148.44306 
L 197.698157 -146.899503 
L 197.50798 -145.355945 
L 197.364906 -143.812388 
L 197.260547 -142.26883 
L 197.1854 -140.725273 
L 197.129892 -139.181715 
L 197.085334 -137.638158 
L 197.044669 -136.094601 
L 197.002935 -134.551043 
L 196.957384 -133.007486 
L 196.907313 -131.463928 
L 196.853629 -129.920371 
L 196.798293 -128.376813 
L 196.743724 -126.833256 
L 196.692279 -125.289698 
L 196.645872 -123.746141 
L 196.605756 -122.202584 
L 196.572477 -120.659026 
L 196.545946 -119.115469 
z
" id="m641cc41a11" style="stroke:#3d3d3d;stroke-width:1.5;"/>
    </defs>
    <g clip-path="url(#p162e96854f)">
     <use style="fill:#c03d3e;stroke:#3d3d3d;stroke-width:1.5;" x="0" xlink:href="#m641cc41a11" y="345.6"/>
    </g>
   </g>
   <g id="PolyCollection_5">
    <defs>
     <path d="M 236.280163 -65.390619 
L 236.039837 -65.390619 
L 235.992196 -67.168519 
L 235.930504 -68.946419 
L 235.852494 -70.724319 
L 235.756136 -72.502219 
L 235.639832 -74.280119 
L 235.502595 -76.058019 
L 235.344188 -77.835919 
L 235.165193 -79.613819 
L 234.967008 -81.391719 
L 234.751745 -83.169619 
L 234.522063 -84.947519 
L 234.280939 -86.725419 
L 234.031433 -88.503319 
L 233.776467 -90.281219 
L 233.51867 -92.059119 
L 233.260289 -93.837019 
L 233.003191 -95.614919 
L 232.748916 -97.392819 
L 232.498768 -99.170719 
L 232.253896 -100.948619 
L 232.015316 -102.726519 
L 231.783871 -104.504419 
L 231.5601 -106.282319 
L 231.344052 -108.060219 
L 231.135072 -109.838119 
L 230.931626 -111.616019 
L 230.731214 -113.393919 
L 230.530418 -115.171819 
L 230.325129 -116.949719 
L 230.110932 -118.727619 
L 229.883614 -120.505519 
L 229.639754 -122.283419 
L 229.377286 -124.061319 
L 229.095963 -125.839219 
L 228.797657 -127.617119 
L 228.486426 -129.395019 
L 228.168351 -131.172919 
L 227.851159 -132.950819 
L 227.543673 -134.728719 
L 227.255184 -136.506619 
L 226.994794 -138.284519 
L 226.770832 -140.062419 
L 226.590367 -141.840319 
L 226.458879 -143.618219 
L 226.38007 -145.396119 
L 226.355819 -147.174019 
L 226.386254 -148.951919 
L 226.469914 -150.729819 
L 226.603979 -152.507719 
L 226.784547 -154.285619 
L 227.006945 -156.063519 
L 227.26606 -157.841419 
L 227.556669 -159.619319 
L 227.873746 -161.397219 
L 228.212726 -163.175119 
L 228.569677 -164.953019 
L 228.941379 -166.730919 
L 229.325273 -168.508819 
L 229.719306 -170.286719 
L 230.121679 -172.064619 
L 230.530545 -173.842519 
L 230.943722 -175.620419 
L 231.358464 -177.398319 
L 231.771344 -179.176219 
L 232.178273 -180.954119 
L 232.574666 -182.732019 
L 232.955719 -184.509919 
L 233.316753 -186.287819 
L 233.65358 -188.065719 
L 233.96282 -189.843619 
L 234.242123 -191.621519 
L 234.490279 -193.399419 
L 234.707206 -195.177319 
L 234.893832 -196.955219 
L 235.051915 -198.733119 
L 235.183823 -200.511019 
L 235.292331 -202.288919 
L 235.380443 -204.066819 
L 235.451262 -205.844719 
L 235.507893 -207.622619 
L 235.553383 -209.400519 
L 235.590652 -211.178419 
L 235.622431 -212.956319 
L 235.65118 -214.734219 
L 235.678993 -216.512119 
L 235.70751 -218.29002 
L 235.737845 -220.06792 
L 235.770552 -221.84582 
L 235.805642 -223.62372 
L 235.842647 -225.40162 
L 235.880739 -227.17952 
L 235.918867 -228.95742 
L 235.955915 -230.73532 
L 235.990835 -232.51322 
L 236.022764 -234.29112 
L 236.051093 -236.06902 
L 236.07549 -237.84692 
L 236.095896 -239.62482 
L 236.112479 -241.40272 
L 236.207521 -241.40272 
L 236.207521 -241.40272 
L 236.224104 -239.62482 
L 236.24451 -237.84692 
L 236.268907 -236.06902 
L 236.297236 -234.29112 
L 236.329165 -232.51322 
L 236.364085 -230.73532 
L 236.401133 -228.95742 
L 236.439261 -227.17952 
L 236.477353 -225.40162 
L 236.514358 -223.62372 
L 236.549448 -221.84582 
L 236.582155 -220.06792 
L 236.61249 -218.29002 
L 236.641007 -216.512119 
L 236.66882 -214.734219 
L 236.697569 -212.956319 
L 236.729348 -211.178419 
L 236.766617 -209.400519 
L 236.812107 -207.622619 
L 236.868738 -205.844719 
L 236.939557 -204.066819 
L 237.027669 -202.288919 
L 237.136177 -200.511019 
L 237.268085 -198.733119 
L 237.426168 -196.955219 
L 237.612794 -195.177319 
L 237.829721 -193.399419 
L 238.077877 -191.621519 
L 238.35718 -189.843619 
L 238.66642 -188.065719 
L 239.003247 -186.287819 
L 239.364281 -184.509919 
L 239.745334 -182.732019 
L 240.141727 -180.954119 
L 240.548656 -179.176219 
L 240.961536 -177.398319 
L 241.376278 -175.620419 
L 241.789455 -173.842519 
L 242.198321 -172.064619 
L 242.600694 -170.286719 
L 242.994727 -168.508819 
L 243.378621 -166.730919 
L 243.750323 -164.953019 
L 244.107274 -163.175119 
L 244.446254 -161.397219 
L 244.763331 -159.619319 
L 245.05394 -157.841419 
L 245.313055 -156.063519 
L 245.535453 -154.285619 
L 245.716021 -152.507719 
L 245.850086 -150.729819 
L 245.933746 -148.951919 
L 245.964181 -147.174019 
L 245.93993 -145.396119 
L 245.861121 -143.618219 
L 245.729633 -141.840319 
L 245.549168 -140.062419 
L 245.325206 -138.284519 
L 245.064816 -136.506619 
L 244.776327 -134.728719 
L 244.468841 -132.950819 
L 244.151649 -131.172919 
L 243.833574 -129.395019 
L 243.522343 -127.617119 
L 243.224037 -125.839219 
L 242.942714 -124.061319 
L 242.680246 -122.283419 
L 242.436386 -120.505519 
L 242.209068 -118.727619 
L 241.994871 -116.949719 
L 241.789582 -115.171819 
L 241.588786 -113.393919 
L 241.388374 -111.616019 
L 241.184928 -109.838119 
L 240.975948 -108.060219 
L 240.7599 -106.282319 
L 240.536129 -104.504419 
L 240.304684 -102.726519 
L 240.066104 -100.948619 
L 239.821232 -99.170719 
L 239.571084 -97.392819 
L 239.316809 -95.614919 
L 239.059711 -93.837019 
L 238.80133 -92.059119 
L 238.543533 -90.281219 
L 238.288567 -88.503319 
L 238.039061 -86.725419 
L 237.797937 -84.947519 
L 237.568255 -83.169619 
L 237.352992 -81.391719 
L 237.154807 -79.613819 
L 236.975812 -77.835919 
L 236.817405 -76.058019 
L 236.680168 -74.280119 
L 236.563864 -72.502219 
L 236.467506 -70.724319 
L 236.389496 -68.946419 
L 236.327804 -67.168519 
L 236.280163 -65.390619 
z
" id="m59e7fd85c5" style="stroke:#3d3d3d;stroke-width:1.5;"/>
    </defs>
    <g clip-path="url(#p162e96854f)">
     <use style="fill:#9372b2;stroke:#3d3d3d;stroke-width:1.5;" x="0" xlink:href="#m59e7fd85c5" y="345.6"/>
    </g>
   </g>
   <g id="PolyCollection_6">
    <defs>
     <path d="M 275.88851 -91.734887 
L 275.79149 -91.734887 
L 275.771739 -93.397618 
L 275.746556 -95.060349 
L 275.71549 -96.723081 
L 275.678405 -98.385812 
L 275.635558 -100.048543 
L 275.587617 -101.711274 
L 275.535631 -103.374005 
L 275.480917 -105.036737 
L 275.424907 -106.699468 
L 275.368944 -108.362199 
L 275.314085 -110.02493 
L 275.260916 -111.687661 
L 275.209407 -113.350392 
L 275.158811 -115.013124 
L 275.107599 -116.675855 
L 275.053412 -118.338586 
L 274.993033 -120.001317 
L 274.922369 -121.664048 
L 274.836473 -123.32678 
L 274.729642 -124.989511 
L 274.595627 -126.652242 
L 274.42799 -128.314973 
L 274.220596 -129.977704 
L 273.968212 -131.640435 
L 273.66712 -133.303167 
L 273.315654 -134.965898 
L 272.914551 -136.628629 
L 272.467048 -138.29136 
L 271.978702 -139.954091 
L 271.456982 -141.616823 
L 270.91073 -143.279554 
L 270.349611 -144.942285 
L 269.783661 -146.605016 
L 269.222991 -148.267747 
L 268.677623 -149.930478 
L 268.157374 -151.59321 
L 267.67165 -153.255941 
L 267.229024 -154.918672 
L 266.836535 -156.581403 
L 266.498742 -158.244134 
L 266.216703 -159.906866 
L 265.987127 -161.569597 
L 265.802028 -163.232328 
L 265.649129 -164.895059 
L 265.513198 -166.55779 
L 265.378254 -168.220521 
L 265.230414 -169.883253 
L 265.060914 -171.545984 
L 264.868721 -173.208715 
L 264.66215 -174.871446 
L 264.459004 -176.534177 
L 264.285005 -178.196909 
L 264.170609 -179.85964 
L 264.14664 -181.522371 
L 264.239466 -183.185102 
L 264.466583 -184.847833 
L 264.833439 -186.510564 
L 265.332116 -188.173296 
L 265.942151 -189.836027 
L 266.633311 -191.498758 
L 267.369788 -193.161489 
L 268.115006 -194.82422 
L 268.836151 -196.486952 
L 269.507663 -198.149683 
L 270.113199 -199.812414 
L 270.645932 -201.475145 
L 271.107386 -203.137876 
L 271.505252 -204.800608 
L 271.850744 -206.463339 
L 272.156043 -208.12607 
L 272.432219 -209.788801 
L 272.687885 -211.451532 
L 272.928613 -213.114263 
L 273.157028 -214.776995 
L 273.373391 -216.439726 
L 273.576454 -218.102457 
L 273.764385 -219.765188 
L 273.935594 -221.427919 
L 274.089351 -223.090651 
L 274.226123 -224.753382 
L 274.347629 -226.416113 
L 274.456639 -228.078844 
L 274.556585 -229.741575 
L 274.651063 -231.404306 
L 274.743327 -233.067038 
L 274.835864 -234.729769 
L 274.930108 -236.3925 
L 275.026331 -238.055231 
L 275.123724 -239.717962 
L 275.220625 -241.380694 
L 275.314856 -243.043425 
L 275.404088 -244.706156 
L 275.48619 -246.368887 
L 275.559493 -248.031618 
L 275.622957 -249.694349 
L 275.676218 -251.357081 
L 275.719541 -253.019812 
L 275.753694 -254.682543 
L 275.779788 -256.345274 
L 275.900212 -256.345274 
L 275.900212 -256.345274 
L 275.926306 -254.682543 
L 275.960459 -253.019812 
L 276.003782 -251.357081 
L 276.057043 -249.694349 
L 276.120507 -248.031618 
L 276.19381 -246.368887 
L 276.275912 -244.706156 
L 276.365144 -243.043425 
L 276.459375 -241.380694 
L 276.556276 -239.717962 
L 276.653669 -238.055231 
L 276.749892 -236.3925 
L 276.844136 -234.729769 
L 276.936673 -233.067038 
L 277.028937 -231.404306 
L 277.123415 -229.741575 
L 277.223361 -228.078844 
L 277.332371 -226.416113 
L 277.453877 -224.753382 
L 277.590649 -223.090651 
L 277.744406 -221.427919 
L 277.915615 -219.765188 
L 278.103546 -218.102457 
L 278.306609 -216.439726 
L 278.522972 -214.776995 
L 278.751387 -213.114263 
L 278.992115 -211.451532 
L 279.247781 -209.788801 
L 279.523957 -208.12607 
L 279.829256 -206.463339 
L 280.174748 -204.800608 
L 280.572614 -203.137876 
L 281.034068 -201.475145 
L 281.566801 -199.812414 
L 282.172337 -198.149683 
L 282.843849 -196.486952 
L 283.564994 -194.82422 
L 284.310212 -193.161489 
L 285.046689 -191.498758 
L 285.737849 -189.836027 
L 286.347884 -188.173296 
L 286.846561 -186.510564 
L 287.213417 -184.847833 
L 287.440534 -183.185102 
L 287.53336 -181.522371 
L 287.509391 -179.85964 
L 287.394995 -178.196909 
L 287.220996 -176.534177 
L 287.01785 -174.871446 
L 286.811279 -173.208715 
L 286.619086 -171.545984 
L 286.449586 -169.883253 
L 286.301746 -168.220521 
L 286.166802 -166.55779 
L 286.030871 -164.895059 
L 285.877972 -163.232328 
L 285.692873 -161.569597 
L 285.463297 -159.906866 
L 285.181258 -158.244134 
L 284.843465 -156.581403 
L 284.450976 -154.918672 
L 284.00835 -153.255941 
L 283.522626 -151.59321 
L 283.002377 -149.930478 
L 282.457009 -148.267747 
L 281.896339 -146.605016 
L 281.330389 -144.942285 
L 280.76927 -143.279554 
L 280.223018 -141.616823 
L 279.701298 -139.954091 
L 279.212952 -138.29136 
L 278.765449 -136.628629 
L 278.364346 -134.965898 
L 278.01288 -133.303167 
L 277.711788 -131.640435 
L 277.459404 -129.977704 
L 277.25201 -128.314973 
L 277.084373 -126.652242 
L 276.950358 -124.989511 
L 276.843527 -123.32678 
L 276.757631 -121.664048 
L 276.686967 -120.001317 
L 276.626588 -118.338586 
L 276.572401 -116.675855 
L 276.521189 -115.013124 
L 276.470593 -113.350392 
L 276.419084 -111.687661 
L 276.365915 -110.02493 
L 276.311056 -108.362199 
L 276.255093 -106.699468 
L 276.199083 -105.036737 
L 276.144369 -103.374005 
L 276.092383 -101.711274 
L 276.044442 -100.048543 
L 276.001595 -98.385812 
L 275.96451 -96.723081 
L 275.933444 -95.060349 
L 275.908261 -93.397618 
L 275.88851 -91.734887 
z
" id="me20f7664c7" style="stroke:#3d3d3d;stroke-width:1.5;"/>
    </defs>
    <g clip-path="url(#p162e96854f)">
     <use style="fill:#845b53;stroke:#3d3d3d;stroke-width:1.5;" x="0" xlink:href="#me20f7664c7" y="345.6"/>
    </g>
   </g>
   <g id="PolyCollection_7">
    <defs>
     <path d="M 315.693003 -115.824624 
L 315.346997 -115.824624 
L 315.293123 -116.843686 
L 315.226825 -117.862747 
L 315.146664 -118.881809 
L 315.051449 -119.90087 
L 314.940371 -120.919931 
L 314.813126 -121.938993 
L 314.670025 -122.958054 
L 314.512074 -123.977116 
L 314.341 -124.996177 
L 314.15923 -126.015238 
L 313.969791 -127.0343 
L 313.776156 -128.053361 
L 313.582022 -129.072423 
L 313.391046 -130.091484 
L 313.206559 -131.110546 
L 313.031285 -132.129607 
L 312.867101 -133.148668 
L 312.71485 -134.16773 
L 312.574252 -135.186791 
L 312.443912 -136.205853 
L 312.321426 -137.224914 
L 312.203596 -138.243975 
L 312.0867 -139.263037 
L 311.966817 -140.282098 
L 311.84015 -141.30116 
L 311.703315 -142.320221 
L 311.553564 -143.339282 
L 311.388916 -144.358344 
L 311.20818 -145.377405 
L 311.010866 -146.396467 
L 310.797019 -147.415528 
L 310.566969 -148.43459 
L 310.321063 -149.453651 
L 310.059401 -150.472712 
L 309.78162 -151.491774 
L 309.486751 -152.510835 
L 309.173187 -153.529897 
L 308.83875 -154.548958 
L 308.480878 -155.568019 
L 308.096901 -156.587081 
L 307.68438 -157.606142 
L 307.24149 -158.625204 
L 306.767397 -159.644265 
L 306.262597 -160.663327 
L 305.729185 -161.682388 
L 305.171033 -162.701449 
L 304.593846 -163.720511 
L 304.005093 -164.739572 
L 303.413815 -165.758634 
L 302.830318 -166.777695 
L 302.265757 -167.796756 
L 301.731652 -168.815818 
L 301.239347 -169.834879 
L 300.799466 -170.853941 
L 300.421387 -171.873002 
L 300.112779 -172.892064 
L 299.879231 -173.911125 
L 299.724019 -174.930186 
L 299.648 -175.949248 
L 299.649679 -176.968309 
L 299.725416 -177.987371 
L 299.86978 -179.006432 
L 300.076001 -180.025493 
L 300.336495 -181.044555 
L 300.643413 -182.063616 
L 300.989162 -183.082678 
L 301.36686 -184.101739 
L 301.77068 -185.120801 
L 302.196067 -186.139862 
L 302.639808 -187.158923 
L 303.099962 -188.177985 
L 303.575672 -189.197046 
L 304.066868 -190.216108 
L 304.573929 -191.235169 
L 305.097301 -192.25423 
L 305.637152 -193.273292 
L 306.193063 -194.292353 
L 306.763795 -195.311415 
L 307.347153 -196.330476 
L 307.93994 -197.349537 
L 308.538011 -198.368599 
L 309.136409 -199.38766 
L 309.729575 -200.406722 
L 310.311597 -201.425783 
L 310.876495 -202.444845 
L 311.418509 -203.463906 
L 311.932364 -204.482967 
L 312.413507 -205.502029 
L 312.858292 -206.52109 
L 313.264104 -207.540152 
L 313.629425 -208.559213 
L 313.953823 -209.578274 
L 314.237901 -210.597336 
L 314.483174 -211.616397 
L 314.691923 -212.635459 
L 314.867021 -213.65452 
L 315.011744 -214.673582 
L 315.129594 -215.692643 
L 315.224127 -216.711704 
L 315.815873 -216.711704 
L 315.815873 -216.711704 
L 315.910406 -215.692643 
L 316.028256 -214.673582 
L 316.172979 -213.65452 
L 316.348077 -212.635459 
L 316.556826 -211.616397 
L 316.802099 -210.597336 
L 317.086177 -209.578274 
L 317.410575 -208.559213 
L 317.775896 -207.540152 
L 318.181708 -206.52109 
L 318.626493 -205.502029 
L 319.107636 -204.482967 
L 319.621491 -203.463906 
L 320.163505 -202.444845 
L 320.728403 -201.425783 
L 321.310425 -200.406722 
L 321.903591 -199.38766 
L 322.501989 -198.368599 
L 323.10006 -197.349537 
L 323.692847 -196.330476 
L 324.276205 -195.311415 
L 324.846937 -194.292353 
L 325.402848 -193.273292 
L 325.942699 -192.25423 
L 326.466071 -191.235169 
L 326.973132 -190.216108 
L 327.464328 -189.197046 
L 327.940038 -188.177985 
L 328.400192 -187.158923 
L 328.843933 -186.139862 
L 329.26932 -185.120801 
L 329.67314 -184.101739 
L 330.050838 -183.082678 
L 330.396587 -182.063616 
L 330.703505 -181.044555 
L 330.963999 -180.025493 
L 331.17022 -179.006432 
L 331.314584 -177.987371 
L 331.390321 -176.968309 
L 331.392 -175.949248 
L 331.315981 -174.930186 
L 331.160769 -173.911125 
L 330.927221 -172.892064 
L 330.618613 -171.873002 
L 330.240534 -170.853941 
L 329.800653 -169.834879 
L 329.308348 -168.815818 
L 328.774243 -167.796756 
L 328.209682 -166.777695 
L 327.626185 -165.758634 
L 327.034907 -164.739572 
L 326.446154 -163.720511 
L 325.868967 -162.701449 
L 325.310815 -161.682388 
L 324.777403 -160.663327 
L 324.272603 -159.644265 
L 323.79851 -158.625204 
L 323.35562 -157.606142 
L 322.943099 -156.587081 
L 322.559122 -155.568019 
L 322.20125 -154.548958 
L 321.866813 -153.529897 
L 321.553249 -152.510835 
L 321.25838 -151.491774 
L 320.980599 -150.472712 
L 320.718937 -149.453651 
L 320.473031 -148.43459 
L 320.242981 -147.415528 
L 320.029134 -146.396467 
L 319.83182 -145.377405 
L 319.651084 -144.358344 
L 319.486436 -143.339282 
L 319.336685 -142.320221 
L 319.19985 -141.30116 
L 319.073183 -140.282098 
L 318.9533 -139.263037 
L 318.836404 -138.243975 
L 318.718574 -137.224914 
L 318.596088 -136.205853 
L 318.465748 -135.186791 
L 318.32515 -134.16773 
L 318.172899 -133.148668 
L 318.008715 -132.129607 
L 317.833441 -131.110546 
L 317.648954 -130.091484 
L 317.457978 -129.072423 
L 317.263844 -128.053361 
L 317.070209 -127.0343 
L 316.88077 -126.015238 
L 316.699 -124.996177 
L 316.527926 -123.977116 
L 316.369975 -122.958054 
L 316.226874 -121.938993 
L 316.099629 -120.919931 
L 315.988551 -119.90087 
L 315.893336 -118.881809 
L 315.813175 -117.862747 
L 315.746877 -116.843686 
L 315.693003 -115.824624 
z
" id="md467492c49" style="stroke:#3d3d3d;stroke-width:1.5;"/>
    </defs>
    <g clip-path="url(#p162e96854f)">
     <use style="fill:#d684bd;stroke:#3d3d3d;stroke-width:1.5;" x="0" xlink:href="#md467492c49" y="345.6"/>
    </g>
   </g>
   <g id="PolyCollection_8">
    <defs>
     <path d="M 355.266861 -50.112 
L 355.133139 -50.112 
L 355.111591 -52.226031 
L 355.084485 -54.340063 
L 355.05081 -56.454094 
L 355.009472 -58.568126 
L 354.959314 -60.682157 
L 354.899141 -62.796189 
L 354.827747 -64.91022 
L 354.743953 -67.024252 
L 354.646651 -69.138283 
L 354.534861 -71.252315 
L 354.407782 -73.366346 
L 354.264869 -75.480377 
L 354.105891 -77.594409 
L 353.930998 -79.70844 
L 353.740776 -81.822472 
L 353.536287 -83.936503 
L 353.319075 -86.050535 
L 353.091151 -88.164566 
L 352.854939 -90.278598 
L 352.61318 -92.392629 
L 352.368806 -94.50666 
L 352.124786 -96.620692 
L 351.883953 -98.734723 
L 351.648836 -100.848755 
L 351.421499 -102.962786 
L 351.203422 -105.076818 
L 350.99541 -107.190849 
L 350.797578 -109.304881 
L 350.609372 -111.418912 
L 350.429664 -113.532944 
L 350.256892 -115.646975 
L 350.089233 -117.761006 
L 349.924815 -119.875038 
L 349.761924 -121.989069 
L 349.599211 -124.103101 
L 349.435871 -126.217132 
L 349.271787 -128.331164 
L 349.107622 -130.445195 
L 348.944858 -132.559227 
L 348.785771 -134.673258 
L 348.633346 -136.78729 
L 348.491141 -138.901321 
L 348.363098 -141.015352 
L 348.253325 -143.129384 
L 348.165859 -145.243415 
L 348.104428 -147.357447 
L 348.072231 -149.471478 
L 348.071747 -151.58551 
L 348.104598 -153.699541 
L 348.171447 -155.813573 
L 348.27197 -157.927604 
L 348.404859 -160.041636 
L 348.567885 -162.155667 
L 348.757987 -164.269698 
L 348.971389 -166.38373 
L 349.203733 -168.497761 
L 349.450224 -170.611793 
L 349.705786 -172.725824 
L 349.965212 -174.839856 
L 350.22334 -176.953887 
L 350.475221 -179.067919 
L 350.716302 -181.18195 
L 350.942611 -183.295981 
L 351.150935 -185.410013 
L 351.338979 -187.524044 
L 351.505499 -189.638076 
L 351.650381 -191.752107 
L 351.774661 -193.866139 
L 351.880474 -195.98017 
L 351.970926 -198.094202 
L 352.049896 -200.208233 
L 352.121781 -202.322265 
L 352.191192 -204.436296 
L 352.262644 -206.550327 
L 352.340244 -208.664359 
L 352.427428 -210.77839 
L 352.526742 -212.892422 
L 352.639708 -215.006453 
L 352.76677 -217.120485 
L 352.90732 -219.234516 
L 353.0598 -221.348548 
L 353.221872 -223.462579 
L 353.390622 -225.576611 
L 353.562791 -227.690642 
L 353.735006 -229.804673 
L 353.903994 -231.918705 
L 354.066766 -234.032736 
L 354.220756 -236.146768 
L 354.363915 -238.260799 
L 354.494766 -240.374831 
L 354.612399 -242.488862 
L 354.716447 -244.602894 
L 354.807026 -246.716925 
L 354.884652 -248.830957 
L 354.950153 -250.944988 
L 355.004584 -253.059019 
L 355.049131 -255.173051 
L 355.085042 -257.287082 
L 355.113559 -259.401114 
L 355.286441 -259.401114 
L 355.286441 -259.401114 
L 355.314958 -257.287082 
L 355.350869 -255.173051 
L 355.395416 -253.059019 
L 355.449847 -250.944988 
L 355.515348 -248.830957 
L 355.592974 -246.716925 
L 355.683553 -244.602894 
L 355.787601 -242.488862 
L 355.905234 -240.374831 
L 356.036085 -238.260799 
L 356.179244 -236.146768 
L 356.333234 -234.032736 
L 356.496006 -231.918705 
L 356.664994 -229.804673 
L 356.837209 -227.690642 
L 357.009378 -225.576611 
L 357.178128 -223.462579 
L 357.3402 -221.348548 
L 357.49268 -219.234516 
L 357.63323 -217.120485 
L 357.760292 -215.006453 
L 357.873258 -212.892422 
L 357.972572 -210.77839 
L 358.059756 -208.664359 
L 358.137356 -206.550327 
L 358.208808 -204.436296 
L 358.278219 -202.322265 
L 358.350104 -200.208233 
L 358.429074 -198.094202 
L 358.519526 -195.98017 
L 358.625339 -193.866139 
L 358.749619 -191.752107 
L 358.894501 -189.638076 
L 359.061021 -187.524044 
L 359.249065 -185.410013 
L 359.457389 -183.295981 
L 359.683698 -181.18195 
L 359.924779 -179.067919 
L 360.17666 -176.953887 
L 360.434788 -174.839856 
L 360.694214 -172.725824 
L 360.949776 -170.611793 
L 361.196267 -168.497761 
L 361.428611 -166.38373 
L 361.642013 -164.269698 
L 361.832115 -162.155667 
L 361.995141 -160.041636 
L 362.12803 -157.927604 
L 362.228553 -155.813573 
L 362.295402 -153.699541 
L 362.328253 -151.58551 
L 362.327769 -149.471478 
L 362.295572 -147.357447 
L 362.234141 -145.243415 
L 362.146675 -143.129384 
L 362.036902 -141.015352 
L 361.908859 -138.901321 
L 361.766654 -136.78729 
L 361.614229 -134.673258 
L 361.455142 -132.559227 
L 361.292378 -130.445195 
L 361.128213 -128.331164 
L 360.964129 -126.217132 
L 360.800789 -124.103101 
L 360.638076 -121.989069 
L 360.475185 -119.875038 
L 360.310767 -117.761006 
L 360.143108 -115.646975 
L 359.970336 -113.532944 
L 359.790628 -111.418912 
L 359.602422 -109.304881 
L 359.40459 -107.190849 
L 359.196578 -105.076818 
L 358.978501 -102.962786 
L 358.751164 -100.848755 
L 358.516047 -98.734723 
L 358.275214 -96.620692 
L 358.031194 -94.50666 
L 357.78682 -92.392629 
L 357.545061 -90.278598 
L 357.308849 -88.164566 
L 357.080925 -86.050535 
L 356.863713 -83.936503 
L 356.659224 -81.822472 
L 356.469002 -79.70844 
L 356.294109 -77.594409 
L 356.135131 -75.480377 
L 355.992218 -73.366346 
L 355.865139 -71.252315 
L 355.753349 -69.138283 
L 355.656047 -67.024252 
L 355.572253 -64.91022 
L 355.500859 -62.796189 
L 355.440686 -60.682157 
L 355.390528 -58.568126 
L 355.34919 -56.454094 
L 355.315515 -54.340063 
L 355.288409 -52.226031 
L 355.266861 -50.112 
z
" id="mc76f34e19b" style="stroke:#3d3d3d;stroke-width:1.5;"/>
    </defs>
    <g clip-path="url(#p162e96854f)">
     <use style="fill:#7f7f7f;stroke:#3d3d3d;stroke-width:1.5;" x="0" xlink:href="#mc76f34e19b" y="345.6"/>
    </g>
   </g>
   <g id="PolyCollection_9">
    <defs>
     <path d="M 395.043147 -94.031088 
L 394.716853 -94.031088 
L 394.667967 -95.445221 
L 394.607719 -96.859354 
L 394.534482 -98.273487 
L 394.446674 -99.68762 
L 394.342835 -101.101754 
L 394.221713 -102.515887 
L 394.082347 -103.93002 
L 393.924154 -105.344153 
L 393.746987 -106.758286 
L 393.551181 -108.172419 
L 393.337559 -109.586552 
L 393.107408 -111.000685 
L 392.862412 -112.414818 
L 392.60454 -113.828951 
L 392.335912 -115.243084 
L 392.058626 -116.657217 
L 391.774585 -118.07135 
L 391.485323 -119.485483 
L 391.191858 -120.899616 
L 390.894588 -122.313749 
L 390.593244 -123.727882 
L 390.286914 -125.142016 
L 389.974147 -126.556149 
L 389.653133 -127.970282 
L 389.321944 -129.384415 
L 388.978836 -130.798548 
L 388.622569 -132.212681 
L 388.252732 -133.626814 
L 387.870032 -135.040947 
L 387.47653 -136.45508 
L 387.07578 -137.869213 
L 386.672865 -139.283346 
L 386.274312 -140.697479 
L 385.887885 -142.111612 
L 385.522258 -143.525745 
L 385.186596 -144.939878 
L 384.890066 -146.354011 
L 384.641309 -147.768145 
L 384.447922 -149.182278 
L 384.315972 -150.596411 
L 384.249598 -152.010544 
L 384.25072 -153.424677 
L 384.318874 -154.83881 
L 384.451198 -156.252943 
L 384.642558 -157.667076 
L 384.885812 -159.081209 
L 385.17218 -160.495342 
L 385.491707 -161.909475 
L 385.83377 -163.323608 
L 386.187604 -164.737741 
L 386.542808 -166.151874 
L 386.889804 -167.566007 
L 387.220211 -168.98014 
L 387.527142 -170.394273 
L 387.805384 -171.808407 
L 388.051487 -173.22254 
L 388.263746 -174.636673 
L 388.442107 -176.050806 
L 388.587994 -177.464939 
L 388.704093 -178.879072 
L 388.794103 -180.293205 
L 388.862469 -181.707338 
L 388.914129 -183.121471 
L 388.954273 -184.535604 
L 388.988129 -185.949737 
L 389.020789 -187.36387 
L 389.057064 -188.778003 
L 389.101371 -190.192136 
L 389.157656 -191.606269 
L 389.229329 -193.020402 
L 389.319221 -194.434535 
L 389.429544 -195.848669 
L 389.561865 -197.262802 
L 389.717073 -198.676935 
L 389.895362 -200.091068 
L 390.096212 -201.505201 
L 390.318393 -202.919334 
L 390.559986 -204.333467 
L 390.818423 -205.7476 
L 391.090569 -207.161733 
L 391.372815 -208.575866 
L 391.661216 -209.989999 
L 391.951632 -211.404132 
L 392.2399 -212.818265 
L 392.521987 -214.232398 
L 392.794158 -215.646531 
L 393.053105 -217.060664 
L 393.296058 -218.474798 
L 393.520865 -219.888931 
L 393.726027 -221.303064 
L 393.910701 -222.717197 
L 394.074667 -224.13133 
L 394.218271 -225.545463 
L 394.342337 -226.959596 
L 394.448076 -228.373729 
L 394.53698 -229.787862 
L 394.610724 -231.201995 
L 394.671073 -232.616128 
L 394.719798 -234.030261 
L 395.040202 -234.030261 
L 395.040202 -234.030261 
L 395.088927 -232.616128 
L 395.149276 -231.201995 
L 395.22302 -229.787862 
L 395.311924 -228.373729 
L 395.417663 -226.959596 
L 395.541729 -225.545463 
L 395.685333 -224.13133 
L 395.849299 -222.717197 
L 396.033973 -221.303064 
L 396.239135 -219.888931 
L 396.463942 -218.474798 
L 396.706895 -217.060664 
L 396.965842 -215.646531 
L 397.238013 -214.232398 
L 397.5201 -212.818265 
L 397.808368 -211.404132 
L 398.098784 -209.989999 
L 398.387185 -208.575866 
L 398.669431 -207.161733 
L 398.941577 -205.7476 
L 399.200014 -204.333467 
L 399.441607 -202.919334 
L 399.663788 -201.505201 
L 399.864638 -200.091068 
L 400.042927 -198.676935 
L 400.198135 -197.262802 
L 400.330456 -195.848669 
L 400.440779 -194.434535 
L 400.530671 -193.020402 
L 400.602344 -191.606269 
L 400.658629 -190.192136 
L 400.702936 -188.778003 
L 400.739211 -187.36387 
L 400.771871 -185.949737 
L 400.805727 -184.535604 
L 400.845871 -183.121471 
L 400.897531 -181.707338 
L 400.965897 -180.293205 
L 401.055907 -178.879072 
L 401.172006 -177.464939 
L 401.317893 -176.050806 
L 401.496254 -174.636673 
L 401.708513 -173.22254 
L 401.954616 -171.808407 
L 402.232858 -170.394273 
L 402.539789 -168.98014 
L 402.870196 -167.566007 
L 403.217192 -166.151874 
L 403.572396 -164.737741 
L 403.92623 -163.323608 
L 404.268293 -161.909475 
L 404.58782 -160.495342 
L 404.874188 -159.081209 
L 405.117442 -157.667076 
L 405.308802 -156.252943 
L 405.441126 -154.83881 
L 405.50928 -153.424677 
L 405.510402 -152.010544 
L 405.444028 -150.596411 
L 405.312078 -149.182278 
L 405.118691 -147.768145 
L 404.869934 -146.354011 
L 404.573404 -144.939878 
L 404.237742 -143.525745 
L 403.872115 -142.111612 
L 403.485688 -140.697479 
L 403.087135 -139.283346 
L 402.68422 -137.869213 
L 402.28347 -136.45508 
L 401.889968 -135.040947 
L 401.507268 -133.626814 
L 401.137431 -132.212681 
L 400.781164 -130.798548 
L 400.438056 -129.384415 
L 400.106867 -127.970282 
L 399.785853 -126.556149 
L 399.473086 -125.142016 
L 399.166756 -123.727882 
L 398.865412 -122.313749 
L 398.568142 -120.899616 
L 398.274677 -119.485483 
L 397.985415 -118.07135 
L 397.701374 -116.657217 
L 397.424088 -115.243084 
L 397.15546 -113.828951 
L 396.897588 -112.414818 
L 396.652592 -111.000685 
L 396.422441 -109.586552 
L 396.208819 -108.172419 
L 396.013013 -106.758286 
L 395.835846 -105.344153 
L 395.677653 -103.93002 
L 395.538287 -102.515887 
L 395.417165 -101.101754 
L 395.313326 -99.68762 
L 395.225518 -98.273487 
L 395.152281 -96.859354 
L 395.092033 -95.445221 
L 395.043147 -94.031088 
z
" id="ma65a9ff50e" style="stroke:#3d3d3d;stroke-width:1.5;"/>
    </defs>
    <g clip-path="url(#p162e96854f)">
     <use style="fill:#a9aa35;stroke:#3d3d3d;stroke-width:1.5;" x="0" xlink:href="#ma65a9ff50e" y="345.6"/>
    </g>
   </g>
   <g id="matplotlib.axis_1">
    <g id="xtick_1">
     <g id="line2d_1">
      <defs>
       <path d="M 0 0 
L 0 3.5 
" id="mdc05978392" style="stroke:#000000;stroke-width:0.8;"/>
      </defs>
      <g>
       <use style="stroke:#000000;stroke-width:0.8;" x="77.44" xlink:href="#mdc05978392" y="307.584"/>
      </g>
     </g>
     <g id="text_1">
      <!-- Anv. -->
      <defs>
       <path d="M 34.1875 63.1875 
L 20.796875 26.90625 
L 47.609375 26.90625 
z
M 28.609375 72.90625 
L 39.796875 72.90625 
L 67.578125 0 
L 57.328125 0 
L 50.6875 18.703125 
L 17.828125 18.703125 
L 11.1875 0 
L 0.78125 0 
z
" id="DejaVuSans-41"/>
       <path d="M 54.890625 33.015625 
L 54.890625 0 
L 45.90625 0 
L 45.90625 32.71875 
Q 45.90625 40.484375 42.875 44.328125 
Q 39.84375 48.1875 33.796875 48.1875 
Q 26.515625 48.1875 22.3125 43.546875 
Q 18.109375 38.921875 18.109375 30.90625 
L 18.109375 0 
L 9.078125 0 
L 9.078125 54.6875 
L 18.109375 54.6875 
L 18.109375 46.1875 
Q 21.34375 51.125 25.703125 53.5625 
Q 30.078125 56 35.796875 56 
Q 45.21875 56 50.046875 50.171875 
Q 54.890625 44.34375 54.890625 33.015625 
z
" id="DejaVuSans-6e"/>
       <path d="M 2.984375 54.6875 
L 12.5 54.6875 
L 29.59375 8.796875 
L 46.6875 54.6875 
L 56.203125 54.6875 
L 35.6875 0 
L 23.484375 0 
z
" id="DejaVuSans-76"/>
       <path d="M 10.6875 12.40625 
L 21 12.40625 
L 21 0 
L 10.6875 0 
z
" id="DejaVuSans-2e"/>
      </defs>
      <g transform="translate(66.307969 322.182437)scale(0.1 -0.1)">
       <use xlink:href="#DejaVuSans-41"/>
       <use x="68.408203" xlink:href="#DejaVuSans-6e"/>
       <use x="131.787109" xlink:href="#DejaVuSans-76"/>
       <use x="190.857422" xlink:href="#DejaVuSans-2e"/>
      </g>
     </g>
    </g>
    <g id="xtick_2">
     <g id="line2d_2">
      <g>
       <use style="stroke:#000000;stroke-width:0.8;" x="117.12" xlink:href="#mdc05978392" y="307.584"/>
      </g>
     </g>
     <g id="text_2">
      <!-- Brab. -->
      <defs>
       <path d="M 19.671875 34.8125 
L 19.671875 8.109375 
L 35.5 8.109375 
Q 43.453125 8.109375 47.28125 11.40625 
Q 51.125 14.703125 51.125 21.484375 
Q 51.125 28.328125 47.28125 31.5625 
Q 43.453125 34.8125 35.5 34.8125 
z
M 19.671875 64.796875 
L 19.671875 42.828125 
L 34.28125 42.828125 
Q 41.5 42.828125 45.03125 45.53125 
Q 48.578125 48.25 48.578125 53.8125 
Q 48.578125 59.328125 45.03125 62.0625 
Q 41.5 64.796875 34.28125 64.796875 
z
M 9.8125 72.90625 
L 35.015625 72.90625 
Q 46.296875 72.90625 52.390625 68.21875 
Q 58.5 63.53125 58.5 54.890625 
Q 58.5 48.1875 55.375 44.234375 
Q 52.25 40.28125 46.1875 39.3125 
Q 53.46875 37.75 57.5 32.78125 
Q 61.53125 27.828125 61.53125 20.40625 
Q 61.53125 10.640625 54.890625 5.3125 
Q 48.25 0 35.984375 0 
L 9.8125 0 
z
" id="DejaVuSans-42"/>
       <path d="M 41.109375 46.296875 
Q 39.59375 47.171875 37.8125 47.578125 
Q 36.03125 48 33.890625 48 
Q 26.265625 48 22.1875 43.046875 
Q 18.109375 38.09375 18.109375 28.8125 
L 18.109375 0 
L 9.078125 0 
L 9.078125 54.6875 
L 18.109375 54.6875 
L 18.109375 46.1875 
Q 20.953125 51.171875 25.484375 53.578125 
Q 30.03125 56 36.53125 56 
Q 37.453125 56 38.578125 55.875 
Q 39.703125 55.765625 41.0625 55.515625 
z
" id="DejaVuSans-72"/>
       <path d="M 34.28125 27.484375 
Q 23.390625 27.484375 19.1875 25 
Q 14.984375 22.515625 14.984375 16.5 
Q 14.984375 11.71875 18.140625 8.90625 
Q 21.296875 6.109375 26.703125 6.109375 
Q 34.1875 6.109375 38.703125 11.40625 
Q 43.21875 16.703125 43.21875 25.484375 
L 43.21875 27.484375 
z
M 52.203125 31.203125 
L 52.203125 0 
L 43.21875 0 
L 43.21875 8.296875 
Q 40.140625 3.328125 35.546875 0.953125 
Q 30.953125 -1.421875 24.3125 -1.421875 
Q 15.921875 -1.421875 10.953125 3.296875 
Q 6 8.015625 6 15.921875 
Q 6 25.140625 12.171875 29.828125 
Q 18.359375 34.515625 30.609375 34.515625 
L 43.21875 34.515625 
L 43.21875 35.40625 
Q 43.21875 41.609375 39.140625 45 
Q 35.0625 48.390625 27.6875 48.390625 
Q 23 48.390625 18.546875 47.265625 
Q 14.109375 46.140625 10.015625 43.890625 
L 10.015625 52.203125 
Q 14.9375 54.109375 19.578125 55.046875 
Q 24.21875 56 28.609375 56 
Q 40.484375 56 46.34375 49.84375 
Q 52.203125 43.703125 52.203125 31.203125 
z
" id="DejaVuSans-61"/>
       <path d="M 48.6875 27.296875 
Q 48.6875 37.203125 44.609375 42.84375 
Q 40.53125 48.484375 33.40625 48.484375 
Q 26.265625 48.484375 22.1875 42.84375 
Q 18.109375 37.203125 18.109375 27.296875 
Q 18.109375 17.390625 22.1875 11.75 
Q 26.265625 6.109375 33.40625 6.109375 
Q 40.53125 6.109375 44.609375 11.75 
Q 48.6875 17.390625 48.6875 27.296875 
z
M 18.109375 46.390625 
Q 20.953125 51.265625 25.265625 53.625 
Q 29.59375 56 35.59375 56 
Q 45.5625 56 51.78125 48.09375 
Q 58.015625 40.1875 58.015625 27.296875 
Q 58.015625 14.40625 51.78125 6.484375 
Q 45.5625 -1.421875 35.59375 -1.421875 
Q 29.59375 -1.421875 25.265625 0.953125 
Q 20.953125 3.328125 18.109375 8.203125 
L 18.109375 0 
L 9.078125 0 
L 9.078125 75.984375 
L 18.109375 75.984375 
z
" id="DejaVuSans-62"/>
      </defs>
      <g transform="translate(103.806719 322.182437)scale(0.1 -0.1)">
       <use xlink:href="#DejaVuSans-42"/>
       <use x="68.603516" xlink:href="#DejaVuSans-72"/>
       <use x="109.716797" xlink:href="#DejaVuSans-61"/>
       <use x="170.996094" xlink:href="#DejaVuSans-62"/>
       <use x="234.472656" xlink:href="#DejaVuSans-2e"/>
      </g>
     </g>
    </g>
    <g id="xtick_3">
     <g id="line2d_3">
      <g>
       <use style="stroke:#000000;stroke-width:0.8;" x="156.8" xlink:href="#mdc05978392" y="307.584"/>
      </g>
     </g>
     <g id="text_3">
      <!-- Fl.occ. -->
      <defs>
       <path d="M 9.8125 72.90625 
L 51.703125 72.90625 
L 51.703125 64.59375 
L 19.671875 64.59375 
L 19.671875 43.109375 
L 48.578125 43.109375 
L 48.578125 34.8125 
L 19.671875 34.8125 
L 19.671875 0 
L 9.8125 0 
z
" id="DejaVuSans-46"/>
       <path d="M 9.421875 75.984375 
L 18.40625 75.984375 
L 18.40625 0 
L 9.421875 0 
z
" id="DejaVuSans-6c"/>
       <path d="M 30.609375 48.390625 
Q 23.390625 48.390625 19.1875 42.75 
Q 14.984375 37.109375 14.984375 27.296875 
Q 14.984375 17.484375 19.15625 11.84375 
Q 23.34375 6.203125 30.609375 6.203125 
Q 37.796875 6.203125 41.984375 11.859375 
Q 46.1875 17.53125 46.1875 27.296875 
Q 46.1875 37.015625 41.984375 42.703125 
Q 37.796875 48.390625 30.609375 48.390625 
z
M 30.609375 56 
Q 42.328125 56 49.015625 48.375 
Q 55.71875 40.765625 55.71875 27.296875 
Q 55.71875 13.875 49.015625 6.21875 
Q 42.328125 -1.421875 30.609375 -1.421875 
Q 18.84375 -1.421875 12.171875 6.21875 
Q 5.515625 13.875 5.515625 27.296875 
Q 5.515625 40.765625 12.171875 48.375 
Q 18.84375 56 30.609375 56 
z
" id="DejaVuSans-6f"/>
       <path d="M 48.78125 52.59375 
L 48.78125 44.1875 
Q 44.96875 46.296875 41.140625 47.34375 
Q 37.3125 48.390625 33.40625 48.390625 
Q 24.65625 48.390625 19.8125 42.84375 
Q 14.984375 37.3125 14.984375 27.296875 
Q 14.984375 17.28125 19.8125 11.734375 
Q 24.65625 6.203125 33.40625 6.203125 
Q 37.3125 6.203125 41.140625 7.25 
Q 44.96875 8.296875 48.78125 10.40625 
L 48.78125 2.09375 
Q 45.015625 0.34375 40.984375 -0.53125 
Q 36.96875 -1.421875 32.421875 -1.421875 
Q 20.0625 -1.421875 12.78125 6.34375 
Q 5.515625 14.109375 5.515625 27.296875 
Q 5.515625 40.671875 12.859375 48.328125 
Q 20.21875 56 33.015625 56 
Q 37.15625 56 41.109375 55.140625 
Q 45.0625 54.296875 48.78125 52.59375 
z
" id="DejaVuSans-63"/>
      </defs>
      <g transform="translate(140.799219 322.182437)scale(0.1 -0.1)">
       <use xlink:href="#DejaVuSans-46"/>
       <use x="57.519531" xlink:href="#DejaVuSans-6c"/>
       <use x="85.302734" xlink:href="#DejaVuSans-2e"/>
       <use x="117.089844" xlink:href="#DejaVuSans-6f"/>
       <use x="178.271484" xlink:href="#DejaVuSans-63"/>
       <use x="233.251953" xlink:href="#DejaVuSans-63"/>
       <use x="288.232422" xlink:href="#DejaVuSans-2e"/>
      </g>
     </g>
    </g>
    <g id="xtick_4">
     <g id="line2d_4">
      <g>
       <use style="stroke:#000000;stroke-width:0.8;" x="196.48" xlink:href="#mdc05978392" y="307.584"/>
      </g>
     </g>
     <g id="text_4">
      <!-- Fl.or. -->
      <g transform="translate(183.929219 322.182437)scale(0.1 -0.1)">
       <use xlink:href="#DejaVuSans-46"/>
       <use x="57.519531" xlink:href="#DejaVuSans-6c"/>
       <use x="85.302734" xlink:href="#DejaVuSans-2e"/>
       <use x="117.089844" xlink:href="#DejaVuSans-6f"/>
       <use x="178.271484" xlink:href="#DejaVuSans-72"/>
       <use x="219.244141" xlink:href="#DejaVuSans-2e"/>
      </g>
     </g>
    </g>
    <g id="xtick_5">
     <g id="line2d_5">
      <g>
       <use style="stroke:#000000;stroke-width:0.8;" x="236.16" xlink:href="#mdc05978392" y="307.584"/>
      </g>
     </g>
     <g id="text_5">
      <!-- Hainaut -->
      <defs>
       <path d="M 9.8125 72.90625 
L 19.671875 72.90625 
L 19.671875 43.015625 
L 55.515625 43.015625 
L 55.515625 72.90625 
L 65.375 72.90625 
L 65.375 0 
L 55.515625 0 
L 55.515625 34.71875 
L 19.671875 34.71875 
L 19.671875 0 
L 9.8125 0 
z
" id="DejaVuSans-48"/>
       <path d="M 9.421875 54.6875 
L 18.40625 54.6875 
L 18.40625 0 
L 9.421875 0 
z
M 9.421875 75.984375 
L 18.40625 75.984375 
L 18.40625 64.59375 
L 9.421875 64.59375 
z
" id="DejaVuSans-69"/>
       <path d="M 8.5 21.578125 
L 8.5 54.6875 
L 17.484375 54.6875 
L 17.484375 21.921875 
Q 17.484375 14.15625 20.5 10.265625 
Q 23.53125 6.390625 29.59375 6.390625 
Q 36.859375 6.390625 41.078125 11.03125 
Q 45.3125 15.671875 45.3125 23.6875 
L 45.3125 54.6875 
L 54.296875 54.6875 
L 54.296875 0 
L 45.3125 0 
L 45.3125 8.40625 
Q 42.046875 3.421875 37.71875 1 
Q 33.40625 -1.421875 27.6875 -1.421875 
Q 18.265625 -1.421875 13.375 4.4375 
Q 8.5 10.296875 8.5 21.578125 
z
M 31.109375 56 
z
" id="DejaVuSans-75"/>
       <path d="M 18.3125 70.21875 
L 18.3125 54.6875 
L 36.8125 54.6875 
L 36.8125 47.703125 
L 18.3125 47.703125 
L 18.3125 18.015625 
Q 18.3125 11.328125 20.140625 9.421875 
Q 21.96875 7.515625 27.59375 7.515625 
L 36.8125 7.515625 
L 36.8125 0 
L 27.59375 0 
Q 17.1875 0 13.234375 3.875 
Q 9.28125 7.765625 9.28125 18.015625 
L 9.28125 47.703125 
L 2.6875 47.703125 
L 2.6875 54.6875 
L 9.28125 54.6875 
L 9.28125 70.21875 
z
" id="DejaVuSans-74"/>
      </defs>
      <g transform="translate(216.585 322.182437)scale(0.1 -0.1)">
       <use xlink:href="#DejaVuSans-48"/>
       <use x="75.195312" xlink:href="#DejaVuSans-61"/>
       <use x="136.474609" xlink:href="#DejaVuSans-69"/>
       <use x="164.257812" xlink:href="#DejaVuSans-6e"/>
       <use x="227.636719" xlink:href="#DejaVuSans-61"/>
       <use x="288.916016" xlink:href="#DejaVuSans-75"/>
       <use x="352.294922" xlink:href="#DejaVuSans-74"/>
      </g>
     </g>
    </g>
    <g id="xtick_6">
     <g id="line2d_6">
      <g>
       <use style="stroke:#000000;stroke-width:0.8;" x="275.84" xlink:href="#mdc05978392" y="307.584"/>
      </g>
     </g>
     <g id="text_6">
      <!-- Lige -->
      <defs>
       <path d="M 9.8125 72.90625 
L 19.671875 72.90625 
L 19.671875 8.296875 
L 55.171875 8.296875 
L 55.171875 0 
L 9.8125 0 
z
" id="DejaVuSans-4c"/>
       <path d="M 56.203125 29.59375 
L 56.203125 25.203125 
L 14.890625 25.203125 
Q 15.484375 15.921875 20.484375 11.0625 
Q 25.484375 6.203125 34.421875 6.203125 
Q 39.59375 6.203125 44.453125 7.46875 
Q 49.3125 8.734375 54.109375 11.28125 
L 54.109375 2.78125 
Q 49.265625 0.734375 44.1875 -0.34375 
Q 39.109375 -1.421875 33.890625 -1.421875 
Q 20.796875 -1.421875 13.15625 6.1875 
Q 5.515625 13.8125 5.515625 26.8125 
Q 5.515625 40.234375 12.765625 48.109375 
Q 20.015625 56 32.328125 56 
Q 43.359375 56 49.78125 48.890625 
Q 56.203125 41.796875 56.203125 29.59375 
z
M 47.21875 32.234375 
Q 47.125 39.59375 43.09375 43.984375 
Q 39.0625 48.390625 32.421875 48.390625 
Q 24.90625 48.390625 20.390625 44.140625 
Q 15.875 39.890625 15.1875 32.171875 
z
M 24.703125 79.984375 
L 38.484375 61.71875 
L 31 61.71875 
L 15.09375 79.984375 
z
" id="DejaVuSans-e8"/>
       <path d="M 45.40625 27.984375 
Q 45.40625 37.75 41.375 43.109375 
Q 37.359375 48.484375 30.078125 48.484375 
Q 22.859375 48.484375 18.828125 43.109375 
Q 14.796875 37.75 14.796875 27.984375 
Q 14.796875 18.265625 18.828125 12.890625 
Q 22.859375 7.515625 30.078125 7.515625 
Q 37.359375 7.515625 41.375 12.890625 
Q 45.40625 18.265625 45.40625 27.984375 
z
M 54.390625 6.78125 
Q 54.390625 -7.171875 48.1875 -13.984375 
Q 42 -20.796875 29.203125 -20.796875 
Q 24.46875 -20.796875 20.265625 -20.09375 
Q 16.0625 -19.390625 12.109375 -17.921875 
L 12.109375 -9.1875 
Q 16.0625 -11.328125 19.921875 -12.34375 
Q 23.78125 -13.375 27.78125 -13.375 
Q 36.625 -13.375 41.015625 -8.765625 
Q 45.40625 -4.15625 45.40625 5.171875 
L 45.40625 9.625 
Q 42.625 4.78125 38.28125 2.390625 
Q 33.9375 0 27.875 0 
Q 17.828125 0 11.671875 7.65625 
Q 5.515625 15.328125 5.515625 27.984375 
Q 5.515625 40.671875 11.671875 48.328125 
Q 17.828125 56 27.875 56 
Q 33.9375 56 38.28125 53.609375 
Q 42.625 51.21875 45.40625 46.390625 
L 45.40625 54.6875 
L 54.390625 54.6875 
z
" id="DejaVuSans-67"/>
       <path d="M 56.203125 29.59375 
L 56.203125 25.203125 
L 14.890625 25.203125 
Q 15.484375 15.921875 20.484375 11.0625 
Q 25.484375 6.203125 34.421875 6.203125 
Q 39.59375 6.203125 44.453125 7.46875 
Q 49.3125 8.734375 54.109375 11.28125 
L 54.109375 2.78125 
Q 49.265625 0.734375 44.1875 -0.34375 
Q 39.109375 -1.421875 33.890625 -1.421875 
Q 20.796875 -1.421875 13.15625 6.1875 
Q 5.515625 13.8125 5.515625 26.8125 
Q 5.515625 40.234375 12.765625 48.109375 
Q 20.015625 56 32.328125 56 
Q 43.359375 56 49.78125 48.890625 
Q 56.203125 41.796875 56.203125 29.59375 
z
M 47.21875 32.234375 
Q 47.125 39.59375 43.09375 43.984375 
Q 39.0625 48.390625 32.421875 48.390625 
Q 24.90625 48.390625 20.390625 44.140625 
Q 15.875 39.890625 15.1875 32.171875 
z
" id="DejaVuSans-65"/>
      </defs>
      <g transform="translate(262.337656 322.582437)scale(0.1 -0.1)">
       <use xlink:href="#DejaVuSans-4c"/>
       <use x="55.712891" xlink:href="#DejaVuSans-69"/>
       <use x="83.496094" xlink:href="#DejaVuSans-e8"/>
       <use x="145.019531" xlink:href="#DejaVuSans-67"/>
       <use x="208.496094" xlink:href="#DejaVuSans-65"/>
      </g>
     </g>
    </g>
    <g id="xtick_7">
     <g id="line2d_7">
      <g>
       <use style="stroke:#000000;stroke-width:0.8;" x="315.52" xlink:href="#mdc05978392" y="307.584"/>
      </g>
     </g>
     <g id="text_7">
      <!-- Limb. -->
      <defs>
       <path d="M 52 44.1875 
Q 55.375 50.25 60.0625 53.125 
Q 64.75 56 71.09375 56 
Q 79.640625 56 84.28125 50.015625 
Q 88.921875 44.046875 88.921875 33.015625 
L 88.921875 0 
L 79.890625 0 
L 79.890625 32.71875 
Q 79.890625 40.578125 77.09375 44.375 
Q 74.3125 48.1875 68.609375 48.1875 
Q 61.625 48.1875 57.5625 43.546875 
Q 53.515625 38.921875 53.515625 30.90625 
L 53.515625 0 
L 44.484375 0 
L 44.484375 32.71875 
Q 44.484375 40.625 41.703125 44.40625 
Q 38.921875 48.1875 33.109375 48.1875 
Q 26.21875 48.1875 22.15625 43.53125 
Q 18.109375 38.875 18.109375 30.90625 
L 18.109375 0 
L 9.078125 0 
L 9.078125 54.6875 
L 18.109375 54.6875 
L 18.109375 46.1875 
Q 21.1875 51.21875 25.484375 53.609375 
Q 29.78125 56 35.6875 56 
Q 41.65625 56 45.828125 52.96875 
Q 50 49.953125 52 44.1875 
z
" id="DejaVuSans-6d"/>
      </defs>
      <g transform="translate(301.711406 322.182437)scale(0.1 -0.1)">
       <use xlink:href="#DejaVuSans-4c"/>
       <use x="55.712891" xlink:href="#DejaVuSans-69"/>
       <use x="83.496094" xlink:href="#DejaVuSans-6d"/>
       <use x="180.908203" xlink:href="#DejaVuSans-62"/>
       <use x="244.384766" xlink:href="#DejaVuSans-2e"/>
      </g>
     </g>
    </g>
    <g id="xtick_8">
     <g id="line2d_8">
      <g>
       <use style="stroke:#000000;stroke-width:0.8;" x="355.2" xlink:href="#mdc05978392" y="307.584"/>
      </g>
     </g>
     <g id="text_8">
      <!-- Lux. -->
      <defs>
       <path d="M 54.890625 54.6875 
L 35.109375 28.078125 
L 55.90625 0 
L 45.3125 0 
L 29.390625 21.484375 
L 13.484375 0 
L 2.875 0 
L 24.125 28.609375 
L 4.6875 54.6875 
L 15.28125 54.6875 
L 29.78125 35.203125 
L 44.28125 54.6875 
z
" id="DejaVuSans-78"/>
      </defs>
      <g transform="translate(344.697656 322.182437)scale(0.1 -0.1)">
       <use xlink:href="#DejaVuSans-4c"/>
       <use x="55.697266" xlink:href="#DejaVuSans-75"/>
       <use x="119.076172" xlink:href="#DejaVuSans-78"/>
       <use x="178.255859" xlink:href="#DejaVuSans-2e"/>
      </g>
     </g>
    </g>
    <g id="xtick_9">
     <g id="line2d_9">
      <g>
       <use style="stroke:#000000;stroke-width:0.8;" x="394.88" xlink:href="#mdc05978392" y="307.584"/>
      </g>
     </g>
     <g id="text_9">
      <!-- Namur -->
      <defs>
       <path d="M 9.8125 72.90625 
L 23.09375 72.90625 
L 55.421875 11.921875 
L 55.421875 72.90625 
L 64.984375 72.90625 
L 64.984375 0 
L 51.703125 0 
L 19.390625 60.984375 
L 19.390625 0 
L 9.8125 0 
z
" id="DejaVuSans-4e"/>
      </defs>
      <g transform="translate(377.980781 322.182437)scale(0.1 -0.1)">
       <use xlink:href="#DejaVuSans-4e"/>
       <use x="74.804688" xlink:href="#DejaVuSans-61"/>
       <use x="136.083984" xlink:href="#DejaVuSans-6d"/>
       <use x="233.496094" xlink:href="#DejaVuSans-75"/>
       <use x="296.875" xlink:href="#DejaVuSans-72"/>
      </g>
     </g>
    </g>
    <g id="text_10">
     <!-- Province -->
     <defs>
      <path d="M 19.671875 64.796875 
L 19.671875 37.40625 
L 32.078125 37.40625 
Q 38.96875 37.40625 42.71875 40.96875 
Q 46.484375 44.53125 46.484375 51.125 
Q 46.484375 57.671875 42.71875 61.234375 
Q 38.96875 64.796875 32.078125 64.796875 
z
M 9.8125 72.90625 
L 32.078125 72.90625 
Q 44.34375 72.90625 50.609375 67.359375 
Q 56.890625 61.8125 56.890625 51.125 
Q 56.890625 40.328125 50.609375 34.8125 
Q 44.34375 29.296875 32.078125 29.296875 
L 19.671875 29.296875 
L 19.671875 0 
L 9.8125 0 
z
" id="DejaVuSans-50"/>
     </defs>
     <g transform="translate(214.689687 336.260562)scale(0.1 -0.1)">
      <use xlink:href="#DejaVuSans-50"/>
      <use x="60.287109" xlink:href="#DejaVuSans-72"/>
      <use x="101.369141" xlink:href="#DejaVuSans-6f"/>
      <use x="162.550781" xlink:href="#DejaVuSans-76"/>
      <use x="221.730469" xlink:href="#DejaVuSans-69"/>
      <use x="249.513672" xlink:href="#DejaVuSans-6e"/>
      <use x="312.892578" xlink:href="#DejaVuSans-63"/>
      <use x="367.873047" xlink:href="#DejaVuSans-65"/>
     </g>
    </g>
   </g>
   <g id="matplotlib.axis_2">
    <g id="ytick_1">
     <g id="line2d_10">
      <defs>
       <path d="M 0 0 
L -3.5 0 
" id="m959ce5da2f" style="stroke:#000000;stroke-width:0.8;"/>
      </defs>
      <g>
       <use style="stroke:#000000;stroke-width:0.8;" x="57.6" xlink:href="#m959ce5da2f" y="286.486242"/>
      </g>
     </g>
     <g id="text_11">
      <!-- 12000 -->
      <defs>
       <path d="M 12.40625 8.296875 
L 28.515625 8.296875 
L 28.515625 63.921875 
L 10.984375 60.40625 
L 10.984375 69.390625 
L 28.421875 72.90625 
L 38.28125 72.90625 
L 38.28125 8.296875 
L 54.390625 8.296875 
L 54.390625 0 
L 12.40625 0 
z
" id="DejaVuSans-31"/>
       <path d="M 19.1875 8.296875 
L 53.609375 8.296875 
L 53.609375 0 
L 7.328125 0 
L 7.328125 8.296875 
Q 12.9375 14.109375 22.625 23.890625 
Q 32.328125 33.6875 34.8125 36.53125 
Q 39.546875 41.84375 41.421875 45.53125 
Q 43.3125 49.21875 43.3125 52.78125 
Q 43.3125 58.59375 39.234375 62.25 
Q 35.15625 65.921875 28.609375 65.921875 
Q 23.96875 65.921875 18.8125 64.3125 
Q 13.671875 62.703125 7.8125 59.421875 
L 7.8125 69.390625 
Q 13.765625 71.78125 18.9375 73 
Q 24.125 74.21875 28.421875 74.21875 
Q 39.75 74.21875 46.484375 68.546875 
Q 53.21875 62.890625 53.21875 53.421875 
Q 53.21875 48.921875 51.53125 44.890625 
Q 49.859375 40.875 45.40625 35.40625 
Q 44.1875 33.984375 37.640625 27.21875 
Q 31.109375 20.453125 19.1875 8.296875 
z
" id="DejaVuSans-32"/>
       <path d="M 31.78125 66.40625 
Q 24.171875 66.40625 20.328125 58.90625 
Q 16.5 51.421875 16.5 36.375 
Q 16.5 21.390625 20.328125 13.890625 
Q 24.171875 6.390625 31.78125 6.390625 
Q 39.453125 6.390625 43.28125 13.890625 
Q 47.125 21.390625 47.125 36.375 
Q 47.125 51.421875 43.28125 58.90625 
Q 39.453125 66.40625 31.78125 66.40625 
z
M 31.78125 74.21875 
Q 44.046875 74.21875 50.515625 64.515625 
Q 56.984375 54.828125 56.984375 36.375 
Q 56.984375 17.96875 50.515625 8.265625 
Q 44.046875 -1.421875 31.78125 -1.421875 
Q 19.53125 -1.421875 13.0625 8.265625 
Q 6.59375 17.96875 6.59375 36.375 
Q 6.59375 54.828125 13.0625 64.515625 
Q 19.53125 74.21875 31.78125 74.21875 
z
" id="DejaVuSans-30"/>
      </defs>
      <g transform="translate(18.7875 290.285461)scale(0.1 -0.1)">
       <use xlink:href="#DejaVuSans-31"/>
       <use x="63.623047" xlink:href="#DejaVuSans-32"/>
       <use x="127.246094" xlink:href="#DejaVuSans-30"/>
       <use x="190.869141" xlink:href="#DejaVuSans-30"/>
       <use x="254.492188" xlink:href="#DejaVuSans-30"/>
      </g>
     </g>
    </g>
    <g id="ytick_2">
     <g id="line2d_11">
      <g>
       <use style="stroke:#000000;stroke-width:0.8;" x="57.6" xlink:href="#m959ce5da2f" y="254.860947"/>
      </g>
     </g>
     <g id="text_12">
      <!-- 14000 -->
      <defs>
       <path d="M 37.796875 64.3125 
L 12.890625 25.390625 
L 37.796875 25.390625 
z
M 35.203125 72.90625 
L 47.609375 72.90625 
L 47.609375 25.390625 
L 58.015625 25.390625 
L 58.015625 17.1875 
L 47.609375 17.1875 
L 47.609375 0 
L 37.796875 0 
L 37.796875 17.1875 
L 4.890625 17.1875 
L 4.890625 26.703125 
z
" id="DejaVuSans-34"/>
      </defs>
      <g transform="translate(18.7875 258.660166)scale(0.1 -0.1)">
       <use xlink:href="#DejaVuSans-31"/>
       <use x="63.623047" xlink:href="#DejaVuSans-34"/>
       <use x="127.246094" xlink:href="#DejaVuSans-30"/>
       <use x="190.869141" xlink:href="#DejaVuSans-30"/>
       <use x="254.492188" xlink:href="#DejaVuSans-30"/>
      </g>
     </g>
    </g>
    <g id="ytick_3">
     <g id="line2d_12">
      <g>
       <use style="stroke:#000000;stroke-width:0.8;" x="57.6" xlink:href="#m959ce5da2f" y="223.235652"/>
      </g>
     </g>
     <g id="text_13">
      <!-- 16000 -->
      <defs>
       <path d="M 33.015625 40.375 
Q 26.375 40.375 22.484375 35.828125 
Q 18.609375 31.296875 18.609375 23.390625 
Q 18.609375 15.53125 22.484375 10.953125 
Q 26.375 6.390625 33.015625 6.390625 
Q 39.65625 6.390625 43.53125 10.953125 
Q 47.40625 15.53125 47.40625 23.390625 
Q 47.40625 31.296875 43.53125 35.828125 
Q 39.65625 40.375 33.015625 40.375 
z
M 52.59375 71.296875 
L 52.59375 62.3125 
Q 48.875 64.0625 45.09375 64.984375 
Q 41.3125 65.921875 37.59375 65.921875 
Q 27.828125 65.921875 22.671875 59.328125 
Q 17.53125 52.734375 16.796875 39.40625 
Q 19.671875 43.65625 24.015625 45.921875 
Q 28.375 48.1875 33.59375 48.1875 
Q 44.578125 48.1875 50.953125 41.515625 
Q 57.328125 34.859375 57.328125 23.390625 
Q 57.328125 12.15625 50.6875 5.359375 
Q 44.046875 -1.421875 33.015625 -1.421875 
Q 20.359375 -1.421875 13.671875 8.265625 
Q 6.984375 17.96875 6.984375 36.375 
Q 6.984375 53.65625 15.1875 63.9375 
Q 23.390625 74.21875 37.203125 74.21875 
Q 40.921875 74.21875 44.703125 73.484375 
Q 48.484375 72.75 52.59375 71.296875 
z
" id="DejaVuSans-36"/>
      </defs>
      <g transform="translate(18.7875 227.03487)scale(0.1 -0.1)">
       <use xlink:href="#DejaVuSans-31"/>
       <use x="63.623047" xlink:href="#DejaVuSans-36"/>
       <use x="127.246094" xlink:href="#DejaVuSans-30"/>
       <use x="190.869141" xlink:href="#DejaVuSans-30"/>
       <use x="254.492188" xlink:href="#DejaVuSans-30"/>
      </g>
     </g>
    </g>
    <g id="ytick_4">
     <g id="line2d_13">
      <g>
       <use style="stroke:#000000;stroke-width:0.8;" x="57.6" xlink:href="#m959ce5da2f" y="191.610357"/>
      </g>
     </g>
     <g id="text_14">
      <!-- 18000 -->
      <defs>
       <path d="M 31.78125 34.625 
Q 24.75 34.625 20.71875 30.859375 
Q 16.703125 27.09375 16.703125 20.515625 
Q 16.703125 13.921875 20.71875 10.15625 
Q 24.75 6.390625 31.78125 6.390625 
Q 38.8125 6.390625 42.859375 10.171875 
Q 46.921875 13.96875 46.921875 20.515625 
Q 46.921875 27.09375 42.890625 30.859375 
Q 38.875 34.625 31.78125 34.625 
z
M 21.921875 38.8125 
Q 15.578125 40.375 12.03125 44.71875 
Q 8.5 49.078125 8.5 55.328125 
Q 8.5 64.0625 14.71875 69.140625 
Q 20.953125 74.21875 31.78125 74.21875 
Q 42.671875 74.21875 48.875 69.140625 
Q 55.078125 64.0625 55.078125 55.328125 
Q 55.078125 49.078125 51.53125 44.71875 
Q 48 40.375 41.703125 38.8125 
Q 48.828125 37.15625 52.796875 32.3125 
Q 56.78125 27.484375 56.78125 20.515625 
Q 56.78125 9.90625 50.3125 4.234375 
Q 43.84375 -1.421875 31.78125 -1.421875 
Q 19.734375 -1.421875 13.25 4.234375 
Q 6.78125 9.90625 6.78125 20.515625 
Q 6.78125 27.484375 10.78125 32.3125 
Q 14.796875 37.15625 21.921875 38.8125 
z
M 18.3125 54.390625 
Q 18.3125 48.734375 21.84375 45.5625 
Q 25.390625 42.390625 31.78125 42.390625 
Q 38.140625 42.390625 41.71875 45.5625 
Q 45.3125 48.734375 45.3125 54.390625 
Q 45.3125 60.0625 41.71875 63.234375 
Q 38.140625 66.40625 31.78125 66.40625 
Q 25.390625 66.40625 21.84375 63.234375 
Q 18.3125 60.0625 18.3125 54.390625 
z
" id="DejaVuSans-38"/>
      </defs>
      <g transform="translate(18.7875 195.409575)scale(0.1 -0.1)">
       <use xlink:href="#DejaVuSans-31"/>
       <use x="63.623047" xlink:href="#DejaVuSans-38"/>
       <use x="127.246094" xlink:href="#DejaVuSans-30"/>
       <use x="190.869141" xlink:href="#DejaVuSans-30"/>
       <use x="254.492188" xlink:href="#DejaVuSans-30"/>
      </g>
     </g>
    </g>
    <g id="ytick_5">
     <g id="line2d_14">
      <g>
       <use style="stroke:#000000;stroke-width:0.8;" x="57.6" xlink:href="#m959ce5da2f" y="159.985061"/>
      </g>
     </g>
     <g id="text_15">
      <!-- 20000 -->
      <g transform="translate(18.7875 163.78428)scale(0.1 -0.1)">
       <use xlink:href="#DejaVuSans-32"/>
       <use x="63.623047" xlink:href="#DejaVuSans-30"/>
       <use x="127.246094" xlink:href="#DejaVuSans-30"/>
       <use x="190.869141" xlink:href="#DejaVuSans-30"/>
       <use x="254.492188" xlink:href="#DejaVuSans-30"/>
      </g>
     </g>
    </g>
    <g id="ytick_6">
     <g id="line2d_15">
      <g>
       <use style="stroke:#000000;stroke-width:0.8;" x="57.6" xlink:href="#m959ce5da2f" y="128.359766"/>
      </g>
     </g>
     <g id="text_16">
      <!-- 22000 -->
      <g transform="translate(18.7875 132.158985)scale(0.1 -0.1)">
       <use xlink:href="#DejaVuSans-32"/>
       <use x="63.623047" xlink:href="#DejaVuSans-32"/>
       <use x="127.246094" xlink:href="#DejaVuSans-30"/>
       <use x="190.869141" xlink:href="#DejaVuSans-30"/>
       <use x="254.492188" xlink:href="#DejaVuSans-30"/>
      </g>
     </g>
    </g>
    <g id="ytick_7">
     <g id="line2d_16">
      <g>
       <use style="stroke:#000000;stroke-width:0.8;" x="57.6" xlink:href="#m959ce5da2f" y="96.734471"/>
      </g>
     </g>
     <g id="text_17">
      <!-- 24000 -->
      <g transform="translate(18.7875 100.53369)scale(0.1 -0.1)">
       <use xlink:href="#DejaVuSans-32"/>
       <use x="63.623047" xlink:href="#DejaVuSans-34"/>
       <use x="127.246094" xlink:href="#DejaVuSans-30"/>
       <use x="190.869141" xlink:href="#DejaVuSans-30"/>
       <use x="254.492188" xlink:href="#DejaVuSans-30"/>
      </g>
     </g>
    </g>
    <g id="ytick_8">
     <g id="line2d_17">
      <g>
       <use style="stroke:#000000;stroke-width:0.8;" x="57.6" xlink:href="#m959ce5da2f" y="65.109176"/>
      </g>
     </g>
     <g id="text_18">
      <!-- 26000 -->
      <g transform="translate(18.7875 68.908395)scale(0.1 -0.1)">
       <use xlink:href="#DejaVuSans-32"/>
       <use x="63.623047" xlink:href="#DejaVuSans-36"/>
       <use x="127.246094" xlink:href="#DejaVuSans-30"/>
       <use x="190.869141" xlink:href="#DejaVuSans-30"/>
       <use x="254.492188" xlink:href="#DejaVuSans-30"/>
      </g>
     </g>
    </g>
    <g id="text_19">
     <!-- medianincome -->
     <defs>
      <path d="M 45.40625 46.390625 
L 45.40625 75.984375 
L 54.390625 75.984375 
L 54.390625 0 
L 45.40625 0 
L 45.40625 8.203125 
Q 42.578125 3.328125 38.25 0.953125 
Q 33.9375 -1.421875 27.875 -1.421875 
Q 17.96875 -1.421875 11.734375 6.484375 
Q 5.515625 14.40625 5.515625 27.296875 
Q 5.515625 40.1875 11.734375 48.09375 
Q 17.96875 56 27.875 56 
Q 33.9375 56 38.25 53.625 
Q 42.578125 51.265625 45.40625 46.390625 
z
M 14.796875 27.296875 
Q 14.796875 17.390625 18.875 11.75 
Q 22.953125 6.109375 30.078125 6.109375 
Q 37.203125 6.109375 41.296875 11.75 
Q 45.40625 17.390625 45.40625 27.296875 
Q 45.40625 37.203125 41.296875 42.84375 
Q 37.203125 48.484375 30.078125 48.484375 
Q 22.953125 48.484375 18.875 42.84375 
Q 14.796875 37.203125 14.796875 27.296875 
z
" id="DejaVuSans-64"/>
     </defs>
     <g transform="translate(12.707812 211.58425)rotate(-90)scale(0.1 -0.1)">
      <use xlink:href="#DejaVuSans-6d"/>
      <use x="97.412109" xlink:href="#DejaVuSans-65"/>
      <use x="158.935547" xlink:href="#DejaVuSans-64"/>
      <use x="222.412109" xlink:href="#DejaVuSans-69"/>
      <use x="250.195312" xlink:href="#DejaVuSans-61"/>
      <use x="311.474609" xlink:href="#DejaVuSans-6e"/>
      <use x="374.853516" xlink:href="#DejaVuSans-69"/>
      <use x="402.636719" xlink:href="#DejaVuSans-6e"/>
      <use x="466.015625" xlink:href="#DejaVuSans-63"/>
      <use x="520.996094" xlink:href="#DejaVuSans-6f"/>
      <use x="582.177734" xlink:href="#DejaVuSans-6d"/>
      <use x="679.589844" xlink:href="#DejaVuSans-65"/>
     </g>
    </g>
   </g>
   <g id="line2d_18">
    <path clip-path="url(#p162e96854f)" d="M 77.44 188.669204 
L 77.44 122.003082 
" style="fill:none;stroke:#3d3d3d;stroke-linecap:square;stroke-width:1.5;"/>
   </g>
   <g id="line2d_19">
    <path clip-path="url(#p162e96854f)" d="M 77.44 162.590195 
L 77.44 139.930671 
" style="fill:none;stroke:#3d3d3d;stroke-linecap:square;stroke-width:4.5;"/>
   </g>
   <g id="line2d_20">
    <path clip-path="url(#p162e96854f)" d="M 117.12 226.224242 
L 117.12 79.024306 
" style="fill:none;stroke:#3d3d3d;stroke-linecap:square;stroke-width:1.5;"/>
   </g>
   <g id="line2d_21">
    <path clip-path="url(#p162e96854f)" d="M 117.12 163.985661 
L 117.12 121.781705 
" style="fill:none;stroke:#3d3d3d;stroke-linecap:square;stroke-width:4.5;"/>
   </g>
   <g id="line2d_22">
    <path clip-path="url(#p162e96854f)" d="M 156.8 236.107147 
L 156.8 133.704441 
" style="fill:none;stroke:#3d3d3d;stroke-linecap:square;stroke-width:1.5;"/>
   </g>
   <g id="line2d_23">
    <path clip-path="url(#p162e96854f)" d="M 156.8 192.705382 
L 156.8 159.328836 
" style="fill:none;stroke:#3d3d3d;stroke-linecap:square;stroke-width:4.5;"/>
   </g>
   <g id="line2d_24">
    <path clip-path="url(#p162e96854f)" d="M 196.48 189.364961 
L 196.48 122.35096 
" style="fill:none;stroke:#3d3d3d;stroke-linecap:square;stroke-width:1.5;"/>
   </g>
   <g id="line2d_25">
    <path clip-path="url(#p162e96854f)" d="M 196.48 165.756678 
L 196.48 143.587346 
" style="fill:none;stroke:#3d3d3d;stroke-linecap:square;stroke-width:4.5;"/>
   </g>
   <g id="line2d_26">
    <path clip-path="url(#p162e96854f)" d="M 236.16 257.153781 
L 236.16 146.291309 
" style="fill:none;stroke:#3d3d3d;stroke-linecap:square;stroke-width:1.5;"/>
   </g>
   <g id="line2d_27">
    <path clip-path="url(#p162e96854f)" d="M 236.16 219.82012 
L 236.16 185.048108 
" style="fill:none;stroke:#3d3d3d;stroke-linecap:square;stroke-width:4.5;"/>
   </g>
   <g id="line2d_28">
    <path clip-path="url(#p162e96854f)" d="M 275.84 223.093338 
L 275.84 120.453442 
" style="fill:none;stroke:#3d3d3d;stroke-linecap:square;stroke-width:1.5;"/>
   </g>
   <g id="line2d_29">
    <path clip-path="url(#p162e96854f)" d="M 275.84 185.392033 
L 275.84 158.368218 
" style="fill:none;stroke:#3d3d3d;stroke-linecap:square;stroke-width:4.5;"/>
   </g>
   <g id="line2d_30">
    <path clip-path="url(#p162e96854f)" d="M 315.52 210.538096 
L 315.52 144.963046 
" style="fill:none;stroke:#3d3d3d;stroke-linecap:square;stroke-width:1.5;"/>
   </g>
   <g id="line2d_31">
    <path clip-path="url(#p162e96854f)" d="M 315.52 180.901241 
L 315.52 160.309221 
" style="fill:none;stroke:#3d3d3d;stroke-linecap:square;stroke-width:4.5;"/>
   </g>
   <g id="line2d_32">
    <path clip-path="url(#p162e96854f)" d="M 355.2 262.024076 
L 355.2 119.66281 
" style="fill:none;stroke:#3d3d3d;stroke-linecap:square;stroke-width:1.5;"/>
   </g>
   <g id="line2d_33">
    <path clip-path="url(#p162e96854f)" d="M 355.2 219.065066 
L 355.2 171.401793 
" style="fill:none;stroke:#3d3d3d;stroke-linecap:square;stroke-width:4.5;"/>
   </g>
   <g id="line2d_34">
    <path clip-path="url(#p162e96854f)" d="M 394.88 227.457629 
L 394.88 135.681022 
" style="fill:none;stroke:#3d3d3d;stroke-linecap:square;stroke-width:1.5;"/>
   </g>
   <g id="line2d_35">
    <path clip-path="url(#p162e96854f)" d="M 394.88 198.793252 
L 394.88 161.728406 
" style="fill:none;stroke:#3d3d3d;stroke-linecap:square;stroke-width:4.5;"/>
   </g>
   <g id="patch_3">
    <path d="M 57.6 307.584 
L 57.6 41.472 
" style="fill:none;stroke:#000000;stroke-linecap:square;stroke-linejoin:miter;stroke-width:0.8;"/>
   </g>
   <g id="patch_4">
    <path d="M 414.72 307.584 
L 414.72 41.472 
" style="fill:none;stroke:#000000;stroke-linecap:square;stroke-linejoin:miter;stroke-width:0.8;"/>
   </g>
   <g id="patch_5">
    <path d="M 57.6 307.584 
L 414.72 307.584 
" style="fill:none;stroke:#000000;stroke-linecap:square;stroke-linejoin:miter;stroke-width:0.8;"/>
   </g>
   <g id="patch_6">
    <path d="M 57.6 41.472 
L 414.72 41.472 
" style="fill:none;stroke:#000000;stroke-linecap:square;stroke-linejoin:miter;stroke-width:0.8;"/>
   </g>
   <g id="PathCollection_1">
    <defs>
     <path d="M 0 1.5 
C 0.397805 1.5 0.77937 1.341951 1.06066 1.06066 
C 1.341951 0.77937 1.5 0.397805 1.5 0 
C 1.5 -0.397805 1.341951 -0.77937 1.06066 -1.06066 
C 0.77937 -1.341951 0.397805 -1.5 0 -1.5 
C -0.397805 -1.5 -0.77937 -1.341951 -1.06066 -1.06066 
C -1.341951 -0.77937 -1.5 -0.397805 -1.5 0 
C -1.5 0.397805 -1.341951 0.77937 -1.06066 1.06066 
C -0.77937 1.341951 -0.397805 1.5 0 1.5 
z
" id="m463e0fae49" style="stroke:#3d3d3d;"/>
    </defs>
    <g clip-path="url(#p162e96854f)">
     <use style="fill:#ffffff;stroke:#3d3d3d;" x="77.44" xlink:href="#m463e0fae49" y="153.304218"/>
    </g>
   </g>
   <g id="PathCollection_2">
    <g clip-path="url(#p162e96854f)">
     <use style="fill:#ffffff;stroke:#3d3d3d;" x="117.12" xlink:href="#m463e0fae49" y="143.033903"/>
    </g>
   </g>
   <g id="PathCollection_3">
    <g clip-path="url(#p162e96854f)">
     <use style="fill:#ffffff;stroke:#3d3d3d;" x="156.8" xlink:href="#m463e0fae49" y="172.983058"/>
    </g>
   </g>
   <g id="PathCollection_4">
    <g clip-path="url(#p162e96854f)">
     <use style="fill:#ffffff;stroke:#3d3d3d;" x="196.48" xlink:href="#m463e0fae49" y="153.660002"/>
    </g>
   </g>
   <g id="PathCollection_5">
    <g clip-path="url(#p162e96854f)">
     <use style="fill:#ffffff;stroke:#3d3d3d;" x="236.16" xlink:href="#m463e0fae49" y="201.619762"/>
    </g>
   </g>
   <g id="PathCollection_6">
    <g clip-path="url(#p162e96854f)">
     <use style="fill:#ffffff;stroke:#3d3d3d;" x="275.84" xlink:href="#m463e0fae49" y="168.436921"/>
    </g>
   </g>
   <g id="PathCollection_7">
    <g clip-path="url(#p162e96854f)">
     <use style="fill:#ffffff;stroke:#3d3d3d;" x="315.52" xlink:href="#m463e0fae49" y="170.508378"/>
    </g>
   </g>
   <g id="PathCollection_8">
    <g clip-path="url(#p162e96854f)">
     <use style="fill:#ffffff;stroke:#3d3d3d;" x="355.2" xlink:href="#m463e0fae49" y="194.923106"/>
    </g>
   </g>
   <g id="PathCollection_9">
    <g clip-path="url(#p162e96854f)">
     <use style="fill:#ffffff;stroke:#3d3d3d;" x="394.88" xlink:href="#m463e0fae49" y="188.724548"/>
    </g>
   </g>
  </g>
 </g>
 <defs>
  <clipPath id="p162e96854f">
   <rect height="266.112" width="357.12" x="57.6" y="41.472"/>
  </clipPath>
 </defs>
</svg>
